M48
; DRILL file {KiCad (5.1.5)-3} date 17.03.2020 22:18:26
; FORMAT={-:-/ absolute / inch / decimal}
; #@! TF.CreationDate,2020-03-17T22:18:26+01:00
; #@! TF.GenerationSoftware,Kicad,Pcbnew,(5.1.5)-3
; #@! TF.FileFunction,Plated,1,2,PTH
FMAT,2
INCH
T1C0.0157
T2C0.0315
T3C0.0394
T4C0.0409
T5C0.0433
T6C0.0787
T7C0.1260
%
G90
G05
T1
X6.85Y-2.55
X6.85Y-2.95
X6.85Y-4.4
X6.85Y-5.1
X6.85Y-5.45
X7.0Y-4.6
X7.1Y-3.8
X7.2Y-5.7
X7.2356Y-3.5543
X7.25Y-3.2
X7.5422Y-3.6669
X7.5684Y-3.8266
X7.5788Y-3.7775
X7.6557Y-4.3303
X7.7Y-3.0
X7.7Y-3.95
X7.75Y-4.9
X7.8Y-5.15
X7.9874Y-4.6237
X8.0431Y-4.047
X8.05Y-3.1
X8.1Y-2.65
X8.1269Y-4.7067
X8.15Y-5.65
X8.1636Y-4.7808
X8.25Y-3.1
X8.25Y-4.2
X8.3927Y-3.8925
X8.5336Y-5.2235
X8.65Y-5.75
X8.85Y-4.6
X9.0Y-5.6
X9.05Y-2.8
X9.05Y-3.1
X9.05Y-4.35
X9.05Y-4.6
X9.0988Y-3.8565
T2
X7.3Y-3.3622
X7.3Y-3.5
X7.0398Y-2.8
X7.0398Y-2.9
X7.15Y-2.8
X7.15Y-2.9
X7.05Y-5.3
X7.05Y-5.4
X7.1602Y-5.3
X7.1602Y-5.4
X7.3Y-2.35
X7.3Y-2.45
X7.4102Y-2.35
X7.4102Y-2.45
X8.4898Y-2.35
X8.4898Y-2.45
X8.6Y-2.35
X8.6Y-2.45
X8.7398Y-2.8
X8.7398Y-2.9
X8.85Y-2.8
X8.85Y-2.9
X7.3Y-3.95
X7.3Y-4.05
X7.3Y-4.15
X7.3Y-4.25
X7.3Y-4.35
X7.3Y-4.45
X7.3Y-4.55
X7.3Y-4.65
X8.1Y-2.35
X8.1Y-2.45
X8.2102Y-2.35
X8.2102Y-2.45
X7.6898Y-2.35
X7.6898Y-2.45
X7.8Y-2.35
X7.8Y-2.45
X8.75Y-5.3
X8.75Y-5.4
X8.8602Y-5.3
X8.8602Y-5.4
X6.7974Y-3.5754
X6.8974Y-3.4754
X6.9974Y-3.5754
T3
X7.05Y-2.4
X7.05Y-3.3
X8.85Y-4.9
X8.85Y-5.8
X8.85Y-2.4
X8.85Y-3.3
X8.6Y-3.45
X8.6Y-4.05
X8.7Y-3.45
X8.7Y-4.05
X8.8Y-3.45
X8.8Y-4.05
X8.9Y-3.45
X8.9Y-4.05
X9.0Y-3.45
X9.0Y-4.05
X9.1Y-3.45
X9.1Y-4.05
X7.05Y-4.9
X7.05Y-5.8
X6.75Y-3.85
X6.75Y-4.75
X6.85Y-3.85
X7.2Y-3.85
X7.3Y-3.85
X7.3Y-4.75
X8.6Y-4.15
X8.6Y-4.75
X8.7Y-4.15
X8.7Y-4.75
X8.8Y-4.15
X8.8Y-4.75
X8.9Y-4.15
X8.9Y-4.75
X9.0Y-4.15
X9.0Y-4.75
X9.1Y-4.15
X9.1Y-4.75
X8.45Y-3.45
X8.45Y-3.55
T4
X7.45Y-3.95
X7.45Y-4.05
X7.45Y-4.15
X7.45Y-4.25
X7.45Y-4.35
X7.45Y-4.45
X7.45Y-4.55
X7.45Y-4.65
X7.45Y-4.75
X7.45Y-4.85
X7.45Y-4.95
X7.45Y-5.05
X7.45Y-5.15
X7.45Y-5.25
X7.45Y-5.35
X7.45Y-5.45
X7.45Y-5.55
X7.45Y-5.65
X7.45Y-5.75
X8.45Y-3.95
X8.45Y-4.05
X8.45Y-4.15
X8.45Y-4.25
X8.45Y-4.35
X8.45Y-4.45
X8.45Y-4.55
X8.45Y-4.65
X8.45Y-4.75
X8.45Y-4.85
X8.45Y-4.95
X8.45Y-5.05
X8.45Y-5.15
X8.45Y-5.25
X8.45Y-5.35
X8.45Y-5.45
X8.45Y-5.55
X8.45Y-5.65
X8.45Y-5.75
T5
X7.6441Y-2.55
X7.6441Y-2.7272
X7.9Y-2.55
X7.9Y-2.7272
X8.0Y-2.55
X8.0Y-2.7272
X8.2559Y-2.55
X8.2559Y-2.7272
T6
X7.95Y-2.9154
X7.95Y-5.75
T7
X6.85Y-4.0
X6.85Y-4.6
X6.85Y-2.4
X6.85Y-3.3
X7.05Y-2.575
X7.05Y-3.125
X8.85Y-5.075
X8.85Y-5.625
X9.05Y-4.9
X9.05Y-5.8
X8.85Y-2.575
X8.85Y-3.125
X9.05Y-2.4
X9.05Y-3.3
X6.85Y-4.9
X6.85Y-5.8
X7.05Y-5.075
X7.05Y-5.625
T0
M30
