M48
; DRILL file {KiCad (5.1.5)-3} date 20.03.2020 16:20:42
; FORMAT={-:-/ absolute / inch / decimal}
; #@! TF.CreationDate,2020-03-20T16:20:42+01:00
; #@! TF.GenerationSoftware,Kicad,Pcbnew,(5.1.5)-3
; #@! TF.FileFunction,Plated,1,2,PTH
FMAT,2
INCH
T1C0.0157
T2C0.0315
T3C0.0394
T4C0.0409
T5C0.0433
T6C0.0787
T7C0.1260
%
G90
G05
T1
X6.85Y-4.4
X6.9Y-2.65
X6.9Y-5.1
X7.0Y-4.75
X7.1067Y-2.9424
X7.15Y-3.7
X7.15Y-5.75
X7.2Y-3.25
X7.3Y-2.75
X7.3Y-2.95
X7.5006Y-3.0767
X7.5657Y-3.7608
X7.6017Y-3.812
X7.6459Y-3.775
X7.65Y-5.7
X7.6922Y-4.2863
X7.6973Y-3.1646
X7.7Y-5.55
X7.85Y-4.15
X7.85Y-5.0
X7.9Y-3.9
X7.9644Y-4.685
X8.0131Y-4.7549
X8.0416Y-4.6456
X8.15Y-5.55
X8.1543Y-4.1667
X8.1584Y-4.3357
X8.2304Y-5.0711
X8.25Y-4.0
X8.4867Y-3.3928
X8.5667Y-3.7275
X8.65Y-3.05
X8.7Y-3.7011
X8.75Y-4.95
X8.85Y-3.65
X8.999Y-3.5438
X9.0Y-2.55
X9.0Y-2.9
X9.0Y-4.6
X9.1Y-4.3221
T2
X6.8748Y-4.2357
X7.1864Y-3.4517
X8.3352Y-3.7591
X8.4525Y-3.3478
X9.0059Y-3.914
X9.1386Y-3.6609
X9.1601Y-3.2534
X7.05Y-5.3
X7.05Y-5.4
X7.1602Y-5.3
X7.1602Y-5.4
X7.6898Y-2.35
X7.6898Y-2.45
X7.8Y-2.35
X7.8Y-2.45
X8.75Y-5.3
X8.75Y-5.4
X8.8602Y-5.3
X8.8602Y-5.4
X7.3Y-3.3622
X7.3Y-3.5
X6.7974Y-3.5754
X6.8974Y-3.4754
X6.9974Y-3.5754
X7.3Y-2.35
X7.3Y-2.45
X7.4102Y-2.35
X7.4102Y-2.45
X8.7398Y-2.8
X8.7398Y-2.9
X8.85Y-2.8
X8.85Y-2.9
X8.4898Y-2.35
X8.4898Y-2.45
X8.6Y-2.35
X8.6Y-2.45
X7.0398Y-2.8
X7.0398Y-2.9
X7.15Y-2.8
X7.15Y-2.9
X8.1Y-2.35
X8.1Y-2.45
X8.2102Y-2.35
X8.2102Y-2.45
X7.3Y-3.95
X7.3Y-4.05
X7.3Y-4.15
X7.3Y-4.25
X7.3Y-4.35
X7.3Y-4.45
X7.3Y-4.55
X7.3Y-4.65
T3
X6.75Y-3.85
X6.75Y-4.75
X6.85Y-3.85
X7.2Y-3.85
X7.3Y-3.85
X7.3Y-4.75
X8.6Y-4.15
X8.6Y-4.75
X8.7Y-4.15
X8.7Y-4.75
X8.8Y-4.15
X8.8Y-4.75
X8.9Y-4.15
X8.9Y-4.75
X9.0Y-4.15
X9.0Y-4.75
X9.1Y-4.15
X9.1Y-4.75
X8.85Y-2.4
X8.85Y-3.3
X8.6Y-3.45
X8.6Y-4.05
X8.7Y-3.45
X8.7Y-4.05
X8.8Y-3.45
X8.8Y-4.05
X8.9Y-3.45
X8.9Y-4.05
X9.0Y-3.45
X9.0Y-4.05
X9.1Y-3.45
X9.1Y-4.05
X8.45Y-3.45
X8.45Y-3.55
X7.05Y-4.9
X7.05Y-5.8
X7.05Y-2.4
X7.05Y-3.3
X8.85Y-4.9
X8.85Y-5.8
T4
X7.45Y-3.95
X7.45Y-4.05
X7.45Y-4.15
X7.45Y-4.25
X7.45Y-4.35
X7.45Y-4.45
X7.45Y-4.55
X7.45Y-4.65
X7.45Y-4.75
X7.45Y-4.85
X7.45Y-4.95
X7.45Y-5.05
X7.45Y-5.15
X7.45Y-5.25
X7.45Y-5.35
X7.45Y-5.45
X7.45Y-5.55
X7.45Y-5.65
X7.45Y-5.75
X8.45Y-3.95
X8.45Y-4.05
X8.45Y-4.15
X8.45Y-4.25
X8.45Y-4.35
X8.45Y-4.45
X8.45Y-4.55
X8.45Y-4.65
X8.45Y-4.75
X8.45Y-4.85
X8.45Y-4.95
X8.45Y-5.05
X8.45Y-5.15
X8.45Y-5.25
X8.45Y-5.35
X8.45Y-5.45
X8.45Y-5.55
X8.45Y-5.65
X8.45Y-5.75
T5
X7.6441Y-2.55
X7.6441Y-2.7272
X7.9Y-2.55
X7.9Y-2.7272
X8.0Y-2.55
X8.0Y-2.7272
X8.2559Y-2.55
X8.2559Y-2.7272
T6
X7.95Y-2.9154
X7.95Y-5.75
T7
X6.85Y-4.0
X6.85Y-4.6
X8.85Y-2.575
X8.85Y-3.125
X9.05Y-2.4
X9.05Y-3.3
X6.85Y-4.9
X6.85Y-5.8
X7.05Y-5.075
X7.05Y-5.625
X6.85Y-2.4
X6.85Y-3.3
X7.05Y-2.575
X7.05Y-3.125
X8.85Y-5.075
X8.85Y-5.625
X9.05Y-4.9
X9.05Y-5.8
T0
M30
