G04 #@! TF.GenerationSoftware,KiCad,Pcbnew,(5.1.5)-3*
G04 #@! TF.CreationDate,2020-03-20T16:20:26+01:00*
G04 #@! TF.ProjectId,SmootherBoard,536d6f6f-7468-4657-9242-6f6172642e6b,rev?*
G04 #@! TF.SameCoordinates,Original*
G04 #@! TF.FileFunction,Legend,Bot*
G04 #@! TF.FilePolarity,Positive*
%FSLAX46Y46*%
G04 Gerber Fmt 4.6, Leading zero omitted, Abs format (unit mm)*
G04 Created by KiCad (PCBNEW (5.1.5)-3) date 2020-03-20 16:20:26*
%MOMM*%
%LPD*%
G04 APERTURE LIST*
%ADD10C,0.300000*%
%ADD11C,0.120000*%
%ADD12C,0.010000*%
%ADD13C,0.150000*%
G04 APERTURE END LIST*
D10*
X196794285Y-101093333D02*
X196937142Y-101379047D01*
X196937142Y-101855238D01*
X196794285Y-102045714D01*
X196651428Y-102140952D01*
X196365714Y-102236190D01*
X196080000Y-102236190D01*
X195794285Y-102140952D01*
X195651428Y-102045714D01*
X195508571Y-101855238D01*
X195365714Y-101474285D01*
X195222857Y-101283809D01*
X195080000Y-101188571D01*
X194794285Y-101093333D01*
X194508571Y-101093333D01*
X194222857Y-101188571D01*
X194080000Y-101283809D01*
X193937142Y-101474285D01*
X193937142Y-101950476D01*
X194080000Y-102236190D01*
X196937142Y-103093333D02*
X194937142Y-103093333D01*
X195222857Y-103093333D02*
X195080000Y-103188571D01*
X194937142Y-103379047D01*
X194937142Y-103664761D01*
X195080000Y-103855238D01*
X195365714Y-103950476D01*
X196937142Y-103950476D01*
X195365714Y-103950476D02*
X195080000Y-104045714D01*
X194937142Y-104236190D01*
X194937142Y-104521904D01*
X195080000Y-104712380D01*
X195365714Y-104807619D01*
X196937142Y-104807619D01*
X196937142Y-106045714D02*
X196794285Y-105855238D01*
X196651428Y-105760000D01*
X196365714Y-105664761D01*
X195508571Y-105664761D01*
X195222857Y-105760000D01*
X195080000Y-105855238D01*
X194937142Y-106045714D01*
X194937142Y-106331428D01*
X195080000Y-106521904D01*
X195222857Y-106617142D01*
X195508571Y-106712380D01*
X196365714Y-106712380D01*
X196651428Y-106617142D01*
X196794285Y-106521904D01*
X196937142Y-106331428D01*
X196937142Y-106045714D01*
X196937142Y-107855238D02*
X196794285Y-107664761D01*
X196651428Y-107569523D01*
X196365714Y-107474285D01*
X195508571Y-107474285D01*
X195222857Y-107569523D01*
X195080000Y-107664761D01*
X194937142Y-107855238D01*
X194937142Y-108140952D01*
X195080000Y-108331428D01*
X195222857Y-108426666D01*
X195508571Y-108521904D01*
X196365714Y-108521904D01*
X196651428Y-108426666D01*
X196794285Y-108331428D01*
X196937142Y-108140952D01*
X196937142Y-107855238D01*
X194937142Y-109093333D02*
X194937142Y-109855238D01*
X193937142Y-109379047D02*
X196508571Y-109379047D01*
X196794285Y-109474285D01*
X196937142Y-109664761D01*
X196937142Y-109855238D01*
X196937142Y-110521904D02*
X193937142Y-110521904D01*
X196937142Y-111379047D02*
X195365714Y-111379047D01*
X195080000Y-111283809D01*
X194937142Y-111093333D01*
X194937142Y-110807619D01*
X195080000Y-110617142D01*
X195222857Y-110521904D01*
X196794285Y-113093333D02*
X196937142Y-112902857D01*
X196937142Y-112521904D01*
X196794285Y-112331428D01*
X196508571Y-112236190D01*
X195365714Y-112236190D01*
X195080000Y-112331428D01*
X194937142Y-112521904D01*
X194937142Y-112902857D01*
X195080000Y-113093333D01*
X195365714Y-113188571D01*
X195651428Y-113188571D01*
X195937142Y-112236190D01*
X196937142Y-114045714D02*
X194937142Y-114045714D01*
X195508571Y-114045714D02*
X195222857Y-114140952D01*
X195080000Y-114236190D01*
X194937142Y-114426666D01*
X194937142Y-114617142D01*
X193937142Y-116521904D02*
X196937142Y-117188571D01*
X193937142Y-117855238D01*
X196937142Y-119569523D02*
X196937142Y-118426666D01*
X196937142Y-118998095D02*
X193937142Y-118998095D01*
X194365714Y-118807619D01*
X194651428Y-118617142D01*
X194794285Y-118426666D01*
X196651428Y-120426666D02*
X196794285Y-120521904D01*
X196937142Y-120426666D01*
X196794285Y-120331428D01*
X196651428Y-120426666D01*
X196937142Y-120426666D01*
X193937142Y-121760000D02*
X193937142Y-121950476D01*
X194080000Y-122140952D01*
X194222857Y-122236190D01*
X194508571Y-122331428D01*
X195080000Y-122426666D01*
X195794285Y-122426666D01*
X196365714Y-122331428D01*
X196651428Y-122236190D01*
X196794285Y-122140952D01*
X196937142Y-121950476D01*
X196937142Y-121760000D01*
X196794285Y-121569523D01*
X196651428Y-121474285D01*
X196365714Y-121379047D01*
X195794285Y-121283809D01*
X195080000Y-121283809D01*
X194508571Y-121379047D01*
X194222857Y-121474285D01*
X194080000Y-121569523D01*
X193937142Y-121760000D01*
D11*
X203270000Y-86990000D02*
X202170000Y-86990000D01*
X203270000Y-86720000D02*
X203270000Y-86990000D01*
X204770000Y-86720000D02*
X203270000Y-86720000D01*
X203270000Y-93350000D02*
X200440000Y-93350000D01*
X203270000Y-93620000D02*
X203270000Y-93350000D01*
X204770000Y-93620000D02*
X203270000Y-93620000D01*
D12*
G36*
X200269493Y-115354097D02*
G01*
X200279949Y-115388652D01*
X200289000Y-115402200D01*
X200308109Y-115414895D01*
X200346070Y-115435147D01*
X200398312Y-115460691D01*
X200460265Y-115489259D01*
X200499560Y-115506632D01*
X200569248Y-115537094D01*
X200618301Y-115559234D01*
X200649408Y-115574780D01*
X200665262Y-115585460D01*
X200668555Y-115593001D01*
X200661977Y-115599131D01*
X200651484Y-115604151D01*
X200545820Y-115650679D01*
X200461290Y-115688176D01*
X200395706Y-115717658D01*
X200346875Y-115740148D01*
X200312607Y-115756662D01*
X200290711Y-115768222D01*
X200278996Y-115775845D01*
X200276019Y-115778843D01*
X200269614Y-115800752D01*
X200266649Y-115837234D01*
X200266869Y-115879809D01*
X200270021Y-115919996D01*
X200275852Y-115949314D01*
X200281405Y-115958836D01*
X200296784Y-115955966D01*
X200331769Y-115942488D01*
X200383523Y-115919682D01*
X200449206Y-115888829D01*
X200525980Y-115851209D01*
X200576680Y-115825670D01*
X200856850Y-115683169D01*
X201028935Y-115683734D01*
X201111371Y-115682939D01*
X201169596Y-115679872D01*
X201204705Y-115674448D01*
X201216260Y-115669060D01*
X201223988Y-115649337D01*
X201229194Y-115614059D01*
X201231504Y-115572469D01*
X201230540Y-115533810D01*
X201225929Y-115507327D01*
X201223033Y-115502266D01*
X201207851Y-115499137D01*
X201172243Y-115496529D01*
X201121181Y-115494681D01*
X201059640Y-115493830D01*
X201045306Y-115493800D01*
X200876046Y-115493800D01*
X200592131Y-115352009D01*
X200496956Y-115305226D01*
X200417527Y-115267743D01*
X200355401Y-115240242D01*
X200312135Y-115223407D01*
X200289285Y-115217919D01*
X200287258Y-115218260D01*
X200273724Y-115235598D01*
X200266304Y-115269438D01*
X200264919Y-115311648D01*
X200269493Y-115354097D01*
G37*
X200269493Y-115354097D02*
X200279949Y-115388652D01*
X200289000Y-115402200D01*
X200308109Y-115414895D01*
X200346070Y-115435147D01*
X200398312Y-115460691D01*
X200460265Y-115489259D01*
X200499560Y-115506632D01*
X200569248Y-115537094D01*
X200618301Y-115559234D01*
X200649408Y-115574780D01*
X200665262Y-115585460D01*
X200668555Y-115593001D01*
X200661977Y-115599131D01*
X200651484Y-115604151D01*
X200545820Y-115650679D01*
X200461290Y-115688176D01*
X200395706Y-115717658D01*
X200346875Y-115740148D01*
X200312607Y-115756662D01*
X200290711Y-115768222D01*
X200278996Y-115775845D01*
X200276019Y-115778843D01*
X200269614Y-115800752D01*
X200266649Y-115837234D01*
X200266869Y-115879809D01*
X200270021Y-115919996D01*
X200275852Y-115949314D01*
X200281405Y-115958836D01*
X200296784Y-115955966D01*
X200331769Y-115942488D01*
X200383523Y-115919682D01*
X200449206Y-115888829D01*
X200525980Y-115851209D01*
X200576680Y-115825670D01*
X200856850Y-115683169D01*
X201028935Y-115683734D01*
X201111371Y-115682939D01*
X201169596Y-115679872D01*
X201204705Y-115674448D01*
X201216260Y-115669060D01*
X201223988Y-115649337D01*
X201229194Y-115614059D01*
X201231504Y-115572469D01*
X201230540Y-115533810D01*
X201225929Y-115507327D01*
X201223033Y-115502266D01*
X201207851Y-115499137D01*
X201172243Y-115496529D01*
X201121181Y-115494681D01*
X201059640Y-115493830D01*
X201045306Y-115493800D01*
X200876046Y-115493800D01*
X200592131Y-115352009D01*
X200496956Y-115305226D01*
X200417527Y-115267743D01*
X200355401Y-115240242D01*
X200312135Y-115223407D01*
X200289285Y-115217919D01*
X200287258Y-115218260D01*
X200273724Y-115235598D01*
X200266304Y-115269438D01*
X200264919Y-115311648D01*
X200269493Y-115354097D01*
G36*
X200283362Y-114828297D02*
G01*
X200289074Y-114885053D01*
X200298997Y-114928812D01*
X200313808Y-114963678D01*
X200334190Y-114993756D01*
X200337996Y-114998378D01*
X200387707Y-115043821D01*
X200445369Y-115068266D01*
X200508224Y-115074700D01*
X200579813Y-115066051D01*
X200637970Y-115041360D01*
X200678485Y-115002513D01*
X200681978Y-114996962D01*
X200701900Y-114968314D01*
X200715580Y-114963080D01*
X200725635Y-114980873D01*
X200728197Y-114990086D01*
X200752171Y-115039585D01*
X200794801Y-115084228D01*
X200843151Y-115114116D01*
X200917565Y-115135063D01*
X200992023Y-115132873D01*
X201062323Y-115109453D01*
X201124259Y-115066709D01*
X201173627Y-115006545D01*
X201199326Y-114952685D01*
X201209001Y-114914240D01*
X201217139Y-114860270D01*
X201223571Y-114795788D01*
X201228127Y-114725810D01*
X201230638Y-114655349D01*
X201230935Y-114589421D01*
X201228849Y-114533039D01*
X201224209Y-114491219D01*
X201216847Y-114468974D01*
X201215699Y-114467796D01*
X201204249Y-114463449D01*
X201180211Y-114460028D01*
X201141600Y-114457482D01*
X201086432Y-114455759D01*
X201012721Y-114454808D01*
X200987835Y-114454747D01*
X200987835Y-114632010D01*
X201035061Y-114632629D01*
X201067323Y-114634590D01*
X201076815Y-114636352D01*
X201086095Y-114652195D01*
X201090415Y-114686035D01*
X201090239Y-114731055D01*
X201086032Y-114780437D01*
X201078261Y-114827365D01*
X201067391Y-114865022D01*
X201060232Y-114879353D01*
X201021949Y-114916656D01*
X200972340Y-114935735D01*
X200918533Y-114935818D01*
X200867660Y-114916132D01*
X200849339Y-114902200D01*
X200830575Y-114872974D01*
X200815036Y-114826439D01*
X200804558Y-114770646D01*
X200800978Y-114713647D01*
X200801782Y-114693700D01*
X200806050Y-114636550D01*
X200932146Y-114632887D01*
X200987835Y-114632010D01*
X200987835Y-114454747D01*
X200918483Y-114454575D01*
X200801734Y-114455010D01*
X200741053Y-114455412D01*
X200672700Y-114455912D01*
X200672700Y-114629311D01*
X200672700Y-114700013D01*
X200669220Y-114749397D01*
X200660360Y-114796108D01*
X200654107Y-114815214D01*
X200624474Y-114857297D01*
X200581999Y-114882615D01*
X200533424Y-114890300D01*
X200485490Y-114879485D01*
X200444937Y-114849300D01*
X200439734Y-114842815D01*
X200424284Y-114813965D01*
X200416047Y-114774840D01*
X200413382Y-114722726D01*
X200412350Y-114636550D01*
X200542525Y-114632930D01*
X200672700Y-114629311D01*
X200672700Y-114455912D01*
X200285350Y-114458750D01*
X200281849Y-114659383D01*
X200281180Y-114754442D01*
X200283362Y-114828297D01*
G37*
X200283362Y-114828297D02*
X200289074Y-114885053D01*
X200298997Y-114928812D01*
X200313808Y-114963678D01*
X200334190Y-114993756D01*
X200337996Y-114998378D01*
X200387707Y-115043821D01*
X200445369Y-115068266D01*
X200508224Y-115074700D01*
X200579813Y-115066051D01*
X200637970Y-115041360D01*
X200678485Y-115002513D01*
X200681978Y-114996962D01*
X200701900Y-114968314D01*
X200715580Y-114963080D01*
X200725635Y-114980873D01*
X200728197Y-114990086D01*
X200752171Y-115039585D01*
X200794801Y-115084228D01*
X200843151Y-115114116D01*
X200917565Y-115135063D01*
X200992023Y-115132873D01*
X201062323Y-115109453D01*
X201124259Y-115066709D01*
X201173627Y-115006545D01*
X201199326Y-114952685D01*
X201209001Y-114914240D01*
X201217139Y-114860270D01*
X201223571Y-114795788D01*
X201228127Y-114725810D01*
X201230638Y-114655349D01*
X201230935Y-114589421D01*
X201228849Y-114533039D01*
X201224209Y-114491219D01*
X201216847Y-114468974D01*
X201215699Y-114467796D01*
X201204249Y-114463449D01*
X201180211Y-114460028D01*
X201141600Y-114457482D01*
X201086432Y-114455759D01*
X201012721Y-114454808D01*
X200987835Y-114454747D01*
X200987835Y-114632010D01*
X201035061Y-114632629D01*
X201067323Y-114634590D01*
X201076815Y-114636352D01*
X201086095Y-114652195D01*
X201090415Y-114686035D01*
X201090239Y-114731055D01*
X201086032Y-114780437D01*
X201078261Y-114827365D01*
X201067391Y-114865022D01*
X201060232Y-114879353D01*
X201021949Y-114916656D01*
X200972340Y-114935735D01*
X200918533Y-114935818D01*
X200867660Y-114916132D01*
X200849339Y-114902200D01*
X200830575Y-114872974D01*
X200815036Y-114826439D01*
X200804558Y-114770646D01*
X200800978Y-114713647D01*
X200801782Y-114693700D01*
X200806050Y-114636550D01*
X200932146Y-114632887D01*
X200987835Y-114632010D01*
X200987835Y-114454747D01*
X200918483Y-114454575D01*
X200801734Y-114455010D01*
X200741053Y-114455412D01*
X200672700Y-114455912D01*
X200672700Y-114629311D01*
X200672700Y-114700013D01*
X200669220Y-114749397D01*
X200660360Y-114796108D01*
X200654107Y-114815214D01*
X200624474Y-114857297D01*
X200581999Y-114882615D01*
X200533424Y-114890300D01*
X200485490Y-114879485D01*
X200444937Y-114849300D01*
X200439734Y-114842815D01*
X200424284Y-114813965D01*
X200416047Y-114774840D01*
X200413382Y-114722726D01*
X200412350Y-114636550D01*
X200542525Y-114632930D01*
X200672700Y-114629311D01*
X200672700Y-114455912D01*
X200285350Y-114458750D01*
X200281849Y-114659383D01*
X200281180Y-114754442D01*
X200283362Y-114828297D01*
G36*
X200285538Y-113645950D02*
G01*
X200322853Y-113719841D01*
X200369726Y-113793757D01*
X200429663Y-113851862D01*
X200508271Y-113899425D01*
X200519720Y-113904906D01*
X200552527Y-113919164D01*
X200582602Y-113928572D01*
X200616533Y-113934083D01*
X200660907Y-113936651D01*
X200722313Y-113937230D01*
X200742550Y-113937170D01*
X200841169Y-113933411D01*
X200920665Y-113922058D01*
X200986587Y-113901563D01*
X201044480Y-113870381D01*
X201081701Y-113842605D01*
X201125882Y-113793702D01*
X201165442Y-113726565D01*
X201196965Y-113648333D01*
X201217033Y-113566144D01*
X201218411Y-113557050D01*
X201225290Y-113494619D01*
X201229628Y-113426136D01*
X201231482Y-113356720D01*
X201230910Y-113291495D01*
X201227967Y-113235583D01*
X201222711Y-113194105D01*
X201215199Y-113172183D01*
X201214128Y-113171092D01*
X201200210Y-113166959D01*
X201168647Y-113163744D01*
X201118084Y-113161417D01*
X201079100Y-113160608D01*
X201079100Y-113334800D01*
X201079100Y-113434949D01*
X201077592Y-113491877D01*
X201071608Y-113533888D01*
X201058953Y-113571363D01*
X201043561Y-113603127D01*
X201018175Y-113645578D01*
X200990052Y-113675079D01*
X200949817Y-113700721D01*
X200934782Y-113708612D01*
X200892180Y-113728434D01*
X200854205Y-113739922D01*
X200810541Y-113745297D01*
X200757595Y-113746742D01*
X200664329Y-113741110D01*
X200589232Y-113721891D01*
X200528151Y-113687623D01*
X200490202Y-113652456D01*
X200454556Y-113603949D01*
X200432159Y-113549123D01*
X200420992Y-113481421D01*
X200418770Y-113420525D01*
X200418700Y-113334800D01*
X201079100Y-113334800D01*
X201079100Y-113160608D01*
X201047167Y-113159945D01*
X200954540Y-113159296D01*
X200838849Y-113159440D01*
X200741053Y-113160012D01*
X200285350Y-113163350D01*
X200285538Y-113645950D01*
G37*
X200285538Y-113645950D02*
X200322853Y-113719841D01*
X200369726Y-113793757D01*
X200429663Y-113851862D01*
X200508271Y-113899425D01*
X200519720Y-113904906D01*
X200552527Y-113919164D01*
X200582602Y-113928572D01*
X200616533Y-113934083D01*
X200660907Y-113936651D01*
X200722313Y-113937230D01*
X200742550Y-113937170D01*
X200841169Y-113933411D01*
X200920665Y-113922058D01*
X200986587Y-113901563D01*
X201044480Y-113870381D01*
X201081701Y-113842605D01*
X201125882Y-113793702D01*
X201165442Y-113726565D01*
X201196965Y-113648333D01*
X201217033Y-113566144D01*
X201218411Y-113557050D01*
X201225290Y-113494619D01*
X201229628Y-113426136D01*
X201231482Y-113356720D01*
X201230910Y-113291495D01*
X201227967Y-113235583D01*
X201222711Y-113194105D01*
X201215199Y-113172183D01*
X201214128Y-113171092D01*
X201200210Y-113166959D01*
X201168647Y-113163744D01*
X201118084Y-113161417D01*
X201079100Y-113160608D01*
X201079100Y-113334800D01*
X201079100Y-113434949D01*
X201077592Y-113491877D01*
X201071608Y-113533888D01*
X201058953Y-113571363D01*
X201043561Y-113603127D01*
X201018175Y-113645578D01*
X200990052Y-113675079D01*
X200949817Y-113700721D01*
X200934782Y-113708612D01*
X200892180Y-113728434D01*
X200854205Y-113739922D01*
X200810541Y-113745297D01*
X200757595Y-113746742D01*
X200664329Y-113741110D01*
X200589232Y-113721891D01*
X200528151Y-113687623D01*
X200490202Y-113652456D01*
X200454556Y-113603949D01*
X200432159Y-113549123D01*
X200420992Y-113481421D01*
X200418770Y-113420525D01*
X200418700Y-113334800D01*
X201079100Y-113334800D01*
X201079100Y-113160608D01*
X201047167Y-113159945D01*
X200954540Y-113159296D01*
X200838849Y-113159440D01*
X200741053Y-113160012D01*
X200285350Y-113163350D01*
X200285538Y-113645950D01*
G36*
X200309261Y-112958641D02*
G01*
X200344593Y-112961768D01*
X200379359Y-112958493D01*
X200418700Y-112950625D01*
X200418700Y-112585500D01*
X200660000Y-112585500D01*
X200660000Y-112903000D01*
X200799700Y-112903000D01*
X200799700Y-112585500D01*
X201079100Y-112585500D01*
X201079100Y-112768291D01*
X201079314Y-112843111D01*
X201080910Y-112896244D01*
X201085313Y-112931400D01*
X201093951Y-112952292D01*
X201108252Y-112962631D01*
X201129641Y-112966131D01*
X201155299Y-112966500D01*
X201180387Y-112966343D01*
X201199263Y-112963769D01*
X201212811Y-112955617D01*
X201221912Y-112938727D01*
X201227450Y-112909940D01*
X201230306Y-112866096D01*
X201231364Y-112804036D01*
X201231504Y-112720601D01*
X201231500Y-112693646D01*
X201231140Y-112601835D01*
X201229937Y-112532482D01*
X201227704Y-112482650D01*
X201224251Y-112449405D01*
X201219392Y-112429813D01*
X201214128Y-112421792D01*
X201200210Y-112417659D01*
X201168647Y-112414444D01*
X201118084Y-112412117D01*
X201047167Y-112410645D01*
X200954540Y-112409996D01*
X200838849Y-112410140D01*
X200741053Y-112410712D01*
X200285350Y-112414050D01*
X200281926Y-112682485D01*
X200278503Y-112950921D01*
X200309261Y-112958641D01*
G37*
X200309261Y-112958641D02*
X200344593Y-112961768D01*
X200379359Y-112958493D01*
X200418700Y-112950625D01*
X200418700Y-112585500D01*
X200660000Y-112585500D01*
X200660000Y-112903000D01*
X200799700Y-112903000D01*
X200799700Y-112585500D01*
X201079100Y-112585500D01*
X201079100Y-112768291D01*
X201079314Y-112843111D01*
X201080910Y-112896244D01*
X201085313Y-112931400D01*
X201093951Y-112952292D01*
X201108252Y-112962631D01*
X201129641Y-112966131D01*
X201155299Y-112966500D01*
X201180387Y-112966343D01*
X201199263Y-112963769D01*
X201212811Y-112955617D01*
X201221912Y-112938727D01*
X201227450Y-112909940D01*
X201230306Y-112866096D01*
X201231364Y-112804036D01*
X201231504Y-112720601D01*
X201231500Y-112693646D01*
X201231140Y-112601835D01*
X201229937Y-112532482D01*
X201227704Y-112482650D01*
X201224251Y-112449405D01*
X201219392Y-112429813D01*
X201214128Y-112421792D01*
X201200210Y-112417659D01*
X201168647Y-112414444D01*
X201118084Y-112412117D01*
X201047167Y-112410645D01*
X200954540Y-112409996D01*
X200838849Y-112410140D01*
X200741053Y-112410712D01*
X200285350Y-112414050D01*
X200281926Y-112682485D01*
X200278503Y-112950921D01*
X200309261Y-112958641D01*
G36*
X200268540Y-112148065D02*
G01*
X200274008Y-112171711D01*
X200278302Y-112177000D01*
X200288317Y-112181284D01*
X200306463Y-112184666D01*
X200335147Y-112187250D01*
X200376777Y-112189138D01*
X200433762Y-112190434D01*
X200508510Y-112191240D01*
X200603429Y-112191660D01*
X200720928Y-112191797D01*
X200743461Y-112191800D01*
X200867900Y-112191925D01*
X200969289Y-112191913D01*
X201049975Y-112191184D01*
X201112305Y-112189156D01*
X201158624Y-112185249D01*
X201191279Y-112178882D01*
X201212618Y-112169475D01*
X201224985Y-112156446D01*
X201230729Y-112139214D01*
X201232195Y-112117200D01*
X201231730Y-112089822D01*
X201231500Y-112071007D01*
X201229570Y-112026324D01*
X201221588Y-111996885D01*
X201204266Y-111972689D01*
X201196575Y-111964778D01*
X201177602Y-111951073D01*
X201139720Y-111927713D01*
X201086594Y-111896692D01*
X201021885Y-111860002D01*
X200949258Y-111819637D01*
X200872375Y-111777590D01*
X200794900Y-111735854D01*
X200720496Y-111696423D01*
X200652827Y-111661290D01*
X200595555Y-111632448D01*
X200552343Y-111611890D01*
X200532999Y-111603712D01*
X200506774Y-111591952D01*
X200494944Y-111582972D01*
X200494889Y-111582590D01*
X200507051Y-111580983D01*
X200541406Y-111579786D01*
X200594751Y-111579025D01*
X200663882Y-111578724D01*
X200745595Y-111578910D01*
X200836687Y-111579607D01*
X200852452Y-111579773D01*
X200961591Y-111580743D01*
X201047791Y-111580931D01*
X201113503Y-111580253D01*
X201161178Y-111578624D01*
X201193268Y-111575960D01*
X201212222Y-111572176D01*
X201220494Y-111567187D01*
X201220568Y-111567073D01*
X201228287Y-111542355D01*
X201231299Y-111506408D01*
X201229921Y-111468390D01*
X201224473Y-111437462D01*
X201215564Y-111422887D01*
X201199572Y-111421568D01*
X201161149Y-111420530D01*
X201103261Y-111419790D01*
X201028876Y-111419365D01*
X200940959Y-111419273D01*
X200842479Y-111419530D01*
X200742489Y-111420111D01*
X200285350Y-111423450D01*
X200281729Y-111538553D01*
X200280690Y-111595360D01*
X200282414Y-111632476D01*
X200287697Y-111655536D01*
X200297335Y-111670174D01*
X200300779Y-111673407D01*
X200320881Y-111686993D01*
X200360158Y-111710201D01*
X200415140Y-111741151D01*
X200482355Y-111777966D01*
X200558329Y-111818768D01*
X200639593Y-111861680D01*
X200722673Y-111904822D01*
X200804098Y-111946318D01*
X200821925Y-111955281D01*
X200875931Y-111982585D01*
X200920585Y-112005598D01*
X200951592Y-112022071D01*
X200964653Y-112029758D01*
X200964810Y-112029981D01*
X200952661Y-112030651D01*
X200918394Y-112030988D01*
X200865288Y-112030998D01*
X200796623Y-112030690D01*
X200715679Y-112030073D01*
X200625735Y-112029153D01*
X200623587Y-112029129D01*
X200282352Y-112025208D01*
X200274499Y-112054529D01*
X200267308Y-112101518D01*
X200268540Y-112148065D01*
G37*
X200268540Y-112148065D02*
X200274008Y-112171711D01*
X200278302Y-112177000D01*
X200288317Y-112181284D01*
X200306463Y-112184666D01*
X200335147Y-112187250D01*
X200376777Y-112189138D01*
X200433762Y-112190434D01*
X200508510Y-112191240D01*
X200603429Y-112191660D01*
X200720928Y-112191797D01*
X200743461Y-112191800D01*
X200867900Y-112191925D01*
X200969289Y-112191913D01*
X201049975Y-112191184D01*
X201112305Y-112189156D01*
X201158624Y-112185249D01*
X201191279Y-112178882D01*
X201212618Y-112169475D01*
X201224985Y-112156446D01*
X201230729Y-112139214D01*
X201232195Y-112117200D01*
X201231730Y-112089822D01*
X201231500Y-112071007D01*
X201229570Y-112026324D01*
X201221588Y-111996885D01*
X201204266Y-111972689D01*
X201196575Y-111964778D01*
X201177602Y-111951073D01*
X201139720Y-111927713D01*
X201086594Y-111896692D01*
X201021885Y-111860002D01*
X200949258Y-111819637D01*
X200872375Y-111777590D01*
X200794900Y-111735854D01*
X200720496Y-111696423D01*
X200652827Y-111661290D01*
X200595555Y-111632448D01*
X200552343Y-111611890D01*
X200532999Y-111603712D01*
X200506774Y-111591952D01*
X200494944Y-111582972D01*
X200494889Y-111582590D01*
X200507051Y-111580983D01*
X200541406Y-111579786D01*
X200594751Y-111579025D01*
X200663882Y-111578724D01*
X200745595Y-111578910D01*
X200836687Y-111579607D01*
X200852452Y-111579773D01*
X200961591Y-111580743D01*
X201047791Y-111580931D01*
X201113503Y-111580253D01*
X201161178Y-111578624D01*
X201193268Y-111575960D01*
X201212222Y-111572176D01*
X201220494Y-111567187D01*
X201220568Y-111567073D01*
X201228287Y-111542355D01*
X201231299Y-111506408D01*
X201229921Y-111468390D01*
X201224473Y-111437462D01*
X201215564Y-111422887D01*
X201199572Y-111421568D01*
X201161149Y-111420530D01*
X201103261Y-111419790D01*
X201028876Y-111419365D01*
X200940959Y-111419273D01*
X200842479Y-111419530D01*
X200742489Y-111420111D01*
X200285350Y-111423450D01*
X200281729Y-111538553D01*
X200280690Y-111595360D01*
X200282414Y-111632476D01*
X200287697Y-111655536D01*
X200297335Y-111670174D01*
X200300779Y-111673407D01*
X200320881Y-111686993D01*
X200360158Y-111710201D01*
X200415140Y-111741151D01*
X200482355Y-111777966D01*
X200558329Y-111818768D01*
X200639593Y-111861680D01*
X200722673Y-111904822D01*
X200804098Y-111946318D01*
X200821925Y-111955281D01*
X200875931Y-111982585D01*
X200920585Y-112005598D01*
X200951592Y-112022071D01*
X200964653Y-112029758D01*
X200964810Y-112029981D01*
X200952661Y-112030651D01*
X200918394Y-112030988D01*
X200865288Y-112030998D01*
X200796623Y-112030690D01*
X200715679Y-112030073D01*
X200625735Y-112029153D01*
X200623587Y-112029129D01*
X200282352Y-112025208D01*
X200274499Y-112054529D01*
X200267308Y-112101518D01*
X200268540Y-112148065D01*
G36*
X200269001Y-110162522D02*
G01*
X200274939Y-110191008D01*
X200276867Y-110194883D01*
X200284910Y-110199197D01*
X200304335Y-110202620D01*
X200337179Y-110205204D01*
X200385481Y-110207005D01*
X200451282Y-110208076D01*
X200536619Y-110208472D01*
X200643532Y-110208246D01*
X200756097Y-110207583D01*
X201225150Y-110204250D01*
X201228862Y-110127528D01*
X201229448Y-110085374D01*
X201227198Y-110053954D01*
X201223570Y-110041803D01*
X201209235Y-110039753D01*
X201172379Y-110037866D01*
X201115880Y-110036198D01*
X201042616Y-110034803D01*
X200955465Y-110033735D01*
X200857306Y-110033049D01*
X200751016Y-110032800D01*
X200748142Y-110032800D01*
X200625873Y-110032897D01*
X200526607Y-110033256D01*
X200447949Y-110033979D01*
X200387503Y-110035167D01*
X200342872Y-110036921D01*
X200311661Y-110039344D01*
X200291473Y-110042536D01*
X200279913Y-110046600D01*
X200274584Y-110051636D01*
X200274008Y-110052888D01*
X200268312Y-110082360D01*
X200266717Y-110122605D01*
X200269001Y-110162522D01*
G37*
X200269001Y-110162522D02*
X200274939Y-110191008D01*
X200276867Y-110194883D01*
X200284910Y-110199197D01*
X200304335Y-110202620D01*
X200337179Y-110205204D01*
X200385481Y-110207005D01*
X200451282Y-110208076D01*
X200536619Y-110208472D01*
X200643532Y-110208246D01*
X200756097Y-110207583D01*
X201225150Y-110204250D01*
X201228862Y-110127528D01*
X201229448Y-110085374D01*
X201227198Y-110053954D01*
X201223570Y-110041803D01*
X201209235Y-110039753D01*
X201172379Y-110037866D01*
X201115880Y-110036198D01*
X201042616Y-110034803D01*
X200955465Y-110033735D01*
X200857306Y-110033049D01*
X200751016Y-110032800D01*
X200748142Y-110032800D01*
X200625873Y-110032897D01*
X200526607Y-110033256D01*
X200447949Y-110033979D01*
X200387503Y-110035167D01*
X200342872Y-110036921D01*
X200311661Y-110039344D01*
X200291473Y-110042536D01*
X200279913Y-110046600D01*
X200274584Y-110051636D01*
X200274008Y-110052888D01*
X200268312Y-110082360D01*
X200266717Y-110122605D01*
X200269001Y-110162522D01*
G36*
X200309261Y-109123241D02*
G01*
X200344593Y-109126368D01*
X200379359Y-109123093D01*
X200418700Y-109115225D01*
X200418700Y-108750100D01*
X200660000Y-108750100D01*
X200660000Y-109067600D01*
X200799700Y-109067600D01*
X200799700Y-108750100D01*
X201079100Y-108750100D01*
X201079100Y-108932891D01*
X201079314Y-109007711D01*
X201080910Y-109060844D01*
X201085313Y-109096000D01*
X201093951Y-109116892D01*
X201108252Y-109127231D01*
X201129641Y-109130731D01*
X201155299Y-109131100D01*
X201180387Y-109130943D01*
X201199263Y-109128369D01*
X201212811Y-109120217D01*
X201221912Y-109103327D01*
X201227450Y-109074540D01*
X201230306Y-109030696D01*
X201231364Y-108968636D01*
X201231504Y-108885201D01*
X201231500Y-108858246D01*
X201231140Y-108766435D01*
X201229937Y-108697082D01*
X201227704Y-108647250D01*
X201224251Y-108614005D01*
X201219392Y-108594413D01*
X201214128Y-108586392D01*
X201200210Y-108582259D01*
X201168647Y-108579044D01*
X201118084Y-108576717D01*
X201047167Y-108575245D01*
X200954540Y-108574596D01*
X200838849Y-108574740D01*
X200741053Y-108575312D01*
X200285350Y-108578650D01*
X200281926Y-108847085D01*
X200278503Y-109115521D01*
X200309261Y-109123241D01*
G37*
X200309261Y-109123241D02*
X200344593Y-109126368D01*
X200379359Y-109123093D01*
X200418700Y-109115225D01*
X200418700Y-108750100D01*
X200660000Y-108750100D01*
X200660000Y-109067600D01*
X200799700Y-109067600D01*
X200799700Y-108750100D01*
X201079100Y-108750100D01*
X201079100Y-108932891D01*
X201079314Y-109007711D01*
X201080910Y-109060844D01*
X201085313Y-109096000D01*
X201093951Y-109116892D01*
X201108252Y-109127231D01*
X201129641Y-109130731D01*
X201155299Y-109131100D01*
X201180387Y-109130943D01*
X201199263Y-109128369D01*
X201212811Y-109120217D01*
X201221912Y-109103327D01*
X201227450Y-109074540D01*
X201230306Y-109030696D01*
X201231364Y-108968636D01*
X201231504Y-108885201D01*
X201231500Y-108858246D01*
X201231140Y-108766435D01*
X201229937Y-108697082D01*
X201227704Y-108647250D01*
X201224251Y-108614005D01*
X201219392Y-108594413D01*
X201214128Y-108586392D01*
X201200210Y-108582259D01*
X201168647Y-108579044D01*
X201118084Y-108576717D01*
X201047167Y-108575245D01*
X200954540Y-108574596D01*
X200838849Y-108574740D01*
X200741053Y-108575312D01*
X200285350Y-108578650D01*
X200281926Y-108847085D01*
X200278503Y-109115521D01*
X200309261Y-109123241D01*
G36*
X200285538Y-108108750D02*
G01*
X200322853Y-108182641D01*
X200369726Y-108256557D01*
X200429663Y-108314662D01*
X200508271Y-108362225D01*
X200519720Y-108367706D01*
X200552527Y-108381964D01*
X200582602Y-108391372D01*
X200616533Y-108396883D01*
X200660907Y-108399451D01*
X200722313Y-108400030D01*
X200742550Y-108399970D01*
X200841169Y-108396211D01*
X200920665Y-108384858D01*
X200986587Y-108364363D01*
X201044480Y-108333181D01*
X201081701Y-108305405D01*
X201125882Y-108256502D01*
X201165442Y-108189365D01*
X201196965Y-108111133D01*
X201217033Y-108028944D01*
X201218411Y-108019850D01*
X201225290Y-107957419D01*
X201229628Y-107888936D01*
X201231482Y-107819520D01*
X201230910Y-107754295D01*
X201227967Y-107698383D01*
X201222711Y-107656905D01*
X201215199Y-107634983D01*
X201214128Y-107633892D01*
X201200210Y-107629759D01*
X201168647Y-107626544D01*
X201118084Y-107624217D01*
X201079100Y-107623408D01*
X201079100Y-107797600D01*
X201079100Y-107897749D01*
X201077592Y-107954677D01*
X201071608Y-107996688D01*
X201058953Y-108034163D01*
X201043561Y-108065927D01*
X201018175Y-108108378D01*
X200990052Y-108137879D01*
X200949817Y-108163521D01*
X200934782Y-108171412D01*
X200892180Y-108191234D01*
X200854205Y-108202722D01*
X200810541Y-108208097D01*
X200757595Y-108209542D01*
X200664329Y-108203910D01*
X200589232Y-108184691D01*
X200528151Y-108150423D01*
X200490202Y-108115256D01*
X200454556Y-108066749D01*
X200432159Y-108011923D01*
X200420992Y-107944221D01*
X200418770Y-107883325D01*
X200418700Y-107797600D01*
X201079100Y-107797600D01*
X201079100Y-107623408D01*
X201047167Y-107622745D01*
X200954540Y-107622096D01*
X200838849Y-107622240D01*
X200741053Y-107622812D01*
X200285350Y-107626150D01*
X200285538Y-108108750D01*
G37*
X200285538Y-108108750D02*
X200322853Y-108182641D01*
X200369726Y-108256557D01*
X200429663Y-108314662D01*
X200508271Y-108362225D01*
X200519720Y-108367706D01*
X200552527Y-108381964D01*
X200582602Y-108391372D01*
X200616533Y-108396883D01*
X200660907Y-108399451D01*
X200722313Y-108400030D01*
X200742550Y-108399970D01*
X200841169Y-108396211D01*
X200920665Y-108384858D01*
X200986587Y-108364363D01*
X201044480Y-108333181D01*
X201081701Y-108305405D01*
X201125882Y-108256502D01*
X201165442Y-108189365D01*
X201196965Y-108111133D01*
X201217033Y-108028944D01*
X201218411Y-108019850D01*
X201225290Y-107957419D01*
X201229628Y-107888936D01*
X201231482Y-107819520D01*
X201230910Y-107754295D01*
X201227967Y-107698383D01*
X201222711Y-107656905D01*
X201215199Y-107634983D01*
X201214128Y-107633892D01*
X201200210Y-107629759D01*
X201168647Y-107626544D01*
X201118084Y-107624217D01*
X201079100Y-107623408D01*
X201079100Y-107797600D01*
X201079100Y-107897749D01*
X201077592Y-107954677D01*
X201071608Y-107996688D01*
X201058953Y-108034163D01*
X201043561Y-108065927D01*
X201018175Y-108108378D01*
X200990052Y-108137879D01*
X200949817Y-108163521D01*
X200934782Y-108171412D01*
X200892180Y-108191234D01*
X200854205Y-108202722D01*
X200810541Y-108208097D01*
X200757595Y-108209542D01*
X200664329Y-108203910D01*
X200589232Y-108184691D01*
X200528151Y-108150423D01*
X200490202Y-108115256D01*
X200454556Y-108066749D01*
X200432159Y-108011923D01*
X200420992Y-107944221D01*
X200418770Y-107883325D01*
X200418700Y-107797600D01*
X201079100Y-107797600D01*
X201079100Y-107623408D01*
X201047167Y-107622745D01*
X200954540Y-107622096D01*
X200838849Y-107622240D01*
X200741053Y-107622812D01*
X200285350Y-107626150D01*
X200285538Y-108108750D01*
G36*
X200259454Y-110941707D02*
G01*
X200269503Y-111014594D01*
X200285788Y-111081030D01*
X200307153Y-111136222D01*
X200332438Y-111175381D01*
X200358851Y-111193319D01*
X200401332Y-111199918D01*
X200444414Y-111199373D01*
X200476529Y-111191999D01*
X200480162Y-111190028D01*
X200488891Y-111178772D01*
X200485406Y-111158889D01*
X200472037Y-111129897D01*
X200430065Y-111027704D01*
X200410135Y-110930559D01*
X200412220Y-110840439D01*
X200436289Y-110759320D01*
X200478535Y-110693505D01*
X200533796Y-110640862D01*
X200596489Y-110606229D01*
X200672613Y-110586883D01*
X200725108Y-110581604D01*
X200824944Y-110584262D01*
X200909130Y-110605640D01*
X200979891Y-110646416D01*
X201002451Y-110665920D01*
X201044710Y-110720747D01*
X201073411Y-110787939D01*
X201087109Y-110860147D01*
X201084358Y-110930020D01*
X201065548Y-110986890D01*
X201056134Y-110998439D01*
X201039407Y-111005572D01*
X201010018Y-111009297D01*
X200962617Y-111010618D01*
X200938953Y-111010700D01*
X200825100Y-111010700D01*
X200825100Y-110909955D01*
X200823209Y-110852608D01*
X200815358Y-110816805D01*
X200798279Y-110798836D01*
X200768702Y-110794987D01*
X200728745Y-110800519D01*
X200685400Y-110808650D01*
X200685594Y-110982700D01*
X200686511Y-111047941D01*
X200688887Y-111104959D01*
X200692388Y-111148470D01*
X200696679Y-111173185D01*
X200697831Y-111175800D01*
X200706122Y-111182762D01*
X200723151Y-111187854D01*
X200752296Y-111191343D01*
X200796936Y-111193493D01*
X200860450Y-111194573D01*
X200939400Y-111194850D01*
X201023524Y-111194525D01*
X201085637Y-111193376D01*
X201129118Y-111191134D01*
X201157349Y-111187533D01*
X201173710Y-111182308D01*
X201181211Y-111175800D01*
X201200942Y-111131611D01*
X201217495Y-111068866D01*
X201230107Y-110994289D01*
X201238018Y-110914609D01*
X201240465Y-110836553D01*
X201236686Y-110766848D01*
X201231358Y-110732973D01*
X201198312Y-110631940D01*
X201145562Y-110546633D01*
X201073670Y-110477790D01*
X201005889Y-110436598D01*
X200969300Y-110419139D01*
X200939173Y-110407364D01*
X200908990Y-110400156D01*
X200872234Y-110396396D01*
X200822387Y-110394967D01*
X200761867Y-110394750D01*
X200694494Y-110395092D01*
X200645958Y-110396835D01*
X200609700Y-110401049D01*
X200579158Y-110408807D01*
X200547773Y-110421180D01*
X200519174Y-110434398D01*
X200429197Y-110488348D01*
X200359045Y-110556313D01*
X200307467Y-110640058D01*
X200273211Y-110741344D01*
X200262703Y-110795740D01*
X200256801Y-110867159D01*
X200259454Y-110941707D01*
G37*
X200259454Y-110941707D02*
X200269503Y-111014594D01*
X200285788Y-111081030D01*
X200307153Y-111136222D01*
X200332438Y-111175381D01*
X200358851Y-111193319D01*
X200401332Y-111199918D01*
X200444414Y-111199373D01*
X200476529Y-111191999D01*
X200480162Y-111190028D01*
X200488891Y-111178772D01*
X200485406Y-111158889D01*
X200472037Y-111129897D01*
X200430065Y-111027704D01*
X200410135Y-110930559D01*
X200412220Y-110840439D01*
X200436289Y-110759320D01*
X200478535Y-110693505D01*
X200533796Y-110640862D01*
X200596489Y-110606229D01*
X200672613Y-110586883D01*
X200725108Y-110581604D01*
X200824944Y-110584262D01*
X200909130Y-110605640D01*
X200979891Y-110646416D01*
X201002451Y-110665920D01*
X201044710Y-110720747D01*
X201073411Y-110787939D01*
X201087109Y-110860147D01*
X201084358Y-110930020D01*
X201065548Y-110986890D01*
X201056134Y-110998439D01*
X201039407Y-111005572D01*
X201010018Y-111009297D01*
X200962617Y-111010618D01*
X200938953Y-111010700D01*
X200825100Y-111010700D01*
X200825100Y-110909955D01*
X200823209Y-110852608D01*
X200815358Y-110816805D01*
X200798279Y-110798836D01*
X200768702Y-110794987D01*
X200728745Y-110800519D01*
X200685400Y-110808650D01*
X200685594Y-110982700D01*
X200686511Y-111047941D01*
X200688887Y-111104959D01*
X200692388Y-111148470D01*
X200696679Y-111173185D01*
X200697831Y-111175800D01*
X200706122Y-111182762D01*
X200723151Y-111187854D01*
X200752296Y-111191343D01*
X200796936Y-111193493D01*
X200860450Y-111194573D01*
X200939400Y-111194850D01*
X201023524Y-111194525D01*
X201085637Y-111193376D01*
X201129118Y-111191134D01*
X201157349Y-111187533D01*
X201173710Y-111182308D01*
X201181211Y-111175800D01*
X201200942Y-111131611D01*
X201217495Y-111068866D01*
X201230107Y-110994289D01*
X201238018Y-110914609D01*
X201240465Y-110836553D01*
X201236686Y-110766848D01*
X201231358Y-110732973D01*
X201198312Y-110631940D01*
X201145562Y-110546633D01*
X201073670Y-110477790D01*
X201005889Y-110436598D01*
X200969300Y-110419139D01*
X200939173Y-110407364D01*
X200908990Y-110400156D01*
X200872234Y-110396396D01*
X200822387Y-110394967D01*
X200761867Y-110394750D01*
X200694494Y-110395092D01*
X200645958Y-110396835D01*
X200609700Y-110401049D01*
X200579158Y-110408807D01*
X200547773Y-110421180D01*
X200519174Y-110434398D01*
X200429197Y-110488348D01*
X200359045Y-110556313D01*
X200307467Y-110640058D01*
X200273211Y-110741344D01*
X200262703Y-110795740D01*
X200256801Y-110867159D01*
X200259454Y-110941707D01*
G36*
X200265383Y-109674793D02*
G01*
X200271466Y-109701872D01*
X200284281Y-109746432D01*
X200297097Y-109782213D01*
X200306269Y-109800102D01*
X200322583Y-109807090D01*
X200353916Y-109812870D01*
X200392272Y-109816855D01*
X200429652Y-109818456D01*
X200458059Y-109817088D01*
X200469498Y-109812164D01*
X200469500Y-109812084D01*
X200464629Y-109798932D01*
X200451943Y-109769481D01*
X200436595Y-109735395D01*
X200412873Y-109667248D01*
X200403364Y-109601257D01*
X200408665Y-109544400D01*
X200418080Y-109519608D01*
X200446135Y-109488329D01*
X200485854Y-109466589D01*
X200513839Y-109461300D01*
X200544555Y-109473290D01*
X200580639Y-109509394D01*
X200622250Y-109569810D01*
X200669546Y-109654735D01*
X200671721Y-109658961D01*
X200705807Y-109723075D01*
X200733543Y-109768865D01*
X200758528Y-109801378D01*
X200784361Y-109825661D01*
X200797619Y-109835527D01*
X200830183Y-109856236D01*
X200859721Y-109867875D01*
X200895876Y-109872970D01*
X200944664Y-109874050D01*
X200997290Y-109872587D01*
X201035105Y-109866451D01*
X201068616Y-109853019D01*
X201098951Y-109835526D01*
X201160685Y-109783972D01*
X201204488Y-109716203D01*
X201230914Y-109631082D01*
X201240048Y-109546444D01*
X201239767Y-109479369D01*
X201234208Y-109422012D01*
X201227258Y-109391450D01*
X201205100Y-109333354D01*
X201182462Y-109290244D01*
X201162923Y-109267819D01*
X201140878Y-109261386D01*
X201106131Y-109258645D01*
X201068310Y-109259424D01*
X201037045Y-109263554D01*
X201022244Y-109270323D01*
X201023644Y-109287295D01*
X201034993Y-109318811D01*
X201049627Y-109349698D01*
X201068942Y-109391652D01*
X201079735Y-109431092D01*
X201084302Y-109478751D01*
X201085007Y-109514953D01*
X201084427Y-109566097D01*
X201080901Y-109599212D01*
X201072595Y-109621641D01*
X201057673Y-109640732D01*
X201052201Y-109646338D01*
X201010462Y-109673229D01*
X200963010Y-109681279D01*
X200918285Y-109669867D01*
X200900461Y-109657475D01*
X200883895Y-109636229D01*
X200860151Y-109597735D01*
X200832647Y-109547828D01*
X200809647Y-109502406D01*
X200768144Y-109423827D01*
X200729088Y-109366203D01*
X200688896Y-109325816D01*
X200643986Y-109298949D01*
X200599098Y-109283880D01*
X200516701Y-109275816D01*
X200435030Y-109292933D01*
X200383693Y-109317052D01*
X200330532Y-109361688D01*
X200290831Y-109424198D01*
X200265881Y-109500164D01*
X200256968Y-109585169D01*
X200265383Y-109674793D01*
G37*
X200265383Y-109674793D02*
X200271466Y-109701872D01*
X200284281Y-109746432D01*
X200297097Y-109782213D01*
X200306269Y-109800102D01*
X200322583Y-109807090D01*
X200353916Y-109812870D01*
X200392272Y-109816855D01*
X200429652Y-109818456D01*
X200458059Y-109817088D01*
X200469498Y-109812164D01*
X200469500Y-109812084D01*
X200464629Y-109798932D01*
X200451943Y-109769481D01*
X200436595Y-109735395D01*
X200412873Y-109667248D01*
X200403364Y-109601257D01*
X200408665Y-109544400D01*
X200418080Y-109519608D01*
X200446135Y-109488329D01*
X200485854Y-109466589D01*
X200513839Y-109461300D01*
X200544555Y-109473290D01*
X200580639Y-109509394D01*
X200622250Y-109569810D01*
X200669546Y-109654735D01*
X200671721Y-109658961D01*
X200705807Y-109723075D01*
X200733543Y-109768865D01*
X200758528Y-109801378D01*
X200784361Y-109825661D01*
X200797619Y-109835527D01*
X200830183Y-109856236D01*
X200859721Y-109867875D01*
X200895876Y-109872970D01*
X200944664Y-109874050D01*
X200997290Y-109872587D01*
X201035105Y-109866451D01*
X201068616Y-109853019D01*
X201098951Y-109835526D01*
X201160685Y-109783972D01*
X201204488Y-109716203D01*
X201230914Y-109631082D01*
X201240048Y-109546444D01*
X201239767Y-109479369D01*
X201234208Y-109422012D01*
X201227258Y-109391450D01*
X201205100Y-109333354D01*
X201182462Y-109290244D01*
X201162923Y-109267819D01*
X201140878Y-109261386D01*
X201106131Y-109258645D01*
X201068310Y-109259424D01*
X201037045Y-109263554D01*
X201022244Y-109270323D01*
X201023644Y-109287295D01*
X201034993Y-109318811D01*
X201049627Y-109349698D01*
X201068942Y-109391652D01*
X201079735Y-109431092D01*
X201084302Y-109478751D01*
X201085007Y-109514953D01*
X201084427Y-109566097D01*
X201080901Y-109599212D01*
X201072595Y-109621641D01*
X201057673Y-109640732D01*
X201052201Y-109646338D01*
X201010462Y-109673229D01*
X200963010Y-109681279D01*
X200918285Y-109669867D01*
X200900461Y-109657475D01*
X200883895Y-109636229D01*
X200860151Y-109597735D01*
X200832647Y-109547828D01*
X200809647Y-109502406D01*
X200768144Y-109423827D01*
X200729088Y-109366203D01*
X200688896Y-109325816D01*
X200643986Y-109298949D01*
X200599098Y-109283880D01*
X200516701Y-109275816D01*
X200435030Y-109292933D01*
X200383693Y-109317052D01*
X200330532Y-109361688D01*
X200290831Y-109424198D01*
X200265881Y-109500164D01*
X200256968Y-109585169D01*
X200265383Y-109674793D01*
G36*
X202047409Y-110703454D02*
G01*
X202056920Y-110747903D01*
X202060547Y-110756318D01*
X202096283Y-110801143D01*
X202146714Y-110830507D01*
X202206592Y-110844677D01*
X202270665Y-110843920D01*
X202333684Y-110828501D01*
X202390400Y-110798687D01*
X202435562Y-110754744D01*
X202447316Y-110736697D01*
X202466324Y-110685818D01*
X202475208Y-110624194D01*
X202473580Y-110562124D01*
X202461054Y-110509909D01*
X202456219Y-110499684D01*
X202430810Y-110468367D01*
X202400208Y-110445709D01*
X202359407Y-110433246D01*
X202304864Y-110427401D01*
X202247436Y-110428465D01*
X202197983Y-110436730D01*
X202188001Y-110440007D01*
X202142132Y-110466564D01*
X202097280Y-110507518D01*
X202063547Y-110553551D01*
X202062216Y-110556044D01*
X202050152Y-110596110D01*
X202045184Y-110649052D01*
X202047409Y-110703454D01*
G37*
X202047409Y-110703454D02*
X202056920Y-110747903D01*
X202060547Y-110756318D01*
X202096283Y-110801143D01*
X202146714Y-110830507D01*
X202206592Y-110844677D01*
X202270665Y-110843920D01*
X202333684Y-110828501D01*
X202390400Y-110798687D01*
X202435562Y-110754744D01*
X202447316Y-110736697D01*
X202466324Y-110685818D01*
X202475208Y-110624194D01*
X202473580Y-110562124D01*
X202461054Y-110509909D01*
X202456219Y-110499684D01*
X202430810Y-110468367D01*
X202400208Y-110445709D01*
X202359407Y-110433246D01*
X202304864Y-110427401D01*
X202247436Y-110428465D01*
X202197983Y-110436730D01*
X202188001Y-110440007D01*
X202142132Y-110466564D01*
X202097280Y-110507518D01*
X202063547Y-110553551D01*
X202062216Y-110556044D01*
X202050152Y-110596110D01*
X202045184Y-110649052D01*
X202047409Y-110703454D01*
G36*
X202380227Y-117591262D02*
G01*
X202425482Y-117620446D01*
X202461443Y-117644696D01*
X202483490Y-117660837D01*
X202488177Y-117665510D01*
X202480322Y-117676740D01*
X202458423Y-117702815D01*
X202425734Y-117739978D01*
X202385504Y-117784470D01*
X202380850Y-117789550D01*
X202272900Y-117907229D01*
X202272900Y-118122700D01*
X202307825Y-118121964D01*
X202330767Y-118114856D01*
X202369105Y-118093732D01*
X202423911Y-118057906D01*
X202496257Y-118006692D01*
X202552300Y-117965491D01*
X202761850Y-117809754D01*
X202765383Y-117643873D01*
X202766523Y-117575608D01*
X202766217Y-117528506D01*
X202764007Y-117498346D01*
X202759431Y-117480909D01*
X202752031Y-117471977D01*
X202746333Y-117469057D01*
X202677750Y-117442416D01*
X202604322Y-117414733D01*
X202530243Y-117387494D01*
X202459707Y-117362188D01*
X202396907Y-117340304D01*
X202346038Y-117323330D01*
X202311292Y-117312754D01*
X202297843Y-117309900D01*
X202285650Y-117312038D01*
X202278227Y-117321773D01*
X202274411Y-117344085D01*
X202273036Y-117383956D01*
X202272900Y-117416637D01*
X202272900Y-117523375D01*
X202380227Y-117591262D01*
G37*
X202380227Y-117591262D02*
X202425482Y-117620446D01*
X202461443Y-117644696D01*
X202483490Y-117660837D01*
X202488177Y-117665510D01*
X202480322Y-117676740D01*
X202458423Y-117702815D01*
X202425734Y-117739978D01*
X202385504Y-117784470D01*
X202380850Y-117789550D01*
X202272900Y-117907229D01*
X202272900Y-118122700D01*
X202307825Y-118121964D01*
X202330767Y-118114856D01*
X202369105Y-118093732D01*
X202423911Y-118057906D01*
X202496257Y-118006692D01*
X202552300Y-117965491D01*
X202761850Y-117809754D01*
X202765383Y-117643873D01*
X202766523Y-117575608D01*
X202766217Y-117528506D01*
X202764007Y-117498346D01*
X202759431Y-117480909D01*
X202752031Y-117471977D01*
X202746333Y-117469057D01*
X202677750Y-117442416D01*
X202604322Y-117414733D01*
X202530243Y-117387494D01*
X202459707Y-117362188D01*
X202396907Y-117340304D01*
X202346038Y-117323330D01*
X202311292Y-117312754D01*
X202297843Y-117309900D01*
X202285650Y-117312038D01*
X202278227Y-117321773D01*
X202274411Y-117344085D01*
X202273036Y-117383956D01*
X202272900Y-117416637D01*
X202272900Y-117523375D01*
X202380227Y-117591262D01*
G36*
X202303608Y-116878100D02*
G01*
X202323673Y-116870794D01*
X202358507Y-116848429D01*
X202409003Y-116810338D01*
X202476053Y-116755849D01*
X202551258Y-116692263D01*
X202768200Y-116506426D01*
X202768200Y-116402279D01*
X202767231Y-116353086D01*
X202764656Y-116314134D01*
X202760970Y-116292020D01*
X202759733Y-116289666D01*
X202751176Y-116284245D01*
X202738667Y-116283917D01*
X202719437Y-116290075D01*
X202690720Y-116304112D01*
X202649746Y-116327421D01*
X202593749Y-116361397D01*
X202519961Y-116407431D01*
X202496640Y-116422102D01*
X202272900Y-116563005D01*
X202272900Y-116878100D01*
X202303608Y-116878100D01*
G37*
X202303608Y-116878100D02*
X202323673Y-116870794D01*
X202358507Y-116848429D01*
X202409003Y-116810338D01*
X202476053Y-116755849D01*
X202551258Y-116692263D01*
X202768200Y-116506426D01*
X202768200Y-116402279D01*
X202767231Y-116353086D01*
X202764656Y-116314134D01*
X202760970Y-116292020D01*
X202759733Y-116289666D01*
X202751176Y-116284245D01*
X202738667Y-116283917D01*
X202719437Y-116290075D01*
X202690720Y-116304112D01*
X202649746Y-116327421D01*
X202593749Y-116361397D01*
X202519961Y-116407431D01*
X202496640Y-116422102D01*
X202272900Y-116563005D01*
X202272900Y-116878100D01*
X202303608Y-116878100D01*
G36*
X202070750Y-119831669D02*
G01*
X202094831Y-119875063D01*
X202131380Y-119897312D01*
X202158081Y-119900700D01*
X202186220Y-119896431D01*
X202230642Y-119884976D01*
X202283961Y-119868361D01*
X202313656Y-119858027D01*
X202348457Y-119845390D01*
X202401378Y-119826108D01*
X202469251Y-119801339D01*
X202548905Y-119772243D01*
X202637172Y-119739981D01*
X202730882Y-119705713D01*
X202826865Y-119670597D01*
X202921952Y-119635795D01*
X203012973Y-119602466D01*
X203096758Y-119571769D01*
X203170139Y-119544865D01*
X203229945Y-119522915D01*
X203273007Y-119507076D01*
X203296156Y-119498510D01*
X203298425Y-119497654D01*
X203308036Y-119501751D01*
X203313068Y-119525378D01*
X203314300Y-119563068D01*
X203314300Y-119634553D01*
X203239752Y-119682736D01*
X203172719Y-119718440D01*
X203089263Y-119751269D01*
X202998357Y-119778054D01*
X202928706Y-119792603D01*
X202887636Y-119806108D01*
X202852371Y-119828251D01*
X202849331Y-119831114D01*
X202831627Y-119853297D01*
X202822399Y-119880175D01*
X202819170Y-119920539D01*
X202819000Y-119938853D01*
X202825292Y-120009473D01*
X202843636Y-120061205D01*
X202873233Y-120092242D01*
X202889769Y-120098915D01*
X202959249Y-120104286D01*
X203037975Y-120089592D01*
X203121978Y-120056462D01*
X203207291Y-120006523D01*
X203289948Y-119941404D01*
X203303099Y-119929272D01*
X203344052Y-119891082D01*
X203371113Y-119868098D01*
X203388724Y-119857951D01*
X203401328Y-119858270D01*
X203413369Y-119866685D01*
X203416003Y-119869044D01*
X203454394Y-119888514D01*
X203512340Y-119897121D01*
X203586354Y-119894679D01*
X203666775Y-119882287D01*
X203729193Y-119870641D01*
X203772166Y-119867967D01*
X203800395Y-119877566D01*
X203818580Y-119902733D01*
X203831420Y-119946769D01*
X203842329Y-120005475D01*
X203848645Y-120031984D01*
X203859489Y-120047166D01*
X203879435Y-120051718D01*
X203913061Y-120046335D01*
X203964940Y-120031716D01*
X203981437Y-120026656D01*
X204067050Y-120000213D01*
X204059845Y-119858381D01*
X204054022Y-119772716D01*
X204045541Y-119707378D01*
X204033021Y-119657326D01*
X204015082Y-119617519D01*
X203990344Y-119582915D01*
X203981744Y-119573180D01*
X203956060Y-119547655D01*
X203932061Y-119533242D01*
X203900323Y-119526071D01*
X203858847Y-119522698D01*
X203801550Y-119523126D01*
X203736125Y-119529118D01*
X203689093Y-119536953D01*
X203645652Y-119545952D01*
X203613818Y-119551962D01*
X203599860Y-119553806D01*
X203599687Y-119553709D01*
X203600052Y-119540921D01*
X203601653Y-119509886D01*
X203603781Y-119473366D01*
X203608525Y-119395282D01*
X203756687Y-119354916D01*
X203846496Y-119330419D01*
X203914966Y-119311446D01*
X203965249Y-119296792D01*
X204000499Y-119285253D01*
X204023870Y-119275623D01*
X204038513Y-119266698D01*
X204047583Y-119257271D01*
X204054232Y-119246138D01*
X204057414Y-119239981D01*
X204067276Y-119207007D01*
X204073624Y-119158498D01*
X204076264Y-119103044D01*
X204075004Y-119049236D01*
X204069649Y-119005666D01*
X204063153Y-118985465D01*
X204044463Y-118965644D01*
X204030344Y-118960900D01*
X204016705Y-118953108D01*
X204017333Y-118945025D01*
X204038229Y-118889126D01*
X204052062Y-118834952D01*
X204059725Y-118775714D01*
X204062111Y-118704625D01*
X204060267Y-118618922D01*
X204053686Y-118514301D01*
X204041789Y-118429168D01*
X204023318Y-118357936D01*
X203997011Y-118295018D01*
X203980281Y-118264519D01*
X203970048Y-118244834D01*
X203966562Y-118226374D01*
X203970475Y-118202019D01*
X203982435Y-118164653D01*
X203991787Y-118138444D01*
X204026326Y-118026047D01*
X204050048Y-117907965D01*
X204063897Y-117778009D01*
X204068796Y-117633750D01*
X204068783Y-117555377D01*
X204067236Y-117496156D01*
X204063534Y-117449857D01*
X204057051Y-117410249D01*
X204047166Y-117371100D01*
X204040207Y-117348000D01*
X204022026Y-117294655D01*
X204002288Y-117244279D01*
X203985095Y-117207296D01*
X203984229Y-117205722D01*
X203957994Y-117158695D01*
X203991283Y-117084518D01*
X204023812Y-117000665D01*
X204045768Y-116914806D01*
X204058441Y-116819827D01*
X204063120Y-116708613D01*
X204063213Y-116687600D01*
X204060067Y-116573280D01*
X204050058Y-116481681D01*
X204032302Y-116410835D01*
X204005919Y-116358777D01*
X203970025Y-116323541D01*
X203923738Y-116303160D01*
X203887906Y-116296972D01*
X203824152Y-116290846D01*
X203909741Y-116206438D01*
X203977354Y-116132780D01*
X204024665Y-116062905D01*
X204054657Y-115990446D01*
X204070310Y-115909036D01*
X204073976Y-115855750D01*
X204075160Y-115797821D01*
X204072974Y-115756979D01*
X204066129Y-115724992D01*
X204053337Y-115693633D01*
X204046384Y-115679655D01*
X204014766Y-115617860D01*
X204040687Y-115515356D01*
X204051321Y-115469186D01*
X204058214Y-115426300D01*
X204061825Y-115379972D01*
X204062615Y-115323473D01*
X204061041Y-115250076D01*
X204060319Y-115227901D01*
X204054324Y-115121569D01*
X204043660Y-115035815D01*
X204027259Y-114966073D01*
X204004050Y-114907777D01*
X203973421Y-114857004D01*
X203945712Y-114818091D01*
X203984355Y-114740020D01*
X204028113Y-114637543D01*
X204054959Y-114542386D01*
X204063600Y-114462794D01*
X204062349Y-114425852D01*
X204056570Y-114407772D01*
X204043221Y-114402062D01*
X204035025Y-114401787D01*
X204007824Y-114405585D01*
X203966589Y-114415237D01*
X203930250Y-114425636D01*
X203888332Y-114439567D01*
X203864057Y-114452458D01*
X203850668Y-114470322D01*
X203841405Y-114499169D01*
X203839577Y-114506298D01*
X203821198Y-114567563D01*
X203798143Y-114619070D01*
X203767654Y-114662787D01*
X203726974Y-114700679D01*
X203673345Y-114734715D01*
X203604010Y-114766862D01*
X203516210Y-114799086D01*
X203407188Y-114833356D01*
X203362826Y-114846395D01*
X203292135Y-114866750D01*
X203229889Y-114884380D01*
X203180186Y-114898149D01*
X203147123Y-114906919D01*
X203135021Y-114909600D01*
X203129072Y-114898084D01*
X203123903Y-114868263D01*
X203121258Y-114836575D01*
X203118052Y-114794982D01*
X203112090Y-114772372D01*
X203100529Y-114762324D01*
X203087008Y-114759247D01*
X203054740Y-114759988D01*
X203013959Y-114767530D01*
X202974123Y-114779303D01*
X202944686Y-114792740D01*
X202936147Y-114800217D01*
X202930410Y-114819594D01*
X202924636Y-114855976D01*
X202920600Y-114895536D01*
X202914250Y-114976723D01*
X202812650Y-115007161D01*
X202761368Y-115022398D01*
X202693926Y-115042256D01*
X202618570Y-115064316D01*
X202543542Y-115086159D01*
X202533250Y-115089145D01*
X202441576Y-115116740D01*
X202371743Y-115141090D01*
X202320830Y-115164619D01*
X202285918Y-115189748D01*
X202264085Y-115218900D01*
X202252414Y-115254496D01*
X202247983Y-115298958D01*
X202247570Y-115326122D01*
X202252156Y-115405040D01*
X202266401Y-115461877D01*
X202291305Y-115498428D01*
X202327866Y-115516489D01*
X202354914Y-115519200D01*
X202376371Y-115515211D01*
X202417767Y-115504056D01*
X202475067Y-115486955D01*
X202544235Y-115465126D01*
X202621234Y-115439788D01*
X202649337Y-115430300D01*
X202726041Y-115404292D01*
X202794260Y-115381287D01*
X202850467Y-115362463D01*
X202891135Y-115348999D01*
X202912735Y-115342075D01*
X202915261Y-115341400D01*
X202917534Y-115353165D01*
X202920003Y-115384735D01*
X202922287Y-115430522D01*
X202923298Y-115458875D01*
X202926950Y-115576350D01*
X202971611Y-115580114D01*
X203018893Y-115577307D01*
X203064070Y-115563444D01*
X203099405Y-115541934D01*
X203117160Y-115516189D01*
X203117217Y-115515947D01*
X203120646Y-115490236D01*
X203123926Y-115447250D01*
X203126473Y-115395110D01*
X203126965Y-115380350D01*
X203130150Y-115273250D01*
X203377800Y-115198722D01*
X203477461Y-115168955D01*
X203555996Y-115146326D01*
X203616517Y-115130387D01*
X203662139Y-115120691D01*
X203695976Y-115116791D01*
X203721141Y-115118241D01*
X203740749Y-115124593D01*
X203757913Y-115135401D01*
X203767152Y-115142840D01*
X203800309Y-115185246D01*
X203824011Y-115244638D01*
X203837224Y-115314038D01*
X203838912Y-115386466D01*
X203828040Y-115454946D01*
X203817880Y-115484788D01*
X203798196Y-115531900D01*
X203705812Y-115532039D01*
X203705812Y-115895584D01*
X203759360Y-115899103D01*
X203790714Y-115913851D01*
X203801052Y-115941111D01*
X203791553Y-115982169D01*
X203789620Y-115986934D01*
X203768533Y-116028296D01*
X203741808Y-116069966D01*
X203738296Y-116074684D01*
X203694278Y-116121936D01*
X203630675Y-116175727D01*
X203551569Y-116233374D01*
X203461042Y-116292191D01*
X203363176Y-116349497D01*
X203262053Y-116402608D01*
X203183521Y-116439404D01*
X203109893Y-116471913D01*
X203091729Y-116428441D01*
X203080506Y-116389634D01*
X203084643Y-116353531D01*
X203088107Y-116342609D01*
X203127479Y-116261670D01*
X203187544Y-116181296D01*
X203263740Y-116104789D01*
X203351507Y-116035448D01*
X203446286Y-115976574D01*
X203543515Y-115931467D01*
X203638634Y-115903427D01*
X203705812Y-115895584D01*
X203705812Y-115532039D01*
X203699123Y-115532050D01*
X203573723Y-115544217D01*
X203445058Y-115579288D01*
X203316602Y-115635678D01*
X203191830Y-115711801D01*
X203074217Y-115806072D01*
X203051119Y-115827675D01*
X202959470Y-115927447D01*
X202891892Y-116028659D01*
X202847095Y-116134091D01*
X202823787Y-116246521D01*
X202819546Y-116325650D01*
X202821410Y-116393112D01*
X202827756Y-116443196D01*
X202839741Y-116483706D01*
X202844678Y-116495311D01*
X202862360Y-116536876D01*
X202868449Y-116560642D01*
X202863306Y-116571224D01*
X202850750Y-116573300D01*
X202817473Y-116584836D01*
X202794284Y-116618046D01*
X202782321Y-116670835D01*
X202780900Y-116702001D01*
X202786897Y-116781695D01*
X202803852Y-116848593D01*
X202830209Y-116899594D01*
X202864410Y-116931599D01*
X202901174Y-116941600D01*
X202925651Y-116936040D01*
X202966332Y-116921007D01*
X203017003Y-116898974D01*
X203058314Y-116879096D01*
X203172291Y-116824020D01*
X203287502Y-116772258D01*
X203399888Y-116725379D01*
X203505392Y-116684957D01*
X203599958Y-116652560D01*
X203679529Y-116629762D01*
X203728064Y-116619730D01*
X203774726Y-116618415D01*
X203806255Y-116633577D01*
X203826543Y-116668350D01*
X203836307Y-116706927D01*
X203840748Y-116783338D01*
X203829270Y-116867809D01*
X203804144Y-116947767D01*
X203789320Y-116977479D01*
X203774701Y-116987921D01*
X203755881Y-116985026D01*
X203696854Y-116968907D01*
X203636980Y-116959375D01*
X203566461Y-116955138D01*
X203525683Y-116954602D01*
X203396407Y-116963411D01*
X203279808Y-116991679D01*
X203171794Y-117041064D01*
X203068276Y-117113225D01*
X203012408Y-117162621D01*
X202958162Y-117217630D01*
X202917317Y-117269186D01*
X202882046Y-117327779D01*
X202866275Y-117358494D01*
X202812650Y-117466695D01*
X202812650Y-117620072D01*
X202813001Y-117685889D01*
X202814727Y-117732373D01*
X202818835Y-117765590D01*
X202826329Y-117791604D01*
X202838219Y-117816481D01*
X202848122Y-117833796D01*
X202895167Y-117892253D01*
X202955117Y-117928968D01*
X203028690Y-117944341D01*
X203047724Y-117944900D01*
X203118696Y-117935756D01*
X203172424Y-117909160D01*
X203207611Y-117866360D01*
X203222959Y-117808606D01*
X203222920Y-117776250D01*
X203218446Y-117741983D01*
X203206705Y-117723852D01*
X203180255Y-117712592D01*
X203169218Y-117709414D01*
X203132333Y-117693623D01*
X203104492Y-117672278D01*
X203100882Y-117667631D01*
X203091561Y-117632053D01*
X203101340Y-117587689D01*
X203127384Y-117538558D01*
X203166860Y-117488682D01*
X203216932Y-117442082D01*
X203274766Y-117402779D01*
X203295164Y-117392050D01*
X203385982Y-117357910D01*
X203477596Y-117341984D01*
X203565600Y-117343936D01*
X203645589Y-117363428D01*
X203713158Y-117400122D01*
X203742304Y-117426297D01*
X203780057Y-117481750D01*
X203809891Y-117555441D01*
X203830453Y-117641071D01*
X203840390Y-117732341D01*
X203838349Y-117822952D01*
X203834333Y-117854763D01*
X203822519Y-117920191D01*
X203809863Y-117974430D01*
X203797556Y-118013265D01*
X203786786Y-118032481D01*
X203783804Y-118033800D01*
X203767952Y-118029008D01*
X203737059Y-118016712D01*
X203712789Y-118006206D01*
X203661427Y-117990379D01*
X203592625Y-117978920D01*
X203514040Y-117972281D01*
X203433328Y-117970915D01*
X203417269Y-117971846D01*
X203417269Y-118345259D01*
X203495276Y-118345292D01*
X203530110Y-118351278D01*
X203566064Y-118361721D01*
X203589117Y-118371910D01*
X203593700Y-118376841D01*
X203584923Y-118389484D01*
X203561460Y-118414526D01*
X203527610Y-118447493D01*
X203510747Y-118463160D01*
X203447481Y-118514746D01*
X203378942Y-118559809D01*
X203309540Y-118596434D01*
X203243685Y-118622708D01*
X203185788Y-118636714D01*
X203140258Y-118636539D01*
X203124269Y-118630951D01*
X203090589Y-118602478D01*
X203080738Y-118565512D01*
X203092671Y-118523235D01*
X203129988Y-118471308D01*
X203186770Y-118425321D01*
X203257353Y-118387500D01*
X203336073Y-118360070D01*
X203417269Y-118345259D01*
X203417269Y-117971846D01*
X203358145Y-117975276D01*
X203310728Y-117982423D01*
X203202686Y-118016424D01*
X203099026Y-118070795D01*
X203004720Y-118141704D01*
X202924745Y-118225319D01*
X202864074Y-118317810D01*
X202857183Y-118331712D01*
X202835140Y-118382203D01*
X202821395Y-118427043D01*
X202813448Y-118476863D01*
X202809113Y-118536137D01*
X202808052Y-118619521D01*
X202815725Y-118685114D01*
X202833595Y-118739465D01*
X202863124Y-118789118D01*
X202866710Y-118793991D01*
X202917064Y-118841154D01*
X202984816Y-118874670D01*
X203065502Y-118893820D01*
X203154658Y-118897887D01*
X203247818Y-118886155D01*
X203317794Y-118866497D01*
X203421202Y-118820729D01*
X203527857Y-118756742D01*
X203630333Y-118679364D01*
X203692657Y-118622730D01*
X203734413Y-118581938D01*
X203762007Y-118556771D01*
X203779373Y-118545030D01*
X203790444Y-118544516D01*
X203799151Y-118553027D01*
X203804112Y-118560384D01*
X203816362Y-118588159D01*
X203828873Y-118630797D01*
X203837032Y-118669034D01*
X203842430Y-118752760D01*
X203826747Y-118827343D01*
X203789068Y-118894143D01*
X203728479Y-118954521D01*
X203644065Y-119009838D01*
X203589284Y-119037602D01*
X203555759Y-119051267D01*
X203500518Y-119071277D01*
X203426199Y-119096770D01*
X203335440Y-119126880D01*
X203230879Y-119160745D01*
X203115156Y-119197499D01*
X202990909Y-119236280D01*
X202860776Y-119276223D01*
X202857100Y-119277341D01*
X202734063Y-119314902D01*
X202617106Y-119350856D01*
X202508733Y-119384418D01*
X202411448Y-119414799D01*
X202327755Y-119441213D01*
X202260159Y-119462873D01*
X202211164Y-119478991D01*
X202183275Y-119488781D01*
X202179567Y-119490290D01*
X202121670Y-119527429D01*
X202082996Y-119579713D01*
X202062471Y-119648833D01*
X202059217Y-119679711D01*
X202058943Y-119766697D01*
X202070750Y-119831669D01*
G37*
X202070750Y-119831669D02*
X202094831Y-119875063D01*
X202131380Y-119897312D01*
X202158081Y-119900700D01*
X202186220Y-119896431D01*
X202230642Y-119884976D01*
X202283961Y-119868361D01*
X202313656Y-119858027D01*
X202348457Y-119845390D01*
X202401378Y-119826108D01*
X202469251Y-119801339D01*
X202548905Y-119772243D01*
X202637172Y-119739981D01*
X202730882Y-119705713D01*
X202826865Y-119670597D01*
X202921952Y-119635795D01*
X203012973Y-119602466D01*
X203096758Y-119571769D01*
X203170139Y-119544865D01*
X203229945Y-119522915D01*
X203273007Y-119507076D01*
X203296156Y-119498510D01*
X203298425Y-119497654D01*
X203308036Y-119501751D01*
X203313068Y-119525378D01*
X203314300Y-119563068D01*
X203314300Y-119634553D01*
X203239752Y-119682736D01*
X203172719Y-119718440D01*
X203089263Y-119751269D01*
X202998357Y-119778054D01*
X202928706Y-119792603D01*
X202887636Y-119806108D01*
X202852371Y-119828251D01*
X202849331Y-119831114D01*
X202831627Y-119853297D01*
X202822399Y-119880175D01*
X202819170Y-119920539D01*
X202819000Y-119938853D01*
X202825292Y-120009473D01*
X202843636Y-120061205D01*
X202873233Y-120092242D01*
X202889769Y-120098915D01*
X202959249Y-120104286D01*
X203037975Y-120089592D01*
X203121978Y-120056462D01*
X203207291Y-120006523D01*
X203289948Y-119941404D01*
X203303099Y-119929272D01*
X203344052Y-119891082D01*
X203371113Y-119868098D01*
X203388724Y-119857951D01*
X203401328Y-119858270D01*
X203413369Y-119866685D01*
X203416003Y-119869044D01*
X203454394Y-119888514D01*
X203512340Y-119897121D01*
X203586354Y-119894679D01*
X203666775Y-119882287D01*
X203729193Y-119870641D01*
X203772166Y-119867967D01*
X203800395Y-119877566D01*
X203818580Y-119902733D01*
X203831420Y-119946769D01*
X203842329Y-120005475D01*
X203848645Y-120031984D01*
X203859489Y-120047166D01*
X203879435Y-120051718D01*
X203913061Y-120046335D01*
X203964940Y-120031716D01*
X203981437Y-120026656D01*
X204067050Y-120000213D01*
X204059845Y-119858381D01*
X204054022Y-119772716D01*
X204045541Y-119707378D01*
X204033021Y-119657326D01*
X204015082Y-119617519D01*
X203990344Y-119582915D01*
X203981744Y-119573180D01*
X203956060Y-119547655D01*
X203932061Y-119533242D01*
X203900323Y-119526071D01*
X203858847Y-119522698D01*
X203801550Y-119523126D01*
X203736125Y-119529118D01*
X203689093Y-119536953D01*
X203645652Y-119545952D01*
X203613818Y-119551962D01*
X203599860Y-119553806D01*
X203599687Y-119553709D01*
X203600052Y-119540921D01*
X203601653Y-119509886D01*
X203603781Y-119473366D01*
X203608525Y-119395282D01*
X203756687Y-119354916D01*
X203846496Y-119330419D01*
X203914966Y-119311446D01*
X203965249Y-119296792D01*
X204000499Y-119285253D01*
X204023870Y-119275623D01*
X204038513Y-119266698D01*
X204047583Y-119257271D01*
X204054232Y-119246138D01*
X204057414Y-119239981D01*
X204067276Y-119207007D01*
X204073624Y-119158498D01*
X204076264Y-119103044D01*
X204075004Y-119049236D01*
X204069649Y-119005666D01*
X204063153Y-118985465D01*
X204044463Y-118965644D01*
X204030344Y-118960900D01*
X204016705Y-118953108D01*
X204017333Y-118945025D01*
X204038229Y-118889126D01*
X204052062Y-118834952D01*
X204059725Y-118775714D01*
X204062111Y-118704625D01*
X204060267Y-118618922D01*
X204053686Y-118514301D01*
X204041789Y-118429168D01*
X204023318Y-118357936D01*
X203997011Y-118295018D01*
X203980281Y-118264519D01*
X203970048Y-118244834D01*
X203966562Y-118226374D01*
X203970475Y-118202019D01*
X203982435Y-118164653D01*
X203991787Y-118138444D01*
X204026326Y-118026047D01*
X204050048Y-117907965D01*
X204063897Y-117778009D01*
X204068796Y-117633750D01*
X204068783Y-117555377D01*
X204067236Y-117496156D01*
X204063534Y-117449857D01*
X204057051Y-117410249D01*
X204047166Y-117371100D01*
X204040207Y-117348000D01*
X204022026Y-117294655D01*
X204002288Y-117244279D01*
X203985095Y-117207296D01*
X203984229Y-117205722D01*
X203957994Y-117158695D01*
X203991283Y-117084518D01*
X204023812Y-117000665D01*
X204045768Y-116914806D01*
X204058441Y-116819827D01*
X204063120Y-116708613D01*
X204063213Y-116687600D01*
X204060067Y-116573280D01*
X204050058Y-116481681D01*
X204032302Y-116410835D01*
X204005919Y-116358777D01*
X203970025Y-116323541D01*
X203923738Y-116303160D01*
X203887906Y-116296972D01*
X203824152Y-116290846D01*
X203909741Y-116206438D01*
X203977354Y-116132780D01*
X204024665Y-116062905D01*
X204054657Y-115990446D01*
X204070310Y-115909036D01*
X204073976Y-115855750D01*
X204075160Y-115797821D01*
X204072974Y-115756979D01*
X204066129Y-115724992D01*
X204053337Y-115693633D01*
X204046384Y-115679655D01*
X204014766Y-115617860D01*
X204040687Y-115515356D01*
X204051321Y-115469186D01*
X204058214Y-115426300D01*
X204061825Y-115379972D01*
X204062615Y-115323473D01*
X204061041Y-115250076D01*
X204060319Y-115227901D01*
X204054324Y-115121569D01*
X204043660Y-115035815D01*
X204027259Y-114966073D01*
X204004050Y-114907777D01*
X203973421Y-114857004D01*
X203945712Y-114818091D01*
X203984355Y-114740020D01*
X204028113Y-114637543D01*
X204054959Y-114542386D01*
X204063600Y-114462794D01*
X204062349Y-114425852D01*
X204056570Y-114407772D01*
X204043221Y-114402062D01*
X204035025Y-114401787D01*
X204007824Y-114405585D01*
X203966589Y-114415237D01*
X203930250Y-114425636D01*
X203888332Y-114439567D01*
X203864057Y-114452458D01*
X203850668Y-114470322D01*
X203841405Y-114499169D01*
X203839577Y-114506298D01*
X203821198Y-114567563D01*
X203798143Y-114619070D01*
X203767654Y-114662787D01*
X203726974Y-114700679D01*
X203673345Y-114734715D01*
X203604010Y-114766862D01*
X203516210Y-114799086D01*
X203407188Y-114833356D01*
X203362826Y-114846395D01*
X203292135Y-114866750D01*
X203229889Y-114884380D01*
X203180186Y-114898149D01*
X203147123Y-114906919D01*
X203135021Y-114909600D01*
X203129072Y-114898084D01*
X203123903Y-114868263D01*
X203121258Y-114836575D01*
X203118052Y-114794982D01*
X203112090Y-114772372D01*
X203100529Y-114762324D01*
X203087008Y-114759247D01*
X203054740Y-114759988D01*
X203013959Y-114767530D01*
X202974123Y-114779303D01*
X202944686Y-114792740D01*
X202936147Y-114800217D01*
X202930410Y-114819594D01*
X202924636Y-114855976D01*
X202920600Y-114895536D01*
X202914250Y-114976723D01*
X202812650Y-115007161D01*
X202761368Y-115022398D01*
X202693926Y-115042256D01*
X202618570Y-115064316D01*
X202543542Y-115086159D01*
X202533250Y-115089145D01*
X202441576Y-115116740D01*
X202371743Y-115141090D01*
X202320830Y-115164619D01*
X202285918Y-115189748D01*
X202264085Y-115218900D01*
X202252414Y-115254496D01*
X202247983Y-115298958D01*
X202247570Y-115326122D01*
X202252156Y-115405040D01*
X202266401Y-115461877D01*
X202291305Y-115498428D01*
X202327866Y-115516489D01*
X202354914Y-115519200D01*
X202376371Y-115515211D01*
X202417767Y-115504056D01*
X202475067Y-115486955D01*
X202544235Y-115465126D01*
X202621234Y-115439788D01*
X202649337Y-115430300D01*
X202726041Y-115404292D01*
X202794260Y-115381287D01*
X202850467Y-115362463D01*
X202891135Y-115348999D01*
X202912735Y-115342075D01*
X202915261Y-115341400D01*
X202917534Y-115353165D01*
X202920003Y-115384735D01*
X202922287Y-115430522D01*
X202923298Y-115458875D01*
X202926950Y-115576350D01*
X202971611Y-115580114D01*
X203018893Y-115577307D01*
X203064070Y-115563444D01*
X203099405Y-115541934D01*
X203117160Y-115516189D01*
X203117217Y-115515947D01*
X203120646Y-115490236D01*
X203123926Y-115447250D01*
X203126473Y-115395110D01*
X203126965Y-115380350D01*
X203130150Y-115273250D01*
X203377800Y-115198722D01*
X203477461Y-115168955D01*
X203555996Y-115146326D01*
X203616517Y-115130387D01*
X203662139Y-115120691D01*
X203695976Y-115116791D01*
X203721141Y-115118241D01*
X203740749Y-115124593D01*
X203757913Y-115135401D01*
X203767152Y-115142840D01*
X203800309Y-115185246D01*
X203824011Y-115244638D01*
X203837224Y-115314038D01*
X203838912Y-115386466D01*
X203828040Y-115454946D01*
X203817880Y-115484788D01*
X203798196Y-115531900D01*
X203705812Y-115532039D01*
X203705812Y-115895584D01*
X203759360Y-115899103D01*
X203790714Y-115913851D01*
X203801052Y-115941111D01*
X203791553Y-115982169D01*
X203789620Y-115986934D01*
X203768533Y-116028296D01*
X203741808Y-116069966D01*
X203738296Y-116074684D01*
X203694278Y-116121936D01*
X203630675Y-116175727D01*
X203551569Y-116233374D01*
X203461042Y-116292191D01*
X203363176Y-116349497D01*
X203262053Y-116402608D01*
X203183521Y-116439404D01*
X203109893Y-116471913D01*
X203091729Y-116428441D01*
X203080506Y-116389634D01*
X203084643Y-116353531D01*
X203088107Y-116342609D01*
X203127479Y-116261670D01*
X203187544Y-116181296D01*
X203263740Y-116104789D01*
X203351507Y-116035448D01*
X203446286Y-115976574D01*
X203543515Y-115931467D01*
X203638634Y-115903427D01*
X203705812Y-115895584D01*
X203705812Y-115532039D01*
X203699123Y-115532050D01*
X203573723Y-115544217D01*
X203445058Y-115579288D01*
X203316602Y-115635678D01*
X203191830Y-115711801D01*
X203074217Y-115806072D01*
X203051119Y-115827675D01*
X202959470Y-115927447D01*
X202891892Y-116028659D01*
X202847095Y-116134091D01*
X202823787Y-116246521D01*
X202819546Y-116325650D01*
X202821410Y-116393112D01*
X202827756Y-116443196D01*
X202839741Y-116483706D01*
X202844678Y-116495311D01*
X202862360Y-116536876D01*
X202868449Y-116560642D01*
X202863306Y-116571224D01*
X202850750Y-116573300D01*
X202817473Y-116584836D01*
X202794284Y-116618046D01*
X202782321Y-116670835D01*
X202780900Y-116702001D01*
X202786897Y-116781695D01*
X202803852Y-116848593D01*
X202830209Y-116899594D01*
X202864410Y-116931599D01*
X202901174Y-116941600D01*
X202925651Y-116936040D01*
X202966332Y-116921007D01*
X203017003Y-116898974D01*
X203058314Y-116879096D01*
X203172291Y-116824020D01*
X203287502Y-116772258D01*
X203399888Y-116725379D01*
X203505392Y-116684957D01*
X203599958Y-116652560D01*
X203679529Y-116629762D01*
X203728064Y-116619730D01*
X203774726Y-116618415D01*
X203806255Y-116633577D01*
X203826543Y-116668350D01*
X203836307Y-116706927D01*
X203840748Y-116783338D01*
X203829270Y-116867809D01*
X203804144Y-116947767D01*
X203789320Y-116977479D01*
X203774701Y-116987921D01*
X203755881Y-116985026D01*
X203696854Y-116968907D01*
X203636980Y-116959375D01*
X203566461Y-116955138D01*
X203525683Y-116954602D01*
X203396407Y-116963411D01*
X203279808Y-116991679D01*
X203171794Y-117041064D01*
X203068276Y-117113225D01*
X203012408Y-117162621D01*
X202958162Y-117217630D01*
X202917317Y-117269186D01*
X202882046Y-117327779D01*
X202866275Y-117358494D01*
X202812650Y-117466695D01*
X202812650Y-117620072D01*
X202813001Y-117685889D01*
X202814727Y-117732373D01*
X202818835Y-117765590D01*
X202826329Y-117791604D01*
X202838219Y-117816481D01*
X202848122Y-117833796D01*
X202895167Y-117892253D01*
X202955117Y-117928968D01*
X203028690Y-117944341D01*
X203047724Y-117944900D01*
X203118696Y-117935756D01*
X203172424Y-117909160D01*
X203207611Y-117866360D01*
X203222959Y-117808606D01*
X203222920Y-117776250D01*
X203218446Y-117741983D01*
X203206705Y-117723852D01*
X203180255Y-117712592D01*
X203169218Y-117709414D01*
X203132333Y-117693623D01*
X203104492Y-117672278D01*
X203100882Y-117667631D01*
X203091561Y-117632053D01*
X203101340Y-117587689D01*
X203127384Y-117538558D01*
X203166860Y-117488682D01*
X203216932Y-117442082D01*
X203274766Y-117402779D01*
X203295164Y-117392050D01*
X203385982Y-117357910D01*
X203477596Y-117341984D01*
X203565600Y-117343936D01*
X203645589Y-117363428D01*
X203713158Y-117400122D01*
X203742304Y-117426297D01*
X203780057Y-117481750D01*
X203809891Y-117555441D01*
X203830453Y-117641071D01*
X203840390Y-117732341D01*
X203838349Y-117822952D01*
X203834333Y-117854763D01*
X203822519Y-117920191D01*
X203809863Y-117974430D01*
X203797556Y-118013265D01*
X203786786Y-118032481D01*
X203783804Y-118033800D01*
X203767952Y-118029008D01*
X203737059Y-118016712D01*
X203712789Y-118006206D01*
X203661427Y-117990379D01*
X203592625Y-117978920D01*
X203514040Y-117972281D01*
X203433328Y-117970915D01*
X203417269Y-117971846D01*
X203417269Y-118345259D01*
X203495276Y-118345292D01*
X203530110Y-118351278D01*
X203566064Y-118361721D01*
X203589117Y-118371910D01*
X203593700Y-118376841D01*
X203584923Y-118389484D01*
X203561460Y-118414526D01*
X203527610Y-118447493D01*
X203510747Y-118463160D01*
X203447481Y-118514746D01*
X203378942Y-118559809D01*
X203309540Y-118596434D01*
X203243685Y-118622708D01*
X203185788Y-118636714D01*
X203140258Y-118636539D01*
X203124269Y-118630951D01*
X203090589Y-118602478D01*
X203080738Y-118565512D01*
X203092671Y-118523235D01*
X203129988Y-118471308D01*
X203186770Y-118425321D01*
X203257353Y-118387500D01*
X203336073Y-118360070D01*
X203417269Y-118345259D01*
X203417269Y-117971846D01*
X203358145Y-117975276D01*
X203310728Y-117982423D01*
X203202686Y-118016424D01*
X203099026Y-118070795D01*
X203004720Y-118141704D01*
X202924745Y-118225319D01*
X202864074Y-118317810D01*
X202857183Y-118331712D01*
X202835140Y-118382203D01*
X202821395Y-118427043D01*
X202813448Y-118476863D01*
X202809113Y-118536137D01*
X202808052Y-118619521D01*
X202815725Y-118685114D01*
X202833595Y-118739465D01*
X202863124Y-118789118D01*
X202866710Y-118793991D01*
X202917064Y-118841154D01*
X202984816Y-118874670D01*
X203065502Y-118893820D01*
X203154658Y-118897887D01*
X203247818Y-118886155D01*
X203317794Y-118866497D01*
X203421202Y-118820729D01*
X203527857Y-118756742D01*
X203630333Y-118679364D01*
X203692657Y-118622730D01*
X203734413Y-118581938D01*
X203762007Y-118556771D01*
X203779373Y-118545030D01*
X203790444Y-118544516D01*
X203799151Y-118553027D01*
X203804112Y-118560384D01*
X203816362Y-118588159D01*
X203828873Y-118630797D01*
X203837032Y-118669034D01*
X203842430Y-118752760D01*
X203826747Y-118827343D01*
X203789068Y-118894143D01*
X203728479Y-118954521D01*
X203644065Y-119009838D01*
X203589284Y-119037602D01*
X203555759Y-119051267D01*
X203500518Y-119071277D01*
X203426199Y-119096770D01*
X203335440Y-119126880D01*
X203230879Y-119160745D01*
X203115156Y-119197499D01*
X202990909Y-119236280D01*
X202860776Y-119276223D01*
X202857100Y-119277341D01*
X202734063Y-119314902D01*
X202617106Y-119350856D01*
X202508733Y-119384418D01*
X202411448Y-119414799D01*
X202327755Y-119441213D01*
X202260159Y-119462873D01*
X202211164Y-119478991D01*
X202183275Y-119488781D01*
X202179567Y-119490290D01*
X202121670Y-119527429D01*
X202082996Y-119579713D01*
X202062471Y-119648833D01*
X202059217Y-119679711D01*
X202058943Y-119766697D01*
X202070750Y-119831669D01*
G36*
X202026640Y-106321229D02*
G01*
X202044314Y-106368317D01*
X202073392Y-106409215D01*
X202133810Y-106461071D01*
X202206248Y-106491667D01*
X202292875Y-106501920D01*
X202293093Y-106501921D01*
X202335239Y-106500322D01*
X202381323Y-106494775D01*
X202433411Y-106484598D01*
X202493572Y-106469105D01*
X202563873Y-106447614D01*
X202646381Y-106419442D01*
X202743165Y-106383904D01*
X202856291Y-106340318D01*
X202987827Y-106288000D01*
X203139841Y-106226267D01*
X203193375Y-106204318D01*
X203279428Y-106169517D01*
X203366236Y-106135384D01*
X203448112Y-106104085D01*
X203519366Y-106077786D01*
X203574311Y-106058655D01*
X203584722Y-106055280D01*
X203641301Y-106037654D01*
X203679689Y-106027239D01*
X203705845Y-106023385D01*
X203725732Y-106025443D01*
X203745310Y-106032762D01*
X203753974Y-106036819D01*
X203790582Y-106062055D01*
X203816031Y-106099477D01*
X203831641Y-106152639D01*
X203838731Y-106225095D01*
X203839494Y-106267250D01*
X203836243Y-106348626D01*
X203826300Y-106407631D01*
X203818845Y-106429175D01*
X203798196Y-106476800D01*
X203705812Y-106476939D01*
X203705812Y-106840484D01*
X203759360Y-106844003D01*
X203790714Y-106858751D01*
X203801052Y-106886011D01*
X203791553Y-106927069D01*
X203789620Y-106931834D01*
X203768533Y-106973196D01*
X203741808Y-107014866D01*
X203738296Y-107019584D01*
X203694278Y-107066836D01*
X203630675Y-107120627D01*
X203551569Y-107178274D01*
X203461042Y-107237091D01*
X203363176Y-107294397D01*
X203262053Y-107347508D01*
X203183521Y-107384304D01*
X203109893Y-107416813D01*
X203091729Y-107373341D01*
X203080506Y-107334534D01*
X203084643Y-107298431D01*
X203088107Y-107287509D01*
X203127479Y-107206570D01*
X203187544Y-107126196D01*
X203263740Y-107049689D01*
X203351507Y-106980348D01*
X203446286Y-106921474D01*
X203543515Y-106876367D01*
X203638634Y-106848327D01*
X203705812Y-106840484D01*
X203705812Y-106476939D01*
X203699123Y-106476950D01*
X203573723Y-106489117D01*
X203445058Y-106524188D01*
X203316602Y-106580578D01*
X203191830Y-106656701D01*
X203074217Y-106750972D01*
X203051119Y-106772575D01*
X202959470Y-106872347D01*
X202891892Y-106973559D01*
X202847095Y-107078991D01*
X202823787Y-107191421D01*
X202819546Y-107270550D01*
X202821410Y-107338012D01*
X202827756Y-107388096D01*
X202839741Y-107428606D01*
X202844678Y-107440211D01*
X202862360Y-107481776D01*
X202868449Y-107505542D01*
X202863306Y-107516124D01*
X202850750Y-107518200D01*
X202817473Y-107529736D01*
X202794284Y-107562946D01*
X202782321Y-107615735D01*
X202780900Y-107646901D01*
X202786897Y-107726595D01*
X202803852Y-107793493D01*
X202830209Y-107844494D01*
X202864410Y-107876499D01*
X202901174Y-107886500D01*
X202925651Y-107880940D01*
X202966332Y-107865907D01*
X203017003Y-107843874D01*
X203058314Y-107823996D01*
X203172291Y-107768920D01*
X203287502Y-107717158D01*
X203399888Y-107670279D01*
X203505392Y-107629857D01*
X203599958Y-107597460D01*
X203679529Y-107574662D01*
X203728064Y-107564630D01*
X203775937Y-107563583D01*
X203808058Y-107579846D01*
X203828253Y-107616311D01*
X203835649Y-107645952D01*
X203836892Y-107718667D01*
X203813535Y-107792434D01*
X203766271Y-107865938D01*
X203695789Y-107937864D01*
X203672026Y-107957511D01*
X203625306Y-107989823D01*
X203559636Y-108028648D01*
X203479836Y-108071547D01*
X203390727Y-108116082D01*
X203297129Y-108159812D01*
X203203861Y-108200299D01*
X203146985Y-108223220D01*
X203091697Y-108244473D01*
X203054011Y-108257413D01*
X203027876Y-108262971D01*
X203007239Y-108262084D01*
X202986045Y-108255685D01*
X202972103Y-108250213D01*
X202900435Y-108231576D01*
X202826886Y-108229838D01*
X202757121Y-108243622D01*
X202696801Y-108271550D01*
X202651590Y-108312245D01*
X202639362Y-108331118D01*
X202621007Y-108385628D01*
X202615686Y-108449177D01*
X202623309Y-108511091D01*
X202641253Y-108556741D01*
X202672801Y-108593679D01*
X202715130Y-108614673D01*
X202773019Y-108621536D01*
X202808599Y-108620285D01*
X202880748Y-108615255D01*
X202934055Y-108708423D01*
X202985430Y-108794018D01*
X203030274Y-108858394D01*
X203071210Y-108904023D01*
X203110859Y-108933378D01*
X203151846Y-108948933D01*
X203193650Y-108953181D01*
X203229328Y-108951457D01*
X203266327Y-108945391D01*
X203308985Y-108933595D01*
X203361639Y-108914681D01*
X203428628Y-108887260D01*
X203509434Y-108852092D01*
X203596685Y-108814211D01*
X203664218Y-108786770D01*
X203715029Y-108768844D01*
X203752117Y-108759510D01*
X203778479Y-108757843D01*
X203797113Y-108762919D01*
X203797680Y-108763217D01*
X203818866Y-108787635D01*
X203832519Y-108830043D01*
X203838364Y-108884093D01*
X203836126Y-108943435D01*
X203825533Y-109001718D01*
X203809862Y-109045454D01*
X203785753Y-109088548D01*
X203755434Y-109125848D01*
X203715962Y-109159009D01*
X203664394Y-109189682D01*
X203597788Y-109219520D01*
X203513200Y-109250175D01*
X203407688Y-109283302D01*
X203362826Y-109296495D01*
X203292135Y-109316850D01*
X203229889Y-109334480D01*
X203180186Y-109348249D01*
X203147123Y-109357019D01*
X203135021Y-109359699D01*
X203129072Y-109348184D01*
X203123903Y-109318363D01*
X203121258Y-109286675D01*
X203118052Y-109245082D01*
X203112090Y-109222472D01*
X203100529Y-109212424D01*
X203087008Y-109209347D01*
X203054740Y-109210088D01*
X203013959Y-109217630D01*
X202974123Y-109229403D01*
X202944686Y-109242840D01*
X202936147Y-109250317D01*
X202930410Y-109269694D01*
X202924636Y-109306076D01*
X202920600Y-109345636D01*
X202914250Y-109426823D01*
X202812650Y-109457261D01*
X202761368Y-109472498D01*
X202693926Y-109492356D01*
X202618570Y-109514416D01*
X202543542Y-109536259D01*
X202533250Y-109539245D01*
X202441576Y-109566840D01*
X202371743Y-109591190D01*
X202320830Y-109614719D01*
X202285918Y-109639848D01*
X202264085Y-109669000D01*
X202252414Y-109704596D01*
X202247983Y-109749058D01*
X202247570Y-109776222D01*
X202252156Y-109855140D01*
X202266401Y-109911977D01*
X202291305Y-109948528D01*
X202327866Y-109966589D01*
X202354914Y-109969300D01*
X202376371Y-109965311D01*
X202417767Y-109954156D01*
X202475067Y-109937055D01*
X202544235Y-109915226D01*
X202621234Y-109889888D01*
X202649337Y-109880400D01*
X202726041Y-109854392D01*
X202794260Y-109831387D01*
X202850467Y-109812563D01*
X202891135Y-109799099D01*
X202912735Y-109792175D01*
X202915261Y-109791500D01*
X202917534Y-109803265D01*
X202920003Y-109834835D01*
X202922287Y-109880622D01*
X202923298Y-109908975D01*
X202926950Y-110026450D01*
X202971611Y-110030214D01*
X203018893Y-110027407D01*
X203064070Y-110013544D01*
X203099405Y-109992034D01*
X203117160Y-109966289D01*
X203117217Y-109966047D01*
X203120646Y-109940336D01*
X203123926Y-109897350D01*
X203126473Y-109845210D01*
X203126965Y-109830450D01*
X203130150Y-109723350D01*
X203377800Y-109648822D01*
X203477461Y-109619055D01*
X203555996Y-109596426D01*
X203616517Y-109580487D01*
X203662139Y-109570791D01*
X203695976Y-109566891D01*
X203721141Y-109568341D01*
X203740749Y-109574693D01*
X203757913Y-109585501D01*
X203767152Y-109592940D01*
X203801939Y-109635722D01*
X203822286Y-109683500D01*
X203836830Y-109766190D01*
X203830588Y-109839697D01*
X203802567Y-109905836D01*
X203751774Y-109966422D01*
X203677216Y-110023268D01*
X203617166Y-110058205D01*
X203563860Y-110083023D01*
X203491741Y-110111490D01*
X203406769Y-110141643D01*
X203314904Y-110171518D01*
X203222103Y-110199152D01*
X203134328Y-110222583D01*
X203079350Y-110235371D01*
X202985653Y-110260029D01*
X202914636Y-110290380D01*
X202863759Y-110329094D01*
X202830484Y-110378839D01*
X202812270Y-110442286D01*
X202806578Y-110522099D01*
X202809104Y-110581052D01*
X202818736Y-110624066D01*
X202837927Y-110651897D01*
X202869128Y-110665298D01*
X202914792Y-110665024D01*
X202977372Y-110651829D01*
X203059319Y-110626468D01*
X203100052Y-110612388D01*
X203213823Y-110572935D01*
X203324816Y-110535718D01*
X203430260Y-110501567D01*
X203527388Y-110471312D01*
X203613430Y-110445783D01*
X203685617Y-110425809D01*
X203741181Y-110412220D01*
X203777353Y-110405847D01*
X203788958Y-110405915D01*
X203809203Y-110415678D01*
X203822688Y-110436926D01*
X203833626Y-110476443D01*
X203834084Y-110478565D01*
X203840583Y-110552652D01*
X203824978Y-110618698D01*
X203785896Y-110681464D01*
X203770375Y-110699298D01*
X203719240Y-110745628D01*
X203653233Y-110788926D01*
X203570372Y-110830033D01*
X203468677Y-110869785D01*
X203346165Y-110909023D01*
X203200856Y-110948585D01*
X203153601Y-110960377D01*
X203048774Y-110987036D01*
X202966299Y-111010973D01*
X202903548Y-111034083D01*
X202857897Y-111058259D01*
X202826718Y-111085396D01*
X202807387Y-111117389D01*
X202797276Y-111156132D01*
X202793761Y-111203518D01*
X202793600Y-111220067D01*
X202797554Y-111298897D01*
X202809630Y-111354567D01*
X202830150Y-111388090D01*
X202850317Y-111399076D01*
X202876482Y-111397709D01*
X202921951Y-111386604D01*
X202983010Y-111366759D01*
X203016308Y-111354593D01*
X203070543Y-111334502D01*
X203115205Y-111318614D01*
X203145489Y-111308595D01*
X203156556Y-111306018D01*
X203149146Y-111315083D01*
X203126783Y-111336185D01*
X203094003Y-111365077D01*
X203087721Y-111370458D01*
X203008317Y-111445497D01*
X202937861Y-111526216D01*
X202881842Y-111605984D01*
X202859838Y-111645700D01*
X202839284Y-111694638D01*
X202827376Y-111744761D01*
X202821570Y-111807328D01*
X202821124Y-111817150D01*
X202819828Y-111870613D01*
X202822265Y-111906719D01*
X202829838Y-111933402D01*
X202843950Y-111958596D01*
X202846905Y-111963014D01*
X202874235Y-111996505D01*
X202906020Y-112020536D01*
X202944517Y-112034870D01*
X202991986Y-112039270D01*
X203050683Y-112033500D01*
X203122869Y-112017324D01*
X203210800Y-111990504D01*
X203316737Y-111952805D01*
X203442936Y-111903990D01*
X203454552Y-111899367D01*
X203525210Y-111871731D01*
X203594173Y-111845700D01*
X203655012Y-111823638D01*
X203701302Y-111807907D01*
X203714125Y-111803968D01*
X203755602Y-111792418D01*
X203780067Y-111788478D01*
X203794847Y-111792490D01*
X203807270Y-111804797D01*
X203810265Y-111808467D01*
X203824486Y-111836474D01*
X203836322Y-111877579D01*
X203840053Y-111898966D01*
X203846233Y-111936871D01*
X203854498Y-111955803D01*
X203869139Y-111962092D01*
X203883062Y-111962424D01*
X203914589Y-111958186D01*
X203958271Y-111948152D01*
X203987400Y-111939793D01*
X204057250Y-111917938D01*
X204061478Y-111829444D01*
X204060500Y-111742079D01*
X204050261Y-111656741D01*
X204032103Y-111581186D01*
X204008991Y-111525976D01*
X203973656Y-111475361D01*
X203932434Y-111443125D01*
X203878734Y-111425460D01*
X203824440Y-111419377D01*
X203779148Y-111419436D01*
X203730043Y-111425288D01*
X203673838Y-111437910D01*
X203607248Y-111458278D01*
X203526986Y-111487367D01*
X203429767Y-111526154D01*
X203344154Y-111562023D01*
X203283326Y-111587479D01*
X203230381Y-111608890D01*
X203189915Y-111624454D01*
X203166522Y-111632369D01*
X203163179Y-111633000D01*
X203150420Y-111627549D01*
X203154630Y-111610267D01*
X203176619Y-111579762D01*
X203217200Y-111534640D01*
X203225571Y-111525868D01*
X203330043Y-111430438D01*
X203456185Y-111338148D01*
X203600277Y-111251332D01*
X203758603Y-111172323D01*
X203854050Y-111131571D01*
X203906979Y-111109572D01*
X203953629Y-111088869D01*
X203987059Y-111072599D01*
X203996761Y-111067035D01*
X204033931Y-111028740D01*
X204060728Y-110972211D01*
X204074773Y-110903323D01*
X204076300Y-110870671D01*
X204071978Y-110804857D01*
X204059007Y-110762908D01*
X204037380Y-110744803D01*
X204030344Y-110744000D01*
X204016705Y-110736208D01*
X204017333Y-110728125D01*
X204039293Y-110668428D01*
X204053423Y-110609609D01*
X204060751Y-110544327D01*
X204062303Y-110465237D01*
X204061132Y-110415109D01*
X204054964Y-110317148D01*
X204043160Y-110240842D01*
X204024732Y-110182878D01*
X203998695Y-110139940D01*
X203971633Y-110114113D01*
X203940237Y-110090431D01*
X203982006Y-110026690D01*
X204017328Y-109965058D01*
X204041547Y-109902220D01*
X204055901Y-109832250D01*
X204061628Y-109749221D01*
X204060196Y-109652574D01*
X204051780Y-109541257D01*
X204036028Y-109450483D01*
X204011919Y-109376195D01*
X203978435Y-109314332D01*
X203973421Y-109307104D01*
X203945712Y-109268191D01*
X203984355Y-109190120D01*
X204020431Y-109109886D01*
X204044209Y-109036362D01*
X204057778Y-108960179D01*
X204063225Y-108871970D01*
X204063600Y-108834560D01*
X204059224Y-108707144D01*
X204045698Y-108602520D01*
X204022422Y-108519558D01*
X203988796Y-108457134D01*
X203944221Y-108414119D01*
X203888097Y-108389387D01*
X203822726Y-108381800D01*
X203775373Y-108384145D01*
X203725940Y-108392041D01*
X203670049Y-108406773D01*
X203603320Y-108429630D01*
X203521373Y-108461898D01*
X203454000Y-108490182D01*
X203377782Y-108522561D01*
X203321191Y-108545573D01*
X203280496Y-108559839D01*
X203251969Y-108565980D01*
X203231881Y-108564614D01*
X203216503Y-108556362D01*
X203202106Y-108541845D01*
X203194823Y-108533278D01*
X203175888Y-108506118D01*
X203169238Y-108486522D01*
X203170709Y-108482703D01*
X203186389Y-108474175D01*
X203220099Y-108459272D01*
X203266065Y-108440480D01*
X203295250Y-108429091D01*
X203356958Y-108403891D01*
X203429999Y-108371777D01*
X203503257Y-108337720D01*
X203542900Y-108318316D01*
X203680034Y-108243784D01*
X203793406Y-108168833D01*
X203884597Y-108091332D01*
X203955186Y-108009144D01*
X204006755Y-107920136D01*
X204040882Y-107822173D01*
X204059147Y-107713121D01*
X204063401Y-107615287D01*
X204059603Y-107502881D01*
X204047995Y-107413105D01*
X204027734Y-107344164D01*
X203997974Y-107294262D01*
X203957872Y-107261602D01*
X203906585Y-107244389D01*
X203887906Y-107241872D01*
X203824152Y-107235746D01*
X203909741Y-107151338D01*
X203977354Y-107077680D01*
X204024665Y-107007805D01*
X204054657Y-106935346D01*
X204070310Y-106853936D01*
X204073976Y-106800650D01*
X204075160Y-106742721D01*
X204072974Y-106701879D01*
X204066129Y-106669892D01*
X204053337Y-106638533D01*
X204046384Y-106624555D01*
X204014766Y-106562760D01*
X204040581Y-106460676D01*
X204050351Y-106418611D01*
X204057059Y-106378954D01*
X204061064Y-106336027D01*
X204062724Y-106284150D01*
X204062397Y-106217645D01*
X204060724Y-106141471D01*
X204056375Y-106035729D01*
X204048821Y-105951124D01*
X204037078Y-105883492D01*
X204020162Y-105828665D01*
X203997089Y-105782479D01*
X203966876Y-105740769D01*
X203965765Y-105739445D01*
X203923732Y-105697870D01*
X203876302Y-105669704D01*
X203817943Y-105652969D01*
X203743124Y-105645685D01*
X203701650Y-105644963D01*
X203652073Y-105645439D01*
X203611358Y-105647692D01*
X203573470Y-105652974D01*
X203532377Y-105662540D01*
X203482044Y-105677641D01*
X203416438Y-105699532D01*
X203381963Y-105711367D01*
X203311411Y-105736784D01*
X203224401Y-105769861D01*
X203127677Y-105807931D01*
X203027987Y-105848326D01*
X202932076Y-105888380D01*
X202905713Y-105899645D01*
X202768222Y-105957876D01*
X202651230Y-106005576D01*
X202555156Y-106042592D01*
X202480421Y-106068771D01*
X202427447Y-106083960D01*
X202396654Y-106088005D01*
X202391853Y-106087041D01*
X202376355Y-106075465D01*
X202374979Y-106056530D01*
X202388874Y-106028402D01*
X202419190Y-105989244D01*
X202467077Y-105937218D01*
X202517375Y-105886516D01*
X202702474Y-105719626D01*
X202910173Y-105561962D01*
X203062470Y-105461293D01*
X203147770Y-105410553D01*
X203250863Y-105353441D01*
X203365911Y-105292894D01*
X203487076Y-105231852D01*
X203608519Y-105173253D01*
X203724402Y-105120036D01*
X203828885Y-105075138D01*
X203833463Y-105073263D01*
X203898806Y-105045889D01*
X203957472Y-105020044D01*
X204004609Y-104997962D01*
X204035364Y-104981875D01*
X204043013Y-104976835D01*
X204054528Y-104965513D01*
X204062209Y-104950464D01*
X204066822Y-104926783D01*
X204069131Y-104889562D01*
X204069901Y-104833895D01*
X204069950Y-104804095D01*
X204068301Y-104722698D01*
X204062519Y-104663406D01*
X204051346Y-104623090D01*
X204033528Y-104598618D01*
X204007808Y-104586860D01*
X203981859Y-104584500D01*
X203956098Y-104589750D01*
X203909291Y-104605005D01*
X203843403Y-104629519D01*
X203760401Y-104662544D01*
X203662251Y-104703336D01*
X203610677Y-104725310D01*
X203393111Y-104817851D01*
X203197972Y-104899105D01*
X203024980Y-104969174D01*
X202873856Y-105028158D01*
X202744321Y-105076156D01*
X202636097Y-105113270D01*
X202548904Y-105139599D01*
X202482464Y-105155244D01*
X202436497Y-105160305D01*
X202412475Y-105155933D01*
X202390238Y-105132555D01*
X202389280Y-105098917D01*
X202408220Y-105056243D01*
X202445680Y-105005755D01*
X202500282Y-104948676D01*
X202570647Y-104886229D01*
X202655396Y-104819637D01*
X202753151Y-104750124D01*
X202862532Y-104678911D01*
X202982162Y-104607223D01*
X203110661Y-104536281D01*
X203111532Y-104535820D01*
X203213348Y-104483436D01*
X203315376Y-104434271D01*
X203422807Y-104386046D01*
X203540830Y-104336483D01*
X203674634Y-104283304D01*
X203771500Y-104246111D01*
X203871915Y-104206986D01*
X203949069Y-104174674D01*
X204004031Y-104148685D01*
X204037869Y-104128532D01*
X204047725Y-104119915D01*
X204061140Y-104102244D01*
X204069540Y-104081803D01*
X204074028Y-104052487D01*
X204075708Y-104008194D01*
X204075802Y-103964666D01*
X204073406Y-103894441D01*
X204067239Y-103838211D01*
X204057918Y-103801581D01*
X204057786Y-103801274D01*
X204028701Y-103758799D01*
X203988541Y-103739118D01*
X203945380Y-103740628D01*
X203921690Y-103747860D01*
X203878616Y-103763093D01*
X203820309Y-103784777D01*
X203750920Y-103811358D01*
X203674599Y-103841286D01*
X203650850Y-103850734D01*
X203563409Y-103885432D01*
X203472440Y-103921174D01*
X203384675Y-103955339D01*
X203306847Y-103985307D01*
X203245687Y-104008457D01*
X203244520Y-104008893D01*
X203137463Y-104046808D01*
X203026966Y-104082352D01*
X202916545Y-104114686D01*
X202809713Y-104142971D01*
X202709988Y-104166367D01*
X202620884Y-104184037D01*
X202545916Y-104195141D01*
X202488599Y-104198840D01*
X202459335Y-104196257D01*
X202400621Y-104173924D01*
X202362350Y-104138991D01*
X202344704Y-104094173D01*
X202347862Y-104042185D01*
X202372004Y-103985742D01*
X202417312Y-103927560D01*
X202440032Y-103905634D01*
X202508445Y-103856584D01*
X202587334Y-103820357D01*
X202671511Y-103797599D01*
X202755787Y-103788957D01*
X202834976Y-103795078D01*
X202903888Y-103816607D01*
X202945029Y-103842681D01*
X202990613Y-103869268D01*
X203033145Y-103872446D01*
X203070174Y-103854199D01*
X203099250Y-103816509D01*
X203117919Y-103761362D01*
X203123800Y-103698008D01*
X203114952Y-103625855D01*
X203087779Y-103568161D01*
X203041330Y-103524235D01*
X202974658Y-103493384D01*
X202886815Y-103474916D01*
X202810113Y-103468903D01*
X202660848Y-103474252D01*
X202523548Y-103501959D01*
X202397963Y-103552112D01*
X202283842Y-103624796D01*
X202228040Y-103672373D01*
X202145027Y-103759640D01*
X202084853Y-103846773D01*
X202045468Y-103938699D01*
X202024822Y-104040345D01*
X202020864Y-104156640D01*
X202021303Y-104169171D01*
X202032078Y-104276399D01*
X202055749Y-104363639D01*
X202093666Y-104433529D01*
X202147176Y-104488706D01*
X202203050Y-104524513D01*
X202253613Y-104542035D01*
X202321693Y-104553106D01*
X202400153Y-104557390D01*
X202481857Y-104554548D01*
X202559668Y-104544245D01*
X202571206Y-104541897D01*
X202615134Y-104533011D01*
X202647968Y-104527407D01*
X202663180Y-104526186D01*
X202663474Y-104526341D01*
X202655279Y-104534139D01*
X202630407Y-104551506D01*
X202593947Y-104574916D01*
X202587883Y-104578676D01*
X202511021Y-104629071D01*
X202429416Y-104687635D01*
X202348995Y-104749709D01*
X202275686Y-104810638D01*
X202215415Y-104865764D01*
X202191937Y-104889786D01*
X202123712Y-104972310D01*
X202076600Y-105051634D01*
X202047951Y-105133527D01*
X202035114Y-105223760D01*
X202034657Y-105232200D01*
X202032905Y-105288437D01*
X202034965Y-105327812D01*
X202042109Y-105358733D01*
X202055606Y-105389609D01*
X202059590Y-105397300D01*
X202103278Y-105454053D01*
X202164727Y-105494417D01*
X202241942Y-105517966D01*
X202332927Y-105524274D01*
X202435687Y-105512916D01*
X202513654Y-105494197D01*
X202558930Y-105481774D01*
X202591697Y-105474131D01*
X202607109Y-105472333D01*
X202607167Y-105473647D01*
X202593757Y-105484824D01*
X202564603Y-105508496D01*
X202523831Y-105541332D01*
X202475564Y-105580000D01*
X202469090Y-105585173D01*
X202332832Y-105701367D01*
X202221119Y-105812637D01*
X202134014Y-105918899D01*
X202071577Y-106020072D01*
X202033869Y-106116073D01*
X202021770Y-106185779D01*
X202019608Y-106262470D01*
X202026640Y-106321229D01*
G37*
X202026640Y-106321229D02*
X202044314Y-106368317D01*
X202073392Y-106409215D01*
X202133810Y-106461071D01*
X202206248Y-106491667D01*
X202292875Y-106501920D01*
X202293093Y-106501921D01*
X202335239Y-106500322D01*
X202381323Y-106494775D01*
X202433411Y-106484598D01*
X202493572Y-106469105D01*
X202563873Y-106447614D01*
X202646381Y-106419442D01*
X202743165Y-106383904D01*
X202856291Y-106340318D01*
X202987827Y-106288000D01*
X203139841Y-106226267D01*
X203193375Y-106204318D01*
X203279428Y-106169517D01*
X203366236Y-106135384D01*
X203448112Y-106104085D01*
X203519366Y-106077786D01*
X203574311Y-106058655D01*
X203584722Y-106055280D01*
X203641301Y-106037654D01*
X203679689Y-106027239D01*
X203705845Y-106023385D01*
X203725732Y-106025443D01*
X203745310Y-106032762D01*
X203753974Y-106036819D01*
X203790582Y-106062055D01*
X203816031Y-106099477D01*
X203831641Y-106152639D01*
X203838731Y-106225095D01*
X203839494Y-106267250D01*
X203836243Y-106348626D01*
X203826300Y-106407631D01*
X203818845Y-106429175D01*
X203798196Y-106476800D01*
X203705812Y-106476939D01*
X203705812Y-106840484D01*
X203759360Y-106844003D01*
X203790714Y-106858751D01*
X203801052Y-106886011D01*
X203791553Y-106927069D01*
X203789620Y-106931834D01*
X203768533Y-106973196D01*
X203741808Y-107014866D01*
X203738296Y-107019584D01*
X203694278Y-107066836D01*
X203630675Y-107120627D01*
X203551569Y-107178274D01*
X203461042Y-107237091D01*
X203363176Y-107294397D01*
X203262053Y-107347508D01*
X203183521Y-107384304D01*
X203109893Y-107416813D01*
X203091729Y-107373341D01*
X203080506Y-107334534D01*
X203084643Y-107298431D01*
X203088107Y-107287509D01*
X203127479Y-107206570D01*
X203187544Y-107126196D01*
X203263740Y-107049689D01*
X203351507Y-106980348D01*
X203446286Y-106921474D01*
X203543515Y-106876367D01*
X203638634Y-106848327D01*
X203705812Y-106840484D01*
X203705812Y-106476939D01*
X203699123Y-106476950D01*
X203573723Y-106489117D01*
X203445058Y-106524188D01*
X203316602Y-106580578D01*
X203191830Y-106656701D01*
X203074217Y-106750972D01*
X203051119Y-106772575D01*
X202959470Y-106872347D01*
X202891892Y-106973559D01*
X202847095Y-107078991D01*
X202823787Y-107191421D01*
X202819546Y-107270550D01*
X202821410Y-107338012D01*
X202827756Y-107388096D01*
X202839741Y-107428606D01*
X202844678Y-107440211D01*
X202862360Y-107481776D01*
X202868449Y-107505542D01*
X202863306Y-107516124D01*
X202850750Y-107518200D01*
X202817473Y-107529736D01*
X202794284Y-107562946D01*
X202782321Y-107615735D01*
X202780900Y-107646901D01*
X202786897Y-107726595D01*
X202803852Y-107793493D01*
X202830209Y-107844494D01*
X202864410Y-107876499D01*
X202901174Y-107886500D01*
X202925651Y-107880940D01*
X202966332Y-107865907D01*
X203017003Y-107843874D01*
X203058314Y-107823996D01*
X203172291Y-107768920D01*
X203287502Y-107717158D01*
X203399888Y-107670279D01*
X203505392Y-107629857D01*
X203599958Y-107597460D01*
X203679529Y-107574662D01*
X203728064Y-107564630D01*
X203775937Y-107563583D01*
X203808058Y-107579846D01*
X203828253Y-107616311D01*
X203835649Y-107645952D01*
X203836892Y-107718667D01*
X203813535Y-107792434D01*
X203766271Y-107865938D01*
X203695789Y-107937864D01*
X203672026Y-107957511D01*
X203625306Y-107989823D01*
X203559636Y-108028648D01*
X203479836Y-108071547D01*
X203390727Y-108116082D01*
X203297129Y-108159812D01*
X203203861Y-108200299D01*
X203146985Y-108223220D01*
X203091697Y-108244473D01*
X203054011Y-108257413D01*
X203027876Y-108262971D01*
X203007239Y-108262084D01*
X202986045Y-108255685D01*
X202972103Y-108250213D01*
X202900435Y-108231576D01*
X202826886Y-108229838D01*
X202757121Y-108243622D01*
X202696801Y-108271550D01*
X202651590Y-108312245D01*
X202639362Y-108331118D01*
X202621007Y-108385628D01*
X202615686Y-108449177D01*
X202623309Y-108511091D01*
X202641253Y-108556741D01*
X202672801Y-108593679D01*
X202715130Y-108614673D01*
X202773019Y-108621536D01*
X202808599Y-108620285D01*
X202880748Y-108615255D01*
X202934055Y-108708423D01*
X202985430Y-108794018D01*
X203030274Y-108858394D01*
X203071210Y-108904023D01*
X203110859Y-108933378D01*
X203151846Y-108948933D01*
X203193650Y-108953181D01*
X203229328Y-108951457D01*
X203266327Y-108945391D01*
X203308985Y-108933595D01*
X203361639Y-108914681D01*
X203428628Y-108887260D01*
X203509434Y-108852092D01*
X203596685Y-108814211D01*
X203664218Y-108786770D01*
X203715029Y-108768844D01*
X203752117Y-108759510D01*
X203778479Y-108757843D01*
X203797113Y-108762919D01*
X203797680Y-108763217D01*
X203818866Y-108787635D01*
X203832519Y-108830043D01*
X203838364Y-108884093D01*
X203836126Y-108943435D01*
X203825533Y-109001718D01*
X203809862Y-109045454D01*
X203785753Y-109088548D01*
X203755434Y-109125848D01*
X203715962Y-109159009D01*
X203664394Y-109189682D01*
X203597788Y-109219520D01*
X203513200Y-109250175D01*
X203407688Y-109283302D01*
X203362826Y-109296495D01*
X203292135Y-109316850D01*
X203229889Y-109334480D01*
X203180186Y-109348249D01*
X203147123Y-109357019D01*
X203135021Y-109359699D01*
X203129072Y-109348184D01*
X203123903Y-109318363D01*
X203121258Y-109286675D01*
X203118052Y-109245082D01*
X203112090Y-109222472D01*
X203100529Y-109212424D01*
X203087008Y-109209347D01*
X203054740Y-109210088D01*
X203013959Y-109217630D01*
X202974123Y-109229403D01*
X202944686Y-109242840D01*
X202936147Y-109250317D01*
X202930410Y-109269694D01*
X202924636Y-109306076D01*
X202920600Y-109345636D01*
X202914250Y-109426823D01*
X202812650Y-109457261D01*
X202761368Y-109472498D01*
X202693926Y-109492356D01*
X202618570Y-109514416D01*
X202543542Y-109536259D01*
X202533250Y-109539245D01*
X202441576Y-109566840D01*
X202371743Y-109591190D01*
X202320830Y-109614719D01*
X202285918Y-109639848D01*
X202264085Y-109669000D01*
X202252414Y-109704596D01*
X202247983Y-109749058D01*
X202247570Y-109776222D01*
X202252156Y-109855140D01*
X202266401Y-109911977D01*
X202291305Y-109948528D01*
X202327866Y-109966589D01*
X202354914Y-109969300D01*
X202376371Y-109965311D01*
X202417767Y-109954156D01*
X202475067Y-109937055D01*
X202544235Y-109915226D01*
X202621234Y-109889888D01*
X202649337Y-109880400D01*
X202726041Y-109854392D01*
X202794260Y-109831387D01*
X202850467Y-109812563D01*
X202891135Y-109799099D01*
X202912735Y-109792175D01*
X202915261Y-109791500D01*
X202917534Y-109803265D01*
X202920003Y-109834835D01*
X202922287Y-109880622D01*
X202923298Y-109908975D01*
X202926950Y-110026450D01*
X202971611Y-110030214D01*
X203018893Y-110027407D01*
X203064070Y-110013544D01*
X203099405Y-109992034D01*
X203117160Y-109966289D01*
X203117217Y-109966047D01*
X203120646Y-109940336D01*
X203123926Y-109897350D01*
X203126473Y-109845210D01*
X203126965Y-109830450D01*
X203130150Y-109723350D01*
X203377800Y-109648822D01*
X203477461Y-109619055D01*
X203555996Y-109596426D01*
X203616517Y-109580487D01*
X203662139Y-109570791D01*
X203695976Y-109566891D01*
X203721141Y-109568341D01*
X203740749Y-109574693D01*
X203757913Y-109585501D01*
X203767152Y-109592940D01*
X203801939Y-109635722D01*
X203822286Y-109683500D01*
X203836830Y-109766190D01*
X203830588Y-109839697D01*
X203802567Y-109905836D01*
X203751774Y-109966422D01*
X203677216Y-110023268D01*
X203617166Y-110058205D01*
X203563860Y-110083023D01*
X203491741Y-110111490D01*
X203406769Y-110141643D01*
X203314904Y-110171518D01*
X203222103Y-110199152D01*
X203134328Y-110222583D01*
X203079350Y-110235371D01*
X202985653Y-110260029D01*
X202914636Y-110290380D01*
X202863759Y-110329094D01*
X202830484Y-110378839D01*
X202812270Y-110442286D01*
X202806578Y-110522099D01*
X202809104Y-110581052D01*
X202818736Y-110624066D01*
X202837927Y-110651897D01*
X202869128Y-110665298D01*
X202914792Y-110665024D01*
X202977372Y-110651829D01*
X203059319Y-110626468D01*
X203100052Y-110612388D01*
X203213823Y-110572935D01*
X203324816Y-110535718D01*
X203430260Y-110501567D01*
X203527388Y-110471312D01*
X203613430Y-110445783D01*
X203685617Y-110425809D01*
X203741181Y-110412220D01*
X203777353Y-110405847D01*
X203788958Y-110405915D01*
X203809203Y-110415678D01*
X203822688Y-110436926D01*
X203833626Y-110476443D01*
X203834084Y-110478565D01*
X203840583Y-110552652D01*
X203824978Y-110618698D01*
X203785896Y-110681464D01*
X203770375Y-110699298D01*
X203719240Y-110745628D01*
X203653233Y-110788926D01*
X203570372Y-110830033D01*
X203468677Y-110869785D01*
X203346165Y-110909023D01*
X203200856Y-110948585D01*
X203153601Y-110960377D01*
X203048774Y-110987036D01*
X202966299Y-111010973D01*
X202903548Y-111034083D01*
X202857897Y-111058259D01*
X202826718Y-111085396D01*
X202807387Y-111117389D01*
X202797276Y-111156132D01*
X202793761Y-111203518D01*
X202793600Y-111220067D01*
X202797554Y-111298897D01*
X202809630Y-111354567D01*
X202830150Y-111388090D01*
X202850317Y-111399076D01*
X202876482Y-111397709D01*
X202921951Y-111386604D01*
X202983010Y-111366759D01*
X203016308Y-111354593D01*
X203070543Y-111334502D01*
X203115205Y-111318614D01*
X203145489Y-111308595D01*
X203156556Y-111306018D01*
X203149146Y-111315083D01*
X203126783Y-111336185D01*
X203094003Y-111365077D01*
X203087721Y-111370458D01*
X203008317Y-111445497D01*
X202937861Y-111526216D01*
X202881842Y-111605984D01*
X202859838Y-111645700D01*
X202839284Y-111694638D01*
X202827376Y-111744761D01*
X202821570Y-111807328D01*
X202821124Y-111817150D01*
X202819828Y-111870613D01*
X202822265Y-111906719D01*
X202829838Y-111933402D01*
X202843950Y-111958596D01*
X202846905Y-111963014D01*
X202874235Y-111996505D01*
X202906020Y-112020536D01*
X202944517Y-112034870D01*
X202991986Y-112039270D01*
X203050683Y-112033500D01*
X203122869Y-112017324D01*
X203210800Y-111990504D01*
X203316737Y-111952805D01*
X203442936Y-111903990D01*
X203454552Y-111899367D01*
X203525210Y-111871731D01*
X203594173Y-111845700D01*
X203655012Y-111823638D01*
X203701302Y-111807907D01*
X203714125Y-111803968D01*
X203755602Y-111792418D01*
X203780067Y-111788478D01*
X203794847Y-111792490D01*
X203807270Y-111804797D01*
X203810265Y-111808467D01*
X203824486Y-111836474D01*
X203836322Y-111877579D01*
X203840053Y-111898966D01*
X203846233Y-111936871D01*
X203854498Y-111955803D01*
X203869139Y-111962092D01*
X203883062Y-111962424D01*
X203914589Y-111958186D01*
X203958271Y-111948152D01*
X203987400Y-111939793D01*
X204057250Y-111917938D01*
X204061478Y-111829444D01*
X204060500Y-111742079D01*
X204050261Y-111656741D01*
X204032103Y-111581186D01*
X204008991Y-111525976D01*
X203973656Y-111475361D01*
X203932434Y-111443125D01*
X203878734Y-111425460D01*
X203824440Y-111419377D01*
X203779148Y-111419436D01*
X203730043Y-111425288D01*
X203673838Y-111437910D01*
X203607248Y-111458278D01*
X203526986Y-111487367D01*
X203429767Y-111526154D01*
X203344154Y-111562023D01*
X203283326Y-111587479D01*
X203230381Y-111608890D01*
X203189915Y-111624454D01*
X203166522Y-111632369D01*
X203163179Y-111633000D01*
X203150420Y-111627549D01*
X203154630Y-111610267D01*
X203176619Y-111579762D01*
X203217200Y-111534640D01*
X203225571Y-111525868D01*
X203330043Y-111430438D01*
X203456185Y-111338148D01*
X203600277Y-111251332D01*
X203758603Y-111172323D01*
X203854050Y-111131571D01*
X203906979Y-111109572D01*
X203953629Y-111088869D01*
X203987059Y-111072599D01*
X203996761Y-111067035D01*
X204033931Y-111028740D01*
X204060728Y-110972211D01*
X204074773Y-110903323D01*
X204076300Y-110870671D01*
X204071978Y-110804857D01*
X204059007Y-110762908D01*
X204037380Y-110744803D01*
X204030344Y-110744000D01*
X204016705Y-110736208D01*
X204017333Y-110728125D01*
X204039293Y-110668428D01*
X204053423Y-110609609D01*
X204060751Y-110544327D01*
X204062303Y-110465237D01*
X204061132Y-110415109D01*
X204054964Y-110317148D01*
X204043160Y-110240842D01*
X204024732Y-110182878D01*
X203998695Y-110139940D01*
X203971633Y-110114113D01*
X203940237Y-110090431D01*
X203982006Y-110026690D01*
X204017328Y-109965058D01*
X204041547Y-109902220D01*
X204055901Y-109832250D01*
X204061628Y-109749221D01*
X204060196Y-109652574D01*
X204051780Y-109541257D01*
X204036028Y-109450483D01*
X204011919Y-109376195D01*
X203978435Y-109314332D01*
X203973421Y-109307104D01*
X203945712Y-109268191D01*
X203984355Y-109190120D01*
X204020431Y-109109886D01*
X204044209Y-109036362D01*
X204057778Y-108960179D01*
X204063225Y-108871970D01*
X204063600Y-108834560D01*
X204059224Y-108707144D01*
X204045698Y-108602520D01*
X204022422Y-108519558D01*
X203988796Y-108457134D01*
X203944221Y-108414119D01*
X203888097Y-108389387D01*
X203822726Y-108381800D01*
X203775373Y-108384145D01*
X203725940Y-108392041D01*
X203670049Y-108406773D01*
X203603320Y-108429630D01*
X203521373Y-108461898D01*
X203454000Y-108490182D01*
X203377782Y-108522561D01*
X203321191Y-108545573D01*
X203280496Y-108559839D01*
X203251969Y-108565980D01*
X203231881Y-108564614D01*
X203216503Y-108556362D01*
X203202106Y-108541845D01*
X203194823Y-108533278D01*
X203175888Y-108506118D01*
X203169238Y-108486522D01*
X203170709Y-108482703D01*
X203186389Y-108474175D01*
X203220099Y-108459272D01*
X203266065Y-108440480D01*
X203295250Y-108429091D01*
X203356958Y-108403891D01*
X203429999Y-108371777D01*
X203503257Y-108337720D01*
X203542900Y-108318316D01*
X203680034Y-108243784D01*
X203793406Y-108168833D01*
X203884597Y-108091332D01*
X203955186Y-108009144D01*
X204006755Y-107920136D01*
X204040882Y-107822173D01*
X204059147Y-107713121D01*
X204063401Y-107615287D01*
X204059603Y-107502881D01*
X204047995Y-107413105D01*
X204027734Y-107344164D01*
X203997974Y-107294262D01*
X203957872Y-107261602D01*
X203906585Y-107244389D01*
X203887906Y-107241872D01*
X203824152Y-107235746D01*
X203909741Y-107151338D01*
X203977354Y-107077680D01*
X204024665Y-107007805D01*
X204054657Y-106935346D01*
X204070310Y-106853936D01*
X204073976Y-106800650D01*
X204075160Y-106742721D01*
X204072974Y-106701879D01*
X204066129Y-106669892D01*
X204053337Y-106638533D01*
X204046384Y-106624555D01*
X204014766Y-106562760D01*
X204040581Y-106460676D01*
X204050351Y-106418611D01*
X204057059Y-106378954D01*
X204061064Y-106336027D01*
X204062724Y-106284150D01*
X204062397Y-106217645D01*
X204060724Y-106141471D01*
X204056375Y-106035729D01*
X204048821Y-105951124D01*
X204037078Y-105883492D01*
X204020162Y-105828665D01*
X203997089Y-105782479D01*
X203966876Y-105740769D01*
X203965765Y-105739445D01*
X203923732Y-105697870D01*
X203876302Y-105669704D01*
X203817943Y-105652969D01*
X203743124Y-105645685D01*
X203701650Y-105644963D01*
X203652073Y-105645439D01*
X203611358Y-105647692D01*
X203573470Y-105652974D01*
X203532377Y-105662540D01*
X203482044Y-105677641D01*
X203416438Y-105699532D01*
X203381963Y-105711367D01*
X203311411Y-105736784D01*
X203224401Y-105769861D01*
X203127677Y-105807931D01*
X203027987Y-105848326D01*
X202932076Y-105888380D01*
X202905713Y-105899645D01*
X202768222Y-105957876D01*
X202651230Y-106005576D01*
X202555156Y-106042592D01*
X202480421Y-106068771D01*
X202427447Y-106083960D01*
X202396654Y-106088005D01*
X202391853Y-106087041D01*
X202376355Y-106075465D01*
X202374979Y-106056530D01*
X202388874Y-106028402D01*
X202419190Y-105989244D01*
X202467077Y-105937218D01*
X202517375Y-105886516D01*
X202702474Y-105719626D01*
X202910173Y-105561962D01*
X203062470Y-105461293D01*
X203147770Y-105410553D01*
X203250863Y-105353441D01*
X203365911Y-105292894D01*
X203487076Y-105231852D01*
X203608519Y-105173253D01*
X203724402Y-105120036D01*
X203828885Y-105075138D01*
X203833463Y-105073263D01*
X203898806Y-105045889D01*
X203957472Y-105020044D01*
X204004609Y-104997962D01*
X204035364Y-104981875D01*
X204043013Y-104976835D01*
X204054528Y-104965513D01*
X204062209Y-104950464D01*
X204066822Y-104926783D01*
X204069131Y-104889562D01*
X204069901Y-104833895D01*
X204069950Y-104804095D01*
X204068301Y-104722698D01*
X204062519Y-104663406D01*
X204051346Y-104623090D01*
X204033528Y-104598618D01*
X204007808Y-104586860D01*
X203981859Y-104584500D01*
X203956098Y-104589750D01*
X203909291Y-104605005D01*
X203843403Y-104629519D01*
X203760401Y-104662544D01*
X203662251Y-104703336D01*
X203610677Y-104725310D01*
X203393111Y-104817851D01*
X203197972Y-104899105D01*
X203024980Y-104969174D01*
X202873856Y-105028158D01*
X202744321Y-105076156D01*
X202636097Y-105113270D01*
X202548904Y-105139599D01*
X202482464Y-105155244D01*
X202436497Y-105160305D01*
X202412475Y-105155933D01*
X202390238Y-105132555D01*
X202389280Y-105098917D01*
X202408220Y-105056243D01*
X202445680Y-105005755D01*
X202500282Y-104948676D01*
X202570647Y-104886229D01*
X202655396Y-104819637D01*
X202753151Y-104750124D01*
X202862532Y-104678911D01*
X202982162Y-104607223D01*
X203110661Y-104536281D01*
X203111532Y-104535820D01*
X203213348Y-104483436D01*
X203315376Y-104434271D01*
X203422807Y-104386046D01*
X203540830Y-104336483D01*
X203674634Y-104283304D01*
X203771500Y-104246111D01*
X203871915Y-104206986D01*
X203949069Y-104174674D01*
X204004031Y-104148685D01*
X204037869Y-104128532D01*
X204047725Y-104119915D01*
X204061140Y-104102244D01*
X204069540Y-104081803D01*
X204074028Y-104052487D01*
X204075708Y-104008194D01*
X204075802Y-103964666D01*
X204073406Y-103894441D01*
X204067239Y-103838211D01*
X204057918Y-103801581D01*
X204057786Y-103801274D01*
X204028701Y-103758799D01*
X203988541Y-103739118D01*
X203945380Y-103740628D01*
X203921690Y-103747860D01*
X203878616Y-103763093D01*
X203820309Y-103784777D01*
X203750920Y-103811358D01*
X203674599Y-103841286D01*
X203650850Y-103850734D01*
X203563409Y-103885432D01*
X203472440Y-103921174D01*
X203384675Y-103955339D01*
X203306847Y-103985307D01*
X203245687Y-104008457D01*
X203244520Y-104008893D01*
X203137463Y-104046808D01*
X203026966Y-104082352D01*
X202916545Y-104114686D01*
X202809713Y-104142971D01*
X202709988Y-104166367D01*
X202620884Y-104184037D01*
X202545916Y-104195141D01*
X202488599Y-104198840D01*
X202459335Y-104196257D01*
X202400621Y-104173924D01*
X202362350Y-104138991D01*
X202344704Y-104094173D01*
X202347862Y-104042185D01*
X202372004Y-103985742D01*
X202417312Y-103927560D01*
X202440032Y-103905634D01*
X202508445Y-103856584D01*
X202587334Y-103820357D01*
X202671511Y-103797599D01*
X202755787Y-103788957D01*
X202834976Y-103795078D01*
X202903888Y-103816607D01*
X202945029Y-103842681D01*
X202990613Y-103869268D01*
X203033145Y-103872446D01*
X203070174Y-103854199D01*
X203099250Y-103816509D01*
X203117919Y-103761362D01*
X203123800Y-103698008D01*
X203114952Y-103625855D01*
X203087779Y-103568161D01*
X203041330Y-103524235D01*
X202974658Y-103493384D01*
X202886815Y-103474916D01*
X202810113Y-103468903D01*
X202660848Y-103474252D01*
X202523548Y-103501959D01*
X202397963Y-103552112D01*
X202283842Y-103624796D01*
X202228040Y-103672373D01*
X202145027Y-103759640D01*
X202084853Y-103846773D01*
X202045468Y-103938699D01*
X202024822Y-104040345D01*
X202020864Y-104156640D01*
X202021303Y-104169171D01*
X202032078Y-104276399D01*
X202055749Y-104363639D01*
X202093666Y-104433529D01*
X202147176Y-104488706D01*
X202203050Y-104524513D01*
X202253613Y-104542035D01*
X202321693Y-104553106D01*
X202400153Y-104557390D01*
X202481857Y-104554548D01*
X202559668Y-104544245D01*
X202571206Y-104541897D01*
X202615134Y-104533011D01*
X202647968Y-104527407D01*
X202663180Y-104526186D01*
X202663474Y-104526341D01*
X202655279Y-104534139D01*
X202630407Y-104551506D01*
X202593947Y-104574916D01*
X202587883Y-104578676D01*
X202511021Y-104629071D01*
X202429416Y-104687635D01*
X202348995Y-104749709D01*
X202275686Y-104810638D01*
X202215415Y-104865764D01*
X202191937Y-104889786D01*
X202123712Y-104972310D01*
X202076600Y-105051634D01*
X202047951Y-105133527D01*
X202035114Y-105223760D01*
X202034657Y-105232200D01*
X202032905Y-105288437D01*
X202034965Y-105327812D01*
X202042109Y-105358733D01*
X202055606Y-105389609D01*
X202059590Y-105397300D01*
X202103278Y-105454053D01*
X202164727Y-105494417D01*
X202241942Y-105517966D01*
X202332927Y-105524274D01*
X202435687Y-105512916D01*
X202513654Y-105494197D01*
X202558930Y-105481774D01*
X202591697Y-105474131D01*
X202607109Y-105472333D01*
X202607167Y-105473647D01*
X202593757Y-105484824D01*
X202564603Y-105508496D01*
X202523831Y-105541332D01*
X202475564Y-105580000D01*
X202469090Y-105585173D01*
X202332832Y-105701367D01*
X202221119Y-105812637D01*
X202134014Y-105918899D01*
X202071577Y-106020072D01*
X202033869Y-106116073D01*
X202021770Y-106185779D01*
X202019608Y-106262470D01*
X202026640Y-106321229D01*
G36*
X202028644Y-114255113D02*
G01*
X202057800Y-114363691D01*
X202106637Y-114456230D01*
X202175237Y-114532839D01*
X202263683Y-114593626D01*
X202372057Y-114638701D01*
X202412774Y-114650292D01*
X202489663Y-114663126D01*
X202582966Y-114667978D01*
X202685110Y-114665217D01*
X202788522Y-114655215D01*
X202885630Y-114638342D01*
X202939650Y-114624504D01*
X203105665Y-114565818D01*
X203249397Y-114495049D01*
X203370941Y-114412127D01*
X203470393Y-114316981D01*
X203547849Y-114209539D01*
X203577259Y-114153545D01*
X203591849Y-114120693D01*
X203601813Y-114091553D01*
X203608051Y-114060034D01*
X203611459Y-114020046D01*
X203612937Y-113965497D01*
X203613327Y-113908975D01*
X203613904Y-113740201D01*
X203803827Y-113676905D01*
X203970304Y-113616941D01*
X204112358Y-113555821D01*
X204230964Y-113492720D01*
X204327098Y-113426811D01*
X204401733Y-113357269D01*
X204455845Y-113283268D01*
X204490408Y-113203984D01*
X204506398Y-113118590D01*
X204507811Y-113080800D01*
X204502576Y-113000698D01*
X204487049Y-112940860D01*
X204484406Y-112934750D01*
X204444489Y-112873968D01*
X204384942Y-112818695D01*
X204311528Y-112773911D01*
X204284336Y-112761919D01*
X204253441Y-112750472D01*
X204223821Y-112742357D01*
X204190216Y-112737004D01*
X204147368Y-112733843D01*
X204090020Y-112732305D01*
X204012913Y-112731819D01*
X204006450Y-112731810D01*
X203960652Y-112732331D01*
X203960652Y-113073655D01*
X204019991Y-113073688D01*
X204030227Y-113075031D01*
X204081903Y-113088129D01*
X204108870Y-113106632D01*
X204111340Y-113131048D01*
X204089529Y-113161885D01*
X204073125Y-113176920D01*
X204017739Y-113213801D01*
X203940221Y-113250639D01*
X203843815Y-113286339D01*
X203731766Y-113319802D01*
X203607319Y-113349934D01*
X203496989Y-113371617D01*
X203444055Y-113380229D01*
X203378377Y-113389769D01*
X203304049Y-113399767D01*
X203225169Y-113409749D01*
X203145833Y-113419242D01*
X203070137Y-113427774D01*
X203002179Y-113434872D01*
X202946054Y-113440063D01*
X202905859Y-113442876D01*
X202885691Y-113442836D01*
X202884247Y-113442315D01*
X202892522Y-113434944D01*
X202920061Y-113419454D01*
X202962787Y-113397745D01*
X203016623Y-113371719D01*
X203077495Y-113343277D01*
X203141325Y-113314320D01*
X203204038Y-113286751D01*
X203261557Y-113262470D01*
X203309806Y-113243379D01*
X203314300Y-113241705D01*
X203440258Y-113197468D01*
X203563278Y-113158710D01*
X203680093Y-113126188D01*
X203787437Y-113100666D01*
X203882045Y-113082901D01*
X203960652Y-113073655D01*
X203960652Y-112732331D01*
X203904279Y-112732973D01*
X203821699Y-112737029D01*
X203753023Y-112744390D01*
X203698763Y-112754103D01*
X203494326Y-112805640D01*
X203294941Y-112870315D01*
X203102700Y-112946785D01*
X202919697Y-113033706D01*
X202773291Y-113115601D01*
X202773291Y-113514284D01*
X202778895Y-113515641D01*
X202766001Y-113532887D01*
X202765892Y-113533010D01*
X202744123Y-113564579D01*
X202720715Y-113609011D01*
X202699550Y-113657496D01*
X202684512Y-113701222D01*
X202679424Y-113729247D01*
X202686443Y-113764764D01*
X202697369Y-113786397D01*
X202704916Y-113794659D01*
X202716063Y-113800838D01*
X202734241Y-113805230D01*
X202762881Y-113808132D01*
X202805415Y-113809842D01*
X202865274Y-113810657D01*
X202945889Y-113810873D01*
X202979944Y-113810863D01*
X203062131Y-113810374D01*
X203138078Y-113809120D01*
X203203232Y-113807239D01*
X203253040Y-113804868D01*
X203282951Y-113802147D01*
X203286261Y-113801548D01*
X203328072Y-113792420D01*
X203319766Y-113839835D01*
X203307855Y-113881326D01*
X203288252Y-113927058D01*
X203281456Y-113939754D01*
X203231001Y-114006805D01*
X203160078Y-114070811D01*
X203073624Y-114128580D01*
X202976569Y-114176918D01*
X202873849Y-114212632D01*
X202850750Y-114218532D01*
X202793001Y-114228803D01*
X202721064Y-114236523D01*
X202646110Y-114240570D01*
X202628500Y-114240873D01*
X202562637Y-114240520D01*
X202514970Y-114237454D01*
X202478356Y-114230717D01*
X202445652Y-114219354D01*
X202435896Y-114215064D01*
X202379455Y-114180003D01*
X202345593Y-114135321D01*
X202332468Y-114078384D01*
X202332166Y-114066638D01*
X202342619Y-114003417D01*
X202372309Y-113930686D01*
X202418734Y-113852069D01*
X202479389Y-113771192D01*
X202551772Y-113691677D01*
X202633380Y-113617151D01*
X202654246Y-113600263D01*
X202710089Y-113557123D01*
X202750063Y-113528287D01*
X202773291Y-113514284D01*
X202773291Y-113115601D01*
X202748023Y-113129736D01*
X202589772Y-113233533D01*
X202447037Y-113343753D01*
X202321910Y-113459055D01*
X202216484Y-113578095D01*
X202132852Y-113699531D01*
X202087139Y-113788074D01*
X202045490Y-113907425D01*
X202023465Y-114034956D01*
X202019087Y-114130387D01*
X202028644Y-114255113D01*
G37*
X202028644Y-114255113D02*
X202057800Y-114363691D01*
X202106637Y-114456230D01*
X202175237Y-114532839D01*
X202263683Y-114593626D01*
X202372057Y-114638701D01*
X202412774Y-114650292D01*
X202489663Y-114663126D01*
X202582966Y-114667978D01*
X202685110Y-114665217D01*
X202788522Y-114655215D01*
X202885630Y-114638342D01*
X202939650Y-114624504D01*
X203105665Y-114565818D01*
X203249397Y-114495049D01*
X203370941Y-114412127D01*
X203470393Y-114316981D01*
X203547849Y-114209539D01*
X203577259Y-114153545D01*
X203591849Y-114120693D01*
X203601813Y-114091553D01*
X203608051Y-114060034D01*
X203611459Y-114020046D01*
X203612937Y-113965497D01*
X203613327Y-113908975D01*
X203613904Y-113740201D01*
X203803827Y-113676905D01*
X203970304Y-113616941D01*
X204112358Y-113555821D01*
X204230964Y-113492720D01*
X204327098Y-113426811D01*
X204401733Y-113357269D01*
X204455845Y-113283268D01*
X204490408Y-113203984D01*
X204506398Y-113118590D01*
X204507811Y-113080800D01*
X204502576Y-113000698D01*
X204487049Y-112940860D01*
X204484406Y-112934750D01*
X204444489Y-112873968D01*
X204384942Y-112818695D01*
X204311528Y-112773911D01*
X204284336Y-112761919D01*
X204253441Y-112750472D01*
X204223821Y-112742357D01*
X204190216Y-112737004D01*
X204147368Y-112733843D01*
X204090020Y-112732305D01*
X204012913Y-112731819D01*
X204006450Y-112731810D01*
X203960652Y-112732331D01*
X203960652Y-113073655D01*
X204019991Y-113073688D01*
X204030227Y-113075031D01*
X204081903Y-113088129D01*
X204108870Y-113106632D01*
X204111340Y-113131048D01*
X204089529Y-113161885D01*
X204073125Y-113176920D01*
X204017739Y-113213801D01*
X203940221Y-113250639D01*
X203843815Y-113286339D01*
X203731766Y-113319802D01*
X203607319Y-113349934D01*
X203496989Y-113371617D01*
X203444055Y-113380229D01*
X203378377Y-113389769D01*
X203304049Y-113399767D01*
X203225169Y-113409749D01*
X203145833Y-113419242D01*
X203070137Y-113427774D01*
X203002179Y-113434872D01*
X202946054Y-113440063D01*
X202905859Y-113442876D01*
X202885691Y-113442836D01*
X202884247Y-113442315D01*
X202892522Y-113434944D01*
X202920061Y-113419454D01*
X202962787Y-113397745D01*
X203016623Y-113371719D01*
X203077495Y-113343277D01*
X203141325Y-113314320D01*
X203204038Y-113286751D01*
X203261557Y-113262470D01*
X203309806Y-113243379D01*
X203314300Y-113241705D01*
X203440258Y-113197468D01*
X203563278Y-113158710D01*
X203680093Y-113126188D01*
X203787437Y-113100666D01*
X203882045Y-113082901D01*
X203960652Y-113073655D01*
X203960652Y-112732331D01*
X203904279Y-112732973D01*
X203821699Y-112737029D01*
X203753023Y-112744390D01*
X203698763Y-112754103D01*
X203494326Y-112805640D01*
X203294941Y-112870315D01*
X203102700Y-112946785D01*
X202919697Y-113033706D01*
X202773291Y-113115601D01*
X202773291Y-113514284D01*
X202778895Y-113515641D01*
X202766001Y-113532887D01*
X202765892Y-113533010D01*
X202744123Y-113564579D01*
X202720715Y-113609011D01*
X202699550Y-113657496D01*
X202684512Y-113701222D01*
X202679424Y-113729247D01*
X202686443Y-113764764D01*
X202697369Y-113786397D01*
X202704916Y-113794659D01*
X202716063Y-113800838D01*
X202734241Y-113805230D01*
X202762881Y-113808132D01*
X202805415Y-113809842D01*
X202865274Y-113810657D01*
X202945889Y-113810873D01*
X202979944Y-113810863D01*
X203062131Y-113810374D01*
X203138078Y-113809120D01*
X203203232Y-113807239D01*
X203253040Y-113804868D01*
X203282951Y-113802147D01*
X203286261Y-113801548D01*
X203328072Y-113792420D01*
X203319766Y-113839835D01*
X203307855Y-113881326D01*
X203288252Y-113927058D01*
X203281456Y-113939754D01*
X203231001Y-114006805D01*
X203160078Y-114070811D01*
X203073624Y-114128580D01*
X202976569Y-114176918D01*
X202873849Y-114212632D01*
X202850750Y-114218532D01*
X202793001Y-114228803D01*
X202721064Y-114236523D01*
X202646110Y-114240570D01*
X202628500Y-114240873D01*
X202562637Y-114240520D01*
X202514970Y-114237454D01*
X202478356Y-114230717D01*
X202445652Y-114219354D01*
X202435896Y-114215064D01*
X202379455Y-114180003D01*
X202345593Y-114135321D01*
X202332468Y-114078384D01*
X202332166Y-114066638D01*
X202342619Y-114003417D01*
X202372309Y-113930686D01*
X202418734Y-113852069D01*
X202479389Y-113771192D01*
X202551772Y-113691677D01*
X202633380Y-113617151D01*
X202654246Y-113600263D01*
X202710089Y-113557123D01*
X202750063Y-113528287D01*
X202773291Y-113514284D01*
X202773291Y-113115601D01*
X202748023Y-113129736D01*
X202589772Y-113233533D01*
X202447037Y-113343753D01*
X202321910Y-113459055D01*
X202216484Y-113578095D01*
X202132852Y-113699531D01*
X202087139Y-113788074D01*
X202045490Y-113907425D01*
X202023465Y-114034956D01*
X202019087Y-114130387D01*
X202028644Y-114255113D01*
G36*
X201644623Y-120992900D02*
G01*
X204424860Y-120992900D01*
X205390750Y-120027984D01*
X205394093Y-118662592D01*
X205397437Y-117297200D01*
X205206600Y-117297200D01*
X205206600Y-119945290D01*
X204777905Y-120373845D01*
X204349211Y-120802400D01*
X201719949Y-120802400D01*
X200863199Y-119944284D01*
X200863199Y-118620742D01*
X200863200Y-117297200D01*
X200685400Y-117297200D01*
X200685399Y-118665438D01*
X200685399Y-120033676D01*
X201644623Y-120992900D01*
G37*
X201644623Y-120992900D02*
X204424860Y-120992900D01*
X205390750Y-120027984D01*
X205394093Y-118662592D01*
X205397437Y-117297200D01*
X205206600Y-117297200D01*
X205206600Y-119945290D01*
X204777905Y-120373845D01*
X204349211Y-120802400D01*
X201719949Y-120802400D01*
X200863199Y-119944284D01*
X200863199Y-118620742D01*
X200863200Y-117297200D01*
X200685400Y-117297200D01*
X200685399Y-118665438D01*
X200685399Y-120033676D01*
X201644623Y-120992900D01*
G36*
X200685400Y-106235500D02*
G01*
X200863200Y-106235500D01*
X200863200Y-103575715D01*
X201291574Y-103146657D01*
X201719949Y-102717600D01*
X204349490Y-102717600D01*
X205206600Y-103574988D01*
X205206600Y-106236612D01*
X205390750Y-106229150D01*
X205393150Y-104876600D01*
X205393375Y-104692965D01*
X205393397Y-104516210D01*
X205393225Y-104348021D01*
X205392869Y-104190089D01*
X205392341Y-104044101D01*
X205391650Y-103911749D01*
X205390806Y-103794720D01*
X205389821Y-103694703D01*
X205388704Y-103613388D01*
X205387466Y-103552464D01*
X205386116Y-103513620D01*
X205384718Y-103498650D01*
X205373852Y-103485021D01*
X205346653Y-103455287D01*
X205304838Y-103411210D01*
X205250125Y-103354554D01*
X205184231Y-103287084D01*
X205108874Y-103210561D01*
X205025770Y-103126751D01*
X204936639Y-103037417D01*
X204899324Y-103000175D01*
X204424763Y-102527100D01*
X201644955Y-102527100D01*
X201165177Y-103006877D01*
X200685399Y-103486655D01*
X200685399Y-104861077D01*
X200685400Y-106235500D01*
G37*
X200685400Y-106235500D02*
X200863200Y-106235500D01*
X200863200Y-103575715D01*
X201291574Y-103146657D01*
X201719949Y-102717600D01*
X204349490Y-102717600D01*
X205206600Y-103574988D01*
X205206600Y-106236612D01*
X205390750Y-106229150D01*
X205393150Y-104876600D01*
X205393375Y-104692965D01*
X205393397Y-104516210D01*
X205393225Y-104348021D01*
X205392869Y-104190089D01*
X205392341Y-104044101D01*
X205391650Y-103911749D01*
X205390806Y-103794720D01*
X205389821Y-103694703D01*
X205388704Y-103613388D01*
X205387466Y-103552464D01*
X205386116Y-103513620D01*
X205384718Y-103498650D01*
X205373852Y-103485021D01*
X205346653Y-103455287D01*
X205304838Y-103411210D01*
X205250125Y-103354554D01*
X205184231Y-103287084D01*
X205108874Y-103210561D01*
X205025770Y-103126751D01*
X204936639Y-103037417D01*
X204899324Y-103000175D01*
X204424763Y-102527100D01*
X201644955Y-102527100D01*
X201165177Y-103006877D01*
X200685399Y-103486655D01*
X200685399Y-104861077D01*
X200685400Y-106235500D01*
G36*
X200771298Y-121199101D02*
G01*
X201288996Y-121716800D01*
X204781266Y-121716800D01*
X205822550Y-120675286D01*
X205825846Y-118757643D01*
X205829143Y-116840000D01*
X205638400Y-116840000D01*
X205638400Y-120592978D01*
X204704822Y-121526300D01*
X201364719Y-121526300D01*
X200904409Y-121065860D01*
X200444100Y-120605421D01*
X200444100Y-116840000D01*
X200253600Y-116840000D01*
X200253600Y-120681403D01*
X200771298Y-121199101D01*
G37*
X200771298Y-121199101D02*
X201288996Y-121716800D01*
X204781266Y-121716800D01*
X205822550Y-120675286D01*
X205825846Y-118757643D01*
X205829143Y-116840000D01*
X205638400Y-116840000D01*
X205638400Y-120592978D01*
X204704822Y-121526300D01*
X201364719Y-121526300D01*
X200904409Y-121065860D01*
X200444100Y-120605421D01*
X200444100Y-116840000D01*
X200253600Y-116840000D01*
X200253600Y-120681403D01*
X200771298Y-121199101D01*
G36*
X204861766Y-114237499D02*
G01*
X204877698Y-114301862D01*
X204886759Y-114322210D01*
X204930628Y-114380699D01*
X204989479Y-114421186D01*
X205059884Y-114443168D01*
X205138419Y-114446144D01*
X205221655Y-114429614D01*
X205306167Y-114393075D01*
X205319313Y-114385497D01*
X205353958Y-114361418D01*
X205401023Y-114324014D01*
X205454962Y-114277915D01*
X205510226Y-114227749D01*
X205524481Y-114214275D01*
X205572831Y-114168613D01*
X205614719Y-114129952D01*
X205646736Y-114101367D01*
X205665473Y-114085934D01*
X205668701Y-114084100D01*
X205671377Y-114096078D01*
X205673657Y-114129131D01*
X205675370Y-114178933D01*
X205676342Y-114241160D01*
X205676500Y-114280374D01*
X205676500Y-114476649D01*
X205721921Y-114485170D01*
X205763297Y-114487174D01*
X205798121Y-114479667D01*
X205828900Y-114465644D01*
X205827897Y-114176447D01*
X205827337Y-114092644D01*
X205826321Y-114016971D01*
X205824941Y-113953259D01*
X205823290Y-113905335D01*
X205821461Y-113877027D01*
X205820489Y-113871375D01*
X205803408Y-113861227D01*
X205764022Y-113856058D01*
X205740093Y-113855500D01*
X205666104Y-113855500D01*
X205517935Y-113992025D01*
X205435957Y-114065691D01*
X205367782Y-114122368D01*
X205310358Y-114164065D01*
X205260632Y-114192794D01*
X205215552Y-114210567D01*
X205173002Y-114219284D01*
X205132566Y-114222358D01*
X205105430Y-114217267D01*
X205079955Y-114200645D01*
X205065650Y-114188255D01*
X205039084Y-114161445D01*
X205026805Y-114136341D01*
X205024008Y-114101213D01*
X205024288Y-114087330D01*
X205035833Y-114019319D01*
X205059668Y-113958839D01*
X205076541Y-113921238D01*
X205085617Y-113892188D01*
X205085655Y-113880423D01*
X205069551Y-113873309D01*
X205037031Y-113868902D01*
X205015845Y-113868200D01*
X204970627Y-113871714D01*
X204940893Y-113884168D01*
X204928044Y-113895618D01*
X204897589Y-113943322D01*
X204875056Y-114008367D01*
X204861122Y-114083747D01*
X204856466Y-114162460D01*
X204861766Y-114237499D01*
G37*
X204861766Y-114237499D02*
X204877698Y-114301862D01*
X204886759Y-114322210D01*
X204930628Y-114380699D01*
X204989479Y-114421186D01*
X205059884Y-114443168D01*
X205138419Y-114446144D01*
X205221655Y-114429614D01*
X205306167Y-114393075D01*
X205319313Y-114385497D01*
X205353958Y-114361418D01*
X205401023Y-114324014D01*
X205454962Y-114277915D01*
X205510226Y-114227749D01*
X205524481Y-114214275D01*
X205572831Y-114168613D01*
X205614719Y-114129952D01*
X205646736Y-114101367D01*
X205665473Y-114085934D01*
X205668701Y-114084100D01*
X205671377Y-114096078D01*
X205673657Y-114129131D01*
X205675370Y-114178933D01*
X205676342Y-114241160D01*
X205676500Y-114280374D01*
X205676500Y-114476649D01*
X205721921Y-114485170D01*
X205763297Y-114487174D01*
X205798121Y-114479667D01*
X205828900Y-114465644D01*
X205827897Y-114176447D01*
X205827337Y-114092644D01*
X205826321Y-114016971D01*
X205824941Y-113953259D01*
X205823290Y-113905335D01*
X205821461Y-113877027D01*
X205820489Y-113871375D01*
X205803408Y-113861227D01*
X205764022Y-113856058D01*
X205740093Y-113855500D01*
X205666104Y-113855500D01*
X205517935Y-113992025D01*
X205435957Y-114065691D01*
X205367782Y-114122368D01*
X205310358Y-114164065D01*
X205260632Y-114192794D01*
X205215552Y-114210567D01*
X205173002Y-114219284D01*
X205132566Y-114222358D01*
X205105430Y-114217267D01*
X205079955Y-114200645D01*
X205065650Y-114188255D01*
X205039084Y-114161445D01*
X205026805Y-114136341D01*
X205024008Y-114101213D01*
X205024288Y-114087330D01*
X205035833Y-114019319D01*
X205059668Y-113958839D01*
X205076541Y-113921238D01*
X205085617Y-113892188D01*
X205085655Y-113880423D01*
X205069551Y-113873309D01*
X205037031Y-113868902D01*
X205015845Y-113868200D01*
X204970627Y-113871714D01*
X204940893Y-113884168D01*
X204928044Y-113895618D01*
X204897589Y-113943322D01*
X204875056Y-114008367D01*
X204861122Y-114083747D01*
X204856466Y-114162460D01*
X204861766Y-114237499D01*
G36*
X204861766Y-112688099D02*
G01*
X204877698Y-112752462D01*
X204886759Y-112772810D01*
X204930628Y-112831299D01*
X204989479Y-112871786D01*
X205059884Y-112893768D01*
X205138419Y-112896744D01*
X205221655Y-112880214D01*
X205306167Y-112843675D01*
X205319313Y-112836097D01*
X205353958Y-112812018D01*
X205401023Y-112774614D01*
X205454962Y-112728515D01*
X205510226Y-112678349D01*
X205524481Y-112664875D01*
X205572831Y-112619213D01*
X205614719Y-112580552D01*
X205646736Y-112551967D01*
X205665473Y-112536534D01*
X205668701Y-112534700D01*
X205671377Y-112546678D01*
X205673657Y-112579731D01*
X205675370Y-112629533D01*
X205676342Y-112691760D01*
X205676500Y-112730974D01*
X205676500Y-112927249D01*
X205721921Y-112935770D01*
X205763297Y-112937774D01*
X205798121Y-112930267D01*
X205828900Y-112916244D01*
X205827897Y-112627047D01*
X205827337Y-112543244D01*
X205826321Y-112467571D01*
X205824941Y-112403859D01*
X205823290Y-112355935D01*
X205821461Y-112327627D01*
X205820489Y-112321975D01*
X205803408Y-112311827D01*
X205764022Y-112306658D01*
X205740093Y-112306100D01*
X205666104Y-112306100D01*
X205517935Y-112442625D01*
X205435957Y-112516291D01*
X205367782Y-112572968D01*
X205310358Y-112614665D01*
X205260632Y-112643394D01*
X205215552Y-112661167D01*
X205173002Y-112669884D01*
X205132566Y-112672958D01*
X205105430Y-112667867D01*
X205079955Y-112651245D01*
X205065650Y-112638855D01*
X205039084Y-112612045D01*
X205026805Y-112586941D01*
X205024008Y-112551813D01*
X205024288Y-112537930D01*
X205035833Y-112469919D01*
X205059668Y-112409439D01*
X205076541Y-112371838D01*
X205085617Y-112342788D01*
X205085655Y-112331023D01*
X205069551Y-112323909D01*
X205037031Y-112319502D01*
X205015845Y-112318800D01*
X204970627Y-112322314D01*
X204940893Y-112334768D01*
X204928044Y-112346218D01*
X204897589Y-112393922D01*
X204875056Y-112458967D01*
X204861122Y-112534347D01*
X204856466Y-112613060D01*
X204861766Y-112688099D01*
G37*
X204861766Y-112688099D02*
X204877698Y-112752462D01*
X204886759Y-112772810D01*
X204930628Y-112831299D01*
X204989479Y-112871786D01*
X205059884Y-112893768D01*
X205138419Y-112896744D01*
X205221655Y-112880214D01*
X205306167Y-112843675D01*
X205319313Y-112836097D01*
X205353958Y-112812018D01*
X205401023Y-112774614D01*
X205454962Y-112728515D01*
X205510226Y-112678349D01*
X205524481Y-112664875D01*
X205572831Y-112619213D01*
X205614719Y-112580552D01*
X205646736Y-112551967D01*
X205665473Y-112536534D01*
X205668701Y-112534700D01*
X205671377Y-112546678D01*
X205673657Y-112579731D01*
X205675370Y-112629533D01*
X205676342Y-112691760D01*
X205676500Y-112730974D01*
X205676500Y-112927249D01*
X205721921Y-112935770D01*
X205763297Y-112937774D01*
X205798121Y-112930267D01*
X205828900Y-112916244D01*
X205827897Y-112627047D01*
X205827337Y-112543244D01*
X205826321Y-112467571D01*
X205824941Y-112403859D01*
X205823290Y-112355935D01*
X205821461Y-112327627D01*
X205820489Y-112321975D01*
X205803408Y-112311827D01*
X205764022Y-112306658D01*
X205740093Y-112306100D01*
X205666104Y-112306100D01*
X205517935Y-112442625D01*
X205435957Y-112516291D01*
X205367782Y-112572968D01*
X205310358Y-112614665D01*
X205260632Y-112643394D01*
X205215552Y-112661167D01*
X205173002Y-112669884D01*
X205132566Y-112672958D01*
X205105430Y-112667867D01*
X205079955Y-112651245D01*
X205065650Y-112638855D01*
X205039084Y-112612045D01*
X205026805Y-112586941D01*
X205024008Y-112551813D01*
X205024288Y-112537930D01*
X205035833Y-112469919D01*
X205059668Y-112409439D01*
X205076541Y-112371838D01*
X205085617Y-112342788D01*
X205085655Y-112331023D01*
X205069551Y-112323909D01*
X205037031Y-112319502D01*
X205015845Y-112318800D01*
X204970627Y-112322314D01*
X204940893Y-112334768D01*
X204928044Y-112346218D01*
X204897589Y-112393922D01*
X204875056Y-112458967D01*
X204861122Y-112534347D01*
X204856466Y-112613060D01*
X204861766Y-112688099D01*
G36*
X204865940Y-110700265D02*
G01*
X204871408Y-110723911D01*
X204875702Y-110729200D01*
X204885717Y-110733484D01*
X204903863Y-110736866D01*
X204932547Y-110739450D01*
X204974177Y-110741338D01*
X205031162Y-110742634D01*
X205105910Y-110743440D01*
X205200829Y-110743860D01*
X205318328Y-110743997D01*
X205340861Y-110744000D01*
X205465300Y-110744125D01*
X205566689Y-110744113D01*
X205647375Y-110743384D01*
X205709705Y-110741356D01*
X205756024Y-110737449D01*
X205788679Y-110731082D01*
X205810018Y-110721675D01*
X205822385Y-110708646D01*
X205828129Y-110691414D01*
X205829595Y-110669400D01*
X205829130Y-110642022D01*
X205828900Y-110623207D01*
X205826970Y-110578524D01*
X205818988Y-110549085D01*
X205801666Y-110524889D01*
X205793975Y-110516978D01*
X205775002Y-110503273D01*
X205737120Y-110479913D01*
X205683994Y-110448892D01*
X205619285Y-110412202D01*
X205546658Y-110371837D01*
X205469775Y-110329790D01*
X205392300Y-110288054D01*
X205317896Y-110248623D01*
X205250227Y-110213490D01*
X205192955Y-110184648D01*
X205149743Y-110164090D01*
X205130399Y-110155912D01*
X205104174Y-110144152D01*
X205092344Y-110135172D01*
X205092289Y-110134790D01*
X205104451Y-110133183D01*
X205138806Y-110131986D01*
X205192151Y-110131225D01*
X205261282Y-110130924D01*
X205342995Y-110131110D01*
X205434087Y-110131807D01*
X205449852Y-110131973D01*
X205558991Y-110132943D01*
X205645191Y-110133131D01*
X205710903Y-110132453D01*
X205758578Y-110130824D01*
X205790668Y-110128160D01*
X205809622Y-110124376D01*
X205817894Y-110119387D01*
X205817968Y-110119273D01*
X205825687Y-110094555D01*
X205828699Y-110058608D01*
X205827321Y-110020590D01*
X205821873Y-109989662D01*
X205812964Y-109975087D01*
X205796972Y-109973768D01*
X205758549Y-109972730D01*
X205700661Y-109971990D01*
X205626276Y-109971565D01*
X205538359Y-109971473D01*
X205439879Y-109971730D01*
X205339889Y-109972311D01*
X204882750Y-109975650D01*
X204879129Y-110090753D01*
X204878090Y-110147560D01*
X204879814Y-110184676D01*
X204885097Y-110207736D01*
X204894735Y-110222374D01*
X204898179Y-110225607D01*
X204918281Y-110239193D01*
X204957558Y-110262401D01*
X205012540Y-110293351D01*
X205079755Y-110330166D01*
X205155729Y-110370968D01*
X205236993Y-110413880D01*
X205320073Y-110457022D01*
X205401498Y-110498518D01*
X205419325Y-110507481D01*
X205473331Y-110534785D01*
X205517985Y-110557798D01*
X205548992Y-110574271D01*
X205562053Y-110581958D01*
X205562210Y-110582181D01*
X205550061Y-110582851D01*
X205515794Y-110583188D01*
X205462688Y-110583198D01*
X205394023Y-110582890D01*
X205313079Y-110582273D01*
X205223135Y-110581353D01*
X205220987Y-110581329D01*
X204879752Y-110577408D01*
X204871899Y-110606729D01*
X204864708Y-110653718D01*
X204865940Y-110700265D01*
G37*
X204865940Y-110700265D02*
X204871408Y-110723911D01*
X204875702Y-110729200D01*
X204885717Y-110733484D01*
X204903863Y-110736866D01*
X204932547Y-110739450D01*
X204974177Y-110741338D01*
X205031162Y-110742634D01*
X205105910Y-110743440D01*
X205200829Y-110743860D01*
X205318328Y-110743997D01*
X205340861Y-110744000D01*
X205465300Y-110744125D01*
X205566689Y-110744113D01*
X205647375Y-110743384D01*
X205709705Y-110741356D01*
X205756024Y-110737449D01*
X205788679Y-110731082D01*
X205810018Y-110721675D01*
X205822385Y-110708646D01*
X205828129Y-110691414D01*
X205829595Y-110669400D01*
X205829130Y-110642022D01*
X205828900Y-110623207D01*
X205826970Y-110578524D01*
X205818988Y-110549085D01*
X205801666Y-110524889D01*
X205793975Y-110516978D01*
X205775002Y-110503273D01*
X205737120Y-110479913D01*
X205683994Y-110448892D01*
X205619285Y-110412202D01*
X205546658Y-110371837D01*
X205469775Y-110329790D01*
X205392300Y-110288054D01*
X205317896Y-110248623D01*
X205250227Y-110213490D01*
X205192955Y-110184648D01*
X205149743Y-110164090D01*
X205130399Y-110155912D01*
X205104174Y-110144152D01*
X205092344Y-110135172D01*
X205092289Y-110134790D01*
X205104451Y-110133183D01*
X205138806Y-110131986D01*
X205192151Y-110131225D01*
X205261282Y-110130924D01*
X205342995Y-110131110D01*
X205434087Y-110131807D01*
X205449852Y-110131973D01*
X205558991Y-110132943D01*
X205645191Y-110133131D01*
X205710903Y-110132453D01*
X205758578Y-110130824D01*
X205790668Y-110128160D01*
X205809622Y-110124376D01*
X205817894Y-110119387D01*
X205817968Y-110119273D01*
X205825687Y-110094555D01*
X205828699Y-110058608D01*
X205827321Y-110020590D01*
X205821873Y-109989662D01*
X205812964Y-109975087D01*
X205796972Y-109973768D01*
X205758549Y-109972730D01*
X205700661Y-109971990D01*
X205626276Y-109971565D01*
X205538359Y-109971473D01*
X205439879Y-109971730D01*
X205339889Y-109972311D01*
X204882750Y-109975650D01*
X204879129Y-110090753D01*
X204878090Y-110147560D01*
X204879814Y-110184676D01*
X204885097Y-110207736D01*
X204894735Y-110222374D01*
X204898179Y-110225607D01*
X204918281Y-110239193D01*
X204957558Y-110262401D01*
X205012540Y-110293351D01*
X205079755Y-110330166D01*
X205155729Y-110370968D01*
X205236993Y-110413880D01*
X205320073Y-110457022D01*
X205401498Y-110498518D01*
X205419325Y-110507481D01*
X205473331Y-110534785D01*
X205517985Y-110557798D01*
X205548992Y-110574271D01*
X205562053Y-110581958D01*
X205562210Y-110582181D01*
X205550061Y-110582851D01*
X205515794Y-110583188D01*
X205462688Y-110583198D01*
X205394023Y-110582890D01*
X205313079Y-110582273D01*
X205223135Y-110581353D01*
X205220987Y-110581329D01*
X204879752Y-110577408D01*
X204871899Y-110606729D01*
X204864708Y-110653718D01*
X204865940Y-110700265D01*
G36*
X204882848Y-109442421D02*
G01*
X204883482Y-109504023D01*
X204885157Y-109548783D01*
X204888378Y-109580981D01*
X204893651Y-109604896D01*
X204901481Y-109624809D01*
X204912375Y-109644998D01*
X204917495Y-109653755D01*
X204962673Y-109707956D01*
X205020950Y-109744871D01*
X205087299Y-109764542D01*
X205156694Y-109767015D01*
X205224108Y-109752333D01*
X205284512Y-109720540D01*
X205332881Y-109671679D01*
X205346336Y-109650002D01*
X205378122Y-109591055D01*
X205422536Y-109637302D01*
X205453642Y-109663636D01*
X205498913Y-109691430D01*
X205561987Y-109722710D01*
X205628236Y-109751828D01*
X205689512Y-109776626D01*
X205742938Y-109796100D01*
X205783780Y-109808671D01*
X205807302Y-109812764D01*
X205809795Y-109812328D01*
X205820776Y-109803084D01*
X205826250Y-109782441D01*
X205827197Y-109744847D01*
X205826309Y-109718649D01*
X205822550Y-109632750D01*
X205771439Y-109607350D01*
X205735714Y-109590726D01*
X205685490Y-109568776D01*
X205629911Y-109545466D01*
X205612689Y-109538450D01*
X205540557Y-109506519D01*
X205490022Y-109476453D01*
X205457806Y-109444976D01*
X205440632Y-109408812D01*
X205435222Y-109364683D01*
X205435200Y-109361007D01*
X205435200Y-109296861D01*
X205628875Y-109293355D01*
X205822550Y-109289850D01*
X205826335Y-109210310D01*
X205826661Y-109160806D01*
X205821476Y-109133001D01*
X205813574Y-109124421D01*
X205797438Y-109123049D01*
X205758875Y-109121961D01*
X205700858Y-109121177D01*
X205626359Y-109120715D01*
X205538349Y-109120596D01*
X205439802Y-109120836D01*
X205339889Y-109121411D01*
X205016100Y-109123775D01*
X205016100Y-109296200D01*
X205147333Y-109296200D01*
X205202734Y-109296973D01*
X205248319Y-109299059D01*
X205278335Y-109302111D01*
X205287033Y-109304666D01*
X205293999Y-109325476D01*
X205295583Y-109362702D01*
X205292338Y-109408064D01*
X205284815Y-109453281D01*
X205274875Y-109486930D01*
X205243065Y-109536565D01*
X205197814Y-109566535D01*
X205143721Y-109575053D01*
X205085595Y-109560427D01*
X205051053Y-109534753D01*
X205028866Y-109493206D01*
X205017846Y-109432803D01*
X205016100Y-109385730D01*
X205016100Y-109296200D01*
X205016100Y-109123775D01*
X204882750Y-109124750D01*
X204882750Y-109359700D01*
X204882848Y-109442421D01*
G37*
X204882848Y-109442421D02*
X204883482Y-109504023D01*
X204885157Y-109548783D01*
X204888378Y-109580981D01*
X204893651Y-109604896D01*
X204901481Y-109624809D01*
X204912375Y-109644998D01*
X204917495Y-109653755D01*
X204962673Y-109707956D01*
X205020950Y-109744871D01*
X205087299Y-109764542D01*
X205156694Y-109767015D01*
X205224108Y-109752333D01*
X205284512Y-109720540D01*
X205332881Y-109671679D01*
X205346336Y-109650002D01*
X205378122Y-109591055D01*
X205422536Y-109637302D01*
X205453642Y-109663636D01*
X205498913Y-109691430D01*
X205561987Y-109722710D01*
X205628236Y-109751828D01*
X205689512Y-109776626D01*
X205742938Y-109796100D01*
X205783780Y-109808671D01*
X205807302Y-109812764D01*
X205809795Y-109812328D01*
X205820776Y-109803084D01*
X205826250Y-109782441D01*
X205827197Y-109744847D01*
X205826309Y-109718649D01*
X205822550Y-109632750D01*
X205771439Y-109607350D01*
X205735714Y-109590726D01*
X205685490Y-109568776D01*
X205629911Y-109545466D01*
X205612689Y-109538450D01*
X205540557Y-109506519D01*
X205490022Y-109476453D01*
X205457806Y-109444976D01*
X205440632Y-109408812D01*
X205435222Y-109364683D01*
X205435200Y-109361007D01*
X205435200Y-109296861D01*
X205628875Y-109293355D01*
X205822550Y-109289850D01*
X205826335Y-109210310D01*
X205826661Y-109160806D01*
X205821476Y-109133001D01*
X205813574Y-109124421D01*
X205797438Y-109123049D01*
X205758875Y-109121961D01*
X205700858Y-109121177D01*
X205626359Y-109120715D01*
X205538349Y-109120596D01*
X205439802Y-109120836D01*
X205339889Y-109121411D01*
X205016100Y-109123775D01*
X205016100Y-109296200D01*
X205147333Y-109296200D01*
X205202734Y-109296973D01*
X205248319Y-109299059D01*
X205278335Y-109302111D01*
X205287033Y-109304666D01*
X205293999Y-109325476D01*
X205295583Y-109362702D01*
X205292338Y-109408064D01*
X205284815Y-109453281D01*
X205274875Y-109486930D01*
X205243065Y-109536565D01*
X205197814Y-109566535D01*
X205143721Y-109575053D01*
X205085595Y-109560427D01*
X205051053Y-109534753D01*
X205028866Y-109493206D01*
X205017846Y-109432803D01*
X205016100Y-109385730D01*
X205016100Y-109296200D01*
X205016100Y-109123775D01*
X204882750Y-109124750D01*
X204882750Y-109359700D01*
X204882848Y-109442421D01*
G36*
X204880762Y-108643397D02*
G01*
X204886474Y-108700153D01*
X204896397Y-108743912D01*
X204911208Y-108778778D01*
X204931590Y-108808856D01*
X204935396Y-108813478D01*
X204985107Y-108858921D01*
X205042769Y-108883366D01*
X205105624Y-108889800D01*
X205177213Y-108881151D01*
X205235370Y-108856460D01*
X205275885Y-108817613D01*
X205279378Y-108812062D01*
X205299300Y-108783414D01*
X205312980Y-108778180D01*
X205323035Y-108795973D01*
X205325597Y-108805186D01*
X205349571Y-108854685D01*
X205392201Y-108899328D01*
X205440551Y-108929216D01*
X205514965Y-108950163D01*
X205589423Y-108947973D01*
X205659723Y-108924553D01*
X205721659Y-108881809D01*
X205771027Y-108821645D01*
X205796726Y-108767785D01*
X205806401Y-108729340D01*
X205814539Y-108675370D01*
X205820971Y-108610888D01*
X205825527Y-108540910D01*
X205828038Y-108470449D01*
X205828335Y-108404521D01*
X205826249Y-108348139D01*
X205821609Y-108306319D01*
X205814247Y-108284074D01*
X205813099Y-108282896D01*
X205801649Y-108278549D01*
X205777611Y-108275128D01*
X205739000Y-108272582D01*
X205683832Y-108270859D01*
X205610121Y-108269908D01*
X205585235Y-108269847D01*
X205585235Y-108447110D01*
X205632461Y-108447729D01*
X205664723Y-108449690D01*
X205674215Y-108451452D01*
X205683495Y-108467295D01*
X205687815Y-108501135D01*
X205687639Y-108546155D01*
X205683432Y-108595537D01*
X205675661Y-108642465D01*
X205664791Y-108680122D01*
X205657632Y-108694453D01*
X205619349Y-108731756D01*
X205569740Y-108750835D01*
X205515933Y-108750918D01*
X205465060Y-108731232D01*
X205446739Y-108717300D01*
X205427975Y-108688074D01*
X205412436Y-108641539D01*
X205401958Y-108585746D01*
X205398378Y-108528747D01*
X205399182Y-108508800D01*
X205403450Y-108451650D01*
X205529546Y-108447987D01*
X205585235Y-108447110D01*
X205585235Y-108269847D01*
X205515883Y-108269675D01*
X205399134Y-108270110D01*
X205338453Y-108270512D01*
X205270100Y-108271012D01*
X205270100Y-108444411D01*
X205270100Y-108515113D01*
X205266620Y-108564497D01*
X205257760Y-108611208D01*
X205251507Y-108630314D01*
X205221874Y-108672397D01*
X205179399Y-108697715D01*
X205130824Y-108705400D01*
X205082890Y-108694585D01*
X205042337Y-108664400D01*
X205037134Y-108657915D01*
X205021684Y-108629065D01*
X205013447Y-108589940D01*
X205010782Y-108537826D01*
X205009750Y-108451650D01*
X205139925Y-108448030D01*
X205270100Y-108444411D01*
X205270100Y-108271012D01*
X204882750Y-108273850D01*
X204879249Y-108474483D01*
X204878580Y-108569542D01*
X204880762Y-108643397D01*
G37*
X204880762Y-108643397D02*
X204886474Y-108700153D01*
X204896397Y-108743912D01*
X204911208Y-108778778D01*
X204931590Y-108808856D01*
X204935396Y-108813478D01*
X204985107Y-108858921D01*
X205042769Y-108883366D01*
X205105624Y-108889800D01*
X205177213Y-108881151D01*
X205235370Y-108856460D01*
X205275885Y-108817613D01*
X205279378Y-108812062D01*
X205299300Y-108783414D01*
X205312980Y-108778180D01*
X205323035Y-108795973D01*
X205325597Y-108805186D01*
X205349571Y-108854685D01*
X205392201Y-108899328D01*
X205440551Y-108929216D01*
X205514965Y-108950163D01*
X205589423Y-108947973D01*
X205659723Y-108924553D01*
X205721659Y-108881809D01*
X205771027Y-108821645D01*
X205796726Y-108767785D01*
X205806401Y-108729340D01*
X205814539Y-108675370D01*
X205820971Y-108610888D01*
X205825527Y-108540910D01*
X205828038Y-108470449D01*
X205828335Y-108404521D01*
X205826249Y-108348139D01*
X205821609Y-108306319D01*
X205814247Y-108284074D01*
X205813099Y-108282896D01*
X205801649Y-108278549D01*
X205777611Y-108275128D01*
X205739000Y-108272582D01*
X205683832Y-108270859D01*
X205610121Y-108269908D01*
X205585235Y-108269847D01*
X205585235Y-108447110D01*
X205632461Y-108447729D01*
X205664723Y-108449690D01*
X205674215Y-108451452D01*
X205683495Y-108467295D01*
X205687815Y-108501135D01*
X205687639Y-108546155D01*
X205683432Y-108595537D01*
X205675661Y-108642465D01*
X205664791Y-108680122D01*
X205657632Y-108694453D01*
X205619349Y-108731756D01*
X205569740Y-108750835D01*
X205515933Y-108750918D01*
X205465060Y-108731232D01*
X205446739Y-108717300D01*
X205427975Y-108688074D01*
X205412436Y-108641539D01*
X205401958Y-108585746D01*
X205398378Y-108528747D01*
X205399182Y-108508800D01*
X205403450Y-108451650D01*
X205529546Y-108447987D01*
X205585235Y-108447110D01*
X205585235Y-108269847D01*
X205515883Y-108269675D01*
X205399134Y-108270110D01*
X205338453Y-108270512D01*
X205270100Y-108271012D01*
X205270100Y-108444411D01*
X205270100Y-108515113D01*
X205266620Y-108564497D01*
X205257760Y-108611208D01*
X205251507Y-108630314D01*
X205221874Y-108672397D01*
X205179399Y-108697715D01*
X205130824Y-108705400D01*
X205082890Y-108694585D01*
X205042337Y-108664400D01*
X205037134Y-108657915D01*
X205021684Y-108629065D01*
X205013447Y-108589940D01*
X205010782Y-108537826D01*
X205009750Y-108451650D01*
X205139925Y-108448030D01*
X205270100Y-108444411D01*
X205270100Y-108271012D01*
X204882750Y-108273850D01*
X204879249Y-108474483D01*
X204878580Y-108569542D01*
X204880762Y-108643397D01*
G36*
X200253600Y-106680000D02*
G01*
X200444100Y-106680000D01*
X200444099Y-104797159D01*
X200444099Y-102914319D01*
X200904539Y-102454009D01*
X201364978Y-101993699D01*
X203035028Y-101993699D01*
X204705078Y-101993700D01*
X205171739Y-102460488D01*
X205638400Y-102927277D01*
X205638400Y-106680000D01*
X205828900Y-106680000D01*
X205828094Y-104778175D01*
X205827931Y-104560042D01*
X205827634Y-104348644D01*
X205827211Y-104145396D01*
X205826672Y-103951712D01*
X205826024Y-103769006D01*
X205825277Y-103598692D01*
X205824438Y-103442185D01*
X205823517Y-103300899D01*
X205822521Y-103176248D01*
X205821460Y-103069647D01*
X205820342Y-102982510D01*
X205819175Y-102916251D01*
X205817967Y-102872284D01*
X205816729Y-102852024D01*
X205816481Y-102850950D01*
X205805693Y-102837496D01*
X205778510Y-102807854D01*
X205736578Y-102763713D01*
X205681546Y-102706762D01*
X205615061Y-102638689D01*
X205538772Y-102561184D01*
X205454325Y-102475937D01*
X205363368Y-102384635D01*
X205293047Y-102314375D01*
X204780420Y-101803200D01*
X201288996Y-101803200D01*
X200771298Y-102320898D01*
X200253599Y-102838596D01*
X200253599Y-104759298D01*
X200253600Y-106680000D01*
G37*
X200253600Y-106680000D02*
X200444100Y-106680000D01*
X200444099Y-104797159D01*
X200444099Y-102914319D01*
X200904539Y-102454009D01*
X201364978Y-101993699D01*
X203035028Y-101993699D01*
X204705078Y-101993700D01*
X205171739Y-102460488D01*
X205638400Y-102927277D01*
X205638400Y-106680000D01*
X205828900Y-106680000D01*
X205828094Y-104778175D01*
X205827931Y-104560042D01*
X205827634Y-104348644D01*
X205827211Y-104145396D01*
X205826672Y-103951712D01*
X205826024Y-103769006D01*
X205825277Y-103598692D01*
X205824438Y-103442185D01*
X205823517Y-103300899D01*
X205822521Y-103176248D01*
X205821460Y-103069647D01*
X205820342Y-102982510D01*
X205819175Y-102916251D01*
X205817967Y-102872284D01*
X205816729Y-102852024D01*
X205816481Y-102850950D01*
X205805693Y-102837496D01*
X205778510Y-102807854D01*
X205736578Y-102763713D01*
X205681546Y-102706762D01*
X205615061Y-102638689D01*
X205538772Y-102561184D01*
X205454325Y-102475937D01*
X205363368Y-102384635D01*
X205293047Y-102314375D01*
X204780420Y-101803200D01*
X201288996Y-101803200D01*
X200771298Y-102320898D01*
X200253599Y-102838596D01*
X200253599Y-104759298D01*
X200253600Y-106680000D01*
G36*
X204857839Y-114935000D02*
G01*
X204865720Y-115028258D01*
X204889520Y-115102984D01*
X204930878Y-115161652D01*
X204991436Y-115206739D01*
X205056980Y-115235454D01*
X205105128Y-115246616D01*
X205172051Y-115254576D01*
X205251393Y-115259331D01*
X205336795Y-115260875D01*
X205421901Y-115259202D01*
X205500354Y-115254308D01*
X205565796Y-115246186D01*
X205608908Y-115235908D01*
X205691022Y-115197906D01*
X205756968Y-115148013D01*
X205802566Y-115089452D01*
X205805259Y-115084395D01*
X205824661Y-115029050D01*
X205836061Y-114960031D01*
X205838811Y-114887608D01*
X205832265Y-114822050D01*
X205823759Y-114790693D01*
X205790746Y-114727370D01*
X205742764Y-114677023D01*
X205678269Y-114639072D01*
X205595714Y-114612939D01*
X205493555Y-114598041D01*
X205370247Y-114593801D01*
X205347169Y-114594342D01*
X205347169Y-114782670D01*
X205453107Y-114784895D01*
X205536251Y-114792315D01*
X205598858Y-114805903D01*
X205643180Y-114826633D01*
X205671473Y-114855477D01*
X205685989Y-114893410D01*
X205689200Y-114930346D01*
X205685204Y-114970109D01*
X205669254Y-114998368D01*
X205650522Y-115016087D01*
X205618727Y-115038637D01*
X205582111Y-115054967D01*
X205536508Y-115065774D01*
X205477750Y-115071755D01*
X205401671Y-115073608D01*
X205314757Y-115072319D01*
X205235911Y-115069716D01*
X205177853Y-115066253D01*
X205135972Y-115061367D01*
X205105657Y-115054497D01*
X205082298Y-115045083D01*
X205079600Y-115043679D01*
X205036421Y-115015700D01*
X205013032Y-114984924D01*
X205004319Y-114943540D01*
X205003803Y-114927851D01*
X205008758Y-114885620D01*
X205028119Y-114853646D01*
X205038325Y-114843309D01*
X205067889Y-114820660D01*
X205104243Y-114804112D01*
X205151469Y-114792863D01*
X205213645Y-114786114D01*
X205294851Y-114783062D01*
X205347169Y-114782670D01*
X205347169Y-114594342D01*
X205303328Y-114595372D01*
X205189855Y-114603721D01*
X205097776Y-114619916D01*
X205023940Y-114645271D01*
X204965195Y-114681101D01*
X204918389Y-114728718D01*
X204892977Y-114766440D01*
X204875004Y-114799943D01*
X204864353Y-114830561D01*
X204859223Y-114866930D01*
X204857815Y-114917687D01*
X204857839Y-114935000D01*
G37*
X204857839Y-114935000D02*
X204865720Y-115028258D01*
X204889520Y-115102984D01*
X204930878Y-115161652D01*
X204991436Y-115206739D01*
X205056980Y-115235454D01*
X205105128Y-115246616D01*
X205172051Y-115254576D01*
X205251393Y-115259331D01*
X205336795Y-115260875D01*
X205421901Y-115259202D01*
X205500354Y-115254308D01*
X205565796Y-115246186D01*
X205608908Y-115235908D01*
X205691022Y-115197906D01*
X205756968Y-115148013D01*
X205802566Y-115089452D01*
X205805259Y-115084395D01*
X205824661Y-115029050D01*
X205836061Y-114960031D01*
X205838811Y-114887608D01*
X205832265Y-114822050D01*
X205823759Y-114790693D01*
X205790746Y-114727370D01*
X205742764Y-114677023D01*
X205678269Y-114639072D01*
X205595714Y-114612939D01*
X205493555Y-114598041D01*
X205370247Y-114593801D01*
X205347169Y-114594342D01*
X205347169Y-114782670D01*
X205453107Y-114784895D01*
X205536251Y-114792315D01*
X205598858Y-114805903D01*
X205643180Y-114826633D01*
X205671473Y-114855477D01*
X205685989Y-114893410D01*
X205689200Y-114930346D01*
X205685204Y-114970109D01*
X205669254Y-114998368D01*
X205650522Y-115016087D01*
X205618727Y-115038637D01*
X205582111Y-115054967D01*
X205536508Y-115065774D01*
X205477750Y-115071755D01*
X205401671Y-115073608D01*
X205314757Y-115072319D01*
X205235911Y-115069716D01*
X205177853Y-115066253D01*
X205135972Y-115061367D01*
X205105657Y-115054497D01*
X205082298Y-115045083D01*
X205079600Y-115043679D01*
X205036421Y-115015700D01*
X205013032Y-114984924D01*
X205004319Y-114943540D01*
X205003803Y-114927851D01*
X205008758Y-114885620D01*
X205028119Y-114853646D01*
X205038325Y-114843309D01*
X205067889Y-114820660D01*
X205104243Y-114804112D01*
X205151469Y-114792863D01*
X205213645Y-114786114D01*
X205294851Y-114783062D01*
X205347169Y-114782670D01*
X205347169Y-114594342D01*
X205303328Y-114595372D01*
X205189855Y-114603721D01*
X205097776Y-114619916D01*
X205023940Y-114645271D01*
X204965195Y-114681101D01*
X204918389Y-114728718D01*
X204892977Y-114766440D01*
X204875004Y-114799943D01*
X204864353Y-114830561D01*
X204859223Y-114866930D01*
X204857815Y-114917687D01*
X204857839Y-114935000D01*
G36*
X204857839Y-113398300D02*
G01*
X204865720Y-113491558D01*
X204889520Y-113566284D01*
X204930878Y-113624952D01*
X204991436Y-113670039D01*
X205056980Y-113698754D01*
X205105128Y-113709916D01*
X205172051Y-113717876D01*
X205251393Y-113722631D01*
X205336795Y-113724175D01*
X205421901Y-113722502D01*
X205500354Y-113717608D01*
X205565796Y-113709486D01*
X205608908Y-113699208D01*
X205691022Y-113661206D01*
X205756968Y-113611313D01*
X205802566Y-113552752D01*
X205805259Y-113547695D01*
X205824661Y-113492350D01*
X205836061Y-113423331D01*
X205838811Y-113350908D01*
X205832265Y-113285350D01*
X205823759Y-113253993D01*
X205790746Y-113190670D01*
X205742764Y-113140323D01*
X205678269Y-113102372D01*
X205595714Y-113076239D01*
X205493555Y-113061341D01*
X205370247Y-113057101D01*
X205347169Y-113057642D01*
X205347169Y-113245970D01*
X205453107Y-113248195D01*
X205536251Y-113255615D01*
X205598858Y-113269203D01*
X205643180Y-113289933D01*
X205671473Y-113318777D01*
X205685989Y-113356710D01*
X205689200Y-113393646D01*
X205685204Y-113433409D01*
X205669254Y-113461668D01*
X205650522Y-113479387D01*
X205618727Y-113501937D01*
X205582111Y-113518267D01*
X205536508Y-113529074D01*
X205477750Y-113535055D01*
X205401671Y-113536908D01*
X205314757Y-113535619D01*
X205235911Y-113533016D01*
X205177853Y-113529553D01*
X205135972Y-113524667D01*
X205105657Y-113517797D01*
X205082298Y-113508383D01*
X205079600Y-113506979D01*
X205036421Y-113479000D01*
X205013032Y-113448224D01*
X205004319Y-113406840D01*
X205003803Y-113391151D01*
X205008758Y-113348920D01*
X205028119Y-113316946D01*
X205038325Y-113306609D01*
X205067889Y-113283960D01*
X205104243Y-113267412D01*
X205151469Y-113256163D01*
X205213645Y-113249414D01*
X205294851Y-113246362D01*
X205347169Y-113245970D01*
X205347169Y-113057642D01*
X205303328Y-113058672D01*
X205189855Y-113067021D01*
X205097776Y-113083216D01*
X205023940Y-113108571D01*
X204965195Y-113144401D01*
X204918389Y-113192018D01*
X204892977Y-113229740D01*
X204875004Y-113263243D01*
X204864353Y-113293861D01*
X204859223Y-113330230D01*
X204857815Y-113380987D01*
X204857839Y-113398300D01*
G37*
X204857839Y-113398300D02*
X204865720Y-113491558D01*
X204889520Y-113566284D01*
X204930878Y-113624952D01*
X204991436Y-113670039D01*
X205056980Y-113698754D01*
X205105128Y-113709916D01*
X205172051Y-113717876D01*
X205251393Y-113722631D01*
X205336795Y-113724175D01*
X205421901Y-113722502D01*
X205500354Y-113717608D01*
X205565796Y-113709486D01*
X205608908Y-113699208D01*
X205691022Y-113661206D01*
X205756968Y-113611313D01*
X205802566Y-113552752D01*
X205805259Y-113547695D01*
X205824661Y-113492350D01*
X205836061Y-113423331D01*
X205838811Y-113350908D01*
X205832265Y-113285350D01*
X205823759Y-113253993D01*
X205790746Y-113190670D01*
X205742764Y-113140323D01*
X205678269Y-113102372D01*
X205595714Y-113076239D01*
X205493555Y-113061341D01*
X205370247Y-113057101D01*
X205347169Y-113057642D01*
X205347169Y-113245970D01*
X205453107Y-113248195D01*
X205536251Y-113255615D01*
X205598858Y-113269203D01*
X205643180Y-113289933D01*
X205671473Y-113318777D01*
X205685989Y-113356710D01*
X205689200Y-113393646D01*
X205685204Y-113433409D01*
X205669254Y-113461668D01*
X205650522Y-113479387D01*
X205618727Y-113501937D01*
X205582111Y-113518267D01*
X205536508Y-113529074D01*
X205477750Y-113535055D01*
X205401671Y-113536908D01*
X205314757Y-113535619D01*
X205235911Y-113533016D01*
X205177853Y-113529553D01*
X205135972Y-113524667D01*
X205105657Y-113517797D01*
X205082298Y-113508383D01*
X205079600Y-113506979D01*
X205036421Y-113479000D01*
X205013032Y-113448224D01*
X205004319Y-113406840D01*
X205003803Y-113391151D01*
X205008758Y-113348920D01*
X205028119Y-113316946D01*
X205038325Y-113306609D01*
X205067889Y-113283960D01*
X205104243Y-113267412D01*
X205151469Y-113256163D01*
X205213645Y-113249414D01*
X205294851Y-113246362D01*
X205347169Y-113245970D01*
X205347169Y-113057642D01*
X205303328Y-113058672D01*
X205189855Y-113067021D01*
X205097776Y-113083216D01*
X205023940Y-113108571D01*
X204965195Y-113144401D01*
X204918389Y-113192018D01*
X204892977Y-113229740D01*
X204875004Y-113263243D01*
X204864353Y-113293861D01*
X204859223Y-113330230D01*
X204857815Y-113380987D01*
X204857839Y-113398300D01*
G36*
X204858580Y-111459808D02*
G01*
X204861634Y-111503472D01*
X204868629Y-111538226D01*
X204881169Y-111572310D01*
X204899044Y-111610278D01*
X204940671Y-111679483D01*
X204991418Y-111731625D01*
X205057809Y-111772629D01*
X205096974Y-111790023D01*
X205128580Y-111801263D01*
X205161869Y-111808866D01*
X205202713Y-111813486D01*
X205256986Y-111815779D01*
X205330557Y-111816398D01*
X205333600Y-111816397D01*
X205406614Y-111815854D01*
X205460440Y-111813789D01*
X205501277Y-111809446D01*
X205535324Y-111802069D01*
X205568782Y-111790899D01*
X205580856Y-111786210D01*
X205653395Y-111747309D01*
X205719717Y-111693157D01*
X205773525Y-111629920D01*
X205808519Y-111563767D01*
X205808777Y-111563042D01*
X205824346Y-111500631D01*
X205833915Y-111423950D01*
X205837105Y-111342632D01*
X205833539Y-111266307D01*
X205822839Y-111204608D01*
X205822829Y-111204572D01*
X205785253Y-111113582D01*
X205729052Y-111039594D01*
X205655322Y-110983685D01*
X205565160Y-110946930D01*
X205558609Y-110945192D01*
X205510516Y-110936989D01*
X205446361Y-110931707D01*
X205373691Y-110929363D01*
X205362812Y-110929453D01*
X205362812Y-111122570D01*
X205448421Y-111128669D01*
X205525213Y-111144321D01*
X205578474Y-111165544D01*
X205631102Y-111207949D01*
X205667467Y-111265677D01*
X205686082Y-111333393D01*
X205685460Y-111405760D01*
X205664903Y-111475724D01*
X205627376Y-111534233D01*
X205573901Y-111577631D01*
X205502791Y-111606682D01*
X205412355Y-111622147D01*
X205333600Y-111625297D01*
X205229593Y-111617917D01*
X205146036Y-111595901D01*
X205082365Y-111558886D01*
X205038021Y-111506511D01*
X205012443Y-111438413D01*
X205008423Y-111415442D01*
X205008580Y-111335440D01*
X205030732Y-111264093D01*
X205073200Y-111204841D01*
X205132199Y-111162181D01*
X205196789Y-111139266D01*
X205276298Y-111126082D01*
X205362812Y-111122570D01*
X205362812Y-110929453D01*
X205300050Y-110929975D01*
X205232985Y-110933560D01*
X205180040Y-110940136D01*
X205162150Y-110944274D01*
X205086778Y-110974947D01*
X205015401Y-111019335D01*
X204956281Y-111071739D01*
X204930547Y-111104032D01*
X204898255Y-111158747D01*
X204876644Y-111213412D01*
X204863964Y-111275130D01*
X204858463Y-111351004D01*
X204857860Y-111398995D01*
X204858580Y-111459808D01*
G37*
X204858580Y-111459808D02*
X204861634Y-111503472D01*
X204868629Y-111538226D01*
X204881169Y-111572310D01*
X204899044Y-111610278D01*
X204940671Y-111679483D01*
X204991418Y-111731625D01*
X205057809Y-111772629D01*
X205096974Y-111790023D01*
X205128580Y-111801263D01*
X205161869Y-111808866D01*
X205202713Y-111813486D01*
X205256986Y-111815779D01*
X205330557Y-111816398D01*
X205333600Y-111816397D01*
X205406614Y-111815854D01*
X205460440Y-111813789D01*
X205501277Y-111809446D01*
X205535324Y-111802069D01*
X205568782Y-111790899D01*
X205580856Y-111786210D01*
X205653395Y-111747309D01*
X205719717Y-111693157D01*
X205773525Y-111629920D01*
X205808519Y-111563767D01*
X205808777Y-111563042D01*
X205824346Y-111500631D01*
X205833915Y-111423950D01*
X205837105Y-111342632D01*
X205833539Y-111266307D01*
X205822839Y-111204608D01*
X205822829Y-111204572D01*
X205785253Y-111113582D01*
X205729052Y-111039594D01*
X205655322Y-110983685D01*
X205565160Y-110946930D01*
X205558609Y-110945192D01*
X205510516Y-110936989D01*
X205446361Y-110931707D01*
X205373691Y-110929363D01*
X205362812Y-110929453D01*
X205362812Y-111122570D01*
X205448421Y-111128669D01*
X205525213Y-111144321D01*
X205578474Y-111165544D01*
X205631102Y-111207949D01*
X205667467Y-111265677D01*
X205686082Y-111333393D01*
X205685460Y-111405760D01*
X205664903Y-111475724D01*
X205627376Y-111534233D01*
X205573901Y-111577631D01*
X205502791Y-111606682D01*
X205412355Y-111622147D01*
X205333600Y-111625297D01*
X205229593Y-111617917D01*
X205146036Y-111595901D01*
X205082365Y-111558886D01*
X205038021Y-111506511D01*
X205012443Y-111438413D01*
X205008423Y-111415442D01*
X205008580Y-111335440D01*
X205030732Y-111264093D01*
X205073200Y-111204841D01*
X205132199Y-111162181D01*
X205196789Y-111139266D01*
X205276298Y-111126082D01*
X205362812Y-111122570D01*
X205362812Y-110929453D01*
X205300050Y-110929975D01*
X205232985Y-110933560D01*
X205180040Y-110940136D01*
X205162150Y-110944274D01*
X205086778Y-110974947D01*
X205015401Y-111019335D01*
X204956281Y-111071739D01*
X204930547Y-111104032D01*
X204898255Y-111158747D01*
X204876644Y-111213412D01*
X204863964Y-111275130D01*
X204858463Y-111351004D01*
X204857860Y-111398995D01*
X204858580Y-111459808D01*
D11*
X196052064Y-82160000D02*
X194847936Y-82160000D01*
X196052064Y-80340000D02*
X194847936Y-80340000D01*
X190140000Y-85540436D02*
X190140000Y-86744564D01*
X188320000Y-85540436D02*
X188320000Y-86744564D01*
X193950000Y-85540436D02*
X193950000Y-86744564D01*
X192130000Y-85540436D02*
X192130000Y-86744564D01*
X197760000Y-85540436D02*
X197760000Y-86744564D01*
X195940000Y-85540436D02*
X195940000Y-86744564D01*
X195940000Y-93094564D02*
X195940000Y-91890436D01*
X197760000Y-93094564D02*
X197760000Y-91890436D01*
X220640000Y-64530000D02*
X215640000Y-64530000D01*
X213440000Y-62230000D02*
X213440000Y-57330000D01*
X213440000Y-57330000D02*
X220640000Y-57330000D01*
X220640000Y-57330000D02*
X220640000Y-64530000D01*
X200320000Y-64530000D02*
X195320000Y-64530000D01*
X193120000Y-62230000D02*
X193120000Y-57330000D01*
X193120000Y-57330000D02*
X200320000Y-57330000D01*
X200320000Y-57330000D02*
X200320000Y-64530000D01*
X210740000Y-64530000D02*
X205740000Y-64530000D01*
X203540000Y-62230000D02*
X203540000Y-57330000D01*
X203540000Y-57330000D02*
X210740000Y-57330000D01*
X210740000Y-57330000D02*
X210740000Y-64530000D01*
X190420000Y-64530000D02*
X185420000Y-64530000D01*
X183220000Y-62230000D02*
X183220000Y-57330000D01*
X183220000Y-57330000D02*
X190420000Y-57330000D01*
X190420000Y-57330000D02*
X190420000Y-64530000D01*
X221340000Y-61344564D02*
X221340000Y-60140436D01*
X223160000Y-61344564D02*
X223160000Y-60140436D01*
X220094064Y-66950000D02*
X218889936Y-66950000D01*
X220094064Y-65130000D02*
X218889936Y-65130000D01*
X190860000Y-61344564D02*
X190860000Y-60140436D01*
X192680000Y-61344564D02*
X192680000Y-60140436D01*
X183329936Y-65130000D02*
X184534064Y-65130000D01*
X183329936Y-66950000D02*
X184534064Y-66950000D01*
X211180000Y-61344564D02*
X211180000Y-60140436D01*
X213000000Y-61344564D02*
X213000000Y-60140436D01*
X180700000Y-61344564D02*
X180700000Y-60140436D01*
X182520000Y-61344564D02*
X182520000Y-60140436D01*
X209999936Y-124820000D02*
X211204064Y-124820000D01*
X209999936Y-126640000D02*
X211204064Y-126640000D01*
X209999936Y-122280000D02*
X211204064Y-122280000D01*
X209999936Y-124100000D02*
X211204064Y-124100000D01*
X209999936Y-119740000D02*
X211204064Y-119740000D01*
X209999936Y-121560000D02*
X211204064Y-121560000D01*
X209999936Y-117200000D02*
X211204064Y-117200000D01*
X209999936Y-119020000D02*
X211204064Y-119020000D01*
X192130000Y-93094564D02*
X192130000Y-91890436D01*
X193950000Y-93094564D02*
X193950000Y-91890436D01*
X227250000Y-139460000D02*
X222250000Y-139460000D01*
X220050000Y-137160000D02*
X220050000Y-132260000D01*
X220050000Y-132260000D02*
X227250000Y-132260000D01*
X227250000Y-132260000D02*
X227250000Y-139460000D01*
X226990000Y-75960000D02*
X221990000Y-75960000D01*
X219790000Y-73660000D02*
X219790000Y-68760000D01*
X219790000Y-68760000D02*
X226990000Y-68760000D01*
X226990000Y-68760000D02*
X226990000Y-75960000D01*
X184070000Y-139460000D02*
X179070000Y-139460000D01*
X176870000Y-137160000D02*
X176870000Y-132260000D01*
X176870000Y-132260000D02*
X184070000Y-132260000D01*
X184070000Y-132260000D02*
X184070000Y-139460000D01*
X183810000Y-75960000D02*
X178810000Y-75960000D01*
X176610000Y-73660000D02*
X176610000Y-68760000D01*
X176610000Y-68760000D02*
X183810000Y-68760000D01*
X183810000Y-68760000D02*
X183810000Y-75960000D01*
X217530000Y-133734064D02*
X217530000Y-132529936D01*
X219350000Y-133734064D02*
X219350000Y-132529936D01*
X213720000Y-72774564D02*
X213720000Y-71570436D01*
X215540000Y-72774564D02*
X215540000Y-71570436D01*
X219350000Y-137609936D02*
X219350000Y-138814064D01*
X217530000Y-137609936D02*
X217530000Y-138814064D01*
X215540000Y-76650436D02*
X215540000Y-77854564D01*
X213720000Y-76650436D02*
X213720000Y-77854564D01*
X184510000Y-133734064D02*
X184510000Y-132529936D01*
X186330000Y-133734064D02*
X186330000Y-132529936D01*
X188320000Y-73209564D02*
X188320000Y-72005436D01*
X190140000Y-73209564D02*
X190140000Y-72005436D01*
X186330000Y-137609936D02*
X186330000Y-138814064D01*
X184510000Y-137609936D02*
X184510000Y-138814064D01*
X190140000Y-77085436D02*
X190140000Y-78289564D01*
X188320000Y-77085436D02*
X188320000Y-78289564D01*
X215540000Y-66925436D02*
X215540000Y-68129564D01*
X213720000Y-66925436D02*
X213720000Y-68129564D01*
X220094064Y-99970000D02*
X218889936Y-99970000D01*
X220094064Y-98150000D02*
X218889936Y-98150000D01*
X190140000Y-66925436D02*
X190140000Y-68129564D01*
X188320000Y-66925436D02*
X188320000Y-68129564D01*
X175620000Y-107500064D02*
X175620000Y-106295936D01*
X177440000Y-107500064D02*
X177440000Y-106295936D01*
X179430000Y-107500064D02*
X179430000Y-106295936D01*
X181250000Y-107500064D02*
X181250000Y-106295936D01*
X171810000Y-107500064D02*
X171810000Y-106295936D01*
X173630000Y-107500064D02*
X173630000Y-106295936D01*
D13*
X206978095Y-94122380D02*
X206978095Y-94931904D01*
X206930476Y-95027142D01*
X206882857Y-95074761D01*
X206787619Y-95122380D01*
X206597142Y-95122380D01*
X206501904Y-95074761D01*
X206454285Y-95027142D01*
X206406666Y-94931904D01*
X206406666Y-94122380D01*
X205406666Y-95122380D02*
X205978095Y-95122380D01*
X205692380Y-95122380D02*
X205692380Y-94122380D01*
X205787619Y-94265238D01*
X205882857Y-94360476D01*
X205978095Y-94408095D01*
X204549523Y-94455714D02*
X204549523Y-95122380D01*
X204787619Y-94074761D02*
X205025714Y-94789047D01*
X204406666Y-94789047D01*
X195616666Y-79882380D02*
X196092857Y-79882380D01*
X196092857Y-78882380D01*
X194759523Y-79882380D02*
X195330952Y-79882380D01*
X195045238Y-79882380D02*
X195045238Y-78882380D01*
X195140476Y-79025238D01*
X195235714Y-79120476D01*
X195330952Y-79168095D01*
X187767142Y-85975833D02*
X187814761Y-85928214D01*
X187862380Y-85785357D01*
X187862380Y-85690119D01*
X187814761Y-85547261D01*
X187719523Y-85452023D01*
X187624285Y-85404404D01*
X187433809Y-85356785D01*
X187290952Y-85356785D01*
X187100476Y-85404404D01*
X187005238Y-85452023D01*
X186910000Y-85547261D01*
X186862380Y-85690119D01*
X186862380Y-85785357D01*
X186910000Y-85928214D01*
X186957619Y-85975833D01*
X186862380Y-86880595D02*
X186862380Y-86404404D01*
X187338571Y-86356785D01*
X187290952Y-86404404D01*
X187243333Y-86499642D01*
X187243333Y-86737738D01*
X187290952Y-86832976D01*
X187338571Y-86880595D01*
X187433809Y-86928214D01*
X187671904Y-86928214D01*
X187767142Y-86880595D01*
X187814761Y-86832976D01*
X187862380Y-86737738D01*
X187862380Y-86499642D01*
X187814761Y-86404404D01*
X187767142Y-86356785D01*
X191577142Y-85975833D02*
X191624761Y-85928214D01*
X191672380Y-85785357D01*
X191672380Y-85690119D01*
X191624761Y-85547261D01*
X191529523Y-85452023D01*
X191434285Y-85404404D01*
X191243809Y-85356785D01*
X191100952Y-85356785D01*
X190910476Y-85404404D01*
X190815238Y-85452023D01*
X190720000Y-85547261D01*
X190672380Y-85690119D01*
X190672380Y-85785357D01*
X190720000Y-85928214D01*
X190767619Y-85975833D01*
X191005714Y-86832976D02*
X191672380Y-86832976D01*
X190624761Y-86594880D02*
X191339047Y-86356785D01*
X191339047Y-86975833D01*
X195387142Y-85975833D02*
X195434761Y-85928214D01*
X195482380Y-85785357D01*
X195482380Y-85690119D01*
X195434761Y-85547261D01*
X195339523Y-85452023D01*
X195244285Y-85404404D01*
X195053809Y-85356785D01*
X194910952Y-85356785D01*
X194720476Y-85404404D01*
X194625238Y-85452023D01*
X194530000Y-85547261D01*
X194482380Y-85690119D01*
X194482380Y-85785357D01*
X194530000Y-85928214D01*
X194577619Y-85975833D01*
X194482380Y-86309166D02*
X194482380Y-86928214D01*
X194863333Y-86594880D01*
X194863333Y-86737738D01*
X194910952Y-86832976D01*
X194958571Y-86880595D01*
X195053809Y-86928214D01*
X195291904Y-86928214D01*
X195387142Y-86880595D01*
X195434761Y-86832976D01*
X195482380Y-86737738D01*
X195482380Y-86452023D01*
X195434761Y-86356785D01*
X195387142Y-86309166D01*
X198312857Y-92659166D02*
X198265238Y-92706785D01*
X198217619Y-92849642D01*
X198217619Y-92944880D01*
X198265238Y-93087738D01*
X198360476Y-93182976D01*
X198455714Y-93230595D01*
X198646190Y-93278214D01*
X198789047Y-93278214D01*
X198979523Y-93230595D01*
X199074761Y-93182976D01*
X199170000Y-93087738D01*
X199217619Y-92944880D01*
X199217619Y-92849642D01*
X199170000Y-92706785D01*
X199122380Y-92659166D01*
X199122380Y-92278214D02*
X199170000Y-92230595D01*
X199217619Y-92135357D01*
X199217619Y-91897261D01*
X199170000Y-91802023D01*
X199122380Y-91754404D01*
X199027142Y-91706785D01*
X198931904Y-91706785D01*
X198789047Y-91754404D01*
X198217619Y-92325833D01*
X198217619Y-91706785D01*
X218278095Y-64682380D02*
X218278095Y-65491904D01*
X218230476Y-65587142D01*
X218182857Y-65634761D01*
X218087619Y-65682380D01*
X217897142Y-65682380D01*
X217801904Y-65634761D01*
X217754285Y-65587142D01*
X217706666Y-65491904D01*
X217706666Y-64682380D01*
X216706666Y-65682380D02*
X217278095Y-65682380D01*
X216992380Y-65682380D02*
X216992380Y-64682380D01*
X217087619Y-64825238D01*
X217182857Y-64920476D01*
X217278095Y-64968095D01*
X216373333Y-64682380D02*
X215754285Y-64682380D01*
X216087619Y-65063333D01*
X215944761Y-65063333D01*
X215849523Y-65110952D01*
X215801904Y-65158571D01*
X215754285Y-65253809D01*
X215754285Y-65491904D01*
X215801904Y-65587142D01*
X215849523Y-65634761D01*
X215944761Y-65682380D01*
X216230476Y-65682380D01*
X216325714Y-65634761D01*
X216373333Y-65587142D01*
X197958095Y-64682380D02*
X197958095Y-65491904D01*
X197910476Y-65587142D01*
X197862857Y-65634761D01*
X197767619Y-65682380D01*
X197577142Y-65682380D01*
X197481904Y-65634761D01*
X197434285Y-65587142D01*
X197386666Y-65491904D01*
X197386666Y-64682380D01*
X196386666Y-65682380D02*
X196958095Y-65682380D01*
X196672380Y-65682380D02*
X196672380Y-64682380D01*
X196767619Y-64825238D01*
X196862857Y-64920476D01*
X196958095Y-64968095D01*
X196005714Y-64777619D02*
X195958095Y-64730000D01*
X195862857Y-64682380D01*
X195624761Y-64682380D01*
X195529523Y-64730000D01*
X195481904Y-64777619D01*
X195434285Y-64872857D01*
X195434285Y-64968095D01*
X195481904Y-65110952D01*
X196053333Y-65682380D01*
X195434285Y-65682380D01*
X208378095Y-64682380D02*
X208378095Y-65491904D01*
X208330476Y-65587142D01*
X208282857Y-65634761D01*
X208187619Y-65682380D01*
X207997142Y-65682380D01*
X207901904Y-65634761D01*
X207854285Y-65587142D01*
X207806666Y-65491904D01*
X207806666Y-64682380D01*
X206806666Y-65682380D02*
X207378095Y-65682380D01*
X207092380Y-65682380D02*
X207092380Y-64682380D01*
X207187619Y-64825238D01*
X207282857Y-64920476D01*
X207378095Y-64968095D01*
X205854285Y-65682380D02*
X206425714Y-65682380D01*
X206140000Y-65682380D02*
X206140000Y-64682380D01*
X206235238Y-64825238D01*
X206330476Y-64920476D01*
X206425714Y-64968095D01*
X187581904Y-64682380D02*
X187581904Y-65491904D01*
X187534285Y-65587142D01*
X187486666Y-65634761D01*
X187391428Y-65682380D01*
X187200952Y-65682380D01*
X187105714Y-65634761D01*
X187058095Y-65587142D01*
X187010476Y-65491904D01*
X187010476Y-64682380D01*
X186629523Y-64682380D02*
X186010476Y-64682380D01*
X186343809Y-65063333D01*
X186200952Y-65063333D01*
X186105714Y-65110952D01*
X186058095Y-65158571D01*
X186010476Y-65253809D01*
X186010476Y-65491904D01*
X186058095Y-65587142D01*
X186105714Y-65634761D01*
X186200952Y-65682380D01*
X186486666Y-65682380D01*
X186581904Y-65634761D01*
X186629523Y-65587142D01*
X224522380Y-60099642D02*
X224046190Y-59766309D01*
X224522380Y-59528214D02*
X223522380Y-59528214D01*
X223522380Y-59909166D01*
X223570000Y-60004404D01*
X223617619Y-60052023D01*
X223712857Y-60099642D01*
X223855714Y-60099642D01*
X223950952Y-60052023D01*
X223998571Y-60004404D01*
X224046190Y-59909166D01*
X224046190Y-59528214D01*
X223617619Y-60480595D02*
X223570000Y-60528214D01*
X223522380Y-60623452D01*
X223522380Y-60861547D01*
X223570000Y-60956785D01*
X223617619Y-61004404D01*
X223712857Y-61052023D01*
X223808095Y-61052023D01*
X223950952Y-61004404D01*
X224522380Y-60432976D01*
X224522380Y-61052023D01*
X223950952Y-61623452D02*
X223903333Y-61528214D01*
X223855714Y-61480595D01*
X223760476Y-61432976D01*
X223712857Y-61432976D01*
X223617619Y-61480595D01*
X223570000Y-61528214D01*
X223522380Y-61623452D01*
X223522380Y-61813928D01*
X223570000Y-61909166D01*
X223617619Y-61956785D01*
X223712857Y-62004404D01*
X223760476Y-62004404D01*
X223855714Y-61956785D01*
X223903333Y-61909166D01*
X223950952Y-61813928D01*
X223950952Y-61623452D01*
X223998571Y-61528214D01*
X224046190Y-61480595D01*
X224141428Y-61432976D01*
X224331904Y-61432976D01*
X224427142Y-61480595D01*
X224474761Y-61528214D01*
X224522380Y-61623452D01*
X224522380Y-61813928D01*
X224474761Y-61909166D01*
X224427142Y-61956785D01*
X224331904Y-62004404D01*
X224141428Y-62004404D01*
X224046190Y-61956785D01*
X223998571Y-61909166D01*
X223950952Y-61813928D01*
X220134857Y-64672380D02*
X220468190Y-64196190D01*
X220706285Y-64672380D02*
X220706285Y-63672380D01*
X220325333Y-63672380D01*
X220230095Y-63720000D01*
X220182476Y-63767619D01*
X220134857Y-63862857D01*
X220134857Y-64005714D01*
X220182476Y-64100952D01*
X220230095Y-64148571D01*
X220325333Y-64196190D01*
X220706285Y-64196190D01*
X219753904Y-63767619D02*
X219706285Y-63720000D01*
X219611047Y-63672380D01*
X219372952Y-63672380D01*
X219277714Y-63720000D01*
X219230095Y-63767619D01*
X219182476Y-63862857D01*
X219182476Y-63958095D01*
X219230095Y-64100952D01*
X219801523Y-64672380D01*
X219182476Y-64672380D01*
X218325333Y-63672380D02*
X218515809Y-63672380D01*
X218611047Y-63720000D01*
X218658666Y-63767619D01*
X218753904Y-63910476D01*
X218801523Y-64100952D01*
X218801523Y-64481904D01*
X218753904Y-64577142D01*
X218706285Y-64624761D01*
X218611047Y-64672380D01*
X218420571Y-64672380D01*
X218325333Y-64624761D01*
X218277714Y-64577142D01*
X218230095Y-64481904D01*
X218230095Y-64243809D01*
X218277714Y-64148571D01*
X218325333Y-64100952D01*
X218420571Y-64053333D01*
X218611047Y-64053333D01*
X218706285Y-64100952D01*
X218753904Y-64148571D01*
X218801523Y-64243809D01*
X194042380Y-60099642D02*
X193566190Y-59766309D01*
X194042380Y-59528214D02*
X193042380Y-59528214D01*
X193042380Y-59909166D01*
X193090000Y-60004404D01*
X193137619Y-60052023D01*
X193232857Y-60099642D01*
X193375714Y-60099642D01*
X193470952Y-60052023D01*
X193518571Y-60004404D01*
X193566190Y-59909166D01*
X193566190Y-59528214D01*
X193137619Y-60480595D02*
X193090000Y-60528214D01*
X193042380Y-60623452D01*
X193042380Y-60861547D01*
X193090000Y-60956785D01*
X193137619Y-61004404D01*
X193232857Y-61052023D01*
X193328095Y-61052023D01*
X193470952Y-61004404D01*
X194042380Y-60432976D01*
X194042380Y-61052023D01*
X193042380Y-61956785D02*
X193042380Y-61480595D01*
X193518571Y-61432976D01*
X193470952Y-61480595D01*
X193423333Y-61575833D01*
X193423333Y-61813928D01*
X193470952Y-61909166D01*
X193518571Y-61956785D01*
X193613809Y-62004404D01*
X193851904Y-62004404D01*
X193947142Y-61956785D01*
X193994761Y-61909166D01*
X194042380Y-61813928D01*
X194042380Y-61575833D01*
X193994761Y-61480595D01*
X193947142Y-61432976D01*
X184574857Y-68312380D02*
X184908190Y-67836190D01*
X185146285Y-68312380D02*
X185146285Y-67312380D01*
X184765333Y-67312380D01*
X184670095Y-67360000D01*
X184622476Y-67407619D01*
X184574857Y-67502857D01*
X184574857Y-67645714D01*
X184622476Y-67740952D01*
X184670095Y-67788571D01*
X184765333Y-67836190D01*
X185146285Y-67836190D01*
X184193904Y-67407619D02*
X184146285Y-67360000D01*
X184051047Y-67312380D01*
X183812952Y-67312380D01*
X183717714Y-67360000D01*
X183670095Y-67407619D01*
X183622476Y-67502857D01*
X183622476Y-67598095D01*
X183670095Y-67740952D01*
X184241523Y-68312380D01*
X183622476Y-68312380D01*
X183289142Y-67312380D02*
X182670095Y-67312380D01*
X183003428Y-67693333D01*
X182860571Y-67693333D01*
X182765333Y-67740952D01*
X182717714Y-67788571D01*
X182670095Y-67883809D01*
X182670095Y-68121904D01*
X182717714Y-68217142D01*
X182765333Y-68264761D01*
X182860571Y-68312380D01*
X183146285Y-68312380D01*
X183241523Y-68264761D01*
X183289142Y-68217142D01*
X214362380Y-60099642D02*
X213886190Y-59766309D01*
X214362380Y-59528214D02*
X213362380Y-59528214D01*
X213362380Y-59909166D01*
X213410000Y-60004404D01*
X213457619Y-60052023D01*
X213552857Y-60099642D01*
X213695714Y-60099642D01*
X213790952Y-60052023D01*
X213838571Y-60004404D01*
X213886190Y-59909166D01*
X213886190Y-59528214D01*
X213457619Y-60480595D02*
X213410000Y-60528214D01*
X213362380Y-60623452D01*
X213362380Y-60861547D01*
X213410000Y-60956785D01*
X213457619Y-61004404D01*
X213552857Y-61052023D01*
X213648095Y-61052023D01*
X213790952Y-61004404D01*
X214362380Y-60432976D01*
X214362380Y-61052023D01*
X213457619Y-61432976D02*
X213410000Y-61480595D01*
X213362380Y-61575833D01*
X213362380Y-61813928D01*
X213410000Y-61909166D01*
X213457619Y-61956785D01*
X213552857Y-62004404D01*
X213648095Y-62004404D01*
X213790952Y-61956785D01*
X214362380Y-61385357D01*
X214362380Y-62004404D01*
X183882380Y-60099642D02*
X183406190Y-59766309D01*
X183882380Y-59528214D02*
X182882380Y-59528214D01*
X182882380Y-59909166D01*
X182930000Y-60004404D01*
X182977619Y-60052023D01*
X183072857Y-60099642D01*
X183215714Y-60099642D01*
X183310952Y-60052023D01*
X183358571Y-60004404D01*
X183406190Y-59909166D01*
X183406190Y-59528214D01*
X182977619Y-60480595D02*
X182930000Y-60528214D01*
X182882380Y-60623452D01*
X182882380Y-60861547D01*
X182930000Y-60956785D01*
X182977619Y-61004404D01*
X183072857Y-61052023D01*
X183168095Y-61052023D01*
X183310952Y-61004404D01*
X183882380Y-60432976D01*
X183882380Y-61052023D01*
X183882380Y-62004404D02*
X183882380Y-61432976D01*
X183882380Y-61718690D02*
X182882380Y-61718690D01*
X183025238Y-61623452D01*
X183120476Y-61528214D01*
X183168095Y-61432976D01*
X211244857Y-128002380D02*
X211578190Y-127526190D01*
X211816285Y-128002380D02*
X211816285Y-127002380D01*
X211435333Y-127002380D01*
X211340095Y-127050000D01*
X211292476Y-127097619D01*
X211244857Y-127192857D01*
X211244857Y-127335714D01*
X211292476Y-127430952D01*
X211340095Y-127478571D01*
X211435333Y-127526190D01*
X211816285Y-127526190D01*
X210863904Y-127097619D02*
X210816285Y-127050000D01*
X210721047Y-127002380D01*
X210482952Y-127002380D01*
X210387714Y-127050000D01*
X210340095Y-127097619D01*
X210292476Y-127192857D01*
X210292476Y-127288095D01*
X210340095Y-127430952D01*
X210911523Y-128002380D01*
X210292476Y-128002380D01*
X209673428Y-127002380D02*
X209578190Y-127002380D01*
X209482952Y-127050000D01*
X209435333Y-127097619D01*
X209387714Y-127192857D01*
X209340095Y-127383333D01*
X209340095Y-127621428D01*
X209387714Y-127811904D01*
X209435333Y-127907142D01*
X209482952Y-127954761D01*
X209578190Y-128002380D01*
X209673428Y-128002380D01*
X209768666Y-127954761D01*
X209816285Y-127907142D01*
X209863904Y-127811904D01*
X209911523Y-127621428D01*
X209911523Y-127383333D01*
X209863904Y-127192857D01*
X209816285Y-127097619D01*
X209768666Y-127050000D01*
X209673428Y-127002380D01*
X211244857Y-125462380D02*
X211578190Y-124986190D01*
X211816285Y-125462380D02*
X211816285Y-124462380D01*
X211435333Y-124462380D01*
X211340095Y-124510000D01*
X211292476Y-124557619D01*
X211244857Y-124652857D01*
X211244857Y-124795714D01*
X211292476Y-124890952D01*
X211340095Y-124938571D01*
X211435333Y-124986190D01*
X211816285Y-124986190D01*
X210292476Y-125462380D02*
X210863904Y-125462380D01*
X210578190Y-125462380D02*
X210578190Y-124462380D01*
X210673428Y-124605238D01*
X210768666Y-124700476D01*
X210863904Y-124748095D01*
X209816285Y-125462380D02*
X209625809Y-125462380D01*
X209530571Y-125414761D01*
X209482952Y-125367142D01*
X209387714Y-125224285D01*
X209340095Y-125033809D01*
X209340095Y-124652857D01*
X209387714Y-124557619D01*
X209435333Y-124510000D01*
X209530571Y-124462380D01*
X209721047Y-124462380D01*
X209816285Y-124510000D01*
X209863904Y-124557619D01*
X209911523Y-124652857D01*
X209911523Y-124890952D01*
X209863904Y-124986190D01*
X209816285Y-125033809D01*
X209721047Y-125081428D01*
X209530571Y-125081428D01*
X209435333Y-125033809D01*
X209387714Y-124986190D01*
X209340095Y-124890952D01*
X211244857Y-122922380D02*
X211578190Y-122446190D01*
X211816285Y-122922380D02*
X211816285Y-121922380D01*
X211435333Y-121922380D01*
X211340095Y-121970000D01*
X211292476Y-122017619D01*
X211244857Y-122112857D01*
X211244857Y-122255714D01*
X211292476Y-122350952D01*
X211340095Y-122398571D01*
X211435333Y-122446190D01*
X211816285Y-122446190D01*
X210292476Y-122922380D02*
X210863904Y-122922380D01*
X210578190Y-122922380D02*
X210578190Y-121922380D01*
X210673428Y-122065238D01*
X210768666Y-122160476D01*
X210863904Y-122208095D01*
X209721047Y-122350952D02*
X209816285Y-122303333D01*
X209863904Y-122255714D01*
X209911523Y-122160476D01*
X209911523Y-122112857D01*
X209863904Y-122017619D01*
X209816285Y-121970000D01*
X209721047Y-121922380D01*
X209530571Y-121922380D01*
X209435333Y-121970000D01*
X209387714Y-122017619D01*
X209340095Y-122112857D01*
X209340095Y-122160476D01*
X209387714Y-122255714D01*
X209435333Y-122303333D01*
X209530571Y-122350952D01*
X209721047Y-122350952D01*
X209816285Y-122398571D01*
X209863904Y-122446190D01*
X209911523Y-122541428D01*
X209911523Y-122731904D01*
X209863904Y-122827142D01*
X209816285Y-122874761D01*
X209721047Y-122922380D01*
X209530571Y-122922380D01*
X209435333Y-122874761D01*
X209387714Y-122827142D01*
X209340095Y-122731904D01*
X209340095Y-122541428D01*
X209387714Y-122446190D01*
X209435333Y-122398571D01*
X209530571Y-122350952D01*
X210768666Y-120382380D02*
X211102000Y-119906190D01*
X211340095Y-120382380D02*
X211340095Y-119382380D01*
X210959142Y-119382380D01*
X210863904Y-119430000D01*
X210816285Y-119477619D01*
X210768666Y-119572857D01*
X210768666Y-119715714D01*
X210816285Y-119810952D01*
X210863904Y-119858571D01*
X210959142Y-119906190D01*
X211340095Y-119906190D01*
X210292476Y-120382380D02*
X210102000Y-120382380D01*
X210006761Y-120334761D01*
X209959142Y-120287142D01*
X209863904Y-120144285D01*
X209816285Y-119953809D01*
X209816285Y-119572857D01*
X209863904Y-119477619D01*
X209911523Y-119430000D01*
X210006761Y-119382380D01*
X210197238Y-119382380D01*
X210292476Y-119430000D01*
X210340095Y-119477619D01*
X210387714Y-119572857D01*
X210387714Y-119810952D01*
X210340095Y-119906190D01*
X210292476Y-119953809D01*
X210197238Y-120001428D01*
X210006761Y-120001428D01*
X209911523Y-119953809D01*
X209863904Y-119906190D01*
X209816285Y-119810952D01*
X194502857Y-92659166D02*
X194455238Y-92706785D01*
X194407619Y-92849642D01*
X194407619Y-92944880D01*
X194455238Y-93087738D01*
X194550476Y-93182976D01*
X194645714Y-93230595D01*
X194836190Y-93278214D01*
X194979047Y-93278214D01*
X195169523Y-93230595D01*
X195264761Y-93182976D01*
X195360000Y-93087738D01*
X195407619Y-92944880D01*
X195407619Y-92849642D01*
X195360000Y-92706785D01*
X195312380Y-92659166D01*
X194407619Y-91706785D02*
X194407619Y-92278214D01*
X194407619Y-91992500D02*
X195407619Y-91992500D01*
X195264761Y-92087738D01*
X195169523Y-92182976D01*
X195121904Y-92278214D01*
X224888095Y-139612380D02*
X224888095Y-140421904D01*
X224840476Y-140517142D01*
X224792857Y-140564761D01*
X224697619Y-140612380D01*
X224507142Y-140612380D01*
X224411904Y-140564761D01*
X224364285Y-140517142D01*
X224316666Y-140421904D01*
X224316666Y-139612380D01*
X223316666Y-140612380D02*
X223888095Y-140612380D01*
X223602380Y-140612380D02*
X223602380Y-139612380D01*
X223697619Y-139755238D01*
X223792857Y-139850476D01*
X223888095Y-139898095D01*
X222697619Y-139612380D02*
X222602380Y-139612380D01*
X222507142Y-139660000D01*
X222459523Y-139707619D01*
X222411904Y-139802857D01*
X222364285Y-139993333D01*
X222364285Y-140231428D01*
X222411904Y-140421904D01*
X222459523Y-140517142D01*
X222507142Y-140564761D01*
X222602380Y-140612380D01*
X222697619Y-140612380D01*
X222792857Y-140564761D01*
X222840476Y-140517142D01*
X222888095Y-140421904D01*
X222935714Y-140231428D01*
X222935714Y-139993333D01*
X222888095Y-139802857D01*
X222840476Y-139707619D01*
X222792857Y-139660000D01*
X222697619Y-139612380D01*
X224151904Y-76112380D02*
X224151904Y-76921904D01*
X224104285Y-77017142D01*
X224056666Y-77064761D01*
X223961428Y-77112380D01*
X223770952Y-77112380D01*
X223675714Y-77064761D01*
X223628095Y-77017142D01*
X223580476Y-76921904D01*
X223580476Y-76112380D01*
X223056666Y-77112380D02*
X222866190Y-77112380D01*
X222770952Y-77064761D01*
X222723333Y-77017142D01*
X222628095Y-76874285D01*
X222580476Y-76683809D01*
X222580476Y-76302857D01*
X222628095Y-76207619D01*
X222675714Y-76160000D01*
X222770952Y-76112380D01*
X222961428Y-76112380D01*
X223056666Y-76160000D01*
X223104285Y-76207619D01*
X223151904Y-76302857D01*
X223151904Y-76540952D01*
X223104285Y-76636190D01*
X223056666Y-76683809D01*
X222961428Y-76731428D01*
X222770952Y-76731428D01*
X222675714Y-76683809D01*
X222628095Y-76636190D01*
X222580476Y-76540952D01*
X181231904Y-139612380D02*
X181231904Y-140421904D01*
X181184285Y-140517142D01*
X181136666Y-140564761D01*
X181041428Y-140612380D01*
X180850952Y-140612380D01*
X180755714Y-140564761D01*
X180708095Y-140517142D01*
X180660476Y-140421904D01*
X180660476Y-139612380D01*
X179755714Y-139612380D02*
X179946190Y-139612380D01*
X180041428Y-139660000D01*
X180089047Y-139707619D01*
X180184285Y-139850476D01*
X180231904Y-140040952D01*
X180231904Y-140421904D01*
X180184285Y-140517142D01*
X180136666Y-140564761D01*
X180041428Y-140612380D01*
X179850952Y-140612380D01*
X179755714Y-140564761D01*
X179708095Y-140517142D01*
X179660476Y-140421904D01*
X179660476Y-140183809D01*
X179708095Y-140088571D01*
X179755714Y-140040952D01*
X179850952Y-139993333D01*
X180041428Y-139993333D01*
X180136666Y-140040952D01*
X180184285Y-140088571D01*
X180231904Y-140183809D01*
X180971904Y-76112380D02*
X180971904Y-76921904D01*
X180924285Y-77017142D01*
X180876666Y-77064761D01*
X180781428Y-77112380D01*
X180590952Y-77112380D01*
X180495714Y-77064761D01*
X180448095Y-77017142D01*
X180400476Y-76921904D01*
X180400476Y-76112380D01*
X179448095Y-76112380D02*
X179924285Y-76112380D01*
X179971904Y-76588571D01*
X179924285Y-76540952D01*
X179829047Y-76493333D01*
X179590952Y-76493333D01*
X179495714Y-76540952D01*
X179448095Y-76588571D01*
X179400476Y-76683809D01*
X179400476Y-76921904D01*
X179448095Y-77017142D01*
X179495714Y-77064761D01*
X179590952Y-77112380D01*
X179829047Y-77112380D01*
X179924285Y-77064761D01*
X179971904Y-77017142D01*
X220712380Y-132489142D02*
X220236190Y-132155809D01*
X220712380Y-131917714D02*
X219712380Y-131917714D01*
X219712380Y-132298666D01*
X219760000Y-132393904D01*
X219807619Y-132441523D01*
X219902857Y-132489142D01*
X220045714Y-132489142D01*
X220140952Y-132441523D01*
X220188571Y-132393904D01*
X220236190Y-132298666D01*
X220236190Y-131917714D01*
X220712380Y-133441523D02*
X220712380Y-132870095D01*
X220712380Y-133155809D02*
X219712380Y-133155809D01*
X219855238Y-133060571D01*
X219950476Y-132965333D01*
X219998095Y-132870095D01*
X219712380Y-133774857D02*
X219712380Y-134441523D01*
X220712380Y-134012952D01*
X216902380Y-71529642D02*
X216426190Y-71196309D01*
X216902380Y-70958214D02*
X215902380Y-70958214D01*
X215902380Y-71339166D01*
X215950000Y-71434404D01*
X215997619Y-71482023D01*
X216092857Y-71529642D01*
X216235714Y-71529642D01*
X216330952Y-71482023D01*
X216378571Y-71434404D01*
X216426190Y-71339166D01*
X216426190Y-70958214D01*
X216902380Y-72482023D02*
X216902380Y-71910595D01*
X216902380Y-72196309D02*
X215902380Y-72196309D01*
X216045238Y-72101071D01*
X216140476Y-72005833D01*
X216188095Y-71910595D01*
X215902380Y-73339166D02*
X215902380Y-73148690D01*
X215950000Y-73053452D01*
X215997619Y-73005833D01*
X216140476Y-72910595D01*
X216330952Y-72862976D01*
X216711904Y-72862976D01*
X216807142Y-72910595D01*
X216854761Y-72958214D01*
X216902380Y-73053452D01*
X216902380Y-73243928D01*
X216854761Y-73339166D01*
X216807142Y-73386785D01*
X216711904Y-73434404D01*
X216473809Y-73434404D01*
X216378571Y-73386785D01*
X216330952Y-73339166D01*
X216283333Y-73243928D01*
X216283333Y-73053452D01*
X216330952Y-72958214D01*
X216378571Y-72910595D01*
X216473809Y-72862976D01*
X217072380Y-137569142D02*
X216596190Y-137235809D01*
X217072380Y-136997714D02*
X216072380Y-136997714D01*
X216072380Y-137378666D01*
X216120000Y-137473904D01*
X216167619Y-137521523D01*
X216262857Y-137569142D01*
X216405714Y-137569142D01*
X216500952Y-137521523D01*
X216548571Y-137473904D01*
X216596190Y-137378666D01*
X216596190Y-136997714D01*
X217072380Y-138521523D02*
X217072380Y-137950095D01*
X217072380Y-138235809D02*
X216072380Y-138235809D01*
X216215238Y-138140571D01*
X216310476Y-138045333D01*
X216358095Y-137950095D01*
X216072380Y-139426285D02*
X216072380Y-138950095D01*
X216548571Y-138902476D01*
X216500952Y-138950095D01*
X216453333Y-139045333D01*
X216453333Y-139283428D01*
X216500952Y-139378666D01*
X216548571Y-139426285D01*
X216643809Y-139473904D01*
X216881904Y-139473904D01*
X216977142Y-139426285D01*
X217024761Y-139378666D01*
X217072380Y-139283428D01*
X217072380Y-139045333D01*
X217024761Y-138950095D01*
X216977142Y-138902476D01*
X213262380Y-76609642D02*
X212786190Y-76276309D01*
X213262380Y-76038214D02*
X212262380Y-76038214D01*
X212262380Y-76419166D01*
X212310000Y-76514404D01*
X212357619Y-76562023D01*
X212452857Y-76609642D01*
X212595714Y-76609642D01*
X212690952Y-76562023D01*
X212738571Y-76514404D01*
X212786190Y-76419166D01*
X212786190Y-76038214D01*
X213262380Y-77562023D02*
X213262380Y-76990595D01*
X213262380Y-77276309D02*
X212262380Y-77276309D01*
X212405238Y-77181071D01*
X212500476Y-77085833D01*
X212548095Y-76990595D01*
X212595714Y-78419166D02*
X213262380Y-78419166D01*
X212214761Y-78181071D02*
X212929047Y-77942976D01*
X212929047Y-78562023D01*
X187692380Y-132489142D02*
X187216190Y-132155809D01*
X187692380Y-131917714D02*
X186692380Y-131917714D01*
X186692380Y-132298666D01*
X186740000Y-132393904D01*
X186787619Y-132441523D01*
X186882857Y-132489142D01*
X187025714Y-132489142D01*
X187120952Y-132441523D01*
X187168571Y-132393904D01*
X187216190Y-132298666D01*
X187216190Y-131917714D01*
X187692380Y-133441523D02*
X187692380Y-132870095D01*
X187692380Y-133155809D02*
X186692380Y-133155809D01*
X186835238Y-133060571D01*
X186930476Y-132965333D01*
X186978095Y-132870095D01*
X186692380Y-133774857D02*
X186692380Y-134393904D01*
X187073333Y-134060571D01*
X187073333Y-134203428D01*
X187120952Y-134298666D01*
X187168571Y-134346285D01*
X187263809Y-134393904D01*
X187501904Y-134393904D01*
X187597142Y-134346285D01*
X187644761Y-134298666D01*
X187692380Y-134203428D01*
X187692380Y-133917714D01*
X187644761Y-133822476D01*
X187597142Y-133774857D01*
X191502380Y-71964642D02*
X191026190Y-71631309D01*
X191502380Y-71393214D02*
X190502380Y-71393214D01*
X190502380Y-71774166D01*
X190550000Y-71869404D01*
X190597619Y-71917023D01*
X190692857Y-71964642D01*
X190835714Y-71964642D01*
X190930952Y-71917023D01*
X190978571Y-71869404D01*
X191026190Y-71774166D01*
X191026190Y-71393214D01*
X191502380Y-72917023D02*
X191502380Y-72345595D01*
X191502380Y-72631309D02*
X190502380Y-72631309D01*
X190645238Y-72536071D01*
X190740476Y-72440833D01*
X190788095Y-72345595D01*
X190597619Y-73297976D02*
X190550000Y-73345595D01*
X190502380Y-73440833D01*
X190502380Y-73678928D01*
X190550000Y-73774166D01*
X190597619Y-73821785D01*
X190692857Y-73869404D01*
X190788095Y-73869404D01*
X190930952Y-73821785D01*
X191502380Y-73250357D01*
X191502380Y-73869404D01*
X184052380Y-137569142D02*
X183576190Y-137235809D01*
X184052380Y-136997714D02*
X183052380Y-136997714D01*
X183052380Y-137378666D01*
X183100000Y-137473904D01*
X183147619Y-137521523D01*
X183242857Y-137569142D01*
X183385714Y-137569142D01*
X183480952Y-137521523D01*
X183528571Y-137473904D01*
X183576190Y-137378666D01*
X183576190Y-136997714D01*
X184052380Y-138521523D02*
X184052380Y-137950095D01*
X184052380Y-138235809D02*
X183052380Y-138235809D01*
X183195238Y-138140571D01*
X183290476Y-138045333D01*
X183338095Y-137950095D01*
X184052380Y-139473904D02*
X184052380Y-138902476D01*
X184052380Y-139188190D02*
X183052380Y-139188190D01*
X183195238Y-139092952D01*
X183290476Y-138997714D01*
X183338095Y-138902476D01*
X187862380Y-77044642D02*
X187386190Y-76711309D01*
X187862380Y-76473214D02*
X186862380Y-76473214D01*
X186862380Y-76854166D01*
X186910000Y-76949404D01*
X186957619Y-76997023D01*
X187052857Y-77044642D01*
X187195714Y-77044642D01*
X187290952Y-76997023D01*
X187338571Y-76949404D01*
X187386190Y-76854166D01*
X187386190Y-76473214D01*
X187862380Y-77997023D02*
X187862380Y-77425595D01*
X187862380Y-77711309D02*
X186862380Y-77711309D01*
X187005238Y-77616071D01*
X187100476Y-77520833D01*
X187148095Y-77425595D01*
X186862380Y-78616071D02*
X186862380Y-78711309D01*
X186910000Y-78806547D01*
X186957619Y-78854166D01*
X187052857Y-78901785D01*
X187243333Y-78949404D01*
X187481428Y-78949404D01*
X187671904Y-78901785D01*
X187767142Y-78854166D01*
X187814761Y-78806547D01*
X187862380Y-78711309D01*
X187862380Y-78616071D01*
X187814761Y-78520833D01*
X187767142Y-78473214D01*
X187671904Y-78425595D01*
X187481428Y-78377976D01*
X187243333Y-78377976D01*
X187052857Y-78425595D01*
X186957619Y-78473214D01*
X186910000Y-78520833D01*
X186862380Y-78616071D01*
X213262380Y-67360833D02*
X212786190Y-67027500D01*
X213262380Y-66789404D02*
X212262380Y-66789404D01*
X212262380Y-67170357D01*
X212310000Y-67265595D01*
X212357619Y-67313214D01*
X212452857Y-67360833D01*
X212595714Y-67360833D01*
X212690952Y-67313214D01*
X212738571Y-67265595D01*
X212786190Y-67170357D01*
X212786190Y-66789404D01*
X212690952Y-67932261D02*
X212643333Y-67837023D01*
X212595714Y-67789404D01*
X212500476Y-67741785D01*
X212452857Y-67741785D01*
X212357619Y-67789404D01*
X212310000Y-67837023D01*
X212262380Y-67932261D01*
X212262380Y-68122738D01*
X212310000Y-68217976D01*
X212357619Y-68265595D01*
X212452857Y-68313214D01*
X212500476Y-68313214D01*
X212595714Y-68265595D01*
X212643333Y-68217976D01*
X212690952Y-68122738D01*
X212690952Y-67932261D01*
X212738571Y-67837023D01*
X212786190Y-67789404D01*
X212881428Y-67741785D01*
X213071904Y-67741785D01*
X213167142Y-67789404D01*
X213214761Y-67837023D01*
X213262380Y-67932261D01*
X213262380Y-68122738D01*
X213214761Y-68217976D01*
X213167142Y-68265595D01*
X213071904Y-68313214D01*
X212881428Y-68313214D01*
X212786190Y-68265595D01*
X212738571Y-68217976D01*
X212690952Y-68122738D01*
X219658666Y-97692380D02*
X219992000Y-97216190D01*
X220230095Y-97692380D02*
X220230095Y-96692380D01*
X219849142Y-96692380D01*
X219753904Y-96740000D01*
X219706285Y-96787619D01*
X219658666Y-96882857D01*
X219658666Y-97025714D01*
X219706285Y-97120952D01*
X219753904Y-97168571D01*
X219849142Y-97216190D01*
X220230095Y-97216190D01*
X218801523Y-96692380D02*
X218992000Y-96692380D01*
X219087238Y-96740000D01*
X219134857Y-96787619D01*
X219230095Y-96930476D01*
X219277714Y-97120952D01*
X219277714Y-97501904D01*
X219230095Y-97597142D01*
X219182476Y-97644761D01*
X219087238Y-97692380D01*
X218896761Y-97692380D01*
X218801523Y-97644761D01*
X218753904Y-97597142D01*
X218706285Y-97501904D01*
X218706285Y-97263809D01*
X218753904Y-97168571D01*
X218801523Y-97120952D01*
X218896761Y-97073333D01*
X219087238Y-97073333D01*
X219182476Y-97120952D01*
X219230095Y-97168571D01*
X219277714Y-97263809D01*
X187862380Y-67360833D02*
X187386190Y-67027500D01*
X187862380Y-66789404D02*
X186862380Y-66789404D01*
X186862380Y-67170357D01*
X186910000Y-67265595D01*
X186957619Y-67313214D01*
X187052857Y-67360833D01*
X187195714Y-67360833D01*
X187290952Y-67313214D01*
X187338571Y-67265595D01*
X187386190Y-67170357D01*
X187386190Y-66789404D01*
X186862380Y-68265595D02*
X186862380Y-67789404D01*
X187338571Y-67741785D01*
X187290952Y-67789404D01*
X187243333Y-67884642D01*
X187243333Y-68122738D01*
X187290952Y-68217976D01*
X187338571Y-68265595D01*
X187433809Y-68313214D01*
X187671904Y-68313214D01*
X187767142Y-68265595D01*
X187814761Y-68217976D01*
X187862380Y-68122738D01*
X187862380Y-67884642D01*
X187814761Y-67789404D01*
X187767142Y-67741785D01*
X178802380Y-106731333D02*
X178326190Y-106398000D01*
X178802380Y-106159904D02*
X177802380Y-106159904D01*
X177802380Y-106540857D01*
X177850000Y-106636095D01*
X177897619Y-106683714D01*
X177992857Y-106731333D01*
X178135714Y-106731333D01*
X178230952Y-106683714D01*
X178278571Y-106636095D01*
X178326190Y-106540857D01*
X178326190Y-106159904D01*
X178135714Y-107588476D02*
X178802380Y-107588476D01*
X177754761Y-107350380D02*
X178469047Y-107112285D01*
X178469047Y-107731333D01*
X182612380Y-106731333D02*
X182136190Y-106398000D01*
X182612380Y-106159904D02*
X181612380Y-106159904D01*
X181612380Y-106540857D01*
X181660000Y-106636095D01*
X181707619Y-106683714D01*
X181802857Y-106731333D01*
X181945714Y-106731333D01*
X182040952Y-106683714D01*
X182088571Y-106636095D01*
X182136190Y-106540857D01*
X182136190Y-106159904D01*
X181707619Y-107112285D02*
X181660000Y-107159904D01*
X181612380Y-107255142D01*
X181612380Y-107493238D01*
X181660000Y-107588476D01*
X181707619Y-107636095D01*
X181802857Y-107683714D01*
X181898095Y-107683714D01*
X182040952Y-107636095D01*
X182612380Y-107064666D01*
X182612380Y-107683714D01*
X174992380Y-106731333D02*
X174516190Y-106398000D01*
X174992380Y-106159904D02*
X173992380Y-106159904D01*
X173992380Y-106540857D01*
X174040000Y-106636095D01*
X174087619Y-106683714D01*
X174182857Y-106731333D01*
X174325714Y-106731333D01*
X174420952Y-106683714D01*
X174468571Y-106636095D01*
X174516190Y-106540857D01*
X174516190Y-106159904D01*
X174992380Y-107683714D02*
X174992380Y-107112285D01*
X174992380Y-107398000D02*
X173992380Y-107398000D01*
X174135238Y-107302761D01*
X174230476Y-107207523D01*
X174278095Y-107112285D01*
M02*
