G04 #@! TF.GenerationSoftware,KiCad,Pcbnew,(5.1.5)-3*
G04 #@! TF.CreationDate,2020-03-20T16:20:26+01:00*
G04 #@! TF.ProjectId,SmootherBoard,536d6f6f-7468-4657-9242-6f6172642e6b,rev?*
G04 #@! TF.SameCoordinates,Original*
G04 #@! TF.FileFunction,Soldermask,Top*
G04 #@! TF.FilePolarity,Negative*
%FSLAX46Y46*%
G04 Gerber Fmt 4.6, Leading zero omitted, Abs format (unit mm)*
G04 Created by KiCad (PCBNEW (5.1.5)-3) date 2020-03-20 16:20:26*
%MOMM*%
%LPD*%
G04 APERTURE LIST*
%ADD10C,0.150000*%
G04 APERTURE END LIST*
D10*
G36*
X230245256Y-145711298D02*
G01*
X230351579Y-145732447D01*
X230652042Y-145856903D01*
X230922451Y-146037585D01*
X231152415Y-146267549D01*
X231270065Y-146443624D01*
X231333098Y-146537960D01*
X231348578Y-146575332D01*
X231450820Y-146822165D01*
X231457553Y-146838422D01*
X231521000Y-147157389D01*
X231521000Y-147482611D01*
X231488495Y-147646025D01*
X231457553Y-147801579D01*
X231333097Y-148102042D01*
X231152415Y-148372451D01*
X230922451Y-148602415D01*
X230652042Y-148783097D01*
X230351579Y-148907553D01*
X230245256Y-148928702D01*
X230032611Y-148971000D01*
X229707389Y-148971000D01*
X229494744Y-148928702D01*
X229388421Y-148907553D01*
X229087958Y-148783097D01*
X228817549Y-148602415D01*
X228587585Y-148372451D01*
X228406903Y-148102042D01*
X228282447Y-147801579D01*
X228251505Y-147646025D01*
X228219000Y-147482611D01*
X228219000Y-147157389D01*
X228282447Y-146838422D01*
X228289181Y-146822165D01*
X228391422Y-146575332D01*
X228406902Y-146537960D01*
X228469935Y-146443624D01*
X228587585Y-146267549D01*
X228817549Y-146037585D01*
X229087958Y-145856903D01*
X229388421Y-145732447D01*
X229494744Y-145711298D01*
X229707389Y-145669000D01*
X230032611Y-145669000D01*
X230245256Y-145711298D01*
G37*
G36*
X174365256Y-145711298D02*
G01*
X174471579Y-145732447D01*
X174772042Y-145856903D01*
X175042451Y-146037585D01*
X175272415Y-146267549D01*
X175390065Y-146443624D01*
X175453098Y-146537960D01*
X175468578Y-146575332D01*
X175570820Y-146822165D01*
X175577553Y-146838422D01*
X175641000Y-147157389D01*
X175641000Y-147482611D01*
X175608495Y-147646025D01*
X175577553Y-147801579D01*
X175453097Y-148102042D01*
X175272415Y-148372451D01*
X175042451Y-148602415D01*
X174772042Y-148783097D01*
X174471579Y-148907553D01*
X174365256Y-148928702D01*
X174152611Y-148971000D01*
X173827389Y-148971000D01*
X173614744Y-148928702D01*
X173508421Y-148907553D01*
X173207958Y-148783097D01*
X172937549Y-148602415D01*
X172707585Y-148372451D01*
X172526903Y-148102042D01*
X172402447Y-147801579D01*
X172371505Y-147646025D01*
X172339000Y-147482611D01*
X172339000Y-147157389D01*
X172402447Y-146838422D01*
X172409181Y-146822165D01*
X172511422Y-146575332D01*
X172526902Y-146537960D01*
X172589935Y-146443624D01*
X172707585Y-146267549D01*
X172937549Y-146037585D01*
X173207958Y-145856903D01*
X173508421Y-145732447D01*
X173614744Y-145711298D01*
X173827389Y-145669000D01*
X174152611Y-145669000D01*
X174365256Y-145711298D01*
G37*
G36*
X179376564Y-146309389D02*
G01*
X179567833Y-146388615D01*
X179567835Y-146388616D01*
X179739973Y-146503635D01*
X179886365Y-146650027D01*
X179977503Y-146786424D01*
X180001385Y-146822167D01*
X180080611Y-147013436D01*
X180121000Y-147216484D01*
X180121000Y-147423516D01*
X180080611Y-147626564D01*
X180001385Y-147817833D01*
X180001384Y-147817835D01*
X179886365Y-147989973D01*
X179739973Y-148136365D01*
X179567835Y-148251384D01*
X179567834Y-148251385D01*
X179567833Y-148251385D01*
X179376564Y-148330611D01*
X179173516Y-148371000D01*
X178966484Y-148371000D01*
X178763436Y-148330611D01*
X178572167Y-148251385D01*
X178572166Y-148251385D01*
X178572165Y-148251384D01*
X178400027Y-148136365D01*
X178253635Y-147989973D01*
X178138616Y-147817835D01*
X178138615Y-147817833D01*
X178059389Y-147626564D01*
X178019000Y-147423516D01*
X178019000Y-147216484D01*
X178059389Y-147013436D01*
X178138615Y-146822167D01*
X178162498Y-146786424D01*
X178253635Y-146650027D01*
X178400027Y-146503635D01*
X178572165Y-146388616D01*
X178572167Y-146388615D01*
X178763436Y-146309389D01*
X178966484Y-146269000D01*
X179173516Y-146269000D01*
X179376564Y-146309389D01*
G37*
G36*
X225096564Y-146309389D02*
G01*
X225287833Y-146388615D01*
X225287835Y-146388616D01*
X225459973Y-146503635D01*
X225606365Y-146650027D01*
X225697503Y-146786424D01*
X225721385Y-146822167D01*
X225800611Y-147013436D01*
X225841000Y-147216484D01*
X225841000Y-147423516D01*
X225800611Y-147626564D01*
X225721385Y-147817833D01*
X225721384Y-147817835D01*
X225606365Y-147989973D01*
X225459973Y-148136365D01*
X225287835Y-148251384D01*
X225287834Y-148251385D01*
X225287833Y-148251385D01*
X225096564Y-148330611D01*
X224893516Y-148371000D01*
X224686484Y-148371000D01*
X224483436Y-148330611D01*
X224292167Y-148251385D01*
X224292166Y-148251385D01*
X224292165Y-148251384D01*
X224120027Y-148136365D01*
X223973635Y-147989973D01*
X223858616Y-147817835D01*
X223858615Y-147817833D01*
X223779389Y-147626564D01*
X223739000Y-147423516D01*
X223739000Y-147216484D01*
X223779389Y-147013436D01*
X223858615Y-146822167D01*
X223882498Y-146786424D01*
X223973635Y-146650027D01*
X224120027Y-146503635D01*
X224292165Y-146388616D01*
X224292167Y-146388615D01*
X224483436Y-146309389D01*
X224686484Y-146269000D01*
X224893516Y-146269000D01*
X225096564Y-146309389D01*
G37*
G36*
X202455331Y-144318211D02*
G01*
X202783092Y-144453974D01*
X203078070Y-144651072D01*
X203328928Y-144901930D01*
X203526026Y-145196908D01*
X203661789Y-145524669D01*
X203731000Y-145872616D01*
X203731000Y-146227384D01*
X203661789Y-146575331D01*
X203526026Y-146903092D01*
X203328928Y-147198070D01*
X203078070Y-147448928D01*
X202783092Y-147646026D01*
X202455331Y-147781789D01*
X202107384Y-147851000D01*
X201752616Y-147851000D01*
X201404669Y-147781789D01*
X201076908Y-147646026D01*
X200781930Y-147448928D01*
X200531072Y-147198070D01*
X200333974Y-146903092D01*
X200198211Y-146575331D01*
X200129000Y-146227384D01*
X200129000Y-145872616D01*
X200198211Y-145524669D01*
X200333974Y-145196908D01*
X200531072Y-144901930D01*
X200781930Y-144651072D01*
X201076908Y-144453974D01*
X201404669Y-144318211D01*
X201752616Y-144249000D01*
X202107384Y-144249000D01*
X202455331Y-144318211D01*
G37*
G36*
X189472394Y-145250934D02*
G01*
X189623624Y-145313576D01*
X189623626Y-145313577D01*
X189759732Y-145404520D01*
X189875480Y-145520268D01*
X189966423Y-145656374D01*
X189966424Y-145656376D01*
X190029066Y-145807606D01*
X190061000Y-145968152D01*
X190061000Y-146131848D01*
X190029066Y-146292394D01*
X189989209Y-146388616D01*
X189966423Y-146443626D01*
X189875480Y-146579732D01*
X189759732Y-146695480D01*
X189623626Y-146786423D01*
X189623625Y-146786424D01*
X189623624Y-146786424D01*
X189472394Y-146849066D01*
X189311848Y-146881000D01*
X189148152Y-146881000D01*
X188987606Y-146849066D01*
X188836376Y-146786424D01*
X188836375Y-146786424D01*
X188836374Y-146786423D01*
X188700268Y-146695480D01*
X188584520Y-146579732D01*
X188493577Y-146443626D01*
X188470791Y-146388616D01*
X188430934Y-146292394D01*
X188399000Y-146131848D01*
X188399000Y-145968152D01*
X188430934Y-145807606D01*
X188493576Y-145656376D01*
X188493577Y-145656374D01*
X188584520Y-145520268D01*
X188700268Y-145404520D01*
X188836374Y-145313577D01*
X188836376Y-145313576D01*
X188987606Y-145250934D01*
X189148152Y-145219000D01*
X189311848Y-145219000D01*
X189472394Y-145250934D01*
G37*
G36*
X214872394Y-145250934D02*
G01*
X215023624Y-145313576D01*
X215023626Y-145313577D01*
X215159732Y-145404520D01*
X215275480Y-145520268D01*
X215366423Y-145656374D01*
X215366424Y-145656376D01*
X215429066Y-145807606D01*
X215461000Y-145968152D01*
X215461000Y-146131848D01*
X215429066Y-146292394D01*
X215389209Y-146388616D01*
X215366423Y-146443626D01*
X215275480Y-146579732D01*
X215159732Y-146695480D01*
X215023626Y-146786423D01*
X215023625Y-146786424D01*
X215023624Y-146786424D01*
X214872394Y-146849066D01*
X214711848Y-146881000D01*
X214548152Y-146881000D01*
X214387606Y-146849066D01*
X214236376Y-146786424D01*
X214236375Y-146786424D01*
X214236374Y-146786423D01*
X214100268Y-146695480D01*
X213984520Y-146579732D01*
X213893577Y-146443626D01*
X213870791Y-146388616D01*
X213830934Y-146292394D01*
X213799000Y-146131848D01*
X213799000Y-145968152D01*
X213830934Y-145807606D01*
X213893576Y-145656376D01*
X213893577Y-145656374D01*
X213984520Y-145520268D01*
X214100268Y-145404520D01*
X214236374Y-145313577D01*
X214236376Y-145313576D01*
X214387606Y-145250934D01*
X214548152Y-145219000D01*
X214711848Y-145219000D01*
X214872394Y-145250934D01*
G37*
G36*
X225165256Y-141266298D02*
G01*
X225271579Y-141287447D01*
X225572042Y-141411903D01*
X225842451Y-141592585D01*
X226072415Y-141822549D01*
X226072416Y-141822551D01*
X226253098Y-142092960D01*
X226377553Y-142393422D01*
X226441000Y-142712389D01*
X226441000Y-143037611D01*
X226398702Y-143250256D01*
X226377553Y-143356579D01*
X226253097Y-143657042D01*
X226072415Y-143927451D01*
X225842451Y-144157415D01*
X225572042Y-144338097D01*
X225271579Y-144462553D01*
X225165256Y-144483702D01*
X224952611Y-144526000D01*
X224627389Y-144526000D01*
X224414744Y-144483702D01*
X224308421Y-144462553D01*
X224007958Y-144338097D01*
X223737549Y-144157415D01*
X223507585Y-143927451D01*
X223326903Y-143657042D01*
X223202447Y-143356579D01*
X223181298Y-143250256D01*
X223139000Y-143037611D01*
X223139000Y-142712389D01*
X223202447Y-142393422D01*
X223326902Y-142092960D01*
X223507584Y-141822551D01*
X223507585Y-141822549D01*
X223737549Y-141592585D01*
X224007958Y-141411903D01*
X224308421Y-141287447D01*
X224414744Y-141266298D01*
X224627389Y-141224000D01*
X224952611Y-141224000D01*
X225165256Y-141266298D01*
G37*
G36*
X179445256Y-141266298D02*
G01*
X179551579Y-141287447D01*
X179852042Y-141411903D01*
X180122451Y-141592585D01*
X180352415Y-141822549D01*
X180352416Y-141822551D01*
X180533098Y-142092960D01*
X180657553Y-142393422D01*
X180721000Y-142712389D01*
X180721000Y-143037611D01*
X180678702Y-143250256D01*
X180657553Y-143356579D01*
X180533097Y-143657042D01*
X180352415Y-143927451D01*
X180122451Y-144157415D01*
X179852042Y-144338097D01*
X179551579Y-144462553D01*
X179445256Y-144483702D01*
X179232611Y-144526000D01*
X178907389Y-144526000D01*
X178694744Y-144483702D01*
X178588421Y-144462553D01*
X178287958Y-144338097D01*
X178017549Y-144157415D01*
X177787585Y-143927451D01*
X177606903Y-143657042D01*
X177482447Y-143356579D01*
X177461298Y-143250256D01*
X177419000Y-143037611D01*
X177419000Y-142712389D01*
X177482447Y-142393422D01*
X177606902Y-142092960D01*
X177787584Y-141822551D01*
X177787585Y-141822549D01*
X178017549Y-141592585D01*
X178287958Y-141411903D01*
X178588421Y-141287447D01*
X178694744Y-141266298D01*
X178907389Y-141224000D01*
X179232611Y-141224000D01*
X179445256Y-141266298D01*
G37*
G36*
X189472394Y-142710934D02*
G01*
X189623624Y-142773576D01*
X189623626Y-142773577D01*
X189759732Y-142864520D01*
X189875480Y-142980268D01*
X189913795Y-143037611D01*
X189966424Y-143116376D01*
X190029066Y-143267606D01*
X190061000Y-143428152D01*
X190061000Y-143591848D01*
X190029066Y-143752394D01*
X189966424Y-143903624D01*
X189966423Y-143903626D01*
X189875480Y-144039732D01*
X189759732Y-144155480D01*
X189623626Y-144246423D01*
X189623625Y-144246424D01*
X189623624Y-144246424D01*
X189472394Y-144309066D01*
X189311848Y-144341000D01*
X189148152Y-144341000D01*
X188987606Y-144309066D01*
X188836376Y-144246424D01*
X188836375Y-144246424D01*
X188836374Y-144246423D01*
X188700268Y-144155480D01*
X188584520Y-144039732D01*
X188493577Y-143903626D01*
X188493576Y-143903624D01*
X188430934Y-143752394D01*
X188399000Y-143591848D01*
X188399000Y-143428152D01*
X188430934Y-143267606D01*
X188493576Y-143116376D01*
X188546205Y-143037611D01*
X188584520Y-142980268D01*
X188700268Y-142864520D01*
X188836374Y-142773577D01*
X188836376Y-142773576D01*
X188987606Y-142710934D01*
X189148152Y-142679000D01*
X189311848Y-142679000D01*
X189472394Y-142710934D01*
G37*
G36*
X214872394Y-142710934D02*
G01*
X215023624Y-142773576D01*
X215023626Y-142773577D01*
X215159732Y-142864520D01*
X215275480Y-142980268D01*
X215313795Y-143037611D01*
X215366424Y-143116376D01*
X215429066Y-143267606D01*
X215461000Y-143428152D01*
X215461000Y-143591848D01*
X215429066Y-143752394D01*
X215366424Y-143903624D01*
X215366423Y-143903626D01*
X215275480Y-144039732D01*
X215159732Y-144155480D01*
X215023626Y-144246423D01*
X215023625Y-144246424D01*
X215023624Y-144246424D01*
X214872394Y-144309066D01*
X214711848Y-144341000D01*
X214548152Y-144341000D01*
X214387606Y-144309066D01*
X214236376Y-144246424D01*
X214236375Y-144246424D01*
X214236374Y-144246423D01*
X214100268Y-144155480D01*
X213984520Y-144039732D01*
X213893577Y-143903626D01*
X213893576Y-143903624D01*
X213830934Y-143752394D01*
X213799000Y-143591848D01*
X213799000Y-143428152D01*
X213830934Y-143267606D01*
X213893576Y-143116376D01*
X213946205Y-143037611D01*
X213984520Y-142980268D01*
X214100268Y-142864520D01*
X214236374Y-142773577D01*
X214236376Y-142773576D01*
X214387606Y-142710934D01*
X214548152Y-142679000D01*
X214711848Y-142679000D01*
X214872394Y-142710934D01*
G37*
G36*
X214872394Y-140170934D02*
G01*
X215023624Y-140233576D01*
X215023626Y-140233577D01*
X215159732Y-140324520D01*
X215275480Y-140440268D01*
X215366423Y-140576374D01*
X215366424Y-140576376D01*
X215429066Y-140727606D01*
X215461000Y-140888152D01*
X215461000Y-141051848D01*
X215429066Y-141212394D01*
X215366424Y-141363624D01*
X215366423Y-141363626D01*
X215275480Y-141499732D01*
X215159732Y-141615480D01*
X215023626Y-141706423D01*
X215023625Y-141706424D01*
X215023624Y-141706424D01*
X214872394Y-141769066D01*
X214711848Y-141801000D01*
X214548152Y-141801000D01*
X214387606Y-141769066D01*
X214236376Y-141706424D01*
X214236375Y-141706424D01*
X214236374Y-141706423D01*
X214100268Y-141615480D01*
X213984520Y-141499732D01*
X213893577Y-141363626D01*
X213893576Y-141363624D01*
X213830934Y-141212394D01*
X213799000Y-141051848D01*
X213799000Y-140888152D01*
X213830934Y-140727606D01*
X213893576Y-140576376D01*
X213893577Y-140576374D01*
X213984520Y-140440268D01*
X214100268Y-140324520D01*
X214236374Y-140233577D01*
X214236376Y-140233576D01*
X214387606Y-140170934D01*
X214548152Y-140139000D01*
X214711848Y-140139000D01*
X214872394Y-140170934D01*
G37*
G36*
X189472394Y-140170934D02*
G01*
X189623624Y-140233576D01*
X189623626Y-140233577D01*
X189759732Y-140324520D01*
X189875480Y-140440268D01*
X189966423Y-140576374D01*
X189966424Y-140576376D01*
X190029066Y-140727606D01*
X190061000Y-140888152D01*
X190061000Y-141051848D01*
X190029066Y-141212394D01*
X189966424Y-141363624D01*
X189966423Y-141363626D01*
X189875480Y-141499732D01*
X189759732Y-141615480D01*
X189623626Y-141706423D01*
X189623625Y-141706424D01*
X189623624Y-141706424D01*
X189472394Y-141769066D01*
X189311848Y-141801000D01*
X189148152Y-141801000D01*
X188987606Y-141769066D01*
X188836376Y-141706424D01*
X188836375Y-141706424D01*
X188836374Y-141706423D01*
X188700268Y-141615480D01*
X188584520Y-141499732D01*
X188493577Y-141363626D01*
X188493576Y-141363624D01*
X188430934Y-141212394D01*
X188399000Y-141051848D01*
X188399000Y-140888152D01*
X188430934Y-140727606D01*
X188493576Y-140576376D01*
X188493577Y-140576374D01*
X188584520Y-140440268D01*
X188700268Y-140324520D01*
X188836374Y-140233577D01*
X188836376Y-140233576D01*
X188987606Y-140170934D01*
X189148152Y-140139000D01*
X189311848Y-140139000D01*
X189472394Y-140170934D01*
G37*
G36*
X202268893Y-136689065D02*
G01*
X202411579Y-136717447D01*
X202712042Y-136841903D01*
X202982451Y-137022585D01*
X203212415Y-137252549D01*
X203393097Y-137522958D01*
X203517553Y-137823421D01*
X203535600Y-137914148D01*
X203581000Y-138142389D01*
X203581000Y-138467611D01*
X203540266Y-138672394D01*
X203517553Y-138786579D01*
X203393097Y-139087042D01*
X203212415Y-139357451D01*
X202982451Y-139587415D01*
X202712042Y-139768097D01*
X202411579Y-139892553D01*
X202305256Y-139913702D01*
X202092611Y-139956000D01*
X201767389Y-139956000D01*
X201554744Y-139913702D01*
X201448421Y-139892553D01*
X201147958Y-139768097D01*
X200877549Y-139587415D01*
X200647585Y-139357451D01*
X200466903Y-139087042D01*
X200342447Y-138786579D01*
X200319734Y-138672394D01*
X200279000Y-138467611D01*
X200279000Y-138142389D01*
X200324400Y-137914148D01*
X200342447Y-137823421D01*
X200466903Y-137522958D01*
X200647585Y-137252549D01*
X200877549Y-137022585D01*
X201147958Y-136841903D01*
X201448421Y-136717447D01*
X201591107Y-136689065D01*
X201767389Y-136654000D01*
X202092611Y-136654000D01*
X202268893Y-136689065D01*
G37*
G36*
X189472394Y-137630934D02*
G01*
X189623624Y-137693576D01*
X189623626Y-137693577D01*
X189759732Y-137784520D01*
X189875480Y-137900268D01*
X189966423Y-138036374D01*
X189966424Y-138036376D01*
X190029066Y-138187606D01*
X190061000Y-138348152D01*
X190061000Y-138511848D01*
X190029066Y-138672394D01*
X189966424Y-138823624D01*
X189966423Y-138823626D01*
X189875480Y-138959732D01*
X189759732Y-139075480D01*
X189623626Y-139166423D01*
X189623625Y-139166424D01*
X189623624Y-139166424D01*
X189472394Y-139229066D01*
X189311848Y-139261000D01*
X189148152Y-139261000D01*
X188987606Y-139229066D01*
X188836376Y-139166424D01*
X188836375Y-139166424D01*
X188836374Y-139166423D01*
X188700268Y-139075480D01*
X188584520Y-138959732D01*
X188493577Y-138823626D01*
X188493576Y-138823624D01*
X188430934Y-138672394D01*
X188399000Y-138511848D01*
X188399000Y-138348152D01*
X188430934Y-138187606D01*
X188493576Y-138036376D01*
X188493577Y-138036374D01*
X188584520Y-137900268D01*
X188700268Y-137784520D01*
X188836374Y-137693577D01*
X188836376Y-137693576D01*
X188987606Y-137630934D01*
X189148152Y-137599000D01*
X189311848Y-137599000D01*
X189472394Y-137630934D01*
G37*
G36*
X214872394Y-137630934D02*
G01*
X215023624Y-137693576D01*
X215023626Y-137693577D01*
X215159732Y-137784520D01*
X215275480Y-137900268D01*
X215366423Y-138036374D01*
X215366424Y-138036376D01*
X215429066Y-138187606D01*
X215461000Y-138348152D01*
X215461000Y-138511848D01*
X215429066Y-138672394D01*
X215366424Y-138823624D01*
X215366423Y-138823626D01*
X215275480Y-138959732D01*
X215159732Y-139075480D01*
X215023626Y-139166423D01*
X215023625Y-139166424D01*
X215023624Y-139166424D01*
X214872394Y-139229066D01*
X214711848Y-139261000D01*
X214548152Y-139261000D01*
X214387606Y-139229066D01*
X214236376Y-139166424D01*
X214236375Y-139166424D01*
X214236374Y-139166423D01*
X214100268Y-139075480D01*
X213984520Y-138959732D01*
X213893577Y-138823626D01*
X213893576Y-138823624D01*
X213830934Y-138672394D01*
X213799000Y-138511848D01*
X213799000Y-138348152D01*
X213830934Y-138187606D01*
X213893576Y-138036376D01*
X213893577Y-138036374D01*
X213984520Y-137900268D01*
X214100268Y-137784520D01*
X214236374Y-137693577D01*
X214236376Y-137693576D01*
X214387606Y-137630934D01*
X214548152Y-137599000D01*
X214711848Y-137599000D01*
X214872394Y-137630934D01*
G37*
G36*
X179776392Y-136313042D02*
G01*
X179809951Y-136323223D01*
X179840884Y-136339757D01*
X179867995Y-136362005D01*
X179890243Y-136389116D01*
X179906777Y-136420049D01*
X179916958Y-136453608D01*
X179921000Y-136494652D01*
X179921000Y-137825348D01*
X179916958Y-137866392D01*
X179906777Y-137899951D01*
X179890243Y-137930884D01*
X179867995Y-137957995D01*
X179840884Y-137980243D01*
X179809951Y-137996777D01*
X179776392Y-138006958D01*
X179735348Y-138011000D01*
X178404652Y-138011000D01*
X178363608Y-138006958D01*
X178330049Y-137996777D01*
X178299116Y-137980243D01*
X178272005Y-137957995D01*
X178249757Y-137930884D01*
X178233223Y-137899951D01*
X178223042Y-137866392D01*
X178219000Y-137825348D01*
X178219000Y-136494652D01*
X178223042Y-136453608D01*
X178233223Y-136420049D01*
X178249757Y-136389116D01*
X178272005Y-136362005D01*
X178299116Y-136339757D01*
X178330049Y-136323223D01*
X178363608Y-136313042D01*
X178404652Y-136309000D01*
X179735348Y-136309000D01*
X179776392Y-136313042D01*
G37*
G36*
X222956392Y-136313042D02*
G01*
X222989951Y-136323223D01*
X223020884Y-136339757D01*
X223047995Y-136362005D01*
X223070243Y-136389116D01*
X223086777Y-136420049D01*
X223096958Y-136453608D01*
X223101000Y-136494652D01*
X223101000Y-137825348D01*
X223096958Y-137866392D01*
X223086777Y-137899951D01*
X223070243Y-137930884D01*
X223047995Y-137957995D01*
X223020884Y-137980243D01*
X222989951Y-137996777D01*
X222956392Y-138006958D01*
X222915348Y-138011000D01*
X221584652Y-138011000D01*
X221543608Y-138006958D01*
X221510049Y-137996777D01*
X221479116Y-137980243D01*
X221452005Y-137957995D01*
X221429757Y-137930884D01*
X221413223Y-137899951D01*
X221403042Y-137866392D01*
X221399000Y-137825348D01*
X221399000Y-136494652D01*
X221403042Y-136453608D01*
X221413223Y-136420049D01*
X221429757Y-136389116D01*
X221452005Y-136362005D01*
X221479116Y-136339757D01*
X221510049Y-136323223D01*
X221543608Y-136313042D01*
X221584652Y-136309000D01*
X222915348Y-136309000D01*
X222956392Y-136313042D01*
G37*
G36*
X225298228Y-136341703D02*
G01*
X225453100Y-136405853D01*
X225592481Y-136498985D01*
X225711015Y-136617519D01*
X225804147Y-136756900D01*
X225868297Y-136911772D01*
X225901000Y-137076184D01*
X225901000Y-137243816D01*
X225868297Y-137408228D01*
X225804147Y-137563100D01*
X225711015Y-137702481D01*
X225592481Y-137821015D01*
X225453100Y-137914147D01*
X225298228Y-137978297D01*
X225133816Y-138011000D01*
X224966184Y-138011000D01*
X224801772Y-137978297D01*
X224646900Y-137914147D01*
X224507519Y-137821015D01*
X224388985Y-137702481D01*
X224295853Y-137563100D01*
X224231703Y-137408228D01*
X224199000Y-137243816D01*
X224199000Y-137076184D01*
X224231703Y-136911772D01*
X224295853Y-136756900D01*
X224388985Y-136617519D01*
X224507519Y-136498985D01*
X224646900Y-136405853D01*
X224801772Y-136341703D01*
X224966184Y-136309000D01*
X225133816Y-136309000D01*
X225298228Y-136341703D01*
G37*
G36*
X182118228Y-136341703D02*
G01*
X182273100Y-136405853D01*
X182412481Y-136498985D01*
X182531015Y-136617519D01*
X182624147Y-136756900D01*
X182688297Y-136911772D01*
X182721000Y-137076184D01*
X182721000Y-137243816D01*
X182688297Y-137408228D01*
X182624147Y-137563100D01*
X182531015Y-137702481D01*
X182412481Y-137821015D01*
X182273100Y-137914147D01*
X182118228Y-137978297D01*
X181953816Y-138011000D01*
X181786184Y-138011000D01*
X181621772Y-137978297D01*
X181466900Y-137914147D01*
X181327519Y-137821015D01*
X181208985Y-137702481D01*
X181115853Y-137563100D01*
X181051703Y-137408228D01*
X181019000Y-137243816D01*
X181019000Y-137076184D01*
X181051703Y-136911772D01*
X181115853Y-136756900D01*
X181208985Y-136617519D01*
X181327519Y-136498985D01*
X181466900Y-136405853D01*
X181621772Y-136341703D01*
X181786184Y-136309000D01*
X181953816Y-136309000D01*
X182118228Y-136341703D01*
G37*
G36*
X214872394Y-135090934D02*
G01*
X215023624Y-135153576D01*
X215023626Y-135153577D01*
X215159732Y-135244520D01*
X215275480Y-135360268D01*
X215366423Y-135496374D01*
X215366424Y-135496376D01*
X215429066Y-135647606D01*
X215461000Y-135808152D01*
X215461000Y-135971848D01*
X215429066Y-136132394D01*
X215366424Y-136283624D01*
X215366423Y-136283626D01*
X215275480Y-136419732D01*
X215159732Y-136535480D01*
X215023626Y-136626423D01*
X215023625Y-136626424D01*
X215023624Y-136626424D01*
X214872394Y-136689066D01*
X214711848Y-136721000D01*
X214548152Y-136721000D01*
X214387606Y-136689066D01*
X214236376Y-136626424D01*
X214236375Y-136626424D01*
X214236374Y-136626423D01*
X214100268Y-136535480D01*
X213984520Y-136419732D01*
X213893577Y-136283626D01*
X213893576Y-136283624D01*
X213830934Y-136132394D01*
X213799000Y-135971848D01*
X213799000Y-135808152D01*
X213830934Y-135647606D01*
X213893576Y-135496376D01*
X213893577Y-135496374D01*
X213984520Y-135360268D01*
X214100268Y-135244520D01*
X214236374Y-135153577D01*
X214236376Y-135153576D01*
X214387606Y-135090934D01*
X214548152Y-135059000D01*
X214711848Y-135059000D01*
X214872394Y-135090934D01*
G37*
G36*
X189472394Y-135090934D02*
G01*
X189623624Y-135153576D01*
X189623626Y-135153577D01*
X189759732Y-135244520D01*
X189875480Y-135360268D01*
X189966423Y-135496374D01*
X189966424Y-135496376D01*
X190029066Y-135647606D01*
X190061000Y-135808152D01*
X190061000Y-135971848D01*
X190029066Y-136132394D01*
X189966424Y-136283624D01*
X189966423Y-136283626D01*
X189875480Y-136419732D01*
X189759732Y-136535480D01*
X189623626Y-136626423D01*
X189623625Y-136626424D01*
X189623624Y-136626424D01*
X189472394Y-136689066D01*
X189311848Y-136721000D01*
X189148152Y-136721000D01*
X188987606Y-136689066D01*
X188836376Y-136626424D01*
X188836375Y-136626424D01*
X188836374Y-136626423D01*
X188700268Y-136535480D01*
X188584520Y-136419732D01*
X188493577Y-136283626D01*
X188493576Y-136283624D01*
X188430934Y-136132394D01*
X188399000Y-135971848D01*
X188399000Y-135808152D01*
X188430934Y-135647606D01*
X188493576Y-135496376D01*
X188493577Y-135496374D01*
X188584520Y-135360268D01*
X188700268Y-135244520D01*
X188836374Y-135153577D01*
X188836376Y-135153576D01*
X188987606Y-135090934D01*
X189148152Y-135059000D01*
X189311848Y-135059000D01*
X189472394Y-135090934D01*
G37*
G36*
X179318228Y-133801703D02*
G01*
X179473100Y-133865853D01*
X179612481Y-133958985D01*
X179731015Y-134077519D01*
X179824147Y-134216900D01*
X179888297Y-134371772D01*
X179921000Y-134536184D01*
X179921000Y-134703816D01*
X179888297Y-134868228D01*
X179824147Y-135023100D01*
X179731015Y-135162481D01*
X179612481Y-135281015D01*
X179473100Y-135374147D01*
X179318228Y-135438297D01*
X179153816Y-135471000D01*
X178986184Y-135471000D01*
X178821772Y-135438297D01*
X178666900Y-135374147D01*
X178527519Y-135281015D01*
X178408985Y-135162481D01*
X178315853Y-135023100D01*
X178251703Y-134868228D01*
X178219000Y-134703816D01*
X178219000Y-134536184D01*
X178251703Y-134371772D01*
X178315853Y-134216900D01*
X178408985Y-134077519D01*
X178527519Y-133958985D01*
X178666900Y-133865853D01*
X178821772Y-133801703D01*
X178986184Y-133769000D01*
X179153816Y-133769000D01*
X179318228Y-133801703D01*
G37*
G36*
X225298228Y-133801703D02*
G01*
X225453100Y-133865853D01*
X225592481Y-133958985D01*
X225711015Y-134077519D01*
X225804147Y-134216900D01*
X225868297Y-134371772D01*
X225901000Y-134536184D01*
X225901000Y-134703816D01*
X225868297Y-134868228D01*
X225804147Y-135023100D01*
X225711015Y-135162481D01*
X225592481Y-135281015D01*
X225453100Y-135374147D01*
X225298228Y-135438297D01*
X225133816Y-135471000D01*
X224966184Y-135471000D01*
X224801772Y-135438297D01*
X224646900Y-135374147D01*
X224507519Y-135281015D01*
X224388985Y-135162481D01*
X224295853Y-135023100D01*
X224231703Y-134868228D01*
X224199000Y-134703816D01*
X224199000Y-134536184D01*
X224231703Y-134371772D01*
X224295853Y-134216900D01*
X224388985Y-134077519D01*
X224507519Y-133958985D01*
X224646900Y-133865853D01*
X224801772Y-133801703D01*
X224966184Y-133769000D01*
X225133816Y-133769000D01*
X225298228Y-133801703D01*
G37*
G36*
X182118228Y-133801703D02*
G01*
X182273100Y-133865853D01*
X182412481Y-133958985D01*
X182531015Y-134077519D01*
X182624147Y-134216900D01*
X182688297Y-134371772D01*
X182721000Y-134536184D01*
X182721000Y-134703816D01*
X182688297Y-134868228D01*
X182624147Y-135023100D01*
X182531015Y-135162481D01*
X182412481Y-135281015D01*
X182273100Y-135374147D01*
X182118228Y-135438297D01*
X181953816Y-135471000D01*
X181786184Y-135471000D01*
X181621772Y-135438297D01*
X181466900Y-135374147D01*
X181327519Y-135281015D01*
X181208985Y-135162481D01*
X181115853Y-135023100D01*
X181051703Y-134868228D01*
X181019000Y-134703816D01*
X181019000Y-134536184D01*
X181051703Y-134371772D01*
X181115853Y-134216900D01*
X181208985Y-134077519D01*
X181327519Y-133958985D01*
X181466900Y-133865853D01*
X181621772Y-133801703D01*
X181786184Y-133769000D01*
X181953816Y-133769000D01*
X182118228Y-133801703D01*
G37*
G36*
X222498228Y-133801703D02*
G01*
X222653100Y-133865853D01*
X222792481Y-133958985D01*
X222911015Y-134077519D01*
X223004147Y-134216900D01*
X223068297Y-134371772D01*
X223101000Y-134536184D01*
X223101000Y-134703816D01*
X223068297Y-134868228D01*
X223004147Y-135023100D01*
X222911015Y-135162481D01*
X222792481Y-135281015D01*
X222653100Y-135374147D01*
X222498228Y-135438297D01*
X222333816Y-135471000D01*
X222166184Y-135471000D01*
X222001772Y-135438297D01*
X221846900Y-135374147D01*
X221707519Y-135281015D01*
X221588985Y-135162481D01*
X221495853Y-135023100D01*
X221431703Y-134868228D01*
X221399000Y-134703816D01*
X221399000Y-134536184D01*
X221431703Y-134371772D01*
X221495853Y-134216900D01*
X221588985Y-134077519D01*
X221707519Y-133958985D01*
X221846900Y-133865853D01*
X222001772Y-133801703D01*
X222166184Y-133769000D01*
X222333816Y-133769000D01*
X222498228Y-133801703D01*
G37*
G36*
X189472394Y-132550934D02*
G01*
X189623624Y-132613576D01*
X189623626Y-132613577D01*
X189759732Y-132704520D01*
X189875480Y-132820268D01*
X189966423Y-132956374D01*
X189966424Y-132956376D01*
X190029066Y-133107606D01*
X190061000Y-133268152D01*
X190061000Y-133431848D01*
X190029066Y-133592394D01*
X189966424Y-133743624D01*
X189966423Y-133743626D01*
X189875480Y-133879732D01*
X189759732Y-133995480D01*
X189623626Y-134086423D01*
X189623625Y-134086424D01*
X189623624Y-134086424D01*
X189472394Y-134149066D01*
X189311848Y-134181000D01*
X189148152Y-134181000D01*
X188987606Y-134149066D01*
X188836376Y-134086424D01*
X188836375Y-134086424D01*
X188836374Y-134086423D01*
X188700268Y-133995480D01*
X188584520Y-133879732D01*
X188493577Y-133743626D01*
X188493576Y-133743624D01*
X188430934Y-133592394D01*
X188399000Y-133431848D01*
X188399000Y-133268152D01*
X188430934Y-133107606D01*
X188493576Y-132956376D01*
X188493577Y-132956374D01*
X188584520Y-132820268D01*
X188700268Y-132704520D01*
X188836374Y-132613577D01*
X188836376Y-132613576D01*
X188987606Y-132550934D01*
X189148152Y-132519000D01*
X189311848Y-132519000D01*
X189472394Y-132550934D01*
G37*
G36*
X214872394Y-132550934D02*
G01*
X215023624Y-132613576D01*
X215023626Y-132613577D01*
X215159732Y-132704520D01*
X215275480Y-132820268D01*
X215366423Y-132956374D01*
X215366424Y-132956376D01*
X215429066Y-133107606D01*
X215461000Y-133268152D01*
X215461000Y-133431848D01*
X215429066Y-133592394D01*
X215366424Y-133743624D01*
X215366423Y-133743626D01*
X215275480Y-133879732D01*
X215159732Y-133995480D01*
X215023626Y-134086423D01*
X215023625Y-134086424D01*
X215023624Y-134086424D01*
X214872394Y-134149066D01*
X214711848Y-134181000D01*
X214548152Y-134181000D01*
X214387606Y-134149066D01*
X214236376Y-134086424D01*
X214236375Y-134086424D01*
X214236374Y-134086423D01*
X214100268Y-133995480D01*
X213984520Y-133879732D01*
X213893577Y-133743626D01*
X213893576Y-133743624D01*
X213830934Y-133592394D01*
X213799000Y-133431848D01*
X213799000Y-133268152D01*
X213830934Y-133107606D01*
X213893576Y-132956376D01*
X213893577Y-132956374D01*
X213984520Y-132820268D01*
X214100268Y-132704520D01*
X214236374Y-132613577D01*
X214236376Y-132613576D01*
X214387606Y-132550934D01*
X214548152Y-132519000D01*
X214711848Y-132519000D01*
X214872394Y-132550934D01*
G37*
G36*
X189472394Y-130010934D02*
G01*
X189623624Y-130073576D01*
X189623626Y-130073577D01*
X189759732Y-130164520D01*
X189875480Y-130280268D01*
X189934165Y-130368097D01*
X189966424Y-130416376D01*
X190029066Y-130567606D01*
X190061000Y-130728152D01*
X190061000Y-130891848D01*
X190029066Y-131052394D01*
X189966424Y-131203624D01*
X189966423Y-131203626D01*
X189875480Y-131339732D01*
X189759732Y-131455480D01*
X189623626Y-131546423D01*
X189623625Y-131546424D01*
X189623624Y-131546424D01*
X189472394Y-131609066D01*
X189311848Y-131641000D01*
X189148152Y-131641000D01*
X188987606Y-131609066D01*
X188836376Y-131546424D01*
X188836375Y-131546424D01*
X188836374Y-131546423D01*
X188700268Y-131455480D01*
X188584520Y-131339732D01*
X188493577Y-131203626D01*
X188493576Y-131203624D01*
X188430934Y-131052394D01*
X188399000Y-130891848D01*
X188399000Y-130728152D01*
X188430934Y-130567606D01*
X188493576Y-130416376D01*
X188525835Y-130368097D01*
X188584520Y-130280268D01*
X188700268Y-130164520D01*
X188836374Y-130073577D01*
X188836376Y-130073576D01*
X188987606Y-130010934D01*
X189148152Y-129979000D01*
X189311848Y-129979000D01*
X189472394Y-130010934D01*
G37*
G36*
X214872394Y-130010934D02*
G01*
X215023624Y-130073576D01*
X215023626Y-130073577D01*
X215159732Y-130164520D01*
X215275480Y-130280268D01*
X215334165Y-130368097D01*
X215366424Y-130416376D01*
X215429066Y-130567606D01*
X215461000Y-130728152D01*
X215461000Y-130891848D01*
X215429066Y-131052394D01*
X215366424Y-131203624D01*
X215366423Y-131203626D01*
X215275480Y-131339732D01*
X215159732Y-131455480D01*
X215023626Y-131546423D01*
X215023625Y-131546424D01*
X215023624Y-131546424D01*
X214872394Y-131609066D01*
X214711848Y-131641000D01*
X214548152Y-131641000D01*
X214387606Y-131609066D01*
X214236376Y-131546424D01*
X214236375Y-131546424D01*
X214236374Y-131546423D01*
X214100268Y-131455480D01*
X213984520Y-131339732D01*
X213893577Y-131203626D01*
X213893576Y-131203624D01*
X213830934Y-131052394D01*
X213799000Y-130891848D01*
X213799000Y-130728152D01*
X213830934Y-130567606D01*
X213893576Y-130416376D01*
X213925835Y-130368097D01*
X213984520Y-130280268D01*
X214100268Y-130164520D01*
X214236374Y-130073577D01*
X214236376Y-130073576D01*
X214387606Y-130010934D01*
X214548152Y-129979000D01*
X214711848Y-129979000D01*
X214872394Y-130010934D01*
G37*
G36*
X225165256Y-127296298D02*
G01*
X225271579Y-127317447D01*
X225572042Y-127441903D01*
X225842451Y-127622585D01*
X226072415Y-127852549D01*
X226253097Y-128122958D01*
X226347906Y-128351846D01*
X226377553Y-128423422D01*
X226441000Y-128742389D01*
X226441000Y-129067611D01*
X226434358Y-129101000D01*
X226377553Y-129386579D01*
X226253097Y-129687042D01*
X226072415Y-129957451D01*
X225842451Y-130187415D01*
X225572042Y-130368097D01*
X225271579Y-130492553D01*
X225165256Y-130513702D01*
X224952611Y-130556000D01*
X224627389Y-130556000D01*
X224414744Y-130513702D01*
X224308421Y-130492553D01*
X224007958Y-130368097D01*
X223737549Y-130187415D01*
X223507585Y-129957451D01*
X223326903Y-129687042D01*
X223202447Y-129386579D01*
X223145642Y-129101000D01*
X223139000Y-129067611D01*
X223139000Y-128742389D01*
X223202447Y-128423422D01*
X223232095Y-128351846D01*
X223326903Y-128122958D01*
X223507585Y-127852549D01*
X223737549Y-127622585D01*
X224007958Y-127441903D01*
X224308421Y-127317447D01*
X224414744Y-127296298D01*
X224627389Y-127254000D01*
X224952611Y-127254000D01*
X225165256Y-127296298D01*
G37*
G36*
X179445256Y-127296298D02*
G01*
X179551579Y-127317447D01*
X179852042Y-127441903D01*
X180122451Y-127622585D01*
X180352415Y-127852549D01*
X180533097Y-128122958D01*
X180627906Y-128351846D01*
X180657553Y-128423422D01*
X180721000Y-128742389D01*
X180721000Y-129067611D01*
X180714358Y-129101000D01*
X180657553Y-129386579D01*
X180533097Y-129687042D01*
X180352415Y-129957451D01*
X180122451Y-130187415D01*
X179852042Y-130368097D01*
X179551579Y-130492553D01*
X179445256Y-130513702D01*
X179232611Y-130556000D01*
X178907389Y-130556000D01*
X178694744Y-130513702D01*
X178588421Y-130492553D01*
X178287958Y-130368097D01*
X178017549Y-130187415D01*
X177787585Y-129957451D01*
X177606903Y-129687042D01*
X177482447Y-129386579D01*
X177425642Y-129101000D01*
X177419000Y-129067611D01*
X177419000Y-128742389D01*
X177482447Y-128423422D01*
X177512095Y-128351846D01*
X177606903Y-128122958D01*
X177787585Y-127852549D01*
X178017549Y-127622585D01*
X178287958Y-127441903D01*
X178588421Y-127317447D01*
X178694744Y-127296298D01*
X178907389Y-127254000D01*
X179232611Y-127254000D01*
X179445256Y-127296298D01*
G37*
G36*
X214872394Y-127470934D02*
G01*
X215023624Y-127533576D01*
X215023626Y-127533577D01*
X215159732Y-127624520D01*
X215275480Y-127740268D01*
X215350505Y-127852551D01*
X215366424Y-127876376D01*
X215429066Y-128027606D01*
X215461000Y-128188152D01*
X215461000Y-128351848D01*
X215429066Y-128512394D01*
X215366424Y-128663624D01*
X215366423Y-128663626D01*
X215275480Y-128799732D01*
X215159732Y-128915480D01*
X215023626Y-129006423D01*
X215023625Y-129006424D01*
X215023624Y-129006424D01*
X214872394Y-129069066D01*
X214711848Y-129101000D01*
X214548152Y-129101000D01*
X214387606Y-129069066D01*
X214236376Y-129006424D01*
X214236375Y-129006424D01*
X214236374Y-129006423D01*
X214100268Y-128915480D01*
X213984520Y-128799732D01*
X213893577Y-128663626D01*
X213893576Y-128663624D01*
X213830934Y-128512394D01*
X213799000Y-128351848D01*
X213799000Y-128188152D01*
X213830934Y-128027606D01*
X213893576Y-127876376D01*
X213909495Y-127852551D01*
X213984520Y-127740268D01*
X214100268Y-127624520D01*
X214236374Y-127533577D01*
X214236376Y-127533576D01*
X214387606Y-127470934D01*
X214548152Y-127439000D01*
X214711848Y-127439000D01*
X214872394Y-127470934D01*
G37*
G36*
X189472394Y-127470934D02*
G01*
X189623624Y-127533576D01*
X189623626Y-127533577D01*
X189759732Y-127624520D01*
X189875480Y-127740268D01*
X189950505Y-127852551D01*
X189966424Y-127876376D01*
X190029066Y-128027606D01*
X190061000Y-128188152D01*
X190061000Y-128351848D01*
X190029066Y-128512394D01*
X189966424Y-128663624D01*
X189966423Y-128663626D01*
X189875480Y-128799732D01*
X189759732Y-128915480D01*
X189623626Y-129006423D01*
X189623625Y-129006424D01*
X189623624Y-129006424D01*
X189472394Y-129069066D01*
X189311848Y-129101000D01*
X189148152Y-129101000D01*
X188987606Y-129069066D01*
X188836376Y-129006424D01*
X188836375Y-129006424D01*
X188836374Y-129006423D01*
X188700268Y-128915480D01*
X188584520Y-128799732D01*
X188493577Y-128663626D01*
X188493576Y-128663624D01*
X188430934Y-128512394D01*
X188399000Y-128351848D01*
X188399000Y-128188152D01*
X188430934Y-128027606D01*
X188493576Y-127876376D01*
X188509495Y-127852551D01*
X188584520Y-127740268D01*
X188700268Y-127624520D01*
X188836374Y-127533577D01*
X188836376Y-127533576D01*
X188987606Y-127470934D01*
X189148152Y-127439000D01*
X189311848Y-127439000D01*
X189472394Y-127470934D01*
G37*
G36*
X214872394Y-124930934D02*
G01*
X215023624Y-124993576D01*
X215023626Y-124993577D01*
X215159732Y-125084520D01*
X215275480Y-125200268D01*
X215303391Y-125242040D01*
X215366424Y-125336376D01*
X215429066Y-125487606D01*
X215461000Y-125648152D01*
X215461000Y-125811848D01*
X215429066Y-125972394D01*
X215371653Y-126111000D01*
X215366423Y-126123626D01*
X215275480Y-126259732D01*
X215159732Y-126375480D01*
X215023626Y-126466423D01*
X215023625Y-126466424D01*
X215023624Y-126466424D01*
X214872394Y-126529066D01*
X214711848Y-126561000D01*
X214548152Y-126561000D01*
X214387606Y-126529066D01*
X214236376Y-126466424D01*
X214236375Y-126466424D01*
X214236374Y-126466423D01*
X214100268Y-126375480D01*
X213984520Y-126259732D01*
X213893577Y-126123626D01*
X213888347Y-126111000D01*
X213830934Y-125972394D01*
X213799000Y-125811848D01*
X213799000Y-125648152D01*
X213830934Y-125487606D01*
X213893576Y-125336376D01*
X213956609Y-125242040D01*
X213984520Y-125200268D01*
X214100268Y-125084520D01*
X214236374Y-124993577D01*
X214236376Y-124993576D01*
X214387606Y-124930934D01*
X214548152Y-124899000D01*
X214711848Y-124899000D01*
X214872394Y-124930934D01*
G37*
G36*
X189472394Y-124930934D02*
G01*
X189623624Y-124993576D01*
X189623626Y-124993577D01*
X189759732Y-125084520D01*
X189875480Y-125200268D01*
X189903391Y-125242040D01*
X189966424Y-125336376D01*
X190029066Y-125487606D01*
X190061000Y-125648152D01*
X190061000Y-125811848D01*
X190029066Y-125972394D01*
X189971653Y-126111000D01*
X189966423Y-126123626D01*
X189875480Y-126259732D01*
X189759732Y-126375480D01*
X189623626Y-126466423D01*
X189623625Y-126466424D01*
X189623624Y-126466424D01*
X189472394Y-126529066D01*
X189311848Y-126561000D01*
X189148152Y-126561000D01*
X188987606Y-126529066D01*
X188836376Y-126466424D01*
X188836375Y-126466424D01*
X188836374Y-126466423D01*
X188700268Y-126375480D01*
X188584520Y-126259732D01*
X188493577Y-126123626D01*
X188488347Y-126111000D01*
X188430934Y-125972394D01*
X188399000Y-125811848D01*
X188399000Y-125648152D01*
X188430934Y-125487606D01*
X188493576Y-125336376D01*
X188556609Y-125242040D01*
X188584520Y-125200268D01*
X188700268Y-125084520D01*
X188836374Y-124993577D01*
X188836376Y-124993576D01*
X188987606Y-124930934D01*
X189148152Y-124899000D01*
X189311848Y-124899000D01*
X189472394Y-124930934D01*
G37*
G36*
X230245256Y-122851298D02*
G01*
X230351579Y-122872447D01*
X230652042Y-122996903D01*
X230922451Y-123177585D01*
X231152415Y-123407549D01*
X231333097Y-123677958D01*
X231450820Y-123962165D01*
X231457553Y-123978422D01*
X231521000Y-124297389D01*
X231521000Y-124622611D01*
X231478702Y-124835256D01*
X231457553Y-124941579D01*
X231333097Y-125242042D01*
X231152415Y-125512451D01*
X230922451Y-125742415D01*
X230652042Y-125923097D01*
X230351579Y-126047553D01*
X230245256Y-126068702D01*
X230032611Y-126111000D01*
X229707389Y-126111000D01*
X229494744Y-126068702D01*
X229388421Y-126047553D01*
X229087958Y-125923097D01*
X228817549Y-125742415D01*
X228587585Y-125512451D01*
X228406903Y-125242042D01*
X228282447Y-124941579D01*
X228261298Y-124835256D01*
X228219000Y-124622611D01*
X228219000Y-124297389D01*
X228282447Y-123978422D01*
X228289181Y-123962165D01*
X228406903Y-123677958D01*
X228587585Y-123407549D01*
X228817549Y-123177585D01*
X229087958Y-122996903D01*
X229388421Y-122872447D01*
X229494744Y-122851298D01*
X229707389Y-122809000D01*
X230032611Y-122809000D01*
X230245256Y-122851298D01*
G37*
G36*
X174365256Y-122851298D02*
G01*
X174471579Y-122872447D01*
X174772042Y-122996903D01*
X175042451Y-123177585D01*
X175272415Y-123407549D01*
X175453097Y-123677958D01*
X175570820Y-123962165D01*
X175577553Y-123978422D01*
X175641000Y-124297389D01*
X175641000Y-124622611D01*
X175598702Y-124835256D01*
X175577553Y-124941579D01*
X175453097Y-125242042D01*
X175272415Y-125512451D01*
X175042451Y-125742415D01*
X174772042Y-125923097D01*
X174471579Y-126047553D01*
X174365256Y-126068702D01*
X174152611Y-126111000D01*
X173827389Y-126111000D01*
X173614744Y-126068702D01*
X173508421Y-126047553D01*
X173207958Y-125923097D01*
X172937549Y-125742415D01*
X172707585Y-125512451D01*
X172526903Y-125242042D01*
X172402447Y-124941579D01*
X172381298Y-124835256D01*
X172339000Y-124622611D01*
X172339000Y-124297389D01*
X172402447Y-123978422D01*
X172409181Y-123962165D01*
X172526903Y-123677958D01*
X172707585Y-123407549D01*
X172937549Y-123177585D01*
X173207958Y-122996903D01*
X173508421Y-122872447D01*
X173614744Y-122851298D01*
X173827389Y-122809000D01*
X174152611Y-122809000D01*
X174365256Y-122851298D01*
G37*
G36*
X225096564Y-123449389D02*
G01*
X225287833Y-123528615D01*
X225287835Y-123528616D01*
X225459973Y-123643635D01*
X225606365Y-123790027D01*
X225697503Y-123926424D01*
X225721385Y-123962167D01*
X225800611Y-124153436D01*
X225841000Y-124356484D01*
X225841000Y-124563516D01*
X225800611Y-124766564D01*
X225721385Y-124957833D01*
X225721384Y-124957835D01*
X225606365Y-125129973D01*
X225459973Y-125276365D01*
X225287835Y-125391384D01*
X225287834Y-125391385D01*
X225287833Y-125391385D01*
X225096564Y-125470611D01*
X224893516Y-125511000D01*
X224686484Y-125511000D01*
X224483436Y-125470611D01*
X224292167Y-125391385D01*
X224292166Y-125391385D01*
X224292165Y-125391384D01*
X224120027Y-125276365D01*
X223973635Y-125129973D01*
X223858616Y-124957835D01*
X223858615Y-124957833D01*
X223779389Y-124766564D01*
X223739000Y-124563516D01*
X223739000Y-124356484D01*
X223779389Y-124153436D01*
X223858615Y-123962167D01*
X223882498Y-123926424D01*
X223973635Y-123790027D01*
X224120027Y-123643635D01*
X224292165Y-123528616D01*
X224292167Y-123528615D01*
X224483436Y-123449389D01*
X224686484Y-123409000D01*
X224893516Y-123409000D01*
X225096564Y-123449389D01*
G37*
G36*
X179376564Y-123449389D02*
G01*
X179567833Y-123528615D01*
X179567835Y-123528616D01*
X179739973Y-123643635D01*
X179886365Y-123790027D01*
X179977503Y-123926424D01*
X180001385Y-123962167D01*
X180080611Y-124153436D01*
X180121000Y-124356484D01*
X180121000Y-124563516D01*
X180080611Y-124766564D01*
X180001385Y-124957833D01*
X180001384Y-124957835D01*
X179886365Y-125129973D01*
X179739973Y-125276365D01*
X179567835Y-125391384D01*
X179567834Y-125391385D01*
X179567833Y-125391385D01*
X179376564Y-125470611D01*
X179173516Y-125511000D01*
X178966484Y-125511000D01*
X178763436Y-125470611D01*
X178572167Y-125391385D01*
X178572166Y-125391385D01*
X178572165Y-125391384D01*
X178400027Y-125276365D01*
X178253635Y-125129973D01*
X178138616Y-124957835D01*
X178138615Y-124957833D01*
X178059389Y-124766564D01*
X178019000Y-124563516D01*
X178019000Y-124356484D01*
X178059389Y-124153436D01*
X178138615Y-123962167D01*
X178162498Y-123926424D01*
X178253635Y-123790027D01*
X178400027Y-123643635D01*
X178572165Y-123528616D01*
X178572167Y-123528615D01*
X178763436Y-123449389D01*
X178966484Y-123409000D01*
X179173516Y-123409000D01*
X179376564Y-123449389D01*
G37*
G36*
X189472394Y-122390934D02*
G01*
X189623624Y-122453576D01*
X189623626Y-122453577D01*
X189759732Y-122544520D01*
X189875480Y-122660268D01*
X189966423Y-122796374D01*
X189966424Y-122796376D01*
X190029066Y-122947606D01*
X190061000Y-123108152D01*
X190061000Y-123271848D01*
X190029066Y-123432394D01*
X189989209Y-123528616D01*
X189966423Y-123583626D01*
X189875480Y-123719732D01*
X189759732Y-123835480D01*
X189623626Y-123926423D01*
X189623625Y-123926424D01*
X189623624Y-123926424D01*
X189472394Y-123989066D01*
X189311848Y-124021000D01*
X189148152Y-124021000D01*
X188987606Y-123989066D01*
X188836376Y-123926424D01*
X188836375Y-123926424D01*
X188836374Y-123926423D01*
X188700268Y-123835480D01*
X188584520Y-123719732D01*
X188493577Y-123583626D01*
X188470791Y-123528616D01*
X188430934Y-123432394D01*
X188399000Y-123271848D01*
X188399000Y-123108152D01*
X188430934Y-122947606D01*
X188493576Y-122796376D01*
X188493577Y-122796374D01*
X188584520Y-122660268D01*
X188700268Y-122544520D01*
X188836374Y-122453577D01*
X188836376Y-122453576D01*
X188987606Y-122390934D01*
X189148152Y-122359000D01*
X189311848Y-122359000D01*
X189472394Y-122390934D01*
G37*
G36*
X214872394Y-122390934D02*
G01*
X215023624Y-122453576D01*
X215023626Y-122453577D01*
X215159732Y-122544520D01*
X215275480Y-122660268D01*
X215366423Y-122796374D01*
X215366424Y-122796376D01*
X215429066Y-122947606D01*
X215461000Y-123108152D01*
X215461000Y-123271848D01*
X215429066Y-123432394D01*
X215389209Y-123528616D01*
X215366423Y-123583626D01*
X215275480Y-123719732D01*
X215159732Y-123835480D01*
X215023626Y-123926423D01*
X215023625Y-123926424D01*
X215023624Y-123926424D01*
X214872394Y-123989066D01*
X214711848Y-124021000D01*
X214548152Y-124021000D01*
X214387606Y-123989066D01*
X214236376Y-123926424D01*
X214236375Y-123926424D01*
X214236374Y-123926423D01*
X214100268Y-123835480D01*
X213984520Y-123719732D01*
X213893577Y-123583626D01*
X213870791Y-123528616D01*
X213830934Y-123432394D01*
X213799000Y-123271848D01*
X213799000Y-123108152D01*
X213830934Y-122947606D01*
X213893576Y-122796376D01*
X213893577Y-122796374D01*
X213984520Y-122660268D01*
X214100268Y-122544520D01*
X214236374Y-122453577D01*
X214236376Y-122453576D01*
X214387606Y-122390934D01*
X214548152Y-122359000D01*
X214711848Y-122359000D01*
X214872394Y-122390934D01*
G37*
G36*
X185726564Y-119639389D02*
G01*
X185917833Y-119718615D01*
X185917835Y-119718616D01*
X186089973Y-119833635D01*
X186236365Y-119980027D01*
X186330072Y-120120269D01*
X186351385Y-120152167D01*
X186430611Y-120343436D01*
X186471000Y-120546484D01*
X186471000Y-120753516D01*
X186430611Y-120956564D01*
X186351385Y-121147833D01*
X186351384Y-121147835D01*
X186236365Y-121319973D01*
X186089973Y-121466365D01*
X185917835Y-121581384D01*
X185917834Y-121581385D01*
X185917833Y-121581385D01*
X185726564Y-121660611D01*
X185523516Y-121701000D01*
X185316484Y-121701000D01*
X185113436Y-121660611D01*
X184922167Y-121581385D01*
X184922166Y-121581385D01*
X184922165Y-121581384D01*
X184750027Y-121466365D01*
X184603635Y-121319973D01*
X184488616Y-121147835D01*
X184488615Y-121147833D01*
X184409389Y-120956564D01*
X184369000Y-120753516D01*
X184369000Y-120546484D01*
X184409389Y-120343436D01*
X184488615Y-120152167D01*
X184509929Y-120120269D01*
X184603635Y-119980027D01*
X184750027Y-119833635D01*
X184922165Y-119718616D01*
X184922167Y-119718615D01*
X185113436Y-119639389D01*
X185316484Y-119599000D01*
X185523516Y-119599000D01*
X185726564Y-119639389D01*
G37*
G36*
X231446564Y-119639389D02*
G01*
X231637833Y-119718615D01*
X231637835Y-119718616D01*
X231809973Y-119833635D01*
X231956365Y-119980027D01*
X232050072Y-120120269D01*
X232071385Y-120152167D01*
X232150611Y-120343436D01*
X232191000Y-120546484D01*
X232191000Y-120753516D01*
X232150611Y-120956564D01*
X232071385Y-121147833D01*
X232071384Y-121147835D01*
X231956365Y-121319973D01*
X231809973Y-121466365D01*
X231637835Y-121581384D01*
X231637834Y-121581385D01*
X231637833Y-121581385D01*
X231446564Y-121660611D01*
X231243516Y-121701000D01*
X231036484Y-121701000D01*
X230833436Y-121660611D01*
X230642167Y-121581385D01*
X230642166Y-121581385D01*
X230642165Y-121581384D01*
X230470027Y-121466365D01*
X230323635Y-121319973D01*
X230208616Y-121147835D01*
X230208615Y-121147833D01*
X230129389Y-120956564D01*
X230089000Y-120753516D01*
X230089000Y-120546484D01*
X230129389Y-120343436D01*
X230208615Y-120152167D01*
X230229929Y-120120269D01*
X230323635Y-119980027D01*
X230470027Y-119833635D01*
X230642165Y-119718616D01*
X230642167Y-119718615D01*
X230833436Y-119639389D01*
X231036484Y-119599000D01*
X231243516Y-119599000D01*
X231446564Y-119639389D01*
G37*
G36*
X228906564Y-119639389D02*
G01*
X229097833Y-119718615D01*
X229097835Y-119718616D01*
X229269973Y-119833635D01*
X229416365Y-119980027D01*
X229510072Y-120120269D01*
X229531385Y-120152167D01*
X229610611Y-120343436D01*
X229651000Y-120546484D01*
X229651000Y-120753516D01*
X229610611Y-120956564D01*
X229531385Y-121147833D01*
X229531384Y-121147835D01*
X229416365Y-121319973D01*
X229269973Y-121466365D01*
X229097835Y-121581384D01*
X229097834Y-121581385D01*
X229097833Y-121581385D01*
X228906564Y-121660611D01*
X228703516Y-121701000D01*
X228496484Y-121701000D01*
X228293436Y-121660611D01*
X228102167Y-121581385D01*
X228102166Y-121581385D01*
X228102165Y-121581384D01*
X227930027Y-121466365D01*
X227783635Y-121319973D01*
X227668616Y-121147835D01*
X227668615Y-121147833D01*
X227589389Y-120956564D01*
X227549000Y-120753516D01*
X227549000Y-120546484D01*
X227589389Y-120343436D01*
X227668615Y-120152167D01*
X227689929Y-120120269D01*
X227783635Y-119980027D01*
X227930027Y-119833635D01*
X228102165Y-119718616D01*
X228102167Y-119718615D01*
X228293436Y-119639389D01*
X228496484Y-119599000D01*
X228703516Y-119599000D01*
X228906564Y-119639389D01*
G37*
G36*
X226366564Y-119639389D02*
G01*
X226557833Y-119718615D01*
X226557835Y-119718616D01*
X226729973Y-119833635D01*
X226876365Y-119980027D01*
X226970072Y-120120269D01*
X226991385Y-120152167D01*
X227070611Y-120343436D01*
X227111000Y-120546484D01*
X227111000Y-120753516D01*
X227070611Y-120956564D01*
X226991385Y-121147833D01*
X226991384Y-121147835D01*
X226876365Y-121319973D01*
X226729973Y-121466365D01*
X226557835Y-121581384D01*
X226557834Y-121581385D01*
X226557833Y-121581385D01*
X226366564Y-121660611D01*
X226163516Y-121701000D01*
X225956484Y-121701000D01*
X225753436Y-121660611D01*
X225562167Y-121581385D01*
X225562166Y-121581385D01*
X225562165Y-121581384D01*
X225390027Y-121466365D01*
X225243635Y-121319973D01*
X225128616Y-121147835D01*
X225128615Y-121147833D01*
X225049389Y-120956564D01*
X225009000Y-120753516D01*
X225009000Y-120546484D01*
X225049389Y-120343436D01*
X225128615Y-120152167D01*
X225149929Y-120120269D01*
X225243635Y-119980027D01*
X225390027Y-119833635D01*
X225562165Y-119718616D01*
X225562167Y-119718615D01*
X225753436Y-119639389D01*
X225956484Y-119599000D01*
X226163516Y-119599000D01*
X226366564Y-119639389D01*
G37*
G36*
X223826564Y-119639389D02*
G01*
X224017833Y-119718615D01*
X224017835Y-119718616D01*
X224189973Y-119833635D01*
X224336365Y-119980027D01*
X224430072Y-120120269D01*
X224451385Y-120152167D01*
X224530611Y-120343436D01*
X224571000Y-120546484D01*
X224571000Y-120753516D01*
X224530611Y-120956564D01*
X224451385Y-121147833D01*
X224451384Y-121147835D01*
X224336365Y-121319973D01*
X224189973Y-121466365D01*
X224017835Y-121581384D01*
X224017834Y-121581385D01*
X224017833Y-121581385D01*
X223826564Y-121660611D01*
X223623516Y-121701000D01*
X223416484Y-121701000D01*
X223213436Y-121660611D01*
X223022167Y-121581385D01*
X223022166Y-121581385D01*
X223022165Y-121581384D01*
X222850027Y-121466365D01*
X222703635Y-121319973D01*
X222588616Y-121147835D01*
X222588615Y-121147833D01*
X222509389Y-120956564D01*
X222469000Y-120753516D01*
X222469000Y-120546484D01*
X222509389Y-120343436D01*
X222588615Y-120152167D01*
X222609929Y-120120269D01*
X222703635Y-119980027D01*
X222850027Y-119833635D01*
X223022165Y-119718616D01*
X223022167Y-119718615D01*
X223213436Y-119639389D01*
X223416484Y-119599000D01*
X223623516Y-119599000D01*
X223826564Y-119639389D01*
G37*
G36*
X221286564Y-119639389D02*
G01*
X221477833Y-119718615D01*
X221477835Y-119718616D01*
X221649973Y-119833635D01*
X221796365Y-119980027D01*
X221890072Y-120120269D01*
X221911385Y-120152167D01*
X221990611Y-120343436D01*
X222031000Y-120546484D01*
X222031000Y-120753516D01*
X221990611Y-120956564D01*
X221911385Y-121147833D01*
X221911384Y-121147835D01*
X221796365Y-121319973D01*
X221649973Y-121466365D01*
X221477835Y-121581384D01*
X221477834Y-121581385D01*
X221477833Y-121581385D01*
X221286564Y-121660611D01*
X221083516Y-121701000D01*
X220876484Y-121701000D01*
X220673436Y-121660611D01*
X220482167Y-121581385D01*
X220482166Y-121581385D01*
X220482165Y-121581384D01*
X220310027Y-121466365D01*
X220163635Y-121319973D01*
X220048616Y-121147835D01*
X220048615Y-121147833D01*
X219969389Y-120956564D01*
X219929000Y-120753516D01*
X219929000Y-120546484D01*
X219969389Y-120343436D01*
X220048615Y-120152167D01*
X220069929Y-120120269D01*
X220163635Y-119980027D01*
X220310027Y-119833635D01*
X220482165Y-119718616D01*
X220482167Y-119718615D01*
X220673436Y-119639389D01*
X220876484Y-119599000D01*
X221083516Y-119599000D01*
X221286564Y-119639389D01*
G37*
G36*
X218746564Y-119639389D02*
G01*
X218937833Y-119718615D01*
X218937835Y-119718616D01*
X219109973Y-119833635D01*
X219256365Y-119980027D01*
X219350072Y-120120269D01*
X219371385Y-120152167D01*
X219450611Y-120343436D01*
X219491000Y-120546484D01*
X219491000Y-120753516D01*
X219450611Y-120956564D01*
X219371385Y-121147833D01*
X219371384Y-121147835D01*
X219256365Y-121319973D01*
X219109973Y-121466365D01*
X218937835Y-121581384D01*
X218937834Y-121581385D01*
X218937833Y-121581385D01*
X218746564Y-121660611D01*
X218543516Y-121701000D01*
X218336484Y-121701000D01*
X218133436Y-121660611D01*
X217942167Y-121581385D01*
X217942166Y-121581385D01*
X217942165Y-121581384D01*
X217770027Y-121466365D01*
X217623635Y-121319973D01*
X217508616Y-121147835D01*
X217508615Y-121147833D01*
X217429389Y-120956564D01*
X217389000Y-120753516D01*
X217389000Y-120546484D01*
X217429389Y-120343436D01*
X217508615Y-120152167D01*
X217529929Y-120120269D01*
X217623635Y-119980027D01*
X217770027Y-119833635D01*
X217942165Y-119718616D01*
X217942167Y-119718615D01*
X218133436Y-119639389D01*
X218336484Y-119599000D01*
X218543516Y-119599000D01*
X218746564Y-119639389D01*
G37*
G36*
X171756564Y-119639389D02*
G01*
X171947833Y-119718615D01*
X171947835Y-119718616D01*
X172119973Y-119833635D01*
X172266365Y-119980027D01*
X172360072Y-120120269D01*
X172381385Y-120152167D01*
X172460611Y-120343436D01*
X172501000Y-120546484D01*
X172501000Y-120753516D01*
X172460611Y-120956564D01*
X172381385Y-121147833D01*
X172381384Y-121147835D01*
X172266365Y-121319973D01*
X172119973Y-121466365D01*
X171947835Y-121581384D01*
X171947834Y-121581385D01*
X171947833Y-121581385D01*
X171756564Y-121660611D01*
X171553516Y-121701000D01*
X171346484Y-121701000D01*
X171143436Y-121660611D01*
X170952167Y-121581385D01*
X170952166Y-121581385D01*
X170952165Y-121581384D01*
X170780027Y-121466365D01*
X170633635Y-121319973D01*
X170518616Y-121147835D01*
X170518615Y-121147833D01*
X170439389Y-120956564D01*
X170399000Y-120753516D01*
X170399000Y-120546484D01*
X170439389Y-120343436D01*
X170518615Y-120152167D01*
X170539929Y-120120269D01*
X170633635Y-119980027D01*
X170780027Y-119833635D01*
X170952165Y-119718616D01*
X170952167Y-119718615D01*
X171143436Y-119639389D01*
X171346484Y-119599000D01*
X171553516Y-119599000D01*
X171756564Y-119639389D01*
G37*
G36*
X189472394Y-119850934D02*
G01*
X189623624Y-119913576D01*
X189623626Y-119913577D01*
X189759732Y-120004520D01*
X189875480Y-120120268D01*
X189896794Y-120152167D01*
X189966424Y-120256376D01*
X190029066Y-120407606D01*
X190061000Y-120568152D01*
X190061000Y-120731848D01*
X190029066Y-120892394D01*
X190002485Y-120956565D01*
X189966423Y-121043626D01*
X189875480Y-121179732D01*
X189759732Y-121295480D01*
X189623626Y-121386423D01*
X189623625Y-121386424D01*
X189623624Y-121386424D01*
X189472394Y-121449066D01*
X189311848Y-121481000D01*
X189148152Y-121481000D01*
X188987606Y-121449066D01*
X188836376Y-121386424D01*
X188836375Y-121386424D01*
X188836374Y-121386423D01*
X188700268Y-121295480D01*
X188584520Y-121179732D01*
X188493577Y-121043626D01*
X188457515Y-120956565D01*
X188430934Y-120892394D01*
X188399000Y-120731848D01*
X188399000Y-120568152D01*
X188430934Y-120407606D01*
X188493576Y-120256376D01*
X188563206Y-120152167D01*
X188584520Y-120120268D01*
X188700268Y-120004520D01*
X188836374Y-119913577D01*
X188836376Y-119913576D01*
X188987606Y-119850934D01*
X189148152Y-119819000D01*
X189311848Y-119819000D01*
X189472394Y-119850934D01*
G37*
G36*
X214872394Y-119850934D02*
G01*
X215023624Y-119913576D01*
X215023626Y-119913577D01*
X215159732Y-120004520D01*
X215275480Y-120120268D01*
X215296794Y-120152167D01*
X215366424Y-120256376D01*
X215429066Y-120407606D01*
X215461000Y-120568152D01*
X215461000Y-120731848D01*
X215429066Y-120892394D01*
X215402485Y-120956565D01*
X215366423Y-121043626D01*
X215275480Y-121179732D01*
X215159732Y-121295480D01*
X215023626Y-121386423D01*
X215023625Y-121386424D01*
X215023624Y-121386424D01*
X214872394Y-121449066D01*
X214711848Y-121481000D01*
X214548152Y-121481000D01*
X214387606Y-121449066D01*
X214236376Y-121386424D01*
X214236375Y-121386424D01*
X214236374Y-121386423D01*
X214100268Y-121295480D01*
X213984520Y-121179732D01*
X213893577Y-121043626D01*
X213857515Y-120956565D01*
X213830934Y-120892394D01*
X213799000Y-120731848D01*
X213799000Y-120568152D01*
X213830934Y-120407606D01*
X213893576Y-120256376D01*
X213963206Y-120152167D01*
X213984520Y-120120268D01*
X214100268Y-120004520D01*
X214236374Y-119913577D01*
X214236376Y-119913576D01*
X214387606Y-119850934D01*
X214548152Y-119819000D01*
X214711848Y-119819000D01*
X214872394Y-119850934D01*
G37*
G36*
X189472394Y-117310934D02*
G01*
X189623624Y-117373576D01*
X189623626Y-117373577D01*
X189759732Y-117464520D01*
X189875480Y-117580268D01*
X189966423Y-117716374D01*
X189966424Y-117716376D01*
X190029066Y-117867606D01*
X190061000Y-118028152D01*
X190061000Y-118191848D01*
X190029066Y-118352394D01*
X189971653Y-118491000D01*
X189966423Y-118503626D01*
X189875480Y-118639732D01*
X189759732Y-118755480D01*
X189623626Y-118846423D01*
X189623625Y-118846424D01*
X189623624Y-118846424D01*
X189472394Y-118909066D01*
X189311848Y-118941000D01*
X189148152Y-118941000D01*
X188987606Y-118909066D01*
X188836376Y-118846424D01*
X188836375Y-118846424D01*
X188836374Y-118846423D01*
X188700268Y-118755480D01*
X188584520Y-118639732D01*
X188493577Y-118503626D01*
X188488347Y-118491000D01*
X188430934Y-118352394D01*
X188399000Y-118191848D01*
X188399000Y-118028152D01*
X188430934Y-117867606D01*
X188493576Y-117716376D01*
X188493577Y-117716374D01*
X188584520Y-117580268D01*
X188700268Y-117464520D01*
X188836374Y-117373577D01*
X188836376Y-117373576D01*
X188987606Y-117310934D01*
X189148152Y-117279000D01*
X189311848Y-117279000D01*
X189472394Y-117310934D01*
G37*
G36*
X214872394Y-117310934D02*
G01*
X215023624Y-117373576D01*
X215023626Y-117373577D01*
X215159732Y-117464520D01*
X215275480Y-117580268D01*
X215366423Y-117716374D01*
X215366424Y-117716376D01*
X215429066Y-117867606D01*
X215461000Y-118028152D01*
X215461000Y-118191848D01*
X215429066Y-118352394D01*
X215371653Y-118491000D01*
X215366423Y-118503626D01*
X215275480Y-118639732D01*
X215159732Y-118755480D01*
X215023626Y-118846423D01*
X215023625Y-118846424D01*
X215023624Y-118846424D01*
X214872394Y-118909066D01*
X214711848Y-118941000D01*
X214548152Y-118941000D01*
X214387606Y-118909066D01*
X214236376Y-118846424D01*
X214236375Y-118846424D01*
X214236374Y-118846423D01*
X214100268Y-118755480D01*
X213984520Y-118639732D01*
X213893577Y-118503626D01*
X213888347Y-118491000D01*
X213830934Y-118352394D01*
X213799000Y-118191848D01*
X213799000Y-118028152D01*
X213830934Y-117867606D01*
X213893576Y-117716376D01*
X213893577Y-117716374D01*
X213984520Y-117580268D01*
X214100268Y-117464520D01*
X214236374Y-117373577D01*
X214236376Y-117373576D01*
X214387606Y-117310934D01*
X214548152Y-117279000D01*
X214711848Y-117279000D01*
X214872394Y-117310934D01*
G37*
G36*
X185883855Y-117462140D02*
G01*
X185947618Y-117468420D01*
X186038404Y-117495960D01*
X186070336Y-117505646D01*
X186183425Y-117566094D01*
X186282554Y-117647446D01*
X186363906Y-117746575D01*
X186424354Y-117859664D01*
X186424355Y-117859668D01*
X186461580Y-117982382D01*
X186474149Y-118110000D01*
X186461580Y-118237618D01*
X186441717Y-118303097D01*
X186424354Y-118360336D01*
X186363906Y-118473425D01*
X186282554Y-118572554D01*
X186183425Y-118653906D01*
X186070336Y-118714354D01*
X186038404Y-118724040D01*
X185947618Y-118751580D01*
X185883855Y-118757860D01*
X185851974Y-118761000D01*
X184988026Y-118761000D01*
X184956145Y-118757860D01*
X184892382Y-118751580D01*
X184801596Y-118724040D01*
X184769664Y-118714354D01*
X184656575Y-118653906D01*
X184557446Y-118572554D01*
X184476094Y-118473425D01*
X184415646Y-118360336D01*
X184398283Y-118303097D01*
X184378420Y-118237618D01*
X184365851Y-118110000D01*
X184378420Y-117982382D01*
X184415645Y-117859668D01*
X184415646Y-117859664D01*
X184476094Y-117746575D01*
X184557446Y-117647446D01*
X184656575Y-117566094D01*
X184769664Y-117505646D01*
X184801596Y-117495960D01*
X184892382Y-117468420D01*
X184956145Y-117462140D01*
X184988026Y-117459000D01*
X185851974Y-117459000D01*
X185883855Y-117462140D01*
G37*
G36*
X174365256Y-115231298D02*
G01*
X174471579Y-115252447D01*
X174772042Y-115376903D01*
X175042451Y-115557585D01*
X175272415Y-115787549D01*
X175453097Y-116057958D01*
X175453098Y-116057960D01*
X175489550Y-116145963D01*
X175577553Y-116358421D01*
X175641000Y-116677391D01*
X175641000Y-117002609D01*
X175577553Y-117321579D01*
X175520631Y-117459000D01*
X175476272Y-117566094D01*
X175453097Y-117622042D01*
X175272415Y-117892451D01*
X175042451Y-118122415D01*
X174772042Y-118303097D01*
X174471579Y-118427553D01*
X174365256Y-118448702D01*
X174152611Y-118491000D01*
X173827389Y-118491000D01*
X173614744Y-118448702D01*
X173508421Y-118427553D01*
X173207958Y-118303097D01*
X172937549Y-118122415D01*
X172707585Y-117892451D01*
X172526903Y-117622042D01*
X172503729Y-117566094D01*
X172459369Y-117459000D01*
X172402447Y-117321579D01*
X172339000Y-117002609D01*
X172339000Y-116677391D01*
X172402447Y-116358421D01*
X172490450Y-116145963D01*
X172526902Y-116057960D01*
X172526903Y-116057958D01*
X172707585Y-115787549D01*
X172937549Y-115557585D01*
X173207958Y-115376903D01*
X173508421Y-115252447D01*
X173614744Y-115231298D01*
X173827389Y-115189000D01*
X174152611Y-115189000D01*
X174365256Y-115231298D01*
G37*
G36*
X189472394Y-114770934D02*
G01*
X189623624Y-114833576D01*
X189623626Y-114833577D01*
X189759732Y-114924520D01*
X189875480Y-115040268D01*
X189966423Y-115176374D01*
X189966424Y-115176376D01*
X190029066Y-115327606D01*
X190061000Y-115488152D01*
X190061000Y-115651848D01*
X190029066Y-115812394D01*
X189966424Y-115963624D01*
X189966423Y-115963626D01*
X189875480Y-116099732D01*
X189759732Y-116215480D01*
X189623626Y-116306423D01*
X189623625Y-116306424D01*
X189623624Y-116306424D01*
X189472394Y-116369066D01*
X189311848Y-116401000D01*
X189148152Y-116401000D01*
X188987606Y-116369066D01*
X188836376Y-116306424D01*
X188836375Y-116306424D01*
X188836374Y-116306423D01*
X188700268Y-116215480D01*
X188584520Y-116099732D01*
X188493577Y-115963626D01*
X188493576Y-115963624D01*
X188430934Y-115812394D01*
X188399000Y-115651848D01*
X188399000Y-115488152D01*
X188430934Y-115327606D01*
X188493576Y-115176376D01*
X188493577Y-115176374D01*
X188584520Y-115040268D01*
X188700268Y-114924520D01*
X188836374Y-114833577D01*
X188836376Y-114833576D01*
X188987606Y-114770934D01*
X189148152Y-114739000D01*
X189311848Y-114739000D01*
X189472394Y-114770934D01*
G37*
G36*
X214872394Y-114770934D02*
G01*
X215023624Y-114833576D01*
X215023626Y-114833577D01*
X215159732Y-114924520D01*
X215275480Y-115040268D01*
X215366423Y-115176374D01*
X215366424Y-115176376D01*
X215429066Y-115327606D01*
X215461000Y-115488152D01*
X215461000Y-115651848D01*
X215429066Y-115812394D01*
X215366424Y-115963624D01*
X215366423Y-115963626D01*
X215275480Y-116099732D01*
X215159732Y-116215480D01*
X215023626Y-116306423D01*
X215023625Y-116306424D01*
X215023624Y-116306424D01*
X214872394Y-116369066D01*
X214711848Y-116401000D01*
X214548152Y-116401000D01*
X214387606Y-116369066D01*
X214236376Y-116306424D01*
X214236375Y-116306424D01*
X214236374Y-116306423D01*
X214100268Y-116215480D01*
X213984520Y-116099732D01*
X213893577Y-115963626D01*
X213893576Y-115963624D01*
X213830934Y-115812394D01*
X213799000Y-115651848D01*
X213799000Y-115488152D01*
X213830934Y-115327606D01*
X213893576Y-115176376D01*
X213893577Y-115176374D01*
X213984520Y-115040268D01*
X214100268Y-114924520D01*
X214236374Y-114833577D01*
X214236376Y-114833576D01*
X214387606Y-114770934D01*
X214548152Y-114739000D01*
X214711848Y-114739000D01*
X214872394Y-114770934D01*
G37*
G36*
X185883855Y-114922140D02*
G01*
X185947618Y-114928420D01*
X186038404Y-114955960D01*
X186070336Y-114965646D01*
X186183425Y-115026094D01*
X186282554Y-115107446D01*
X186363906Y-115206575D01*
X186424354Y-115319664D01*
X186424355Y-115319668D01*
X186461580Y-115442382D01*
X186474149Y-115570000D01*
X186461580Y-115697618D01*
X186434300Y-115787549D01*
X186424354Y-115820336D01*
X186363906Y-115933425D01*
X186282554Y-116032554D01*
X186183425Y-116113906D01*
X186070336Y-116174354D01*
X186038404Y-116184040D01*
X185947618Y-116211580D01*
X185883855Y-116217860D01*
X185851974Y-116221000D01*
X184988026Y-116221000D01*
X184956145Y-116217860D01*
X184892382Y-116211580D01*
X184801596Y-116184040D01*
X184769664Y-116174354D01*
X184656575Y-116113906D01*
X184557446Y-116032554D01*
X184476094Y-115933425D01*
X184415646Y-115820336D01*
X184405700Y-115787549D01*
X184378420Y-115697618D01*
X184365851Y-115570000D01*
X184378420Y-115442382D01*
X184415645Y-115319668D01*
X184415646Y-115319664D01*
X184476094Y-115206575D01*
X184557446Y-115107446D01*
X184656575Y-115026094D01*
X184769664Y-114965646D01*
X184801596Y-114955960D01*
X184892382Y-114928420D01*
X184956145Y-114922140D01*
X184988026Y-114919000D01*
X185851974Y-114919000D01*
X185883855Y-114922140D01*
G37*
G36*
X189472394Y-112230934D02*
G01*
X189623624Y-112293576D01*
X189623626Y-112293577D01*
X189759732Y-112384520D01*
X189875480Y-112500268D01*
X189966423Y-112636374D01*
X189966424Y-112636376D01*
X190029066Y-112787606D01*
X190061000Y-112948152D01*
X190061000Y-113111848D01*
X190029066Y-113272394D01*
X189966424Y-113423624D01*
X189966423Y-113423626D01*
X189875480Y-113559732D01*
X189759732Y-113675480D01*
X189623626Y-113766423D01*
X189623625Y-113766424D01*
X189623624Y-113766424D01*
X189472394Y-113829066D01*
X189311848Y-113861000D01*
X189148152Y-113861000D01*
X188987606Y-113829066D01*
X188836376Y-113766424D01*
X188836375Y-113766424D01*
X188836374Y-113766423D01*
X188700268Y-113675480D01*
X188584520Y-113559732D01*
X188493577Y-113423626D01*
X188493576Y-113423624D01*
X188430934Y-113272394D01*
X188399000Y-113111848D01*
X188399000Y-112948152D01*
X188430934Y-112787606D01*
X188493576Y-112636376D01*
X188493577Y-112636374D01*
X188584520Y-112500268D01*
X188700268Y-112384520D01*
X188836374Y-112293577D01*
X188836376Y-112293576D01*
X188987606Y-112230934D01*
X189148152Y-112199000D01*
X189311848Y-112199000D01*
X189472394Y-112230934D01*
G37*
G36*
X214872394Y-112230934D02*
G01*
X215023624Y-112293576D01*
X215023626Y-112293577D01*
X215159732Y-112384520D01*
X215275480Y-112500268D01*
X215366423Y-112636374D01*
X215366424Y-112636376D01*
X215429066Y-112787606D01*
X215461000Y-112948152D01*
X215461000Y-113111848D01*
X215429066Y-113272394D01*
X215366424Y-113423624D01*
X215366423Y-113423626D01*
X215275480Y-113559732D01*
X215159732Y-113675480D01*
X215023626Y-113766423D01*
X215023625Y-113766424D01*
X215023624Y-113766424D01*
X214872394Y-113829066D01*
X214711848Y-113861000D01*
X214548152Y-113861000D01*
X214387606Y-113829066D01*
X214236376Y-113766424D01*
X214236375Y-113766424D01*
X214236374Y-113766423D01*
X214100268Y-113675480D01*
X213984520Y-113559732D01*
X213893577Y-113423626D01*
X213893576Y-113423624D01*
X213830934Y-113272394D01*
X213799000Y-113111848D01*
X213799000Y-112948152D01*
X213830934Y-112787606D01*
X213893576Y-112636376D01*
X213893577Y-112636374D01*
X213984520Y-112500268D01*
X214100268Y-112384520D01*
X214236374Y-112293577D01*
X214236376Y-112293576D01*
X214387606Y-112230934D01*
X214548152Y-112199000D01*
X214711848Y-112199000D01*
X214872394Y-112230934D01*
G37*
G36*
X185883855Y-112382140D02*
G01*
X185947618Y-112388420D01*
X186038404Y-112415960D01*
X186070336Y-112425646D01*
X186183425Y-112486094D01*
X186282554Y-112567446D01*
X186363906Y-112666575D01*
X186424354Y-112779664D01*
X186424355Y-112779668D01*
X186461580Y-112902382D01*
X186474149Y-113030000D01*
X186461580Y-113157618D01*
X186434040Y-113248404D01*
X186424354Y-113280336D01*
X186363906Y-113393425D01*
X186282554Y-113492554D01*
X186183425Y-113573906D01*
X186070336Y-113634354D01*
X186038404Y-113644040D01*
X185947618Y-113671580D01*
X185883855Y-113677860D01*
X185851974Y-113681000D01*
X184988026Y-113681000D01*
X184956145Y-113677860D01*
X184892382Y-113671580D01*
X184801596Y-113644040D01*
X184769664Y-113634354D01*
X184656575Y-113573906D01*
X184557446Y-113492554D01*
X184476094Y-113393425D01*
X184415646Y-113280336D01*
X184405960Y-113248404D01*
X184378420Y-113157618D01*
X184365851Y-113030000D01*
X184378420Y-112902382D01*
X184415645Y-112779668D01*
X184415646Y-112779664D01*
X184476094Y-112666575D01*
X184557446Y-112567446D01*
X184656575Y-112486094D01*
X184769664Y-112425646D01*
X184801596Y-112415960D01*
X184892382Y-112388420D01*
X184956145Y-112382140D01*
X184988026Y-112379000D01*
X185851974Y-112379000D01*
X185883855Y-112382140D01*
G37*
G36*
X214872394Y-109690934D02*
G01*
X215023624Y-109753576D01*
X215023626Y-109753577D01*
X215159732Y-109844520D01*
X215275480Y-109960268D01*
X215366423Y-110096374D01*
X215366424Y-110096376D01*
X215429066Y-110247606D01*
X215461000Y-110408152D01*
X215461000Y-110571848D01*
X215429066Y-110732394D01*
X215366424Y-110883624D01*
X215366423Y-110883626D01*
X215275480Y-111019732D01*
X215159732Y-111135480D01*
X215023626Y-111226423D01*
X215023625Y-111226424D01*
X215023624Y-111226424D01*
X214872394Y-111289066D01*
X214711848Y-111321000D01*
X214548152Y-111321000D01*
X214387606Y-111289066D01*
X214236376Y-111226424D01*
X214236375Y-111226424D01*
X214236374Y-111226423D01*
X214100268Y-111135480D01*
X213984520Y-111019732D01*
X213893577Y-110883626D01*
X213893576Y-110883624D01*
X213830934Y-110732394D01*
X213799000Y-110571848D01*
X213799000Y-110408152D01*
X213830934Y-110247606D01*
X213893576Y-110096376D01*
X213893577Y-110096374D01*
X213984520Y-109960268D01*
X214100268Y-109844520D01*
X214236374Y-109753577D01*
X214236376Y-109753576D01*
X214387606Y-109690934D01*
X214548152Y-109659000D01*
X214711848Y-109659000D01*
X214872394Y-109690934D01*
G37*
G36*
X189472394Y-109690934D02*
G01*
X189623624Y-109753576D01*
X189623626Y-109753577D01*
X189759732Y-109844520D01*
X189875480Y-109960268D01*
X189966423Y-110096374D01*
X189966424Y-110096376D01*
X190029066Y-110247606D01*
X190061000Y-110408152D01*
X190061000Y-110571848D01*
X190029066Y-110732394D01*
X189966424Y-110883624D01*
X189966423Y-110883626D01*
X189875480Y-111019732D01*
X189759732Y-111135480D01*
X189623626Y-111226423D01*
X189623625Y-111226424D01*
X189623624Y-111226424D01*
X189472394Y-111289066D01*
X189311848Y-111321000D01*
X189148152Y-111321000D01*
X188987606Y-111289066D01*
X188836376Y-111226424D01*
X188836375Y-111226424D01*
X188836374Y-111226423D01*
X188700268Y-111135480D01*
X188584520Y-111019732D01*
X188493577Y-110883626D01*
X188493576Y-110883624D01*
X188430934Y-110732394D01*
X188399000Y-110571848D01*
X188399000Y-110408152D01*
X188430934Y-110247606D01*
X188493576Y-110096376D01*
X188493577Y-110096374D01*
X188584520Y-109960268D01*
X188700268Y-109844520D01*
X188836374Y-109753577D01*
X188836376Y-109753576D01*
X188987606Y-109690934D01*
X189148152Y-109659000D01*
X189311848Y-109659000D01*
X189472394Y-109690934D01*
G37*
G36*
X185883855Y-109842140D02*
G01*
X185947618Y-109848420D01*
X186038404Y-109875960D01*
X186070336Y-109885646D01*
X186183425Y-109946094D01*
X186282554Y-110027446D01*
X186363906Y-110126575D01*
X186424354Y-110239664D01*
X186424355Y-110239668D01*
X186461580Y-110362382D01*
X186474149Y-110490000D01*
X186461580Y-110617618D01*
X186434040Y-110708404D01*
X186424354Y-110740336D01*
X186363906Y-110853425D01*
X186282554Y-110952554D01*
X186183425Y-111033906D01*
X186070336Y-111094354D01*
X186038404Y-111104040D01*
X185947618Y-111131580D01*
X185883855Y-111137860D01*
X185851974Y-111141000D01*
X184988026Y-111141000D01*
X184956145Y-111137860D01*
X184892382Y-111131580D01*
X184801596Y-111104040D01*
X184769664Y-111094354D01*
X184656575Y-111033906D01*
X184557446Y-110952554D01*
X184476094Y-110853425D01*
X184415646Y-110740336D01*
X184405960Y-110708404D01*
X184378420Y-110617618D01*
X184365851Y-110490000D01*
X184378420Y-110362382D01*
X184415645Y-110239668D01*
X184415646Y-110239664D01*
X184476094Y-110126575D01*
X184557446Y-110027446D01*
X184656575Y-109946094D01*
X184769664Y-109885646D01*
X184801596Y-109875960D01*
X184892382Y-109848420D01*
X184956145Y-109842140D01*
X184988026Y-109839000D01*
X185851974Y-109839000D01*
X185883855Y-109842140D01*
G37*
G36*
X214872394Y-107150934D02*
G01*
X215023624Y-107213576D01*
X215023626Y-107213577D01*
X215159732Y-107304520D01*
X215275480Y-107420268D01*
X215366423Y-107556374D01*
X215366424Y-107556376D01*
X215429066Y-107707606D01*
X215461000Y-107868152D01*
X215461000Y-108031848D01*
X215429066Y-108192394D01*
X215366424Y-108343624D01*
X215366423Y-108343626D01*
X215275480Y-108479732D01*
X215159732Y-108595480D01*
X215023626Y-108686423D01*
X215023625Y-108686424D01*
X215023624Y-108686424D01*
X214872394Y-108749066D01*
X214711848Y-108781000D01*
X214548152Y-108781000D01*
X214387606Y-108749066D01*
X214236376Y-108686424D01*
X214236375Y-108686424D01*
X214236374Y-108686423D01*
X214100268Y-108595480D01*
X213984520Y-108479732D01*
X213893577Y-108343626D01*
X213893576Y-108343624D01*
X213830934Y-108192394D01*
X213799000Y-108031848D01*
X213799000Y-107868152D01*
X213830934Y-107707606D01*
X213893576Y-107556376D01*
X213893577Y-107556374D01*
X213984520Y-107420268D01*
X214100268Y-107304520D01*
X214236374Y-107213577D01*
X214236376Y-107213576D01*
X214387606Y-107150934D01*
X214548152Y-107119000D01*
X214711848Y-107119000D01*
X214872394Y-107150934D01*
G37*
G36*
X189472394Y-107150934D02*
G01*
X189623624Y-107213576D01*
X189623626Y-107213577D01*
X189759732Y-107304520D01*
X189875480Y-107420268D01*
X189966423Y-107556374D01*
X189966424Y-107556376D01*
X190029066Y-107707606D01*
X190061000Y-107868152D01*
X190061000Y-108031848D01*
X190029066Y-108192394D01*
X189966424Y-108343624D01*
X189966423Y-108343626D01*
X189875480Y-108479732D01*
X189759732Y-108595480D01*
X189623626Y-108686423D01*
X189623625Y-108686424D01*
X189623624Y-108686424D01*
X189472394Y-108749066D01*
X189311848Y-108781000D01*
X189148152Y-108781000D01*
X188987606Y-108749066D01*
X188836376Y-108686424D01*
X188836375Y-108686424D01*
X188836374Y-108686423D01*
X188700268Y-108595480D01*
X188584520Y-108479732D01*
X188493577Y-108343626D01*
X188493576Y-108343624D01*
X188430934Y-108192394D01*
X188399000Y-108031848D01*
X188399000Y-107868152D01*
X188430934Y-107707606D01*
X188493576Y-107556376D01*
X188493577Y-107556374D01*
X188584520Y-107420268D01*
X188700268Y-107304520D01*
X188836374Y-107213577D01*
X188836376Y-107213576D01*
X188987606Y-107150934D01*
X189148152Y-107119000D01*
X189311848Y-107119000D01*
X189472394Y-107150934D01*
G37*
G36*
X185883855Y-107302140D02*
G01*
X185947618Y-107308420D01*
X186038404Y-107335960D01*
X186070336Y-107345646D01*
X186183425Y-107406094D01*
X186282554Y-107487446D01*
X186363906Y-107586575D01*
X186424354Y-107699664D01*
X186424355Y-107699668D01*
X186461580Y-107822382D01*
X186474149Y-107950000D01*
X186461580Y-108077618D01*
X186434040Y-108168404D01*
X186424354Y-108200336D01*
X186363906Y-108313425D01*
X186282554Y-108412554D01*
X186183425Y-108493906D01*
X186070336Y-108554354D01*
X186038404Y-108564040D01*
X185947618Y-108591580D01*
X185883855Y-108597860D01*
X185851974Y-108601000D01*
X184988026Y-108601000D01*
X184956145Y-108597860D01*
X184892382Y-108591580D01*
X184801596Y-108564040D01*
X184769664Y-108554354D01*
X184656575Y-108493906D01*
X184557446Y-108412554D01*
X184476094Y-108313425D01*
X184415646Y-108200336D01*
X184405960Y-108168404D01*
X184378420Y-108077618D01*
X184365851Y-107950000D01*
X184378420Y-107822382D01*
X184415645Y-107699668D01*
X184415646Y-107699664D01*
X184476094Y-107586575D01*
X184557446Y-107487446D01*
X184656575Y-107406094D01*
X184769664Y-107345646D01*
X184801596Y-107335960D01*
X184892382Y-107308420D01*
X184956145Y-107302140D01*
X184988026Y-107299000D01*
X185851974Y-107299000D01*
X185883855Y-107302140D01*
G37*
G36*
X223826564Y-104399389D02*
G01*
X224017833Y-104478615D01*
X224017835Y-104478616D01*
X224189973Y-104593635D01*
X224336365Y-104740027D01*
X224430072Y-104880269D01*
X224451385Y-104912167D01*
X224530611Y-105103436D01*
X224571000Y-105306484D01*
X224571000Y-105513516D01*
X224530611Y-105716564D01*
X224465998Y-105872553D01*
X224451384Y-105907835D01*
X224336365Y-106079973D01*
X224189973Y-106226365D01*
X224017835Y-106341384D01*
X224017834Y-106341385D01*
X224017833Y-106341385D01*
X223826564Y-106420611D01*
X223623516Y-106461000D01*
X223416484Y-106461000D01*
X223213436Y-106420611D01*
X223022167Y-106341385D01*
X223022166Y-106341385D01*
X223022165Y-106341384D01*
X222850027Y-106226365D01*
X222703635Y-106079973D01*
X222588616Y-105907835D01*
X222574002Y-105872553D01*
X222509389Y-105716564D01*
X222469000Y-105513516D01*
X222469000Y-105306484D01*
X222509389Y-105103436D01*
X222588615Y-104912167D01*
X222609929Y-104880269D01*
X222703635Y-104740027D01*
X222850027Y-104593635D01*
X223022165Y-104478616D01*
X223022167Y-104478615D01*
X223213436Y-104399389D01*
X223416484Y-104359000D01*
X223623516Y-104359000D01*
X223826564Y-104399389D01*
G37*
G36*
X226366564Y-104399389D02*
G01*
X226557833Y-104478615D01*
X226557835Y-104478616D01*
X226729973Y-104593635D01*
X226876365Y-104740027D01*
X226970072Y-104880269D01*
X226991385Y-104912167D01*
X227070611Y-105103436D01*
X227111000Y-105306484D01*
X227111000Y-105513516D01*
X227070611Y-105716564D01*
X227005998Y-105872553D01*
X226991384Y-105907835D01*
X226876365Y-106079973D01*
X226729973Y-106226365D01*
X226557835Y-106341384D01*
X226557834Y-106341385D01*
X226557833Y-106341385D01*
X226366564Y-106420611D01*
X226163516Y-106461000D01*
X225956484Y-106461000D01*
X225753436Y-106420611D01*
X225562167Y-106341385D01*
X225562166Y-106341385D01*
X225562165Y-106341384D01*
X225390027Y-106226365D01*
X225243635Y-106079973D01*
X225128616Y-105907835D01*
X225114002Y-105872553D01*
X225049389Y-105716564D01*
X225009000Y-105513516D01*
X225009000Y-105306484D01*
X225049389Y-105103436D01*
X225128615Y-104912167D01*
X225149929Y-104880269D01*
X225243635Y-104740027D01*
X225390027Y-104593635D01*
X225562165Y-104478616D01*
X225562167Y-104478615D01*
X225753436Y-104399389D01*
X225956484Y-104359000D01*
X226163516Y-104359000D01*
X226366564Y-104399389D01*
G37*
G36*
X218746564Y-104399389D02*
G01*
X218937833Y-104478615D01*
X218937835Y-104478616D01*
X219109973Y-104593635D01*
X219256365Y-104740027D01*
X219350072Y-104880269D01*
X219371385Y-104912167D01*
X219450611Y-105103436D01*
X219491000Y-105306484D01*
X219491000Y-105513516D01*
X219450611Y-105716564D01*
X219385998Y-105872553D01*
X219371384Y-105907835D01*
X219256365Y-106079973D01*
X219109973Y-106226365D01*
X218937835Y-106341384D01*
X218937834Y-106341385D01*
X218937833Y-106341385D01*
X218746564Y-106420611D01*
X218543516Y-106461000D01*
X218336484Y-106461000D01*
X218133436Y-106420611D01*
X217942167Y-106341385D01*
X217942166Y-106341385D01*
X217942165Y-106341384D01*
X217770027Y-106226365D01*
X217623635Y-106079973D01*
X217508616Y-105907835D01*
X217494002Y-105872553D01*
X217429389Y-105716564D01*
X217389000Y-105513516D01*
X217389000Y-105306484D01*
X217429389Y-105103436D01*
X217508615Y-104912167D01*
X217529929Y-104880269D01*
X217623635Y-104740027D01*
X217770027Y-104593635D01*
X217942165Y-104478616D01*
X217942167Y-104478615D01*
X218133436Y-104399389D01*
X218336484Y-104359000D01*
X218543516Y-104359000D01*
X218746564Y-104399389D01*
G37*
G36*
X221286564Y-104399389D02*
G01*
X221477833Y-104478615D01*
X221477835Y-104478616D01*
X221649973Y-104593635D01*
X221796365Y-104740027D01*
X221890072Y-104880269D01*
X221911385Y-104912167D01*
X221990611Y-105103436D01*
X222031000Y-105306484D01*
X222031000Y-105513516D01*
X221990611Y-105716564D01*
X221925998Y-105872553D01*
X221911384Y-105907835D01*
X221796365Y-106079973D01*
X221649973Y-106226365D01*
X221477835Y-106341384D01*
X221477834Y-106341385D01*
X221477833Y-106341385D01*
X221286564Y-106420611D01*
X221083516Y-106461000D01*
X220876484Y-106461000D01*
X220673436Y-106420611D01*
X220482167Y-106341385D01*
X220482166Y-106341385D01*
X220482165Y-106341384D01*
X220310027Y-106226365D01*
X220163635Y-106079973D01*
X220048616Y-105907835D01*
X220034002Y-105872553D01*
X219969389Y-105716564D01*
X219929000Y-105513516D01*
X219929000Y-105306484D01*
X219969389Y-105103436D01*
X220048615Y-104912167D01*
X220069929Y-104880269D01*
X220163635Y-104740027D01*
X220310027Y-104593635D01*
X220482165Y-104478616D01*
X220482167Y-104478615D01*
X220673436Y-104399389D01*
X220876484Y-104359000D01*
X221083516Y-104359000D01*
X221286564Y-104399389D01*
G37*
G36*
X228906564Y-104399389D02*
G01*
X229097833Y-104478615D01*
X229097835Y-104478616D01*
X229269973Y-104593635D01*
X229416365Y-104740027D01*
X229510072Y-104880269D01*
X229531385Y-104912167D01*
X229610611Y-105103436D01*
X229651000Y-105306484D01*
X229651000Y-105513516D01*
X229610611Y-105716564D01*
X229545998Y-105872553D01*
X229531384Y-105907835D01*
X229416365Y-106079973D01*
X229269973Y-106226365D01*
X229097835Y-106341384D01*
X229097834Y-106341385D01*
X229097833Y-106341385D01*
X228906564Y-106420611D01*
X228703516Y-106461000D01*
X228496484Y-106461000D01*
X228293436Y-106420611D01*
X228102167Y-106341385D01*
X228102166Y-106341385D01*
X228102165Y-106341384D01*
X227930027Y-106226365D01*
X227783635Y-106079973D01*
X227668616Y-105907835D01*
X227654002Y-105872553D01*
X227589389Y-105716564D01*
X227549000Y-105513516D01*
X227549000Y-105306484D01*
X227589389Y-105103436D01*
X227668615Y-104912167D01*
X227689929Y-104880269D01*
X227783635Y-104740027D01*
X227930027Y-104593635D01*
X228102165Y-104478616D01*
X228102167Y-104478615D01*
X228293436Y-104399389D01*
X228496484Y-104359000D01*
X228703516Y-104359000D01*
X228906564Y-104399389D01*
G37*
G36*
X231446564Y-104399389D02*
G01*
X231637833Y-104478615D01*
X231637835Y-104478616D01*
X231809973Y-104593635D01*
X231956365Y-104740027D01*
X232050072Y-104880269D01*
X232071385Y-104912167D01*
X232150611Y-105103436D01*
X232191000Y-105306484D01*
X232191000Y-105513516D01*
X232150611Y-105716564D01*
X232085998Y-105872553D01*
X232071384Y-105907835D01*
X231956365Y-106079973D01*
X231809973Y-106226365D01*
X231637835Y-106341384D01*
X231637834Y-106341385D01*
X231637833Y-106341385D01*
X231446564Y-106420611D01*
X231243516Y-106461000D01*
X231036484Y-106461000D01*
X230833436Y-106420611D01*
X230642167Y-106341385D01*
X230642166Y-106341385D01*
X230642165Y-106341384D01*
X230470027Y-106226365D01*
X230323635Y-106079973D01*
X230208616Y-105907835D01*
X230194002Y-105872553D01*
X230129389Y-105716564D01*
X230089000Y-105513516D01*
X230089000Y-105306484D01*
X230129389Y-105103436D01*
X230208615Y-104912167D01*
X230229929Y-104880269D01*
X230323635Y-104740027D01*
X230470027Y-104593635D01*
X230642165Y-104478616D01*
X230642167Y-104478615D01*
X230833436Y-104399389D01*
X231036484Y-104359000D01*
X231243516Y-104359000D01*
X231446564Y-104399389D01*
G37*
G36*
X189472394Y-104610934D02*
G01*
X189623624Y-104673576D01*
X189623626Y-104673577D01*
X189759732Y-104764520D01*
X189875480Y-104880268D01*
X189966423Y-105016374D01*
X189966424Y-105016376D01*
X190029066Y-105167606D01*
X190061000Y-105328152D01*
X190061000Y-105491848D01*
X190029066Y-105652394D01*
X189966424Y-105803624D01*
X189966423Y-105803626D01*
X189875480Y-105939732D01*
X189759732Y-106055480D01*
X189623626Y-106146423D01*
X189623625Y-106146424D01*
X189623624Y-106146424D01*
X189472394Y-106209066D01*
X189311848Y-106241000D01*
X189148152Y-106241000D01*
X188987606Y-106209066D01*
X188836376Y-106146424D01*
X188836375Y-106146424D01*
X188836374Y-106146423D01*
X188700268Y-106055480D01*
X188584520Y-105939732D01*
X188493577Y-105803626D01*
X188493576Y-105803624D01*
X188430934Y-105652394D01*
X188399000Y-105491848D01*
X188399000Y-105328152D01*
X188430934Y-105167606D01*
X188493576Y-105016376D01*
X188493577Y-105016374D01*
X188584520Y-104880268D01*
X188700268Y-104764520D01*
X188836374Y-104673577D01*
X188836376Y-104673576D01*
X188987606Y-104610934D01*
X189148152Y-104579000D01*
X189311848Y-104579000D01*
X189472394Y-104610934D01*
G37*
G36*
X214872394Y-104610934D02*
G01*
X215023624Y-104673576D01*
X215023626Y-104673577D01*
X215159732Y-104764520D01*
X215275480Y-104880268D01*
X215366423Y-105016374D01*
X215366424Y-105016376D01*
X215429066Y-105167606D01*
X215461000Y-105328152D01*
X215461000Y-105491848D01*
X215429066Y-105652394D01*
X215366424Y-105803624D01*
X215366423Y-105803626D01*
X215275480Y-105939732D01*
X215159732Y-106055480D01*
X215023626Y-106146423D01*
X215023625Y-106146424D01*
X215023624Y-106146424D01*
X214872394Y-106209066D01*
X214711848Y-106241000D01*
X214548152Y-106241000D01*
X214387606Y-106209066D01*
X214236376Y-106146424D01*
X214236375Y-106146424D01*
X214236374Y-106146423D01*
X214100268Y-106055480D01*
X213984520Y-105939732D01*
X213893577Y-105803626D01*
X213893576Y-105803624D01*
X213830934Y-105652394D01*
X213799000Y-105491848D01*
X213799000Y-105328152D01*
X213830934Y-105167606D01*
X213893576Y-105016376D01*
X213893577Y-105016374D01*
X213984520Y-104880268D01*
X214100268Y-104764520D01*
X214236374Y-104673577D01*
X214236376Y-104673576D01*
X214387606Y-104610934D01*
X214548152Y-104579000D01*
X214711848Y-104579000D01*
X214872394Y-104610934D01*
G37*
G36*
X185883855Y-104762140D02*
G01*
X185947618Y-104768420D01*
X186038404Y-104795960D01*
X186070336Y-104805646D01*
X186183425Y-104866094D01*
X186282554Y-104947446D01*
X186363906Y-105046575D01*
X186424354Y-105159664D01*
X186424355Y-105159668D01*
X186461580Y-105282382D01*
X186474149Y-105410000D01*
X186461580Y-105537618D01*
X186434040Y-105628404D01*
X186424354Y-105660336D01*
X186363906Y-105773425D01*
X186282554Y-105872554D01*
X186183425Y-105953906D01*
X186070336Y-106014354D01*
X186038404Y-106024040D01*
X185947618Y-106051580D01*
X185883855Y-106057860D01*
X185851974Y-106061000D01*
X184988026Y-106061000D01*
X184956145Y-106057860D01*
X184892382Y-106051580D01*
X184801596Y-106024040D01*
X184769664Y-106014354D01*
X184656575Y-105953906D01*
X184557446Y-105872554D01*
X184476094Y-105773425D01*
X184415646Y-105660336D01*
X184405960Y-105628404D01*
X184378420Y-105537618D01*
X184365851Y-105410000D01*
X184378420Y-105282382D01*
X184415645Y-105159668D01*
X184415646Y-105159664D01*
X184476094Y-105046575D01*
X184557446Y-104947446D01*
X184656575Y-104866094D01*
X184769664Y-104805646D01*
X184801596Y-104795960D01*
X184892382Y-104768420D01*
X184956145Y-104762140D01*
X184988026Y-104759000D01*
X185851974Y-104759000D01*
X185883855Y-104762140D01*
G37*
G36*
X218746564Y-101859389D02*
G01*
X218937833Y-101938615D01*
X218937835Y-101938616D01*
X219109973Y-102053635D01*
X219256365Y-102200027D01*
X219350072Y-102340269D01*
X219371385Y-102372167D01*
X219450611Y-102563436D01*
X219491000Y-102766484D01*
X219491000Y-102973516D01*
X219450611Y-103176564D01*
X219385998Y-103332553D01*
X219371384Y-103367835D01*
X219256365Y-103539973D01*
X219109973Y-103686365D01*
X218937835Y-103801384D01*
X218937834Y-103801385D01*
X218937833Y-103801385D01*
X218746564Y-103880611D01*
X218543516Y-103921000D01*
X218336484Y-103921000D01*
X218133436Y-103880611D01*
X217942167Y-103801385D01*
X217942166Y-103801385D01*
X217942165Y-103801384D01*
X217770027Y-103686365D01*
X217623635Y-103539973D01*
X217508616Y-103367835D01*
X217494002Y-103332553D01*
X217429389Y-103176564D01*
X217389000Y-102973516D01*
X217389000Y-102766484D01*
X217429389Y-102563436D01*
X217508615Y-102372167D01*
X217529929Y-102340269D01*
X217623635Y-102200027D01*
X217770027Y-102053635D01*
X217942165Y-101938616D01*
X217942167Y-101938615D01*
X218133436Y-101859389D01*
X218336484Y-101819000D01*
X218543516Y-101819000D01*
X218746564Y-101859389D01*
G37*
G36*
X221286564Y-101859389D02*
G01*
X221477833Y-101938615D01*
X221477835Y-101938616D01*
X221649973Y-102053635D01*
X221796365Y-102200027D01*
X221890072Y-102340269D01*
X221911385Y-102372167D01*
X221990611Y-102563436D01*
X222031000Y-102766484D01*
X222031000Y-102973516D01*
X221990611Y-103176564D01*
X221925998Y-103332553D01*
X221911384Y-103367835D01*
X221796365Y-103539973D01*
X221649973Y-103686365D01*
X221477835Y-103801384D01*
X221477834Y-103801385D01*
X221477833Y-103801385D01*
X221286564Y-103880611D01*
X221083516Y-103921000D01*
X220876484Y-103921000D01*
X220673436Y-103880611D01*
X220482167Y-103801385D01*
X220482166Y-103801385D01*
X220482165Y-103801384D01*
X220310027Y-103686365D01*
X220163635Y-103539973D01*
X220048616Y-103367835D01*
X220034002Y-103332553D01*
X219969389Y-103176564D01*
X219929000Y-102973516D01*
X219929000Y-102766484D01*
X219969389Y-102563436D01*
X220048615Y-102372167D01*
X220069929Y-102340269D01*
X220163635Y-102200027D01*
X220310027Y-102053635D01*
X220482165Y-101938616D01*
X220482167Y-101938615D01*
X220673436Y-101859389D01*
X220876484Y-101819000D01*
X221083516Y-101819000D01*
X221286564Y-101859389D01*
G37*
G36*
X223826564Y-101859389D02*
G01*
X224017833Y-101938615D01*
X224017835Y-101938616D01*
X224189973Y-102053635D01*
X224336365Y-102200027D01*
X224430072Y-102340269D01*
X224451385Y-102372167D01*
X224530611Y-102563436D01*
X224571000Y-102766484D01*
X224571000Y-102973516D01*
X224530611Y-103176564D01*
X224465998Y-103332553D01*
X224451384Y-103367835D01*
X224336365Y-103539973D01*
X224189973Y-103686365D01*
X224017835Y-103801384D01*
X224017834Y-103801385D01*
X224017833Y-103801385D01*
X223826564Y-103880611D01*
X223623516Y-103921000D01*
X223416484Y-103921000D01*
X223213436Y-103880611D01*
X223022167Y-103801385D01*
X223022166Y-103801385D01*
X223022165Y-103801384D01*
X222850027Y-103686365D01*
X222703635Y-103539973D01*
X222588616Y-103367835D01*
X222574002Y-103332553D01*
X222509389Y-103176564D01*
X222469000Y-102973516D01*
X222469000Y-102766484D01*
X222509389Y-102563436D01*
X222588615Y-102372167D01*
X222609929Y-102340269D01*
X222703635Y-102200027D01*
X222850027Y-102053635D01*
X223022165Y-101938616D01*
X223022167Y-101938615D01*
X223213436Y-101859389D01*
X223416484Y-101819000D01*
X223623516Y-101819000D01*
X223826564Y-101859389D01*
G37*
G36*
X228906564Y-101859389D02*
G01*
X229097833Y-101938615D01*
X229097835Y-101938616D01*
X229269973Y-102053635D01*
X229416365Y-102200027D01*
X229510072Y-102340269D01*
X229531385Y-102372167D01*
X229610611Y-102563436D01*
X229651000Y-102766484D01*
X229651000Y-102973516D01*
X229610611Y-103176564D01*
X229545998Y-103332553D01*
X229531384Y-103367835D01*
X229416365Y-103539973D01*
X229269973Y-103686365D01*
X229097835Y-103801384D01*
X229097834Y-103801385D01*
X229097833Y-103801385D01*
X228906564Y-103880611D01*
X228703516Y-103921000D01*
X228496484Y-103921000D01*
X228293436Y-103880611D01*
X228102167Y-103801385D01*
X228102166Y-103801385D01*
X228102165Y-103801384D01*
X227930027Y-103686365D01*
X227783635Y-103539973D01*
X227668616Y-103367835D01*
X227654002Y-103332553D01*
X227589389Y-103176564D01*
X227549000Y-102973516D01*
X227549000Y-102766484D01*
X227589389Y-102563436D01*
X227668615Y-102372167D01*
X227689929Y-102340269D01*
X227783635Y-102200027D01*
X227930027Y-102053635D01*
X228102165Y-101938616D01*
X228102167Y-101938615D01*
X228293436Y-101859389D01*
X228496484Y-101819000D01*
X228703516Y-101819000D01*
X228906564Y-101859389D01*
G37*
G36*
X226366564Y-101859389D02*
G01*
X226557833Y-101938615D01*
X226557835Y-101938616D01*
X226729973Y-102053635D01*
X226876365Y-102200027D01*
X226970072Y-102340269D01*
X226991385Y-102372167D01*
X227070611Y-102563436D01*
X227111000Y-102766484D01*
X227111000Y-102973516D01*
X227070611Y-103176564D01*
X227005998Y-103332553D01*
X226991384Y-103367835D01*
X226876365Y-103539973D01*
X226729973Y-103686365D01*
X226557835Y-103801384D01*
X226557834Y-103801385D01*
X226557833Y-103801385D01*
X226366564Y-103880611D01*
X226163516Y-103921000D01*
X225956484Y-103921000D01*
X225753436Y-103880611D01*
X225562167Y-103801385D01*
X225562166Y-103801385D01*
X225562165Y-103801384D01*
X225390027Y-103686365D01*
X225243635Y-103539973D01*
X225128616Y-103367835D01*
X225114002Y-103332553D01*
X225049389Y-103176564D01*
X225009000Y-102973516D01*
X225009000Y-102766484D01*
X225049389Y-102563436D01*
X225128615Y-102372167D01*
X225149929Y-102340269D01*
X225243635Y-102200027D01*
X225390027Y-102053635D01*
X225562165Y-101938616D01*
X225562167Y-101938615D01*
X225753436Y-101859389D01*
X225956484Y-101819000D01*
X226163516Y-101819000D01*
X226366564Y-101859389D01*
G37*
G36*
X231446564Y-101859389D02*
G01*
X231637833Y-101938615D01*
X231637835Y-101938616D01*
X231809973Y-102053635D01*
X231956365Y-102200027D01*
X232050072Y-102340269D01*
X232071385Y-102372167D01*
X232150611Y-102563436D01*
X232191000Y-102766484D01*
X232191000Y-102973516D01*
X232150611Y-103176564D01*
X232085998Y-103332553D01*
X232071384Y-103367835D01*
X231956365Y-103539973D01*
X231809973Y-103686365D01*
X231637835Y-103801384D01*
X231637834Y-103801385D01*
X231637833Y-103801385D01*
X231446564Y-103880611D01*
X231243516Y-103921000D01*
X231036484Y-103921000D01*
X230833436Y-103880611D01*
X230642167Y-103801385D01*
X230642166Y-103801385D01*
X230642165Y-103801384D01*
X230470027Y-103686365D01*
X230323635Y-103539973D01*
X230208616Y-103367835D01*
X230194002Y-103332553D01*
X230129389Y-103176564D01*
X230089000Y-102973516D01*
X230089000Y-102766484D01*
X230129389Y-102563436D01*
X230208615Y-102372167D01*
X230229929Y-102340269D01*
X230323635Y-102200027D01*
X230470027Y-102053635D01*
X230642165Y-101938616D01*
X230642167Y-101938615D01*
X230833436Y-101859389D01*
X231036484Y-101819000D01*
X231243516Y-101819000D01*
X231446564Y-101859389D01*
G37*
G36*
X214872394Y-102070934D02*
G01*
X215023624Y-102133576D01*
X215023626Y-102133577D01*
X215159732Y-102224520D01*
X215275480Y-102340268D01*
X215366423Y-102476374D01*
X215366424Y-102476376D01*
X215429066Y-102627606D01*
X215461000Y-102788152D01*
X215461000Y-102951848D01*
X215429066Y-103112394D01*
X215371653Y-103251000D01*
X215366423Y-103263626D01*
X215275480Y-103399732D01*
X215159732Y-103515480D01*
X215023626Y-103606423D01*
X215023625Y-103606424D01*
X215023624Y-103606424D01*
X214872394Y-103669066D01*
X214711848Y-103701000D01*
X214548152Y-103701000D01*
X214387606Y-103669066D01*
X214236376Y-103606424D01*
X214236375Y-103606424D01*
X214236374Y-103606423D01*
X214100268Y-103515480D01*
X213984520Y-103399732D01*
X213893577Y-103263626D01*
X213888347Y-103251000D01*
X213830934Y-103112394D01*
X213799000Y-102951848D01*
X213799000Y-102788152D01*
X213830934Y-102627606D01*
X213893576Y-102476376D01*
X213893577Y-102476374D01*
X213984520Y-102340268D01*
X214100268Y-102224520D01*
X214236374Y-102133577D01*
X214236376Y-102133576D01*
X214387606Y-102070934D01*
X214548152Y-102039000D01*
X214711848Y-102039000D01*
X214872394Y-102070934D01*
G37*
G36*
X189472394Y-102070934D02*
G01*
X189623624Y-102133576D01*
X189623626Y-102133577D01*
X189759732Y-102224520D01*
X189875480Y-102340268D01*
X189966423Y-102476374D01*
X189966424Y-102476376D01*
X190029066Y-102627606D01*
X190061000Y-102788152D01*
X190061000Y-102951848D01*
X190029066Y-103112394D01*
X189971653Y-103251000D01*
X189966423Y-103263626D01*
X189875480Y-103399732D01*
X189759732Y-103515480D01*
X189623626Y-103606423D01*
X189623625Y-103606424D01*
X189623624Y-103606424D01*
X189472394Y-103669066D01*
X189311848Y-103701000D01*
X189148152Y-103701000D01*
X188987606Y-103669066D01*
X188836376Y-103606424D01*
X188836375Y-103606424D01*
X188836374Y-103606423D01*
X188700268Y-103515480D01*
X188584520Y-103399732D01*
X188493577Y-103263626D01*
X188488347Y-103251000D01*
X188430934Y-103112394D01*
X188399000Y-102951848D01*
X188399000Y-102788152D01*
X188430934Y-102627606D01*
X188493576Y-102476376D01*
X188493577Y-102476374D01*
X188584520Y-102340268D01*
X188700268Y-102224520D01*
X188836374Y-102133577D01*
X188836376Y-102133576D01*
X188987606Y-102070934D01*
X189148152Y-102039000D01*
X189311848Y-102039000D01*
X189472394Y-102070934D01*
G37*
G36*
X185883855Y-102222140D02*
G01*
X185947618Y-102228420D01*
X186038404Y-102255960D01*
X186070336Y-102265646D01*
X186183425Y-102326094D01*
X186282554Y-102407446D01*
X186363906Y-102506575D01*
X186424354Y-102619664D01*
X186424355Y-102619668D01*
X186461580Y-102742382D01*
X186474149Y-102870000D01*
X186461580Y-102997618D01*
X186441717Y-103063097D01*
X186424354Y-103120336D01*
X186363906Y-103233425D01*
X186282554Y-103332554D01*
X186183425Y-103413906D01*
X186070336Y-103474354D01*
X186038404Y-103484040D01*
X185947618Y-103511580D01*
X185883855Y-103517860D01*
X185851974Y-103521000D01*
X184988026Y-103521000D01*
X184956145Y-103517860D01*
X184892382Y-103511580D01*
X184801596Y-103484040D01*
X184769664Y-103474354D01*
X184656575Y-103413906D01*
X184557446Y-103332554D01*
X184476094Y-103233425D01*
X184415646Y-103120336D01*
X184398283Y-103063097D01*
X184378420Y-102997618D01*
X184365851Y-102870000D01*
X184378420Y-102742382D01*
X184415645Y-102619668D01*
X184415646Y-102619664D01*
X184476094Y-102506575D01*
X184557446Y-102407446D01*
X184656575Y-102326094D01*
X184769664Y-102265646D01*
X184801596Y-102255960D01*
X184892382Y-102228420D01*
X184956145Y-102222140D01*
X184988026Y-102219000D01*
X185851974Y-102219000D01*
X185883855Y-102222140D01*
G37*
G36*
X174365256Y-99991298D02*
G01*
X174471579Y-100012447D01*
X174772042Y-100136903D01*
X175042451Y-100317585D01*
X175272415Y-100547549D01*
X175453097Y-100817958D01*
X175453098Y-100817960D01*
X175489550Y-100905963D01*
X175556015Y-101066423D01*
X175577553Y-101118422D01*
X175641000Y-101437389D01*
X175641000Y-101762611D01*
X175621749Y-101859390D01*
X175577553Y-102081579D01*
X175528490Y-102200027D01*
X175457188Y-102372167D01*
X175453097Y-102382042D01*
X175272415Y-102652451D01*
X175042451Y-102882415D01*
X174772042Y-103063097D01*
X174471579Y-103187553D01*
X174365256Y-103208702D01*
X174152611Y-103251000D01*
X173827389Y-103251000D01*
X173614744Y-103208702D01*
X173508421Y-103187553D01*
X173207958Y-103063097D01*
X172937549Y-102882415D01*
X172707585Y-102652451D01*
X172526903Y-102382042D01*
X172522813Y-102372167D01*
X172451510Y-102200027D01*
X172402447Y-102081579D01*
X172358251Y-101859390D01*
X172339000Y-101762611D01*
X172339000Y-101437389D01*
X172402447Y-101118422D01*
X172423986Y-101066423D01*
X172490450Y-100905963D01*
X172526902Y-100817960D01*
X172526903Y-100817958D01*
X172707585Y-100547549D01*
X172937549Y-100317585D01*
X173207958Y-100136903D01*
X173508421Y-100012447D01*
X173614744Y-99991298D01*
X173827389Y-99949000D01*
X174152611Y-99949000D01*
X174365256Y-99991298D01*
G37*
G36*
X190061000Y-101161000D02*
G01*
X188399000Y-101161000D01*
X188399000Y-99499000D01*
X190061000Y-99499000D01*
X190061000Y-101161000D01*
G37*
G36*
X214872394Y-99530934D02*
G01*
X215023624Y-99593576D01*
X215023626Y-99593577D01*
X215159732Y-99684520D01*
X215275480Y-99800268D01*
X215366423Y-99936374D01*
X215366424Y-99936376D01*
X215429066Y-100087606D01*
X215461000Y-100248152D01*
X215461000Y-100411848D01*
X215429066Y-100572394D01*
X215366424Y-100723624D01*
X215366423Y-100723626D01*
X215275480Y-100859732D01*
X215159732Y-100975480D01*
X215023626Y-101066423D01*
X215023625Y-101066424D01*
X215023624Y-101066424D01*
X214872394Y-101129066D01*
X214711848Y-101161000D01*
X214548152Y-101161000D01*
X214387606Y-101129066D01*
X214236376Y-101066424D01*
X214236375Y-101066424D01*
X214236374Y-101066423D01*
X214100268Y-100975480D01*
X213984520Y-100859732D01*
X213893577Y-100723626D01*
X213893576Y-100723624D01*
X213830934Y-100572394D01*
X213799000Y-100411848D01*
X213799000Y-100248152D01*
X213830934Y-100087606D01*
X213893576Y-99936376D01*
X213893577Y-99936374D01*
X213984520Y-99800268D01*
X214100268Y-99684520D01*
X214236374Y-99593577D01*
X214236376Y-99593576D01*
X214387606Y-99530934D01*
X214548152Y-99499000D01*
X214711848Y-99499000D01*
X214872394Y-99530934D01*
G37*
G36*
X185883855Y-99682140D02*
G01*
X185947618Y-99688420D01*
X186038404Y-99715960D01*
X186070336Y-99725646D01*
X186183425Y-99786094D01*
X186282554Y-99867446D01*
X186363906Y-99966575D01*
X186424354Y-100079664D01*
X186424355Y-100079668D01*
X186461580Y-100202382D01*
X186474149Y-100330000D01*
X186461580Y-100457618D01*
X186434300Y-100547549D01*
X186424354Y-100580336D01*
X186363906Y-100693425D01*
X186282554Y-100792554D01*
X186183425Y-100873906D01*
X186070336Y-100934354D01*
X186038404Y-100944040D01*
X185947618Y-100971580D01*
X185883855Y-100977860D01*
X185851974Y-100981000D01*
X184988026Y-100981000D01*
X184956145Y-100977860D01*
X184892382Y-100971580D01*
X184801596Y-100944040D01*
X184769664Y-100934354D01*
X184656575Y-100873906D01*
X184557446Y-100792554D01*
X184476094Y-100693425D01*
X184415646Y-100580336D01*
X184405700Y-100547549D01*
X184378420Y-100457618D01*
X184365851Y-100330000D01*
X184378420Y-100202382D01*
X184415645Y-100079668D01*
X184415646Y-100079664D01*
X184476094Y-99966575D01*
X184557446Y-99867446D01*
X184656575Y-99786094D01*
X184769664Y-99725646D01*
X184801596Y-99715960D01*
X184892382Y-99688420D01*
X184956145Y-99682140D01*
X184988026Y-99679000D01*
X185851974Y-99679000D01*
X185883855Y-99682140D01*
G37*
G36*
X174296564Y-96779389D02*
G01*
X174487833Y-96858615D01*
X174487835Y-96858616D01*
X174659973Y-96973635D01*
X174806365Y-97120027D01*
X174921385Y-97292167D01*
X175000611Y-97483436D01*
X175041000Y-97686484D01*
X175041000Y-97893516D01*
X175000611Y-98096564D01*
X174921385Y-98287833D01*
X174921384Y-98287835D01*
X174806365Y-98459973D01*
X174659973Y-98606365D01*
X174487835Y-98721384D01*
X174487834Y-98721385D01*
X174487833Y-98721385D01*
X174296564Y-98800611D01*
X174093516Y-98841000D01*
X173886484Y-98841000D01*
X173683436Y-98800611D01*
X173492167Y-98721385D01*
X173492166Y-98721385D01*
X173492165Y-98721384D01*
X173320027Y-98606365D01*
X173173635Y-98459973D01*
X173058616Y-98287835D01*
X173058615Y-98287833D01*
X172979389Y-98096564D01*
X172939000Y-97893516D01*
X172939000Y-97686484D01*
X172979389Y-97483436D01*
X173058615Y-97292167D01*
X173173635Y-97120027D01*
X173320027Y-96973635D01*
X173492165Y-96858616D01*
X173492167Y-96858615D01*
X173683436Y-96779389D01*
X173886484Y-96739000D01*
X174093516Y-96739000D01*
X174296564Y-96779389D01*
G37*
G36*
X183186564Y-96779389D02*
G01*
X183377833Y-96858615D01*
X183377835Y-96858616D01*
X183549973Y-96973635D01*
X183696365Y-97120027D01*
X183811385Y-97292167D01*
X183890611Y-97483436D01*
X183931000Y-97686484D01*
X183931000Y-97893516D01*
X183890611Y-98096564D01*
X183811385Y-98287833D01*
X183811384Y-98287835D01*
X183696365Y-98459973D01*
X183549973Y-98606365D01*
X183377835Y-98721384D01*
X183377834Y-98721385D01*
X183377833Y-98721385D01*
X183186564Y-98800611D01*
X182983516Y-98841000D01*
X182776484Y-98841000D01*
X182573436Y-98800611D01*
X182382167Y-98721385D01*
X182382166Y-98721385D01*
X182382165Y-98721384D01*
X182210027Y-98606365D01*
X182063635Y-98459973D01*
X181948616Y-98287835D01*
X181948615Y-98287833D01*
X181869389Y-98096564D01*
X181829000Y-97893516D01*
X181829000Y-97686484D01*
X181869389Y-97483436D01*
X181948615Y-97292167D01*
X182063635Y-97120027D01*
X182210027Y-96973635D01*
X182382165Y-96858616D01*
X182382167Y-96858615D01*
X182573436Y-96779389D01*
X182776484Y-96739000D01*
X182983516Y-96739000D01*
X183186564Y-96779389D01*
G37*
G36*
X171756564Y-96779389D02*
G01*
X171947833Y-96858615D01*
X171947835Y-96858616D01*
X172119973Y-96973635D01*
X172266365Y-97120027D01*
X172381385Y-97292167D01*
X172460611Y-97483436D01*
X172501000Y-97686484D01*
X172501000Y-97893516D01*
X172460611Y-98096564D01*
X172381385Y-98287833D01*
X172381384Y-98287835D01*
X172266365Y-98459973D01*
X172119973Y-98606365D01*
X171947835Y-98721384D01*
X171947834Y-98721385D01*
X171947833Y-98721385D01*
X171756564Y-98800611D01*
X171553516Y-98841000D01*
X171346484Y-98841000D01*
X171143436Y-98800611D01*
X170952167Y-98721385D01*
X170952166Y-98721385D01*
X170952165Y-98721384D01*
X170780027Y-98606365D01*
X170633635Y-98459973D01*
X170518616Y-98287835D01*
X170518615Y-98287833D01*
X170439389Y-98096564D01*
X170399000Y-97893516D01*
X170399000Y-97686484D01*
X170439389Y-97483436D01*
X170518615Y-97292167D01*
X170633635Y-97120027D01*
X170780027Y-96973635D01*
X170952165Y-96858616D01*
X170952167Y-96858615D01*
X171143436Y-96779389D01*
X171346484Y-96739000D01*
X171553516Y-96739000D01*
X171756564Y-96779389D01*
G37*
G36*
X185726564Y-96779389D02*
G01*
X185917833Y-96858615D01*
X185917835Y-96858616D01*
X186089973Y-96973635D01*
X186236365Y-97120027D01*
X186351385Y-97292167D01*
X186430611Y-97483436D01*
X186471000Y-97686484D01*
X186471000Y-97893516D01*
X186430611Y-98096564D01*
X186351385Y-98287833D01*
X186351384Y-98287835D01*
X186236365Y-98459973D01*
X186089973Y-98606365D01*
X185917835Y-98721384D01*
X185917834Y-98721385D01*
X185917833Y-98721385D01*
X185726564Y-98800611D01*
X185523516Y-98841000D01*
X185316484Y-98841000D01*
X185113436Y-98800611D01*
X184922167Y-98721385D01*
X184922166Y-98721385D01*
X184922165Y-98721384D01*
X184750027Y-98606365D01*
X184603635Y-98459973D01*
X184488616Y-98287835D01*
X184488615Y-98287833D01*
X184409389Y-98096564D01*
X184369000Y-97893516D01*
X184369000Y-97686484D01*
X184409389Y-97483436D01*
X184488615Y-97292167D01*
X184603635Y-97120027D01*
X184750027Y-96973635D01*
X184922165Y-96858616D01*
X184922167Y-96858615D01*
X185113436Y-96779389D01*
X185316484Y-96739000D01*
X185523516Y-96739000D01*
X185726564Y-96779389D01*
G37*
G36*
X172780589Y-90053876D02*
G01*
X172879893Y-90073629D01*
X173020206Y-90131748D01*
X173146484Y-90216125D01*
X173253875Y-90323516D01*
X173338252Y-90449794D01*
X173396371Y-90590107D01*
X173426000Y-90739063D01*
X173426000Y-90890937D01*
X173396371Y-91039893D01*
X173338252Y-91180206D01*
X173253875Y-91306484D01*
X173146484Y-91413875D01*
X173020206Y-91498252D01*
X172879893Y-91556371D01*
X172780589Y-91576124D01*
X172730938Y-91586000D01*
X172579062Y-91586000D01*
X172529411Y-91576124D01*
X172430107Y-91556371D01*
X172289794Y-91498252D01*
X172163516Y-91413875D01*
X172056125Y-91306484D01*
X171971748Y-91180206D01*
X171913629Y-91039893D01*
X171884000Y-90890937D01*
X171884000Y-90739063D01*
X171913629Y-90590107D01*
X171971748Y-90449794D01*
X172056125Y-90323516D01*
X172163516Y-90216125D01*
X172289794Y-90131748D01*
X172430107Y-90073629D01*
X172529411Y-90053876D01*
X172579062Y-90044000D01*
X172730938Y-90044000D01*
X172780589Y-90053876D01*
G37*
G36*
X177860589Y-90053876D02*
G01*
X177959893Y-90073629D01*
X178100206Y-90131748D01*
X178226484Y-90216125D01*
X178333875Y-90323516D01*
X178418252Y-90449794D01*
X178476371Y-90590107D01*
X178506000Y-90739063D01*
X178506000Y-90890937D01*
X178476371Y-91039893D01*
X178418252Y-91180206D01*
X178333875Y-91306484D01*
X178226484Y-91413875D01*
X178100206Y-91498252D01*
X177959893Y-91556371D01*
X177860589Y-91576124D01*
X177810938Y-91586000D01*
X177659062Y-91586000D01*
X177609411Y-91576124D01*
X177510107Y-91556371D01*
X177369794Y-91498252D01*
X177243516Y-91413875D01*
X177136125Y-91306484D01*
X177051748Y-91180206D01*
X176993629Y-91039893D01*
X176964000Y-90890937D01*
X176964000Y-90739063D01*
X176993629Y-90590107D01*
X177051748Y-90449794D01*
X177136125Y-90323516D01*
X177243516Y-90216125D01*
X177369794Y-90131748D01*
X177510107Y-90073629D01*
X177609411Y-90053876D01*
X177659062Y-90044000D01*
X177810938Y-90044000D01*
X177860589Y-90053876D01*
G37*
G36*
X214743512Y-89273927D02*
G01*
X214892812Y-89303624D01*
X215056784Y-89371544D01*
X215204354Y-89470147D01*
X215329853Y-89595646D01*
X215428456Y-89743216D01*
X215496376Y-89907188D01*
X215531000Y-90081259D01*
X215531000Y-90258741D01*
X215496376Y-90432812D01*
X215428456Y-90596784D01*
X215329853Y-90744354D01*
X215204354Y-90869853D01*
X215056784Y-90968456D01*
X214892812Y-91036376D01*
X214743512Y-91066073D01*
X214718742Y-91071000D01*
X214541258Y-91071000D01*
X214516488Y-91066073D01*
X214367188Y-91036376D01*
X214203216Y-90968456D01*
X214055646Y-90869853D01*
X213930147Y-90744354D01*
X213831544Y-90596784D01*
X213763624Y-90432812D01*
X213729000Y-90258741D01*
X213729000Y-90081259D01*
X213763624Y-89907188D01*
X213831544Y-89743216D01*
X213930147Y-89595646D01*
X214055646Y-89470147D01*
X214203216Y-89371544D01*
X214367188Y-89303624D01*
X214516488Y-89273927D01*
X214541258Y-89269000D01*
X214718742Y-89269000D01*
X214743512Y-89273927D01*
G37*
G36*
X185668228Y-88081703D02*
G01*
X185823100Y-88145853D01*
X185962481Y-88238985D01*
X186081015Y-88357519D01*
X186174147Y-88496900D01*
X186238297Y-88651772D01*
X186271000Y-88816184D01*
X186271000Y-88983816D01*
X186238297Y-89148228D01*
X186174147Y-89303100D01*
X186081015Y-89442481D01*
X185962481Y-89561015D01*
X185823100Y-89654147D01*
X185668228Y-89718297D01*
X185503816Y-89751000D01*
X185336184Y-89751000D01*
X185171772Y-89718297D01*
X185016900Y-89654147D01*
X184877519Y-89561015D01*
X184758985Y-89442481D01*
X184665853Y-89303100D01*
X184601703Y-89148228D01*
X184569000Y-88983816D01*
X184569000Y-88816184D01*
X184601703Y-88651772D01*
X184665853Y-88496900D01*
X184758985Y-88357519D01*
X184877519Y-88238985D01*
X185016900Y-88145853D01*
X185171772Y-88081703D01*
X185336184Y-88049000D01*
X185503816Y-88049000D01*
X185668228Y-88081703D01*
G37*
G36*
X175320589Y-87513876D02*
G01*
X175419893Y-87533629D01*
X175560206Y-87591748D01*
X175686484Y-87676125D01*
X175793875Y-87783516D01*
X175878252Y-87909794D01*
X175936371Y-88050107D01*
X175966000Y-88199063D01*
X175966000Y-88350937D01*
X175936371Y-88499893D01*
X175878252Y-88640206D01*
X175793875Y-88766484D01*
X175686484Y-88873875D01*
X175560206Y-88958252D01*
X175419893Y-89016371D01*
X175320589Y-89036124D01*
X175270938Y-89046000D01*
X175119062Y-89046000D01*
X175069411Y-89036124D01*
X174970107Y-89016371D01*
X174829794Y-88958252D01*
X174703516Y-88873875D01*
X174596125Y-88766484D01*
X174511748Y-88640206D01*
X174453629Y-88499893D01*
X174424000Y-88350937D01*
X174424000Y-88199063D01*
X174453629Y-88050107D01*
X174511748Y-87909794D01*
X174596125Y-87783516D01*
X174703516Y-87676125D01*
X174829794Y-87591748D01*
X174970107Y-87533629D01*
X175069411Y-87513876D01*
X175119062Y-87504000D01*
X175270938Y-87504000D01*
X175320589Y-87513876D01*
G37*
G36*
X221286564Y-86619389D02*
G01*
X221477833Y-86698615D01*
X221477835Y-86698616D01*
X221649973Y-86813635D01*
X221796365Y-86960027D01*
X221911385Y-87132167D01*
X221990611Y-87323436D01*
X222031000Y-87526484D01*
X222031000Y-87733516D01*
X221990611Y-87936564D01*
X221930492Y-88081705D01*
X221911384Y-88127835D01*
X221796365Y-88299973D01*
X221649973Y-88446365D01*
X221477835Y-88561384D01*
X221477834Y-88561385D01*
X221477833Y-88561385D01*
X221286564Y-88640611D01*
X221083516Y-88681000D01*
X220876484Y-88681000D01*
X220673436Y-88640611D01*
X220482167Y-88561385D01*
X220482166Y-88561385D01*
X220482165Y-88561384D01*
X220310027Y-88446365D01*
X220163635Y-88299973D01*
X220048616Y-88127835D01*
X220029508Y-88081705D01*
X219969389Y-87936564D01*
X219929000Y-87733516D01*
X219929000Y-87526484D01*
X219969389Y-87323436D01*
X220048615Y-87132167D01*
X220163635Y-86960027D01*
X220310027Y-86813635D01*
X220482165Y-86698616D01*
X220482167Y-86698615D01*
X220673436Y-86619389D01*
X220876484Y-86579000D01*
X221083516Y-86579000D01*
X221286564Y-86619389D01*
G37*
G36*
X223826564Y-86619389D02*
G01*
X224017833Y-86698615D01*
X224017835Y-86698616D01*
X224189973Y-86813635D01*
X224336365Y-86960027D01*
X224451385Y-87132167D01*
X224530611Y-87323436D01*
X224571000Y-87526484D01*
X224571000Y-87733516D01*
X224530611Y-87936564D01*
X224470492Y-88081705D01*
X224451384Y-88127835D01*
X224336365Y-88299973D01*
X224189973Y-88446365D01*
X224017835Y-88561384D01*
X224017834Y-88561385D01*
X224017833Y-88561385D01*
X223826564Y-88640611D01*
X223623516Y-88681000D01*
X223416484Y-88681000D01*
X223213436Y-88640611D01*
X223022167Y-88561385D01*
X223022166Y-88561385D01*
X223022165Y-88561384D01*
X222850027Y-88446365D01*
X222703635Y-88299973D01*
X222588616Y-88127835D01*
X222569508Y-88081705D01*
X222509389Y-87936564D01*
X222469000Y-87733516D01*
X222469000Y-87526484D01*
X222509389Y-87323436D01*
X222588615Y-87132167D01*
X222703635Y-86960027D01*
X222850027Y-86813635D01*
X223022165Y-86698616D01*
X223022167Y-86698615D01*
X223213436Y-86619389D01*
X223416484Y-86579000D01*
X223623516Y-86579000D01*
X223826564Y-86619389D01*
G37*
G36*
X228906564Y-86619389D02*
G01*
X229097833Y-86698615D01*
X229097835Y-86698616D01*
X229269973Y-86813635D01*
X229416365Y-86960027D01*
X229531385Y-87132167D01*
X229610611Y-87323436D01*
X229651000Y-87526484D01*
X229651000Y-87733516D01*
X229610611Y-87936564D01*
X229550492Y-88081705D01*
X229531384Y-88127835D01*
X229416365Y-88299973D01*
X229269973Y-88446365D01*
X229097835Y-88561384D01*
X229097834Y-88561385D01*
X229097833Y-88561385D01*
X228906564Y-88640611D01*
X228703516Y-88681000D01*
X228496484Y-88681000D01*
X228293436Y-88640611D01*
X228102167Y-88561385D01*
X228102166Y-88561385D01*
X228102165Y-88561384D01*
X227930027Y-88446365D01*
X227783635Y-88299973D01*
X227668616Y-88127835D01*
X227649508Y-88081705D01*
X227589389Y-87936564D01*
X227549000Y-87733516D01*
X227549000Y-87526484D01*
X227589389Y-87323436D01*
X227668615Y-87132167D01*
X227783635Y-86960027D01*
X227930027Y-86813635D01*
X228102165Y-86698616D01*
X228102167Y-86698615D01*
X228293436Y-86619389D01*
X228496484Y-86579000D01*
X228703516Y-86579000D01*
X228906564Y-86619389D01*
G37*
G36*
X218746564Y-86619389D02*
G01*
X218937833Y-86698615D01*
X218937835Y-86698616D01*
X219109973Y-86813635D01*
X219256365Y-86960027D01*
X219371385Y-87132167D01*
X219450611Y-87323436D01*
X219491000Y-87526484D01*
X219491000Y-87733516D01*
X219450611Y-87936564D01*
X219390492Y-88081705D01*
X219371384Y-88127835D01*
X219256365Y-88299973D01*
X219109973Y-88446365D01*
X218937835Y-88561384D01*
X218937834Y-88561385D01*
X218937833Y-88561385D01*
X218746564Y-88640611D01*
X218543516Y-88681000D01*
X218336484Y-88681000D01*
X218133436Y-88640611D01*
X217942167Y-88561385D01*
X217942166Y-88561385D01*
X217942165Y-88561384D01*
X217770027Y-88446365D01*
X217623635Y-88299973D01*
X217508616Y-88127835D01*
X217489508Y-88081705D01*
X217429389Y-87936564D01*
X217389000Y-87733516D01*
X217389000Y-87526484D01*
X217429389Y-87323436D01*
X217508615Y-87132167D01*
X217623635Y-86960027D01*
X217770027Y-86813635D01*
X217942165Y-86698616D01*
X217942167Y-86698615D01*
X218133436Y-86619389D01*
X218336484Y-86579000D01*
X218543516Y-86579000D01*
X218746564Y-86619389D01*
G37*
G36*
X231446564Y-86619389D02*
G01*
X231637833Y-86698615D01*
X231637835Y-86698616D01*
X231809973Y-86813635D01*
X231956365Y-86960027D01*
X232071385Y-87132167D01*
X232150611Y-87323436D01*
X232191000Y-87526484D01*
X232191000Y-87733516D01*
X232150611Y-87936564D01*
X232090492Y-88081705D01*
X232071384Y-88127835D01*
X231956365Y-88299973D01*
X231809973Y-88446365D01*
X231637835Y-88561384D01*
X231637834Y-88561385D01*
X231637833Y-88561385D01*
X231446564Y-88640611D01*
X231243516Y-88681000D01*
X231036484Y-88681000D01*
X230833436Y-88640611D01*
X230642167Y-88561385D01*
X230642166Y-88561385D01*
X230642165Y-88561384D01*
X230470027Y-88446365D01*
X230323635Y-88299973D01*
X230208616Y-88127835D01*
X230189508Y-88081705D01*
X230129389Y-87936564D01*
X230089000Y-87733516D01*
X230089000Y-87526484D01*
X230129389Y-87323436D01*
X230208615Y-87132167D01*
X230323635Y-86960027D01*
X230470027Y-86813635D01*
X230642165Y-86698616D01*
X230642167Y-86698615D01*
X230833436Y-86619389D01*
X231036484Y-86579000D01*
X231243516Y-86579000D01*
X231446564Y-86619389D01*
G37*
G36*
X226366564Y-86619389D02*
G01*
X226557833Y-86698615D01*
X226557835Y-86698616D01*
X226729973Y-86813635D01*
X226876365Y-86960027D01*
X226991385Y-87132167D01*
X227070611Y-87323436D01*
X227111000Y-87526484D01*
X227111000Y-87733516D01*
X227070611Y-87936564D01*
X227010492Y-88081705D01*
X226991384Y-88127835D01*
X226876365Y-88299973D01*
X226729973Y-88446365D01*
X226557835Y-88561384D01*
X226557834Y-88561385D01*
X226557833Y-88561385D01*
X226366564Y-88640611D01*
X226163516Y-88681000D01*
X225956484Y-88681000D01*
X225753436Y-88640611D01*
X225562167Y-88561385D01*
X225562166Y-88561385D01*
X225562165Y-88561384D01*
X225390027Y-88446365D01*
X225243635Y-88299973D01*
X225128616Y-88127835D01*
X225109508Y-88081705D01*
X225049389Y-87936564D01*
X225009000Y-87733516D01*
X225009000Y-87526484D01*
X225049389Y-87323436D01*
X225128615Y-87132167D01*
X225243635Y-86960027D01*
X225390027Y-86813635D01*
X225562165Y-86698616D01*
X225562167Y-86698615D01*
X225753436Y-86619389D01*
X225956484Y-86579000D01*
X226163516Y-86579000D01*
X226366564Y-86619389D01*
G37*
G36*
X215531000Y-88531000D02*
G01*
X213729000Y-88531000D01*
X213729000Y-86729000D01*
X215531000Y-86729000D01*
X215531000Y-88531000D01*
G37*
G36*
X186271000Y-86251000D02*
G01*
X184569000Y-86251000D01*
X184569000Y-84549000D01*
X186271000Y-84549000D01*
X186271000Y-86251000D01*
G37*
G36*
X174365256Y-82211298D02*
G01*
X174471579Y-82232447D01*
X174772042Y-82356903D01*
X175042451Y-82537585D01*
X175272415Y-82767549D01*
X175453097Y-83037958D01*
X175570820Y-83322165D01*
X175577553Y-83338422D01*
X175641000Y-83657389D01*
X175641000Y-83982611D01*
X175606093Y-84158097D01*
X175577553Y-84301579D01*
X175453097Y-84602042D01*
X175272415Y-84872451D01*
X175042451Y-85102415D01*
X174772042Y-85283097D01*
X174471579Y-85407553D01*
X174365256Y-85428702D01*
X174152611Y-85471000D01*
X173827389Y-85471000D01*
X173614744Y-85428702D01*
X173508421Y-85407553D01*
X173207958Y-85283097D01*
X172937549Y-85102415D01*
X172707585Y-84872451D01*
X172526903Y-84602042D01*
X172402447Y-84301579D01*
X172373907Y-84158097D01*
X172339000Y-83982611D01*
X172339000Y-83657389D01*
X172402447Y-83338422D01*
X172409181Y-83322165D01*
X172526903Y-83037958D01*
X172707585Y-82767549D01*
X172937549Y-82537585D01*
X173207958Y-82356903D01*
X173508421Y-82232447D01*
X173614744Y-82211298D01*
X173827389Y-82169000D01*
X174152611Y-82169000D01*
X174365256Y-82211298D01*
G37*
G36*
X230245256Y-82211298D02*
G01*
X230351579Y-82232447D01*
X230652042Y-82356903D01*
X230922451Y-82537585D01*
X231152415Y-82767549D01*
X231333097Y-83037958D01*
X231450820Y-83322165D01*
X231457553Y-83338422D01*
X231521000Y-83657389D01*
X231521000Y-83982611D01*
X231486093Y-84158097D01*
X231457553Y-84301579D01*
X231333097Y-84602042D01*
X231152415Y-84872451D01*
X230922451Y-85102415D01*
X230652042Y-85283097D01*
X230351579Y-85407553D01*
X230245256Y-85428702D01*
X230032611Y-85471000D01*
X229707389Y-85471000D01*
X229494744Y-85428702D01*
X229388421Y-85407553D01*
X229087958Y-85283097D01*
X228817549Y-85102415D01*
X228587585Y-84872451D01*
X228406903Y-84602042D01*
X228282447Y-84301579D01*
X228253907Y-84158097D01*
X228219000Y-83982611D01*
X228219000Y-83657389D01*
X228282447Y-83338422D01*
X228289181Y-83322165D01*
X228406903Y-83037958D01*
X228587585Y-82767549D01*
X228817549Y-82537585D01*
X229087958Y-82356903D01*
X229388421Y-82232447D01*
X229494744Y-82211298D01*
X229707389Y-82169000D01*
X230032611Y-82169000D01*
X230245256Y-82211298D01*
G37*
G36*
X179376564Y-82809389D02*
G01*
X179567833Y-82888615D01*
X179567835Y-82888616D01*
X179739973Y-83003635D01*
X179886365Y-83150027D01*
X180001385Y-83322167D01*
X180080611Y-83513436D01*
X180121000Y-83716484D01*
X180121000Y-83923516D01*
X180080611Y-84126564D01*
X180001385Y-84317833D01*
X180001384Y-84317835D01*
X179886365Y-84489973D01*
X179739973Y-84636365D01*
X179567835Y-84751384D01*
X179567834Y-84751385D01*
X179567833Y-84751385D01*
X179376564Y-84830611D01*
X179173516Y-84871000D01*
X178966484Y-84871000D01*
X178763436Y-84830611D01*
X178572167Y-84751385D01*
X178572166Y-84751385D01*
X178572165Y-84751384D01*
X178400027Y-84636365D01*
X178253635Y-84489973D01*
X178138616Y-84317835D01*
X178138615Y-84317833D01*
X178059389Y-84126564D01*
X178019000Y-83923516D01*
X178019000Y-83716484D01*
X178059389Y-83513436D01*
X178138615Y-83322167D01*
X178253635Y-83150027D01*
X178400027Y-83003635D01*
X178572165Y-82888616D01*
X178572167Y-82888615D01*
X178763436Y-82809389D01*
X178966484Y-82769000D01*
X179173516Y-82769000D01*
X179376564Y-82809389D01*
G37*
G36*
X225096564Y-82809389D02*
G01*
X225287833Y-82888615D01*
X225287835Y-82888616D01*
X225459973Y-83003635D01*
X225606365Y-83150027D01*
X225721385Y-83322167D01*
X225800611Y-83513436D01*
X225841000Y-83716484D01*
X225841000Y-83923516D01*
X225800611Y-84126564D01*
X225721385Y-84317833D01*
X225721384Y-84317835D01*
X225606365Y-84489973D01*
X225459973Y-84636365D01*
X225287835Y-84751384D01*
X225287834Y-84751385D01*
X225287833Y-84751385D01*
X225096564Y-84830611D01*
X224893516Y-84871000D01*
X224686484Y-84871000D01*
X224483436Y-84830611D01*
X224292167Y-84751385D01*
X224292166Y-84751385D01*
X224292165Y-84751384D01*
X224120027Y-84636365D01*
X223973635Y-84489973D01*
X223858616Y-84317835D01*
X223858615Y-84317833D01*
X223779389Y-84126564D01*
X223739000Y-83923516D01*
X223739000Y-83716484D01*
X223779389Y-83513436D01*
X223858615Y-83322167D01*
X223973635Y-83150027D01*
X224120027Y-83003635D01*
X224292165Y-82888616D01*
X224292167Y-82888615D01*
X224483436Y-82809389D01*
X224686484Y-82769000D01*
X224893516Y-82769000D01*
X225096564Y-82809389D01*
G37*
G36*
X202305256Y-81086298D02*
G01*
X202411579Y-81107447D01*
X202712042Y-81231903D01*
X202982451Y-81412585D01*
X203212415Y-81642549D01*
X203393097Y-81912958D01*
X203517553Y-82213421D01*
X203538702Y-82319744D01*
X203581000Y-82532389D01*
X203581000Y-82857611D01*
X203551954Y-83003635D01*
X203517553Y-83176579D01*
X203393097Y-83477042D01*
X203212415Y-83747451D01*
X202982451Y-83977415D01*
X202712042Y-84158097D01*
X202411579Y-84282553D01*
X202315934Y-84301578D01*
X202092611Y-84346000D01*
X201767389Y-84346000D01*
X201544066Y-84301578D01*
X201448421Y-84282553D01*
X201147958Y-84158097D01*
X200877549Y-83977415D01*
X200647585Y-83747451D01*
X200466903Y-83477042D01*
X200342447Y-83176579D01*
X200308046Y-83003635D01*
X200279000Y-82857611D01*
X200279000Y-82532389D01*
X200321298Y-82319744D01*
X200342447Y-82213421D01*
X200466903Y-81912958D01*
X200647585Y-81642549D01*
X200877549Y-81412585D01*
X201147958Y-81231903D01*
X201448421Y-81107447D01*
X201554744Y-81086298D01*
X201767389Y-81044000D01*
X202092611Y-81044000D01*
X202305256Y-81086298D01*
G37*
G36*
X225165256Y-77766298D02*
G01*
X225271579Y-77787447D01*
X225572042Y-77911903D01*
X225842451Y-78092585D01*
X226072415Y-78322549D01*
X226253097Y-78592958D01*
X226377553Y-78893421D01*
X226441000Y-79212391D01*
X226441000Y-79537609D01*
X226377553Y-79856579D01*
X226253097Y-80157042D01*
X226072415Y-80427451D01*
X225842451Y-80657415D01*
X225572042Y-80838097D01*
X225271579Y-80962553D01*
X225165256Y-80983702D01*
X224952611Y-81026000D01*
X224627389Y-81026000D01*
X224414744Y-80983702D01*
X224308421Y-80962553D01*
X224007958Y-80838097D01*
X223737549Y-80657415D01*
X223507585Y-80427451D01*
X223326903Y-80157042D01*
X223202447Y-79856579D01*
X223139000Y-79537609D01*
X223139000Y-79212391D01*
X223202447Y-78893421D01*
X223326903Y-78592958D01*
X223507585Y-78322549D01*
X223737549Y-78092585D01*
X224007958Y-77911903D01*
X224308421Y-77787447D01*
X224414744Y-77766298D01*
X224627389Y-77724000D01*
X224952611Y-77724000D01*
X225165256Y-77766298D01*
G37*
G36*
X179445256Y-77766298D02*
G01*
X179551579Y-77787447D01*
X179852042Y-77911903D01*
X180122451Y-78092585D01*
X180352415Y-78322549D01*
X180533097Y-78592958D01*
X180657553Y-78893421D01*
X180721000Y-79212391D01*
X180721000Y-79537609D01*
X180657553Y-79856579D01*
X180533097Y-80157042D01*
X180352415Y-80427451D01*
X180122451Y-80657415D01*
X179852042Y-80838097D01*
X179551579Y-80962553D01*
X179445256Y-80983702D01*
X179232611Y-81026000D01*
X178907389Y-81026000D01*
X178694744Y-80983702D01*
X178588421Y-80962553D01*
X178287958Y-80838097D01*
X178017549Y-80657415D01*
X177787585Y-80427451D01*
X177606903Y-80157042D01*
X177482447Y-79856579D01*
X177419000Y-79537609D01*
X177419000Y-79212391D01*
X177482447Y-78893421D01*
X177606903Y-78592958D01*
X177787585Y-78322549D01*
X178017549Y-78092585D01*
X178287958Y-77911903D01*
X178588421Y-77787447D01*
X178694744Y-77766298D01*
X178907389Y-77724000D01*
X179232611Y-77724000D01*
X179445256Y-77766298D01*
G37*
G36*
X203731000Y-75851000D02*
G01*
X200129000Y-75851000D01*
X200129000Y-72249000D01*
X203731000Y-72249000D01*
X203731000Y-75851000D01*
G37*
G36*
X179516392Y-72813042D02*
G01*
X179549951Y-72823223D01*
X179580884Y-72839757D01*
X179607995Y-72862005D01*
X179630243Y-72889116D01*
X179646777Y-72920049D01*
X179656958Y-72953608D01*
X179661000Y-72994652D01*
X179661000Y-74325348D01*
X179656958Y-74366392D01*
X179646777Y-74399951D01*
X179630243Y-74430884D01*
X179607995Y-74457995D01*
X179580884Y-74480243D01*
X179549951Y-74496777D01*
X179516392Y-74506958D01*
X179475348Y-74511000D01*
X178144652Y-74511000D01*
X178103608Y-74506958D01*
X178070049Y-74496777D01*
X178039116Y-74480243D01*
X178012005Y-74457995D01*
X177989757Y-74430884D01*
X177973223Y-74399951D01*
X177963042Y-74366392D01*
X177959000Y-74325348D01*
X177959000Y-72994652D01*
X177963042Y-72953608D01*
X177973223Y-72920049D01*
X177989757Y-72889116D01*
X178012005Y-72862005D01*
X178039116Y-72839757D01*
X178070049Y-72823223D01*
X178103608Y-72813042D01*
X178144652Y-72809000D01*
X179475348Y-72809000D01*
X179516392Y-72813042D01*
G37*
G36*
X181858228Y-72841703D02*
G01*
X182013100Y-72905853D01*
X182152481Y-72998985D01*
X182271015Y-73117519D01*
X182364147Y-73256900D01*
X182428297Y-73411772D01*
X182461000Y-73576184D01*
X182461000Y-73743816D01*
X182428297Y-73908228D01*
X182364147Y-74063100D01*
X182271015Y-74202481D01*
X182152481Y-74321015D01*
X182013100Y-74414147D01*
X181858228Y-74478297D01*
X181693816Y-74511000D01*
X181526184Y-74511000D01*
X181361772Y-74478297D01*
X181206900Y-74414147D01*
X181067519Y-74321015D01*
X180948985Y-74202481D01*
X180855853Y-74063100D01*
X180791703Y-73908228D01*
X180759000Y-73743816D01*
X180759000Y-73576184D01*
X180791703Y-73411772D01*
X180855853Y-73256900D01*
X180948985Y-73117519D01*
X181067519Y-72998985D01*
X181206900Y-72905853D01*
X181361772Y-72841703D01*
X181526184Y-72809000D01*
X181693816Y-72809000D01*
X181858228Y-72841703D01*
G37*
G36*
X222696392Y-72813042D02*
G01*
X222729951Y-72823223D01*
X222760884Y-72839757D01*
X222787995Y-72862005D01*
X222810243Y-72889116D01*
X222826777Y-72920049D01*
X222836958Y-72953608D01*
X222841000Y-72994652D01*
X222841000Y-74325348D01*
X222836958Y-74366392D01*
X222826777Y-74399951D01*
X222810243Y-74430884D01*
X222787995Y-74457995D01*
X222760884Y-74480243D01*
X222729951Y-74496777D01*
X222696392Y-74506958D01*
X222655348Y-74511000D01*
X221324652Y-74511000D01*
X221283608Y-74506958D01*
X221250049Y-74496777D01*
X221219116Y-74480243D01*
X221192005Y-74457995D01*
X221169757Y-74430884D01*
X221153223Y-74399951D01*
X221143042Y-74366392D01*
X221139000Y-74325348D01*
X221139000Y-72994652D01*
X221143042Y-72953608D01*
X221153223Y-72920049D01*
X221169757Y-72889116D01*
X221192005Y-72862005D01*
X221219116Y-72839757D01*
X221250049Y-72823223D01*
X221283608Y-72813042D01*
X221324652Y-72809000D01*
X222655348Y-72809000D01*
X222696392Y-72813042D01*
G37*
G36*
X225038228Y-72841703D02*
G01*
X225193100Y-72905853D01*
X225332481Y-72998985D01*
X225451015Y-73117519D01*
X225544147Y-73256900D01*
X225608297Y-73411772D01*
X225641000Y-73576184D01*
X225641000Y-73743816D01*
X225608297Y-73908228D01*
X225544147Y-74063100D01*
X225451015Y-74202481D01*
X225332481Y-74321015D01*
X225193100Y-74414147D01*
X225038228Y-74478297D01*
X224873816Y-74511000D01*
X224706184Y-74511000D01*
X224541772Y-74478297D01*
X224386900Y-74414147D01*
X224247519Y-74321015D01*
X224128985Y-74202481D01*
X224035853Y-74063100D01*
X223971703Y-73908228D01*
X223939000Y-73743816D01*
X223939000Y-73576184D01*
X223971703Y-73411772D01*
X224035853Y-73256900D01*
X224128985Y-73117519D01*
X224247519Y-72998985D01*
X224386900Y-72905853D01*
X224541772Y-72841703D01*
X224706184Y-72809000D01*
X224873816Y-72809000D01*
X225038228Y-72841703D01*
G37*
G36*
X222238228Y-70301703D02*
G01*
X222393100Y-70365853D01*
X222532481Y-70458985D01*
X222651015Y-70577519D01*
X222744147Y-70716900D01*
X222808297Y-70871772D01*
X222841000Y-71036184D01*
X222841000Y-71203816D01*
X222808297Y-71368228D01*
X222744147Y-71523100D01*
X222651015Y-71662481D01*
X222532481Y-71781015D01*
X222393100Y-71874147D01*
X222238228Y-71938297D01*
X222073816Y-71971000D01*
X221906184Y-71971000D01*
X221741772Y-71938297D01*
X221586900Y-71874147D01*
X221447519Y-71781015D01*
X221328985Y-71662481D01*
X221235853Y-71523100D01*
X221171703Y-71368228D01*
X221139000Y-71203816D01*
X221139000Y-71036184D01*
X221171703Y-70871772D01*
X221235853Y-70716900D01*
X221328985Y-70577519D01*
X221447519Y-70458985D01*
X221586900Y-70365853D01*
X221741772Y-70301703D01*
X221906184Y-70269000D01*
X222073816Y-70269000D01*
X222238228Y-70301703D01*
G37*
G36*
X181858228Y-70301703D02*
G01*
X182013100Y-70365853D01*
X182152481Y-70458985D01*
X182271015Y-70577519D01*
X182364147Y-70716900D01*
X182428297Y-70871772D01*
X182461000Y-71036184D01*
X182461000Y-71203816D01*
X182428297Y-71368228D01*
X182364147Y-71523100D01*
X182271015Y-71662481D01*
X182152481Y-71781015D01*
X182013100Y-71874147D01*
X181858228Y-71938297D01*
X181693816Y-71971000D01*
X181526184Y-71971000D01*
X181361772Y-71938297D01*
X181206900Y-71874147D01*
X181067519Y-71781015D01*
X180948985Y-71662481D01*
X180855853Y-71523100D01*
X180791703Y-71368228D01*
X180759000Y-71203816D01*
X180759000Y-71036184D01*
X180791703Y-70871772D01*
X180855853Y-70716900D01*
X180948985Y-70577519D01*
X181067519Y-70458985D01*
X181206900Y-70365853D01*
X181361772Y-70301703D01*
X181526184Y-70269000D01*
X181693816Y-70269000D01*
X181858228Y-70301703D01*
G37*
G36*
X179058228Y-70301703D02*
G01*
X179213100Y-70365853D01*
X179352481Y-70458985D01*
X179471015Y-70577519D01*
X179564147Y-70716900D01*
X179628297Y-70871772D01*
X179661000Y-71036184D01*
X179661000Y-71203816D01*
X179628297Y-71368228D01*
X179564147Y-71523100D01*
X179471015Y-71662481D01*
X179352481Y-71781015D01*
X179213100Y-71874147D01*
X179058228Y-71938297D01*
X178893816Y-71971000D01*
X178726184Y-71971000D01*
X178561772Y-71938297D01*
X178406900Y-71874147D01*
X178267519Y-71781015D01*
X178148985Y-71662481D01*
X178055853Y-71523100D01*
X177991703Y-71368228D01*
X177959000Y-71203816D01*
X177959000Y-71036184D01*
X177991703Y-70871772D01*
X178055853Y-70716900D01*
X178148985Y-70577519D01*
X178267519Y-70458985D01*
X178406900Y-70365853D01*
X178561772Y-70301703D01*
X178726184Y-70269000D01*
X178893816Y-70269000D01*
X179058228Y-70301703D01*
G37*
G36*
X225038228Y-70301703D02*
G01*
X225193100Y-70365853D01*
X225332481Y-70458985D01*
X225451015Y-70577519D01*
X225544147Y-70716900D01*
X225608297Y-70871772D01*
X225641000Y-71036184D01*
X225641000Y-71203816D01*
X225608297Y-71368228D01*
X225544147Y-71523100D01*
X225451015Y-71662481D01*
X225332481Y-71781015D01*
X225193100Y-71874147D01*
X225038228Y-71938297D01*
X224873816Y-71971000D01*
X224706184Y-71971000D01*
X224541772Y-71938297D01*
X224386900Y-71874147D01*
X224247519Y-71781015D01*
X224128985Y-71662481D01*
X224035853Y-71523100D01*
X223971703Y-71368228D01*
X223939000Y-71203816D01*
X223939000Y-71036184D01*
X223971703Y-70871772D01*
X224035853Y-70716900D01*
X224128985Y-70577519D01*
X224247519Y-70458985D01*
X224386900Y-70365853D01*
X224541772Y-70301703D01*
X224706184Y-70269000D01*
X224873816Y-70269000D01*
X225038228Y-70301703D01*
G37*
G36*
X203506564Y-68259389D02*
G01*
X203688712Y-68334837D01*
X203697835Y-68338616D01*
X203740343Y-68367019D01*
X203869973Y-68453635D01*
X204016365Y-68600027D01*
X204131385Y-68772167D01*
X204210611Y-68963436D01*
X204251000Y-69166484D01*
X204251000Y-69373516D01*
X204210611Y-69576564D01*
X204149801Y-69723373D01*
X204131384Y-69767835D01*
X204016365Y-69939973D01*
X203869973Y-70086365D01*
X203697835Y-70201384D01*
X203697834Y-70201385D01*
X203697833Y-70201385D01*
X203506564Y-70280611D01*
X203303516Y-70321000D01*
X203096484Y-70321000D01*
X202893436Y-70280611D01*
X202702167Y-70201385D01*
X202702166Y-70201385D01*
X202702165Y-70201384D01*
X202530027Y-70086365D01*
X202383635Y-69939973D01*
X202268616Y-69767835D01*
X202250199Y-69723373D01*
X202189389Y-69576564D01*
X202149000Y-69373516D01*
X202149000Y-69166484D01*
X202189389Y-68963436D01*
X202268615Y-68772167D01*
X202383635Y-68600027D01*
X202530027Y-68453635D01*
X202659657Y-68367019D01*
X202702165Y-68338616D01*
X202711288Y-68334837D01*
X202893436Y-68259389D01*
X203096484Y-68219000D01*
X203303516Y-68219000D01*
X203506564Y-68259389D01*
G37*
G36*
X200966564Y-68259389D02*
G01*
X201148712Y-68334837D01*
X201157835Y-68338616D01*
X201200343Y-68367019D01*
X201329973Y-68453635D01*
X201476365Y-68600027D01*
X201591385Y-68772167D01*
X201670611Y-68963436D01*
X201711000Y-69166484D01*
X201711000Y-69373516D01*
X201670611Y-69576564D01*
X201609801Y-69723373D01*
X201591384Y-69767835D01*
X201476365Y-69939973D01*
X201329973Y-70086365D01*
X201157835Y-70201384D01*
X201157834Y-70201385D01*
X201157833Y-70201385D01*
X200966564Y-70280611D01*
X200763516Y-70321000D01*
X200556484Y-70321000D01*
X200353436Y-70280611D01*
X200162167Y-70201385D01*
X200162166Y-70201385D01*
X200162165Y-70201384D01*
X199990027Y-70086365D01*
X199843635Y-69939973D01*
X199728616Y-69767835D01*
X199710199Y-69723373D01*
X199649389Y-69576564D01*
X199609000Y-69373516D01*
X199609000Y-69166484D01*
X199649389Y-68963436D01*
X199728615Y-68772167D01*
X199843635Y-68600027D01*
X199990027Y-68453635D01*
X200119657Y-68367019D01*
X200162165Y-68338616D01*
X200171288Y-68334837D01*
X200353436Y-68259389D01*
X200556484Y-68219000D01*
X200763516Y-68219000D01*
X200966564Y-68259389D01*
G37*
G36*
X194466564Y-68259389D02*
G01*
X194648712Y-68334837D01*
X194657835Y-68338616D01*
X194700343Y-68367019D01*
X194829973Y-68453635D01*
X194976365Y-68600027D01*
X195091385Y-68772167D01*
X195170611Y-68963436D01*
X195211000Y-69166484D01*
X195211000Y-69373516D01*
X195170611Y-69576564D01*
X195109801Y-69723373D01*
X195091384Y-69767835D01*
X194976365Y-69939973D01*
X194829973Y-70086365D01*
X194657835Y-70201384D01*
X194657834Y-70201385D01*
X194657833Y-70201385D01*
X194466564Y-70280611D01*
X194263516Y-70321000D01*
X194056484Y-70321000D01*
X193853436Y-70280611D01*
X193662167Y-70201385D01*
X193662166Y-70201385D01*
X193662165Y-70201384D01*
X193490027Y-70086365D01*
X193343635Y-69939973D01*
X193228616Y-69767835D01*
X193210199Y-69723373D01*
X193149389Y-69576564D01*
X193109000Y-69373516D01*
X193109000Y-69166484D01*
X193149389Y-68963436D01*
X193228615Y-68772167D01*
X193343635Y-68600027D01*
X193490027Y-68453635D01*
X193619657Y-68367019D01*
X193662165Y-68338616D01*
X193671288Y-68334837D01*
X193853436Y-68259389D01*
X194056484Y-68219000D01*
X194263516Y-68219000D01*
X194466564Y-68259389D01*
G37*
G36*
X210006564Y-68259389D02*
G01*
X210188712Y-68334837D01*
X210197835Y-68338616D01*
X210240343Y-68367019D01*
X210369973Y-68453635D01*
X210516365Y-68600027D01*
X210631385Y-68772167D01*
X210710611Y-68963436D01*
X210751000Y-69166484D01*
X210751000Y-69373516D01*
X210710611Y-69576564D01*
X210649801Y-69723373D01*
X210631384Y-69767835D01*
X210516365Y-69939973D01*
X210369973Y-70086365D01*
X210197835Y-70201384D01*
X210197834Y-70201385D01*
X210197833Y-70201385D01*
X210006564Y-70280611D01*
X209803516Y-70321000D01*
X209596484Y-70321000D01*
X209393436Y-70280611D01*
X209202167Y-70201385D01*
X209202166Y-70201385D01*
X209202165Y-70201384D01*
X209030027Y-70086365D01*
X208883635Y-69939973D01*
X208768616Y-69767835D01*
X208750199Y-69723373D01*
X208689389Y-69576564D01*
X208649000Y-69373516D01*
X208649000Y-69166484D01*
X208689389Y-68963436D01*
X208768615Y-68772167D01*
X208883635Y-68600027D01*
X209030027Y-68453635D01*
X209159657Y-68367019D01*
X209202165Y-68338616D01*
X209211288Y-68334837D01*
X209393436Y-68259389D01*
X209596484Y-68219000D01*
X209803516Y-68219000D01*
X210006564Y-68259389D01*
G37*
G36*
X215405562Y-68255681D02*
G01*
X215440481Y-68266274D01*
X215472663Y-68283476D01*
X215500873Y-68306627D01*
X215524024Y-68334837D01*
X215541226Y-68367019D01*
X215551819Y-68401938D01*
X215556000Y-68444395D01*
X215556000Y-69585605D01*
X215551819Y-69628062D01*
X215541226Y-69662981D01*
X215524024Y-69695163D01*
X215500873Y-69723373D01*
X215472663Y-69746524D01*
X215440481Y-69763726D01*
X215405562Y-69774319D01*
X215363105Y-69778500D01*
X213896895Y-69778500D01*
X213854438Y-69774319D01*
X213819519Y-69763726D01*
X213787337Y-69746524D01*
X213759127Y-69723373D01*
X213735976Y-69695163D01*
X213718774Y-69662981D01*
X213708181Y-69628062D01*
X213704000Y-69585605D01*
X213704000Y-68444395D01*
X213708181Y-68401938D01*
X213718774Y-68367019D01*
X213735976Y-68334837D01*
X213759127Y-68306627D01*
X213787337Y-68283476D01*
X213819519Y-68266274D01*
X213854438Y-68255681D01*
X213896895Y-68251500D01*
X215363105Y-68251500D01*
X215405562Y-68255681D01*
G37*
G36*
X190005562Y-68255681D02*
G01*
X190040481Y-68266274D01*
X190072663Y-68283476D01*
X190100873Y-68306627D01*
X190124024Y-68334837D01*
X190141226Y-68367019D01*
X190151819Y-68401938D01*
X190156000Y-68444395D01*
X190156000Y-69585605D01*
X190151819Y-69628062D01*
X190141226Y-69662981D01*
X190124024Y-69695163D01*
X190100873Y-69723373D01*
X190072663Y-69746524D01*
X190040481Y-69763726D01*
X190005562Y-69774319D01*
X189963105Y-69778500D01*
X188496895Y-69778500D01*
X188454438Y-69774319D01*
X188419519Y-69763726D01*
X188387337Y-69746524D01*
X188359127Y-69723373D01*
X188335976Y-69695163D01*
X188318774Y-69662981D01*
X188308181Y-69628062D01*
X188304000Y-69585605D01*
X188304000Y-68444395D01*
X188308181Y-68401938D01*
X188318774Y-68367019D01*
X188335976Y-68334837D01*
X188359127Y-68306627D01*
X188387337Y-68283476D01*
X188419519Y-68266274D01*
X188454438Y-68255681D01*
X188496895Y-68251500D01*
X189963105Y-68251500D01*
X190005562Y-68255681D01*
G37*
G36*
X225165256Y-63796298D02*
G01*
X225271579Y-63817447D01*
X225572042Y-63941903D01*
X225842451Y-64122585D01*
X226072415Y-64352549D01*
X226253097Y-64622958D01*
X226356882Y-64873516D01*
X226377553Y-64923422D01*
X226441000Y-65242389D01*
X226441000Y-65567611D01*
X226414391Y-65701384D01*
X226377553Y-65886579D01*
X226253097Y-66187042D01*
X226072415Y-66457451D01*
X225842451Y-66687415D01*
X225572042Y-66868097D01*
X225271579Y-66992553D01*
X225165256Y-67013702D01*
X224952611Y-67056000D01*
X224627389Y-67056000D01*
X224414744Y-67013702D01*
X224308421Y-66992553D01*
X224007958Y-66868097D01*
X223737549Y-66687415D01*
X223507585Y-66457451D01*
X223326903Y-66187042D01*
X223202447Y-65886579D01*
X223165609Y-65701384D01*
X223139000Y-65567611D01*
X223139000Y-65242389D01*
X223202447Y-64923422D01*
X223223119Y-64873516D01*
X223326903Y-64622958D01*
X223507585Y-64352549D01*
X223737549Y-64122585D01*
X224007958Y-63941903D01*
X224308421Y-63817447D01*
X224414744Y-63796298D01*
X224627389Y-63754000D01*
X224952611Y-63754000D01*
X225165256Y-63796298D01*
G37*
G36*
X179445256Y-63796298D02*
G01*
X179551579Y-63817447D01*
X179852042Y-63941903D01*
X180122451Y-64122585D01*
X180352415Y-64352549D01*
X180533097Y-64622958D01*
X180636882Y-64873516D01*
X180657553Y-64923422D01*
X180721000Y-65242389D01*
X180721000Y-65567611D01*
X180694391Y-65701384D01*
X180657553Y-65886579D01*
X180533097Y-66187042D01*
X180352415Y-66457451D01*
X180122451Y-66687415D01*
X179852042Y-66868097D01*
X179551579Y-66992553D01*
X179445256Y-67013702D01*
X179232611Y-67056000D01*
X178907389Y-67056000D01*
X178694744Y-67013702D01*
X178588421Y-66992553D01*
X178287958Y-66868097D01*
X178017549Y-66687415D01*
X177787585Y-66457451D01*
X177606903Y-66187042D01*
X177482447Y-65886579D01*
X177445609Y-65701384D01*
X177419000Y-65567611D01*
X177419000Y-65242389D01*
X177482447Y-64923422D01*
X177503119Y-64873516D01*
X177606903Y-64622958D01*
X177787585Y-64352549D01*
X178017549Y-64122585D01*
X178287958Y-63941903D01*
X178588421Y-63817447D01*
X178694744Y-63796298D01*
X178907389Y-63754000D01*
X179232611Y-63754000D01*
X179445256Y-63796298D01*
G37*
G36*
X190005562Y-65280681D02*
G01*
X190040481Y-65291274D01*
X190072663Y-65308476D01*
X190100873Y-65331627D01*
X190124024Y-65359837D01*
X190141226Y-65392019D01*
X190151819Y-65426938D01*
X190156000Y-65469395D01*
X190156000Y-66610605D01*
X190151819Y-66653062D01*
X190141226Y-66687981D01*
X190124024Y-66720163D01*
X190100873Y-66748373D01*
X190072663Y-66771524D01*
X190040481Y-66788726D01*
X190005562Y-66799319D01*
X189963105Y-66803500D01*
X188496895Y-66803500D01*
X188454438Y-66799319D01*
X188419519Y-66788726D01*
X188387337Y-66771524D01*
X188359127Y-66748373D01*
X188335976Y-66720163D01*
X188318774Y-66687981D01*
X188308181Y-66653062D01*
X188304000Y-66610605D01*
X188304000Y-65469395D01*
X188308181Y-65426938D01*
X188318774Y-65392019D01*
X188335976Y-65359837D01*
X188359127Y-65331627D01*
X188387337Y-65308476D01*
X188419519Y-65291274D01*
X188454438Y-65280681D01*
X188496895Y-65276500D01*
X189963105Y-65276500D01*
X190005562Y-65280681D01*
G37*
G36*
X215405562Y-65280681D02*
G01*
X215440481Y-65291274D01*
X215472663Y-65308476D01*
X215500873Y-65331627D01*
X215524024Y-65359837D01*
X215541226Y-65392019D01*
X215551819Y-65426938D01*
X215556000Y-65469395D01*
X215556000Y-66610605D01*
X215551819Y-66653062D01*
X215541226Y-66687981D01*
X215524024Y-66720163D01*
X215500873Y-66748373D01*
X215472663Y-66771524D01*
X215440481Y-66788726D01*
X215405562Y-66799319D01*
X215363105Y-66803500D01*
X213896895Y-66803500D01*
X213854438Y-66799319D01*
X213819519Y-66788726D01*
X213787337Y-66771524D01*
X213759127Y-66748373D01*
X213735976Y-66720163D01*
X213718774Y-66687981D01*
X213708181Y-66653062D01*
X213704000Y-66610605D01*
X213704000Y-65469395D01*
X213708181Y-65426938D01*
X213718774Y-65392019D01*
X213735976Y-65359837D01*
X213759127Y-65331627D01*
X213787337Y-65308476D01*
X213819519Y-65291274D01*
X213854438Y-65280681D01*
X213896895Y-65276500D01*
X215363105Y-65276500D01*
X215405562Y-65280681D01*
G37*
G36*
X210006564Y-63759389D02*
G01*
X210197833Y-63838615D01*
X210197835Y-63838616D01*
X210352413Y-63941902D01*
X210369973Y-63953635D01*
X210516365Y-64100027D01*
X210631385Y-64272167D01*
X210710611Y-64463436D01*
X210751000Y-64666484D01*
X210751000Y-64873516D01*
X210710611Y-65076564D01*
X210641924Y-65242389D01*
X210631384Y-65267835D01*
X210516365Y-65439973D01*
X210369973Y-65586365D01*
X210197835Y-65701384D01*
X210197834Y-65701385D01*
X210197833Y-65701385D01*
X210006564Y-65780611D01*
X209803516Y-65821000D01*
X209596484Y-65821000D01*
X209393436Y-65780611D01*
X209202167Y-65701385D01*
X209202166Y-65701385D01*
X209202165Y-65701384D01*
X209030027Y-65586365D01*
X208883635Y-65439973D01*
X208768616Y-65267835D01*
X208758076Y-65242389D01*
X208689389Y-65076564D01*
X208649000Y-64873516D01*
X208649000Y-64666484D01*
X208689389Y-64463436D01*
X208768615Y-64272167D01*
X208883635Y-64100027D01*
X209030027Y-63953635D01*
X209047587Y-63941902D01*
X209202165Y-63838616D01*
X209202167Y-63838615D01*
X209393436Y-63759389D01*
X209596484Y-63719000D01*
X209803516Y-63719000D01*
X210006564Y-63759389D01*
G37*
G36*
X203506564Y-63759389D02*
G01*
X203697833Y-63838615D01*
X203697835Y-63838616D01*
X203852413Y-63941902D01*
X203869973Y-63953635D01*
X204016365Y-64100027D01*
X204131385Y-64272167D01*
X204210611Y-64463436D01*
X204251000Y-64666484D01*
X204251000Y-64873516D01*
X204210611Y-65076564D01*
X204141924Y-65242389D01*
X204131384Y-65267835D01*
X204016365Y-65439973D01*
X203869973Y-65586365D01*
X203697835Y-65701384D01*
X203697834Y-65701385D01*
X203697833Y-65701385D01*
X203506564Y-65780611D01*
X203303516Y-65821000D01*
X203096484Y-65821000D01*
X202893436Y-65780611D01*
X202702167Y-65701385D01*
X202702166Y-65701385D01*
X202702165Y-65701384D01*
X202530027Y-65586365D01*
X202383635Y-65439973D01*
X202268616Y-65267835D01*
X202258076Y-65242389D01*
X202189389Y-65076564D01*
X202149000Y-64873516D01*
X202149000Y-64666484D01*
X202189389Y-64463436D01*
X202268615Y-64272167D01*
X202383635Y-64100027D01*
X202530027Y-63953635D01*
X202547587Y-63941902D01*
X202702165Y-63838616D01*
X202702167Y-63838615D01*
X202893436Y-63759389D01*
X203096484Y-63719000D01*
X203303516Y-63719000D01*
X203506564Y-63759389D01*
G37*
G36*
X194466564Y-63759389D02*
G01*
X194657833Y-63838615D01*
X194657835Y-63838616D01*
X194812413Y-63941902D01*
X194829973Y-63953635D01*
X194976365Y-64100027D01*
X195091385Y-64272167D01*
X195170611Y-64463436D01*
X195211000Y-64666484D01*
X195211000Y-64873516D01*
X195170611Y-65076564D01*
X195101924Y-65242389D01*
X195091384Y-65267835D01*
X194976365Y-65439973D01*
X194829973Y-65586365D01*
X194657835Y-65701384D01*
X194657834Y-65701385D01*
X194657833Y-65701385D01*
X194466564Y-65780611D01*
X194263516Y-65821000D01*
X194056484Y-65821000D01*
X193853436Y-65780611D01*
X193662167Y-65701385D01*
X193662166Y-65701385D01*
X193662165Y-65701384D01*
X193490027Y-65586365D01*
X193343635Y-65439973D01*
X193228616Y-65267835D01*
X193218076Y-65242389D01*
X193149389Y-65076564D01*
X193109000Y-64873516D01*
X193109000Y-64666484D01*
X193149389Y-64463436D01*
X193228615Y-64272167D01*
X193343635Y-64100027D01*
X193490027Y-63953635D01*
X193507587Y-63941902D01*
X193662165Y-63838616D01*
X193662167Y-63838615D01*
X193853436Y-63759389D01*
X194056484Y-63719000D01*
X194263516Y-63719000D01*
X194466564Y-63759389D01*
G37*
G36*
X200966564Y-63759389D02*
G01*
X201157833Y-63838615D01*
X201157835Y-63838616D01*
X201312413Y-63941902D01*
X201329973Y-63953635D01*
X201476365Y-64100027D01*
X201591385Y-64272167D01*
X201670611Y-64463436D01*
X201711000Y-64666484D01*
X201711000Y-64873516D01*
X201670611Y-65076564D01*
X201601924Y-65242389D01*
X201591384Y-65267835D01*
X201476365Y-65439973D01*
X201329973Y-65586365D01*
X201157835Y-65701384D01*
X201157834Y-65701385D01*
X201157833Y-65701385D01*
X200966564Y-65780611D01*
X200763516Y-65821000D01*
X200556484Y-65821000D01*
X200353436Y-65780611D01*
X200162167Y-65701385D01*
X200162166Y-65701385D01*
X200162165Y-65701384D01*
X199990027Y-65586365D01*
X199843635Y-65439973D01*
X199728616Y-65267835D01*
X199718076Y-65242389D01*
X199649389Y-65076564D01*
X199609000Y-64873516D01*
X199609000Y-64666484D01*
X199649389Y-64463436D01*
X199728615Y-64272167D01*
X199843635Y-64100027D01*
X199990027Y-63953635D01*
X200007587Y-63941902D01*
X200162165Y-63838616D01*
X200162167Y-63838615D01*
X200353436Y-63759389D01*
X200556484Y-63719000D01*
X200763516Y-63719000D01*
X200966564Y-63759389D01*
G37*
G36*
X188468228Y-61411703D02*
G01*
X188623100Y-61475853D01*
X188762481Y-61568985D01*
X188881015Y-61687519D01*
X188974147Y-61826900D01*
X189038297Y-61981772D01*
X189071000Y-62146184D01*
X189071000Y-62313816D01*
X189038297Y-62478228D01*
X188974147Y-62633100D01*
X188881015Y-62772481D01*
X188762481Y-62891015D01*
X188623100Y-62984147D01*
X188468228Y-63048297D01*
X188303816Y-63081000D01*
X188136184Y-63081000D01*
X187971772Y-63048297D01*
X187816900Y-62984147D01*
X187677519Y-62891015D01*
X187558985Y-62772481D01*
X187465853Y-62633100D01*
X187401703Y-62478228D01*
X187369000Y-62313816D01*
X187369000Y-62146184D01*
X187401703Y-61981772D01*
X187465853Y-61826900D01*
X187558985Y-61687519D01*
X187677519Y-61568985D01*
X187816900Y-61475853D01*
X187971772Y-61411703D01*
X188136184Y-61379000D01*
X188303816Y-61379000D01*
X188468228Y-61411703D01*
G37*
G36*
X186126392Y-61383042D02*
G01*
X186159951Y-61393223D01*
X186190884Y-61409757D01*
X186217995Y-61432005D01*
X186240243Y-61459116D01*
X186256777Y-61490049D01*
X186266958Y-61523608D01*
X186271000Y-61564652D01*
X186271000Y-62895348D01*
X186266958Y-62936392D01*
X186256777Y-62969951D01*
X186240243Y-63000884D01*
X186217995Y-63027995D01*
X186190884Y-63050243D01*
X186159951Y-63066777D01*
X186126392Y-63076958D01*
X186085348Y-63081000D01*
X184754652Y-63081000D01*
X184713608Y-63076958D01*
X184680049Y-63066777D01*
X184649116Y-63050243D01*
X184622005Y-63027995D01*
X184599757Y-63000884D01*
X184583223Y-62969951D01*
X184573042Y-62936392D01*
X184569000Y-62895348D01*
X184569000Y-61564652D01*
X184573042Y-61523608D01*
X184583223Y-61490049D01*
X184599757Y-61459116D01*
X184622005Y-61432005D01*
X184649116Y-61409757D01*
X184680049Y-61393223D01*
X184713608Y-61383042D01*
X184754652Y-61379000D01*
X186085348Y-61379000D01*
X186126392Y-61383042D01*
G37*
G36*
X208788228Y-61411703D02*
G01*
X208943100Y-61475853D01*
X209082481Y-61568985D01*
X209201015Y-61687519D01*
X209294147Y-61826900D01*
X209358297Y-61981772D01*
X209391000Y-62146184D01*
X209391000Y-62313816D01*
X209358297Y-62478228D01*
X209294147Y-62633100D01*
X209201015Y-62772481D01*
X209082481Y-62891015D01*
X208943100Y-62984147D01*
X208788228Y-63048297D01*
X208623816Y-63081000D01*
X208456184Y-63081000D01*
X208291772Y-63048297D01*
X208136900Y-62984147D01*
X207997519Y-62891015D01*
X207878985Y-62772481D01*
X207785853Y-62633100D01*
X207721703Y-62478228D01*
X207689000Y-62313816D01*
X207689000Y-62146184D01*
X207721703Y-61981772D01*
X207785853Y-61826900D01*
X207878985Y-61687519D01*
X207997519Y-61568985D01*
X208136900Y-61475853D01*
X208291772Y-61411703D01*
X208456184Y-61379000D01*
X208623816Y-61379000D01*
X208788228Y-61411703D01*
G37*
G36*
X206446392Y-61383042D02*
G01*
X206479951Y-61393223D01*
X206510884Y-61409757D01*
X206537995Y-61432005D01*
X206560243Y-61459116D01*
X206576777Y-61490049D01*
X206586958Y-61523608D01*
X206591000Y-61564652D01*
X206591000Y-62895348D01*
X206586958Y-62936392D01*
X206576777Y-62969951D01*
X206560243Y-63000884D01*
X206537995Y-63027995D01*
X206510884Y-63050243D01*
X206479951Y-63066777D01*
X206446392Y-63076958D01*
X206405348Y-63081000D01*
X205074652Y-63081000D01*
X205033608Y-63076958D01*
X205000049Y-63066777D01*
X204969116Y-63050243D01*
X204942005Y-63027995D01*
X204919757Y-63000884D01*
X204903223Y-62969951D01*
X204893042Y-62936392D01*
X204889000Y-62895348D01*
X204889000Y-61564652D01*
X204893042Y-61523608D01*
X204903223Y-61490049D01*
X204919757Y-61459116D01*
X204942005Y-61432005D01*
X204969116Y-61409757D01*
X205000049Y-61393223D01*
X205033608Y-61383042D01*
X205074652Y-61379000D01*
X206405348Y-61379000D01*
X206446392Y-61383042D01*
G37*
G36*
X196026392Y-61383042D02*
G01*
X196059951Y-61393223D01*
X196090884Y-61409757D01*
X196117995Y-61432005D01*
X196140243Y-61459116D01*
X196156777Y-61490049D01*
X196166958Y-61523608D01*
X196171000Y-61564652D01*
X196171000Y-62895348D01*
X196166958Y-62936392D01*
X196156777Y-62969951D01*
X196140243Y-63000884D01*
X196117995Y-63027995D01*
X196090884Y-63050243D01*
X196059951Y-63066777D01*
X196026392Y-63076958D01*
X195985348Y-63081000D01*
X194654652Y-63081000D01*
X194613608Y-63076958D01*
X194580049Y-63066777D01*
X194549116Y-63050243D01*
X194522005Y-63027995D01*
X194499757Y-63000884D01*
X194483223Y-62969951D01*
X194473042Y-62936392D01*
X194469000Y-62895348D01*
X194469000Y-61564652D01*
X194473042Y-61523608D01*
X194483223Y-61490049D01*
X194499757Y-61459116D01*
X194522005Y-61432005D01*
X194549116Y-61409757D01*
X194580049Y-61393223D01*
X194613608Y-61383042D01*
X194654652Y-61379000D01*
X195985348Y-61379000D01*
X196026392Y-61383042D01*
G37*
G36*
X218688228Y-61411703D02*
G01*
X218843100Y-61475853D01*
X218982481Y-61568985D01*
X219101015Y-61687519D01*
X219194147Y-61826900D01*
X219258297Y-61981772D01*
X219291000Y-62146184D01*
X219291000Y-62313816D01*
X219258297Y-62478228D01*
X219194147Y-62633100D01*
X219101015Y-62772481D01*
X218982481Y-62891015D01*
X218843100Y-62984147D01*
X218688228Y-63048297D01*
X218523816Y-63081000D01*
X218356184Y-63081000D01*
X218191772Y-63048297D01*
X218036900Y-62984147D01*
X217897519Y-62891015D01*
X217778985Y-62772481D01*
X217685853Y-62633100D01*
X217621703Y-62478228D01*
X217589000Y-62313816D01*
X217589000Y-62146184D01*
X217621703Y-61981772D01*
X217685853Y-61826900D01*
X217778985Y-61687519D01*
X217897519Y-61568985D01*
X218036900Y-61475853D01*
X218191772Y-61411703D01*
X218356184Y-61379000D01*
X218523816Y-61379000D01*
X218688228Y-61411703D01*
G37*
G36*
X216346392Y-61383042D02*
G01*
X216379951Y-61393223D01*
X216410884Y-61409757D01*
X216437995Y-61432005D01*
X216460243Y-61459116D01*
X216476777Y-61490049D01*
X216486958Y-61523608D01*
X216491000Y-61564652D01*
X216491000Y-62895348D01*
X216486958Y-62936392D01*
X216476777Y-62969951D01*
X216460243Y-63000884D01*
X216437995Y-63027995D01*
X216410884Y-63050243D01*
X216379951Y-63066777D01*
X216346392Y-63076958D01*
X216305348Y-63081000D01*
X214974652Y-63081000D01*
X214933608Y-63076958D01*
X214900049Y-63066777D01*
X214869116Y-63050243D01*
X214842005Y-63027995D01*
X214819757Y-63000884D01*
X214803223Y-62969951D01*
X214793042Y-62936392D01*
X214789000Y-62895348D01*
X214789000Y-61564652D01*
X214793042Y-61523608D01*
X214803223Y-61490049D01*
X214819757Y-61459116D01*
X214842005Y-61432005D01*
X214869116Y-61409757D01*
X214900049Y-61393223D01*
X214933608Y-61383042D01*
X214974652Y-61379000D01*
X216305348Y-61379000D01*
X216346392Y-61383042D01*
G37*
G36*
X198368228Y-61411703D02*
G01*
X198523100Y-61475853D01*
X198662481Y-61568985D01*
X198781015Y-61687519D01*
X198874147Y-61826900D01*
X198938297Y-61981772D01*
X198971000Y-62146184D01*
X198971000Y-62313816D01*
X198938297Y-62478228D01*
X198874147Y-62633100D01*
X198781015Y-62772481D01*
X198662481Y-62891015D01*
X198523100Y-62984147D01*
X198368228Y-63048297D01*
X198203816Y-63081000D01*
X198036184Y-63081000D01*
X197871772Y-63048297D01*
X197716900Y-62984147D01*
X197577519Y-62891015D01*
X197458985Y-62772481D01*
X197365853Y-62633100D01*
X197301703Y-62478228D01*
X197269000Y-62313816D01*
X197269000Y-62146184D01*
X197301703Y-61981772D01*
X197365853Y-61826900D01*
X197458985Y-61687519D01*
X197577519Y-61568985D01*
X197716900Y-61475853D01*
X197871772Y-61411703D01*
X198036184Y-61379000D01*
X198203816Y-61379000D01*
X198368228Y-61411703D01*
G37*
G36*
X212865562Y-61470681D02*
G01*
X212900481Y-61481274D01*
X212932663Y-61498476D01*
X212960873Y-61521627D01*
X212984024Y-61549837D01*
X213001226Y-61582019D01*
X213011819Y-61616938D01*
X213016000Y-61659395D01*
X213016000Y-62800605D01*
X213011819Y-62843062D01*
X213001226Y-62877981D01*
X212984024Y-62910163D01*
X212960873Y-62938373D01*
X212932663Y-62961524D01*
X212900481Y-62978726D01*
X212865562Y-62989319D01*
X212823105Y-62993500D01*
X211356895Y-62993500D01*
X211314438Y-62989319D01*
X211279519Y-62978726D01*
X211247337Y-62961524D01*
X211219127Y-62938373D01*
X211195976Y-62910163D01*
X211178774Y-62877981D01*
X211168181Y-62843062D01*
X211164000Y-62800605D01*
X211164000Y-61659395D01*
X211168181Y-61616938D01*
X211178774Y-61582019D01*
X211195976Y-61549837D01*
X211219127Y-61521627D01*
X211247337Y-61498476D01*
X211279519Y-61481274D01*
X211314438Y-61470681D01*
X211356895Y-61466500D01*
X212823105Y-61466500D01*
X212865562Y-61470681D01*
G37*
G36*
X192545562Y-61470681D02*
G01*
X192580481Y-61481274D01*
X192612663Y-61498476D01*
X192640873Y-61521627D01*
X192664024Y-61549837D01*
X192681226Y-61582019D01*
X192691819Y-61616938D01*
X192696000Y-61659395D01*
X192696000Y-62800605D01*
X192691819Y-62843062D01*
X192681226Y-62877981D01*
X192664024Y-62910163D01*
X192640873Y-62938373D01*
X192612663Y-62961524D01*
X192580481Y-62978726D01*
X192545562Y-62989319D01*
X192503105Y-62993500D01*
X191036895Y-62993500D01*
X190994438Y-62989319D01*
X190959519Y-62978726D01*
X190927337Y-62961524D01*
X190899127Y-62938373D01*
X190875976Y-62910163D01*
X190858774Y-62877981D01*
X190848181Y-62843062D01*
X190844000Y-62800605D01*
X190844000Y-61659395D01*
X190848181Y-61616938D01*
X190858774Y-61582019D01*
X190875976Y-61549837D01*
X190899127Y-61521627D01*
X190927337Y-61498476D01*
X190959519Y-61481274D01*
X190994438Y-61470681D01*
X191036895Y-61466500D01*
X192503105Y-61466500D01*
X192545562Y-61470681D01*
G37*
G36*
X174365256Y-59351298D02*
G01*
X174471579Y-59372447D01*
X174772042Y-59496903D01*
X175042451Y-59677585D01*
X175272415Y-59907549D01*
X175453097Y-60177958D01*
X175570820Y-60462165D01*
X175577553Y-60478422D01*
X175641000Y-60797389D01*
X175641000Y-61122611D01*
X175598702Y-61335256D01*
X175577553Y-61441579D01*
X175514951Y-61592713D01*
X175456265Y-61734395D01*
X175453097Y-61742042D01*
X175272415Y-62012451D01*
X175042451Y-62242415D01*
X174772042Y-62423097D01*
X174471579Y-62547553D01*
X174365256Y-62568702D01*
X174152611Y-62611000D01*
X173827389Y-62611000D01*
X173614744Y-62568702D01*
X173508421Y-62547553D01*
X173207958Y-62423097D01*
X172937549Y-62242415D01*
X172707585Y-62012451D01*
X172526903Y-61742042D01*
X172523736Y-61734395D01*
X172465049Y-61592713D01*
X172402447Y-61441579D01*
X172381298Y-61335256D01*
X172339000Y-61122611D01*
X172339000Y-60797389D01*
X172402447Y-60478422D01*
X172409181Y-60462165D01*
X172526903Y-60177958D01*
X172707585Y-59907549D01*
X172937549Y-59677585D01*
X173207958Y-59496903D01*
X173508421Y-59372447D01*
X173614744Y-59351298D01*
X173827389Y-59309000D01*
X174152611Y-59309000D01*
X174365256Y-59351298D01*
G37*
G36*
X230245256Y-59351298D02*
G01*
X230351579Y-59372447D01*
X230652042Y-59496903D01*
X230922451Y-59677585D01*
X231152415Y-59907549D01*
X231333097Y-60177958D01*
X231450820Y-60462165D01*
X231457553Y-60478422D01*
X231521000Y-60797389D01*
X231521000Y-61122611D01*
X231478702Y-61335256D01*
X231457553Y-61441579D01*
X231394951Y-61592713D01*
X231336265Y-61734395D01*
X231333097Y-61742042D01*
X231152415Y-62012451D01*
X230922451Y-62242415D01*
X230652042Y-62423097D01*
X230351579Y-62547553D01*
X230245256Y-62568702D01*
X230032611Y-62611000D01*
X229707389Y-62611000D01*
X229494744Y-62568702D01*
X229388421Y-62547553D01*
X229087958Y-62423097D01*
X228817549Y-62242415D01*
X228587585Y-62012451D01*
X228406903Y-61742042D01*
X228403736Y-61734395D01*
X228345049Y-61592713D01*
X228282447Y-61441579D01*
X228261298Y-61335256D01*
X228219000Y-61122611D01*
X228219000Y-60797389D01*
X228282447Y-60478422D01*
X228289181Y-60462165D01*
X228406903Y-60177958D01*
X228587585Y-59907549D01*
X228817549Y-59677585D01*
X229087958Y-59496903D01*
X229388421Y-59372447D01*
X229494744Y-59351298D01*
X229707389Y-59309000D01*
X230032611Y-59309000D01*
X230245256Y-59351298D01*
G37*
G36*
X179376564Y-59949389D02*
G01*
X179533319Y-60014319D01*
X179567835Y-60028616D01*
X179739973Y-60143635D01*
X179886365Y-60290027D01*
X179989345Y-60444147D01*
X180001385Y-60462167D01*
X180080611Y-60653436D01*
X180121000Y-60856484D01*
X180121000Y-61063516D01*
X180080611Y-61266564D01*
X180001385Y-61457833D01*
X180001384Y-61457835D01*
X179886365Y-61629973D01*
X179739973Y-61776365D01*
X179567835Y-61891384D01*
X179567834Y-61891385D01*
X179567833Y-61891385D01*
X179376564Y-61970611D01*
X179173516Y-62011000D01*
X178966484Y-62011000D01*
X178763436Y-61970611D01*
X178572167Y-61891385D01*
X178572166Y-61891385D01*
X178572165Y-61891384D01*
X178400027Y-61776365D01*
X178253635Y-61629973D01*
X178138616Y-61457835D01*
X178138615Y-61457833D01*
X178059389Y-61266564D01*
X178019000Y-61063516D01*
X178019000Y-60856484D01*
X178059389Y-60653436D01*
X178138615Y-60462167D01*
X178150656Y-60444147D01*
X178253635Y-60290027D01*
X178400027Y-60143635D01*
X178572165Y-60028616D01*
X178606681Y-60014319D01*
X178763436Y-59949389D01*
X178966484Y-59909000D01*
X179173516Y-59909000D01*
X179376564Y-59949389D01*
G37*
G36*
X225096564Y-59949389D02*
G01*
X225253319Y-60014319D01*
X225287835Y-60028616D01*
X225459973Y-60143635D01*
X225606365Y-60290027D01*
X225709345Y-60444147D01*
X225721385Y-60462167D01*
X225800611Y-60653436D01*
X225841000Y-60856484D01*
X225841000Y-61063516D01*
X225800611Y-61266564D01*
X225721385Y-61457833D01*
X225721384Y-61457835D01*
X225606365Y-61629973D01*
X225459973Y-61776365D01*
X225287835Y-61891384D01*
X225287834Y-61891385D01*
X225287833Y-61891385D01*
X225096564Y-61970611D01*
X224893516Y-62011000D01*
X224686484Y-62011000D01*
X224483436Y-61970611D01*
X224292167Y-61891385D01*
X224292166Y-61891385D01*
X224292165Y-61891384D01*
X224120027Y-61776365D01*
X223973635Y-61629973D01*
X223858616Y-61457835D01*
X223858615Y-61457833D01*
X223779389Y-61266564D01*
X223739000Y-61063516D01*
X223739000Y-60856484D01*
X223779389Y-60653436D01*
X223858615Y-60462167D01*
X223870656Y-60444147D01*
X223973635Y-60290027D01*
X224120027Y-60143635D01*
X224292165Y-60028616D01*
X224326681Y-60014319D01*
X224483436Y-59949389D01*
X224686484Y-59909000D01*
X224893516Y-59909000D01*
X225096564Y-59949389D01*
G37*
G36*
X185668228Y-58871703D02*
G01*
X185823100Y-58935853D01*
X185962481Y-59028985D01*
X186081015Y-59147519D01*
X186174147Y-59286900D01*
X186238297Y-59441772D01*
X186271000Y-59606184D01*
X186271000Y-59773816D01*
X186238297Y-59938228D01*
X186174147Y-60093100D01*
X186081015Y-60232481D01*
X185962481Y-60351015D01*
X185823100Y-60444147D01*
X185668228Y-60508297D01*
X185503816Y-60541000D01*
X185336184Y-60541000D01*
X185171772Y-60508297D01*
X185016900Y-60444147D01*
X184877519Y-60351015D01*
X184758985Y-60232481D01*
X184665853Y-60093100D01*
X184601703Y-59938228D01*
X184569000Y-59773816D01*
X184569000Y-59606184D01*
X184601703Y-59441772D01*
X184665853Y-59286900D01*
X184758985Y-59147519D01*
X184877519Y-59028985D01*
X185016900Y-58935853D01*
X185171772Y-58871703D01*
X185336184Y-58839000D01*
X185503816Y-58839000D01*
X185668228Y-58871703D01*
G37*
G36*
X195568228Y-58871703D02*
G01*
X195723100Y-58935853D01*
X195862481Y-59028985D01*
X195981015Y-59147519D01*
X196074147Y-59286900D01*
X196138297Y-59441772D01*
X196171000Y-59606184D01*
X196171000Y-59773816D01*
X196138297Y-59938228D01*
X196074147Y-60093100D01*
X195981015Y-60232481D01*
X195862481Y-60351015D01*
X195723100Y-60444147D01*
X195568228Y-60508297D01*
X195403816Y-60541000D01*
X195236184Y-60541000D01*
X195071772Y-60508297D01*
X194916900Y-60444147D01*
X194777519Y-60351015D01*
X194658985Y-60232481D01*
X194565853Y-60093100D01*
X194501703Y-59938228D01*
X194469000Y-59773816D01*
X194469000Y-59606184D01*
X194501703Y-59441772D01*
X194565853Y-59286900D01*
X194658985Y-59147519D01*
X194777519Y-59028985D01*
X194916900Y-58935853D01*
X195071772Y-58871703D01*
X195236184Y-58839000D01*
X195403816Y-58839000D01*
X195568228Y-58871703D01*
G37*
G36*
X198368228Y-58871703D02*
G01*
X198523100Y-58935853D01*
X198662481Y-59028985D01*
X198781015Y-59147519D01*
X198874147Y-59286900D01*
X198938297Y-59441772D01*
X198971000Y-59606184D01*
X198971000Y-59773816D01*
X198938297Y-59938228D01*
X198874147Y-60093100D01*
X198781015Y-60232481D01*
X198662481Y-60351015D01*
X198523100Y-60444147D01*
X198368228Y-60508297D01*
X198203816Y-60541000D01*
X198036184Y-60541000D01*
X197871772Y-60508297D01*
X197716900Y-60444147D01*
X197577519Y-60351015D01*
X197458985Y-60232481D01*
X197365853Y-60093100D01*
X197301703Y-59938228D01*
X197269000Y-59773816D01*
X197269000Y-59606184D01*
X197301703Y-59441772D01*
X197365853Y-59286900D01*
X197458985Y-59147519D01*
X197577519Y-59028985D01*
X197716900Y-58935853D01*
X197871772Y-58871703D01*
X198036184Y-58839000D01*
X198203816Y-58839000D01*
X198368228Y-58871703D01*
G37*
G36*
X205988228Y-58871703D02*
G01*
X206143100Y-58935853D01*
X206282481Y-59028985D01*
X206401015Y-59147519D01*
X206494147Y-59286900D01*
X206558297Y-59441772D01*
X206591000Y-59606184D01*
X206591000Y-59773816D01*
X206558297Y-59938228D01*
X206494147Y-60093100D01*
X206401015Y-60232481D01*
X206282481Y-60351015D01*
X206143100Y-60444147D01*
X205988228Y-60508297D01*
X205823816Y-60541000D01*
X205656184Y-60541000D01*
X205491772Y-60508297D01*
X205336900Y-60444147D01*
X205197519Y-60351015D01*
X205078985Y-60232481D01*
X204985853Y-60093100D01*
X204921703Y-59938228D01*
X204889000Y-59773816D01*
X204889000Y-59606184D01*
X204921703Y-59441772D01*
X204985853Y-59286900D01*
X205078985Y-59147519D01*
X205197519Y-59028985D01*
X205336900Y-58935853D01*
X205491772Y-58871703D01*
X205656184Y-58839000D01*
X205823816Y-58839000D01*
X205988228Y-58871703D01*
G37*
G36*
X188468228Y-58871703D02*
G01*
X188623100Y-58935853D01*
X188762481Y-59028985D01*
X188881015Y-59147519D01*
X188974147Y-59286900D01*
X189038297Y-59441772D01*
X189071000Y-59606184D01*
X189071000Y-59773816D01*
X189038297Y-59938228D01*
X188974147Y-60093100D01*
X188881015Y-60232481D01*
X188762481Y-60351015D01*
X188623100Y-60444147D01*
X188468228Y-60508297D01*
X188303816Y-60541000D01*
X188136184Y-60541000D01*
X187971772Y-60508297D01*
X187816900Y-60444147D01*
X187677519Y-60351015D01*
X187558985Y-60232481D01*
X187465853Y-60093100D01*
X187401703Y-59938228D01*
X187369000Y-59773816D01*
X187369000Y-59606184D01*
X187401703Y-59441772D01*
X187465853Y-59286900D01*
X187558985Y-59147519D01*
X187677519Y-59028985D01*
X187816900Y-58935853D01*
X187971772Y-58871703D01*
X188136184Y-58839000D01*
X188303816Y-58839000D01*
X188468228Y-58871703D01*
G37*
G36*
X208788228Y-58871703D02*
G01*
X208943100Y-58935853D01*
X209082481Y-59028985D01*
X209201015Y-59147519D01*
X209294147Y-59286900D01*
X209358297Y-59441772D01*
X209391000Y-59606184D01*
X209391000Y-59773816D01*
X209358297Y-59938228D01*
X209294147Y-60093100D01*
X209201015Y-60232481D01*
X209082481Y-60351015D01*
X208943100Y-60444147D01*
X208788228Y-60508297D01*
X208623816Y-60541000D01*
X208456184Y-60541000D01*
X208291772Y-60508297D01*
X208136900Y-60444147D01*
X207997519Y-60351015D01*
X207878985Y-60232481D01*
X207785853Y-60093100D01*
X207721703Y-59938228D01*
X207689000Y-59773816D01*
X207689000Y-59606184D01*
X207721703Y-59441772D01*
X207785853Y-59286900D01*
X207878985Y-59147519D01*
X207997519Y-59028985D01*
X208136900Y-58935853D01*
X208291772Y-58871703D01*
X208456184Y-58839000D01*
X208623816Y-58839000D01*
X208788228Y-58871703D01*
G37*
G36*
X215888228Y-58871703D02*
G01*
X216043100Y-58935853D01*
X216182481Y-59028985D01*
X216301015Y-59147519D01*
X216394147Y-59286900D01*
X216458297Y-59441772D01*
X216491000Y-59606184D01*
X216491000Y-59773816D01*
X216458297Y-59938228D01*
X216394147Y-60093100D01*
X216301015Y-60232481D01*
X216182481Y-60351015D01*
X216043100Y-60444147D01*
X215888228Y-60508297D01*
X215723816Y-60541000D01*
X215556184Y-60541000D01*
X215391772Y-60508297D01*
X215236900Y-60444147D01*
X215097519Y-60351015D01*
X214978985Y-60232481D01*
X214885853Y-60093100D01*
X214821703Y-59938228D01*
X214789000Y-59773816D01*
X214789000Y-59606184D01*
X214821703Y-59441772D01*
X214885853Y-59286900D01*
X214978985Y-59147519D01*
X215097519Y-59028985D01*
X215236900Y-58935853D01*
X215391772Y-58871703D01*
X215556184Y-58839000D01*
X215723816Y-58839000D01*
X215888228Y-58871703D01*
G37*
G36*
X218688228Y-58871703D02*
G01*
X218843100Y-58935853D01*
X218982481Y-59028985D01*
X219101015Y-59147519D01*
X219194147Y-59286900D01*
X219258297Y-59441772D01*
X219291000Y-59606184D01*
X219291000Y-59773816D01*
X219258297Y-59938228D01*
X219194147Y-60093100D01*
X219101015Y-60232481D01*
X218982481Y-60351015D01*
X218843100Y-60444147D01*
X218688228Y-60508297D01*
X218523816Y-60541000D01*
X218356184Y-60541000D01*
X218191772Y-60508297D01*
X218036900Y-60444147D01*
X217897519Y-60351015D01*
X217778985Y-60232481D01*
X217685853Y-60093100D01*
X217621703Y-59938228D01*
X217589000Y-59773816D01*
X217589000Y-59606184D01*
X217621703Y-59441772D01*
X217685853Y-59286900D01*
X217778985Y-59147519D01*
X217897519Y-59028985D01*
X218036900Y-58935853D01*
X218191772Y-58871703D01*
X218356184Y-58839000D01*
X218523816Y-58839000D01*
X218688228Y-58871703D01*
G37*
G36*
X192545562Y-58495681D02*
G01*
X192580481Y-58506274D01*
X192612663Y-58523476D01*
X192640873Y-58546627D01*
X192664024Y-58574837D01*
X192681226Y-58607019D01*
X192691819Y-58641938D01*
X192696000Y-58684395D01*
X192696000Y-59825605D01*
X192691819Y-59868062D01*
X192681226Y-59902981D01*
X192664024Y-59935163D01*
X192640873Y-59963373D01*
X192612663Y-59986524D01*
X192580481Y-60003726D01*
X192545562Y-60014319D01*
X192503105Y-60018500D01*
X191036895Y-60018500D01*
X190994438Y-60014319D01*
X190959519Y-60003726D01*
X190927337Y-59986524D01*
X190899127Y-59963373D01*
X190875976Y-59935163D01*
X190858774Y-59902981D01*
X190848181Y-59868062D01*
X190844000Y-59825605D01*
X190844000Y-58684395D01*
X190848181Y-58641938D01*
X190858774Y-58607019D01*
X190875976Y-58574837D01*
X190899127Y-58546627D01*
X190927337Y-58523476D01*
X190959519Y-58506274D01*
X190994438Y-58495681D01*
X191036895Y-58491500D01*
X192503105Y-58491500D01*
X192545562Y-58495681D01*
G37*
G36*
X212865562Y-58495681D02*
G01*
X212900481Y-58506274D01*
X212932663Y-58523476D01*
X212960873Y-58546627D01*
X212984024Y-58574837D01*
X213001226Y-58607019D01*
X213011819Y-58641938D01*
X213016000Y-58684395D01*
X213016000Y-59825605D01*
X213011819Y-59868062D01*
X213001226Y-59902981D01*
X212984024Y-59935163D01*
X212960873Y-59963373D01*
X212932663Y-59986524D01*
X212900481Y-60003726D01*
X212865562Y-60014319D01*
X212823105Y-60018500D01*
X211356895Y-60018500D01*
X211314438Y-60014319D01*
X211279519Y-60003726D01*
X211247337Y-59986524D01*
X211219127Y-59963373D01*
X211195976Y-59935163D01*
X211178774Y-59902981D01*
X211168181Y-59868062D01*
X211164000Y-59825605D01*
X211164000Y-58684395D01*
X211168181Y-58641938D01*
X211178774Y-58607019D01*
X211195976Y-58574837D01*
X211219127Y-58546627D01*
X211247337Y-58523476D01*
X211279519Y-58506274D01*
X211314438Y-58495681D01*
X211356895Y-58491500D01*
X212823105Y-58491500D01*
X212865562Y-58495681D01*
G37*
M02*
